%TF.GenerationSoftware,KiCad,Pcbnew,8.0.5*%
%TF.CreationDate,2025-01-30T01:50:55+01:00*%
%TF.ProjectId,LAMP_OUTDOOR_BATTERY_PANEL,4c414d50-5f4f-4555-9444-4f4f525f4241,rev?*%
%TF.SameCoordinates,Original*%
%TF.FileFunction,Copper,L2,Bot*%
%TF.FilePolarity,Positive*%
%FSLAX46Y46*%
G04 Gerber Fmt 4.6, Leading zero omitted, Abs format (unit mm)*
G04 Created by KiCad (PCBNEW 8.0.5) date 2025-01-30 01:50:55*
%MOMM*%
%LPD*%
G01*
G04 APERTURE LIST*
%TA.AperFunction,ComponentPad*%
%ADD10O,1.800000X1.000000*%
%TD*%
%TA.AperFunction,ComponentPad*%
%ADD11O,2.100000X1.000000*%
%TD*%
%TA.AperFunction,ConnectorPad*%
%ADD12C,4.700000*%
%TD*%
%TA.AperFunction,ComponentPad*%
%ADD13C,3.100000*%
%TD*%
%TA.AperFunction,ComponentPad*%
%ADD14O,1.700000X1.700000*%
%TD*%
%TA.AperFunction,ComponentPad*%
%ADD15R,1.700000X1.700000*%
%TD*%
%TA.AperFunction,ViaPad*%
%ADD16C,0.600000*%
%TD*%
%TA.AperFunction,Conductor*%
%ADD17C,0.500000*%
%TD*%
%TA.AperFunction,Conductor*%
%ADD18C,1.000000*%
%TD*%
%TA.AperFunction,Conductor*%
%ADD19C,0.200000*%
%TD*%
G04 APERTURE END LIST*
D10*
%TO.P,J1,S4*%
%TO.N,GND*%
X138205000Y-96250000D03*
%TO.P,J1,S3*%
X138205000Y-87610000D03*
D11*
%TO.P,J1,S2*%
X142385000Y-96250000D03*
%TO.P,J1,S1*%
X142385000Y-87610000D03*
%TD*%
D12*
%TO.P,REF\u002A\u002A,1*%
%TO.N,N/C*%
X157764700Y-123050400D03*
D13*
X157764700Y-123050400D03*
%TD*%
D12*
%TO.P,REF\u002A\u002A,1*%
%TO.N,N/C*%
X157764700Y-60789600D03*
D13*
X157764700Y-60789600D03*
%TD*%
D12*
%TO.P,,1*%
%TO.N,N/C*%
X157764700Y-123050400D03*
%TD*%
D14*
%TO.P,SW1,2,B*%
%TO.N,/IN*%
X148290000Y-98810000D03*
D15*
%TO.P,SW1,1,A*%
%TO.N,+BATT*%
X150830000Y-98810000D03*
%TD*%
D12*
%TO.P,REF\u002A\u002A,1*%
%TO.N,N/C*%
X184294400Y-123050400D03*
D13*
X184294400Y-123050400D03*
%TD*%
D12*
%TO.P,,1*%
%TO.N,N/C*%
X184294400Y-123050400D03*
%TD*%
%TO.P,REF\u002A\u002A,1*%
%TO.N,N/C*%
X184294400Y-60789600D03*
D13*
X184294400Y-60789600D03*
%TD*%
D14*
%TO.P,SW1,2,B*%
%TO.N,/IN*%
X174819700Y-98810000D03*
D15*
%TO.P,SW1,1,A*%
%TO.N,+BATT*%
X177359700Y-98810000D03*
%TD*%
D10*
%TO.P,J1,S4*%
%TO.N,GND*%
X164734700Y-96250000D03*
%TO.P,J1,S3*%
X164734700Y-87610000D03*
D11*
%TO.P,J1,S2*%
X168914700Y-96250000D03*
%TO.P,J1,S1*%
X168914700Y-87610000D03*
%TD*%
D12*
%TO.P,REF\u002A\u002A,1*%
%TO.N,N/C*%
X210824400Y-123050400D03*
D13*
X210824400Y-123050400D03*
%TD*%
D12*
%TO.P,,1*%
%TO.N,N/C*%
X210824400Y-123050400D03*
%TD*%
%TO.P,REF\u002A\u002A,1*%
%TO.N,N/C*%
X210824400Y-60789600D03*
D13*
X210824400Y-60789600D03*
%TD*%
D14*
%TO.P,SW1,2,B*%
%TO.N,/IN*%
X201349700Y-98810000D03*
D15*
%TO.P,SW1,1,A*%
%TO.N,+BATT*%
X203889700Y-98810000D03*
%TD*%
D10*
%TO.P,J1,S4*%
%TO.N,GND*%
X191264700Y-96250000D03*
%TO.P,J1,S3*%
X191264700Y-87610000D03*
D11*
%TO.P,J1,S2*%
X195444700Y-96250000D03*
%TO.P,J1,S1*%
X195444700Y-87610000D03*
%TD*%
D16*
%TO.N,+5V*%
X146460000Y-109250000D03*
X145100000Y-105550000D03*
X143820000Y-101790000D03*
%TO.N,GND*%
X150190000Y-107410000D03*
X151820000Y-69850000D03*
X155690000Y-88110000D03*
X151820000Y-76460718D03*
X150790000Y-101180000D03*
X155690000Y-91520718D03*
X147230000Y-69820000D03*
X159060000Y-91520000D03*
X159090000Y-97739282D03*
X151820000Y-73260718D03*
X155300000Y-76390718D03*
X158720000Y-69750000D03*
X155300000Y-73190718D03*
X148190000Y-96800000D03*
X143570000Y-99660000D03*
X140270000Y-91460000D03*
X154200000Y-115680000D03*
X152750000Y-119020000D03*
X147230000Y-76430718D03*
X141120000Y-98230000D03*
X159060000Y-94930718D03*
X159060000Y-88320000D03*
X155720000Y-97740000D03*
X155690000Y-94720718D03*
X159450000Y-105380000D03*
X152549282Y-115680000D03*
X147230000Y-73230718D03*
X147900000Y-93320000D03*
X144990000Y-94710000D03*
X155720000Y-100940000D03*
X140270000Y-88480000D03*
X140910000Y-85690000D03*
X158720000Y-76360718D03*
X159140000Y-100910000D03*
X158720000Y-72950000D03*
X150480000Y-96850000D03*
X155510000Y-107300000D03*
X151099282Y-119020000D03*
X155300000Y-69780000D03*
X159470000Y-107340000D03*
X140270000Y-94280000D03*
X144690000Y-87640000D03*
%TO.N,+BATT*%
X151160000Y-85960000D03*
X151160000Y-87360000D03*
X152410000Y-87360000D03*
X153110000Y-66490000D03*
X154450000Y-81130000D03*
X152410000Y-85960000D03*
X154180000Y-66490000D03*
X152220000Y-67080000D03*
%TO.N,/Battery-*%
X153870000Y-117380000D03*
X149980000Y-84450000D03*
X149980000Y-85700000D03*
X152480000Y-117380000D03*
X148580000Y-84450000D03*
X148580000Y-85700000D03*
%TO.N,+5V*%
X172989700Y-109250000D03*
X171629700Y-105550000D03*
X170349700Y-101790000D03*
%TO.N,GND*%
X176719700Y-107410000D03*
X178349700Y-69850000D03*
X182219700Y-88110000D03*
X178349700Y-76460718D03*
X177319700Y-101180000D03*
X182219700Y-91520718D03*
X173759700Y-69820000D03*
X185589700Y-91520000D03*
X185619700Y-97739282D03*
%TO.N,+BATT*%
X178939700Y-85960000D03*
%TO.N,GND*%
X178349700Y-73260718D03*
X170099700Y-99660000D03*
%TO.N,/Battery-*%
X176509700Y-84450000D03*
%TO.N,GND*%
X185249700Y-69750000D03*
X167439700Y-85690000D03*
X171219700Y-87640000D03*
%TO.N,+BATT*%
X178939700Y-87360000D03*
%TO.N,GND*%
X166799700Y-91460000D03*
X182249700Y-97740000D03*
X171519700Y-94710000D03*
X174719700Y-96800000D03*
X180729700Y-115680000D03*
X179279700Y-119020000D03*
X185589700Y-88320000D03*
X179078982Y-115680000D03*
X181829700Y-73190718D03*
X181829700Y-76390718D03*
X182219700Y-94720718D03*
X185669700Y-100910000D03*
X166799700Y-88480000D03*
X181829700Y-69780000D03*
X185249700Y-76360718D03*
X182039700Y-107300000D03*
X182249700Y-100940000D03*
X177628982Y-119020000D03*
X166799700Y-94280000D03*
X173759700Y-76430718D03*
X173759700Y-73230718D03*
X177009700Y-96850000D03*
X185999700Y-107340000D03*
X167649700Y-98230000D03*
X185979700Y-105380000D03*
X185589700Y-94930718D03*
X174429700Y-93320000D03*
X185249700Y-72950000D03*
%TO.N,+BATT*%
X177689700Y-85960000D03*
X177689700Y-87360000D03*
X179639700Y-66490000D03*
X180979700Y-81130000D03*
X180709700Y-66490000D03*
X178749700Y-67080000D03*
%TO.N,/Battery-*%
X180399700Y-117380000D03*
X176509700Y-85700000D03*
X175109700Y-84450000D03*
X175109700Y-85700000D03*
X179009700Y-117380000D03*
%TO.N,+5V*%
X199519700Y-109250000D03*
X198159700Y-105550000D03*
X196879700Y-101790000D03*
%TO.N,GND*%
X203249700Y-107410000D03*
X204879700Y-69850000D03*
X208749700Y-88110000D03*
X204879700Y-76460718D03*
X203849700Y-101180000D03*
X208749700Y-91520718D03*
X200289700Y-69820000D03*
X212119700Y-91520000D03*
X212149700Y-97739282D03*
%TO.N,+BATT*%
X205469700Y-85960000D03*
%TO.N,GND*%
X204879700Y-73260718D03*
X196629700Y-99660000D03*
%TO.N,/Battery-*%
X203039700Y-84450000D03*
%TO.N,GND*%
X211779700Y-69750000D03*
X193969700Y-85690000D03*
X197749700Y-87640000D03*
%TO.N,+BATT*%
X205469700Y-87360000D03*
%TO.N,GND*%
X193329700Y-91460000D03*
X208779700Y-97740000D03*
X198049700Y-94710000D03*
X201249700Y-96800000D03*
X207259700Y-115680000D03*
X205809700Y-119020000D03*
X212119700Y-88320000D03*
X205608982Y-115680000D03*
X208359700Y-73190718D03*
X208359700Y-76390718D03*
X208749700Y-94720718D03*
X212199700Y-100910000D03*
X193329700Y-88480000D03*
X208359700Y-69780000D03*
X211779700Y-76360718D03*
X208569700Y-107300000D03*
X208779700Y-100940000D03*
X204158982Y-119020000D03*
X193329700Y-94280000D03*
X200289700Y-76430718D03*
X200289700Y-73230718D03*
X203539700Y-96850000D03*
X212529700Y-107340000D03*
X194179700Y-98230000D03*
X212509700Y-105380000D03*
X212119700Y-94930718D03*
X200959700Y-93320000D03*
X211779700Y-72950000D03*
%TO.N,+BATT*%
X204219700Y-85960000D03*
X204219700Y-87360000D03*
X206169700Y-66490000D03*
X207509700Y-81130000D03*
X207239700Y-66490000D03*
X205279700Y-67080000D03*
%TO.N,/Battery-*%
X206929700Y-117380000D03*
X203039700Y-85700000D03*
X201639700Y-84450000D03*
X201639700Y-85700000D03*
X205539700Y-117380000D03*
%TD*%
D17*
%TO.N,+5V*%
X145100000Y-105550000D02*
X145100000Y-107890000D01*
X143820000Y-104270000D02*
X145100000Y-105550000D01*
X145100000Y-107890000D02*
X146460000Y-109250000D01*
X143820000Y-101790000D02*
X143820000Y-104270000D01*
D18*
%TO.N,+BATT*%
X151697107Y-84752893D02*
X149360000Y-82415786D01*
X151697107Y-84752893D02*
X151697107Y-85422893D01*
X152410000Y-85960000D02*
X152410000Y-85465786D01*
X152810000Y-66490000D02*
X152220000Y-67080000D01*
X149360000Y-82415786D02*
X149360000Y-69940000D01*
D19*
X154450000Y-81130000D02*
X152410000Y-83170000D01*
D18*
X151697107Y-85422893D02*
X151160000Y-85960000D01*
D19*
X152410000Y-83170000D02*
X152410000Y-85960000D01*
D18*
X154180000Y-66490000D02*
X153110000Y-66490000D01*
X153110000Y-66490000D02*
X152810000Y-66490000D01*
X152410000Y-85465786D02*
X151697107Y-84752893D01*
X149360000Y-69940000D02*
X152220000Y-67080000D01*
%TO.N,/Battery-*%
X148825000Y-86855000D02*
X148825000Y-85945000D01*
X148825000Y-85945000D02*
X148580000Y-85700000D01*
X152480000Y-117380000D02*
X151820000Y-117380000D01*
X152380000Y-101340000D02*
X152380000Y-90840000D01*
X152380000Y-90840000D02*
X148610000Y-87070000D01*
X148610000Y-87070000D02*
X149980000Y-85700000D01*
X148520000Y-105200000D02*
X152380000Y-101340000D01*
X148520000Y-114080000D02*
X148520000Y-105200000D01*
X153870000Y-117380000D02*
X152480000Y-117380000D01*
X151820000Y-117380000D02*
X148520000Y-114080000D01*
X148610000Y-87070000D02*
X148825000Y-86855000D01*
%TO.N,+BATT*%
X178226807Y-85422893D02*
X177689700Y-85960000D01*
X180709700Y-66490000D02*
X179639700Y-66490000D01*
X178939700Y-85465786D02*
X178226807Y-84752893D01*
X175889700Y-69940000D02*
X178749700Y-67080000D01*
X178939700Y-85960000D02*
X178939700Y-85465786D01*
X178226807Y-84752893D02*
X178226807Y-85422893D01*
X179639700Y-66490000D02*
X179339700Y-66490000D01*
D19*
X180979700Y-81130000D02*
X178939700Y-83170000D01*
X178939700Y-83170000D02*
X178939700Y-85960000D01*
D18*
X178226807Y-84752893D02*
X175889700Y-82415786D01*
D17*
%TO.N,+5V*%
X170349700Y-104270000D02*
X171629700Y-105550000D01*
X171629700Y-105550000D02*
X171629700Y-107890000D01*
X170349700Y-101790000D02*
X170349700Y-104270000D01*
D18*
%TO.N,+BATT*%
X179339700Y-66490000D02*
X178749700Y-67080000D01*
X175889700Y-82415786D02*
X175889700Y-69940000D01*
D17*
%TO.N,+5V*%
X171629700Y-107890000D02*
X172989700Y-109250000D01*
D18*
%TO.N,/Battery-*%
X180399700Y-117380000D02*
X179009700Y-117380000D01*
X178909700Y-90840000D02*
X175139700Y-87070000D01*
X175049700Y-105200000D02*
X178909700Y-101340000D01*
X175139700Y-87070000D02*
X175354700Y-86855000D01*
X175049700Y-114080000D02*
X175049700Y-105200000D01*
X178909700Y-101340000D02*
X178909700Y-90840000D01*
X178349700Y-117380000D02*
X175049700Y-114080000D01*
X175354700Y-85945000D02*
X175109700Y-85700000D01*
X175354700Y-86855000D02*
X175354700Y-85945000D01*
X175139700Y-87070000D02*
X176509700Y-85700000D01*
X179009700Y-117380000D02*
X178349700Y-117380000D01*
%TO.N,+BATT*%
X204756807Y-85422893D02*
X204219700Y-85960000D01*
X207239700Y-66490000D02*
X206169700Y-66490000D01*
X205469700Y-85465786D02*
X204756807Y-84752893D01*
X202419700Y-69940000D02*
X205279700Y-67080000D01*
X205469700Y-85960000D02*
X205469700Y-85465786D01*
X204756807Y-84752893D02*
X204756807Y-85422893D01*
X206169700Y-66490000D02*
X205869700Y-66490000D01*
D19*
X207509700Y-81130000D02*
X205469700Y-83170000D01*
X205469700Y-83170000D02*
X205469700Y-85960000D01*
D18*
X204756807Y-84752893D02*
X202419700Y-82415786D01*
D17*
%TO.N,+5V*%
X196879700Y-104270000D02*
X198159700Y-105550000D01*
X198159700Y-105550000D02*
X198159700Y-107890000D01*
X196879700Y-101790000D02*
X196879700Y-104270000D01*
D18*
%TO.N,+BATT*%
X205869700Y-66490000D02*
X205279700Y-67080000D01*
X202419700Y-82415786D02*
X202419700Y-69940000D01*
D17*
%TO.N,+5V*%
X198159700Y-107890000D02*
X199519700Y-109250000D01*
D18*
%TO.N,/Battery-*%
X206929700Y-117380000D02*
X205539700Y-117380000D01*
X205439700Y-90840000D02*
X201669700Y-87070000D01*
X201579700Y-105200000D02*
X205439700Y-101340000D01*
X201669700Y-87070000D02*
X201884700Y-86855000D01*
X201579700Y-114080000D02*
X201579700Y-105200000D01*
X205439700Y-101340000D02*
X205439700Y-90840000D01*
X204879700Y-117380000D02*
X201579700Y-114080000D01*
X201884700Y-85945000D02*
X201639700Y-85700000D01*
X201884700Y-86855000D02*
X201884700Y-85945000D01*
X201669700Y-87070000D02*
X203039700Y-85700000D01*
X205539700Y-117380000D02*
X204879700Y-117380000D01*
%TD*%
%TA.AperFunction,Conductor*%
%TO.N,/Battery-*%
G36*
X150027910Y-84074352D02*
G01*
X150525648Y-84572090D01*
X150540000Y-84606738D01*
X150540000Y-85616571D01*
X150536270Y-85635322D01*
X150486420Y-85755670D01*
X150486418Y-85755679D01*
X150459500Y-85891002D01*
X150459500Y-86031000D01*
X150445148Y-86065648D01*
X150410500Y-86080000D01*
X148129000Y-86080000D01*
X148094352Y-86065648D01*
X148080000Y-86031000D01*
X148080000Y-84109000D01*
X148094352Y-84074352D01*
X148129000Y-84060000D01*
X149993262Y-84060000D01*
X150027910Y-84074352D01*
G37*
%TD.AperFunction*%
%TD*%
%TA.AperFunction,Conductor*%
%TO.N,+BATT*%
G36*
X152775648Y-85414352D02*
G01*
X152790000Y-85449000D01*
X152790000Y-87811000D01*
X152775648Y-87845648D01*
X152741000Y-87860000D01*
X150819000Y-87860000D01*
X150784352Y-87845648D01*
X150770000Y-87811000D01*
X150770000Y-85449000D01*
X150784352Y-85414352D01*
X150819000Y-85400000D01*
X152741000Y-85400000D01*
X152775648Y-85414352D01*
G37*
%TD.AperFunction*%
%TD*%
%TA.AperFunction,Conductor*%
%TO.N,GND*%
G36*
X155598726Y-59381202D02*
G01*
X155609050Y-59417256D01*
X155601739Y-59437946D01*
X155525261Y-59558457D01*
X155388615Y-59848843D01*
X155289442Y-60154065D01*
X155229307Y-60469308D01*
X155209157Y-60789595D01*
X155209157Y-60789604D01*
X155229307Y-61109891D01*
X155289442Y-61425134D01*
X155388615Y-61730356D01*
X155525261Y-62020742D01*
X155697219Y-62291706D01*
X155901783Y-62538983D01*
X155901790Y-62538991D01*
X156135731Y-62758676D01*
X156135734Y-62758678D01*
X156135736Y-62758680D01*
X156395372Y-62947316D01*
X156676603Y-63101924D01*
X156974994Y-63220066D01*
X157285839Y-63299877D01*
X157604236Y-63340100D01*
X157604237Y-63340100D01*
X157925163Y-63340100D01*
X157925164Y-63340100D01*
X158243561Y-63299877D01*
X158554406Y-63220066D01*
X158852797Y-63101924D01*
X159134028Y-62947316D01*
X159393664Y-62758680D01*
X159627611Y-62538990D01*
X159832178Y-62291710D01*
X160004139Y-62020742D01*
X160140784Y-61730358D01*
X160168597Y-61644756D01*
X160192953Y-61616240D01*
X160230341Y-61613297D01*
X160258858Y-61637653D01*
X160264199Y-61659899D01*
X160264199Y-88815895D01*
X160298306Y-88943184D01*
X160298307Y-88943188D01*
X160364199Y-89057314D01*
X160457385Y-89150500D01*
X160499156Y-89174617D01*
X160571510Y-89216391D01*
X160571513Y-89216392D01*
X160627826Y-89231481D01*
X160657579Y-89254311D01*
X160662474Y-89291493D01*
X160653454Y-89309362D01*
X160564312Y-89421143D01*
X160564309Y-89421147D01*
X160433132Y-89648353D01*
X160337279Y-89892582D01*
X160278897Y-90148366D01*
X160278896Y-90148375D01*
X160259291Y-90410000D01*
X160278896Y-90671624D01*
X160278897Y-90671633D01*
X160337279Y-90927417D01*
X160433132Y-91171646D01*
X160564309Y-91398852D01*
X160564312Y-91398856D01*
X160727894Y-91603981D01*
X160920218Y-91782431D01*
X160920226Y-91782438D01*
X160960948Y-91810201D01*
X160978602Y-91822237D01*
X160999146Y-91853613D01*
X161000000Y-91862723D01*
X161000000Y-91967276D01*
X160985648Y-92001924D01*
X160978603Y-92007762D01*
X160920220Y-92047566D01*
X160920218Y-92047568D01*
X160727894Y-92226018D01*
X160564312Y-92431143D01*
X160564309Y-92431147D01*
X160433132Y-92658353D01*
X160337279Y-92902582D01*
X160278897Y-93158366D01*
X160278896Y-93158375D01*
X160259291Y-93420000D01*
X160278896Y-93681624D01*
X160278897Y-93681633D01*
X160337279Y-93937417D01*
X160433132Y-94181646D01*
X160564309Y-94408852D01*
X160564312Y-94408856D01*
X160660046Y-94528903D01*
X160670428Y-94564940D01*
X160652287Y-94597764D01*
X160634427Y-94606782D01*
X160632554Y-94607284D01*
X160630715Y-94607777D01*
X160577869Y-94621937D01*
X160571300Y-94622801D01*
X160566046Y-94626834D01*
X160457508Y-94689499D01*
X160457507Y-94689500D01*
X160410915Y-94736091D01*
X160387618Y-94759388D01*
X160364321Y-94782684D01*
X160358695Y-94792431D01*
X160358694Y-94792433D01*
X160298429Y-94896811D01*
X160298427Y-94896816D01*
X160286796Y-94940228D01*
X160286796Y-94940229D01*
X160264320Y-95024104D01*
X160264202Y-122180111D01*
X160249850Y-122214759D01*
X160215202Y-122229111D01*
X160180554Y-122214759D01*
X160168601Y-122195255D01*
X160140784Y-122109642D01*
X160004139Y-121819258D01*
X159832178Y-121548290D01*
X159627611Y-121301010D01*
X159627609Y-121301008D01*
X159393668Y-121081323D01*
X159393660Y-121081317D01*
X159134035Y-120892689D01*
X159134029Y-120892685D01*
X159134030Y-120892685D01*
X159134028Y-120892684D01*
X158852797Y-120738076D01*
X158749984Y-120697369D01*
X158554407Y-120619934D01*
X158243560Y-120540122D01*
X157925166Y-120499900D01*
X157925164Y-120499900D01*
X157604236Y-120499900D01*
X157604233Y-120499900D01*
X157285839Y-120540122D01*
X156974992Y-120619934D01*
X156676600Y-120738077D01*
X156395370Y-120892685D01*
X156395364Y-120892689D01*
X156135739Y-121081317D01*
X156135731Y-121081323D01*
X155901790Y-121301008D01*
X155901783Y-121301016D01*
X155697219Y-121548293D01*
X155525261Y-121819257D01*
X155388615Y-122109643D01*
X155289442Y-122414865D01*
X155229307Y-122730108D01*
X155209157Y-123050395D01*
X155209157Y-123050404D01*
X155229307Y-123370691D01*
X155289442Y-123685934D01*
X155388615Y-123991156D01*
X155525261Y-124281542D01*
X155601727Y-124402034D01*
X155608175Y-124438978D01*
X155586610Y-124469661D01*
X155549666Y-124476109D01*
X155529866Y-124466648D01*
X155274723Y-124263854D01*
X155273606Y-124262939D01*
X154333417Y-123469353D01*
X154332328Y-123468406D01*
X153415925Y-122647468D01*
X153414864Y-122646489D01*
X152523044Y-121798913D01*
X152522012Y-121797903D01*
X151655547Y-120924423D01*
X151654546Y-120923384D01*
X150814189Y-120024760D01*
X150813218Y-120023691D01*
X149999680Y-119100678D01*
X149998742Y-119099581D01*
X149212778Y-118153041D01*
X149211872Y-118151917D01*
X148867815Y-117711807D01*
X148454083Y-117182571D01*
X148453246Y-117181465D01*
X147724372Y-116190258D01*
X147723538Y-116189089D01*
X147024174Y-115176831D01*
X147023371Y-115175631D01*
X146602616Y-114526543D01*
X146354115Y-114143187D01*
X146353391Y-114142032D01*
X145714846Y-113090333D01*
X145714116Y-113089089D01*
X145106845Y-112019061D01*
X145106174Y-112017839D01*
X144530640Y-110930293D01*
X144530049Y-110929136D01*
X143986779Y-109825063D01*
X143986211Y-109823864D01*
X143475725Y-108704316D01*
X143475178Y-108703069D01*
X142997914Y-107569017D01*
X142997402Y-107567750D01*
X142553724Y-106420057D01*
X142553261Y-106418802D01*
X142143605Y-105258594D01*
X142143175Y-105257319D01*
X141767875Y-104085546D01*
X141767456Y-104084168D01*
X141426855Y-102901907D01*
X141426476Y-102900514D01*
X141197688Y-102008361D01*
X141141689Y-101789997D01*
X143314353Y-101789997D01*
X143314353Y-101790001D01*
X143334835Y-101932457D01*
X143334835Y-101932458D01*
X143365072Y-101998665D01*
X143369500Y-102019021D01*
X143369500Y-104329310D01*
X143393713Y-104419672D01*
X143393713Y-104419673D01*
X143400200Y-104443886D01*
X143400201Y-104443888D01*
X143459511Y-104546614D01*
X144616551Y-105703654D01*
X144626474Y-105717946D01*
X144645071Y-105758665D01*
X144649500Y-105779021D01*
X144649500Y-107949310D01*
X144673713Y-108039672D01*
X144673713Y-108039673D01*
X144680200Y-108063886D01*
X144680201Y-108063888D01*
X144739511Y-108166614D01*
X145976551Y-109403654D01*
X145986475Y-109417946D01*
X146034623Y-109523373D01*
X146034624Y-109523374D01*
X146034625Y-109523376D01*
X146128871Y-109632142D01*
X146128872Y-109632143D01*
X146249947Y-109709953D01*
X146326785Y-109732514D01*
X146388034Y-109750499D01*
X146388037Y-109750499D01*
X146388039Y-109750500D01*
X146388040Y-109750500D01*
X146531960Y-109750500D01*
X146531961Y-109750500D01*
X146531963Y-109750499D01*
X146531965Y-109750499D01*
X146554795Y-109743795D01*
X146670053Y-109709953D01*
X146791128Y-109632143D01*
X146885377Y-109523373D01*
X146945165Y-109392457D01*
X146945165Y-109392455D01*
X146945166Y-109392454D01*
X146965647Y-109250002D01*
X146965647Y-109249997D01*
X146945166Y-109107545D01*
X146940751Y-109097879D01*
X146885377Y-108976627D01*
X146791128Y-108867857D01*
X146670053Y-108790047D01*
X146670050Y-108790046D01*
X146635472Y-108779893D01*
X146614629Y-108767526D01*
X145564852Y-107717749D01*
X145550500Y-107683101D01*
X145550500Y-105779021D01*
X145554928Y-105758665D01*
X145573524Y-105717946D01*
X145585165Y-105692457D01*
X145605647Y-105550000D01*
X145597043Y-105490156D01*
X145585166Y-105407545D01*
X145580751Y-105397879D01*
X145525377Y-105276627D01*
X145509792Y-105258641D01*
X145431128Y-105167857D01*
X145373782Y-105131003D01*
X147819500Y-105131003D01*
X147819500Y-114148997D01*
X147846418Y-114284320D01*
X147846420Y-114284328D01*
X147899225Y-114411811D01*
X147975886Y-114526543D01*
X151373457Y-117924114D01*
X151488189Y-118000775D01*
X151615672Y-118053580D01*
X151751006Y-118080500D01*
X153938993Y-118080500D01*
X154074328Y-118053580D01*
X154201811Y-118000775D01*
X154316542Y-117924114D01*
X154414114Y-117826542D01*
X154490775Y-117711811D01*
X154543580Y-117584328D01*
X154570500Y-117448993D01*
X154570500Y-117311007D01*
X154543580Y-117175672D01*
X154490775Y-117048189D01*
X154444613Y-116979102D01*
X154414116Y-116933460D01*
X154316539Y-116835883D01*
X154248074Y-116790137D01*
X154201811Y-116759225D01*
X154201808Y-116759223D01*
X154201807Y-116759223D01*
X154074329Y-116706420D01*
X154074318Y-116706417D01*
X153938998Y-116679500D01*
X153938993Y-116679500D01*
X152548993Y-116679500D01*
X152130453Y-116679500D01*
X152095805Y-116665148D01*
X149234852Y-113804195D01*
X149220500Y-113769547D01*
X149220500Y-105510452D01*
X149234852Y-105475804D01*
X150937959Y-103772697D01*
X152924113Y-101786543D01*
X152961433Y-101730691D01*
X153000775Y-101671811D01*
X153053580Y-101544328D01*
X153080500Y-101408993D01*
X153080500Y-90771007D01*
X153060733Y-90671630D01*
X153053582Y-90635681D01*
X153053579Y-90635670D01*
X153000776Y-90508192D01*
X153000775Y-90508189D01*
X152924114Y-90393457D01*
X150636049Y-88105392D01*
X150621697Y-88070744D01*
X150636049Y-88036096D01*
X150670697Y-88021744D01*
X150699052Y-88030781D01*
X150705709Y-88035505D01*
X150740357Y-88049857D01*
X150819000Y-88065500D01*
X150819003Y-88065500D01*
X152740997Y-88065500D01*
X152741000Y-88065500D01*
X152819643Y-88049857D01*
X152854291Y-88035505D01*
X152912581Y-87998879D01*
X152912581Y-87998877D01*
X152912583Y-87998877D01*
X152939043Y-87961585D01*
X152965505Y-87924291D01*
X152979857Y-87889643D01*
X152995500Y-87811000D01*
X152995500Y-86359467D01*
X153003758Y-86332244D01*
X153013758Y-86317278D01*
X153030775Y-86291811D01*
X153083580Y-86164328D01*
X153110500Y-86028993D01*
X153110500Y-85396793D01*
X153105558Y-85371950D01*
X153083580Y-85261458D01*
X153030775Y-85133975D01*
X152954114Y-85019243D01*
X152724852Y-84789981D01*
X152710500Y-84755333D01*
X152710500Y-83314766D01*
X152724851Y-83280119D01*
X154360118Y-81644851D01*
X154394766Y-81630500D01*
X154521960Y-81630500D01*
X154521961Y-81630500D01*
X154521963Y-81630499D01*
X154521965Y-81630499D01*
X154544795Y-81623795D01*
X154660053Y-81589953D01*
X154781128Y-81512143D01*
X154875377Y-81403373D01*
X154935165Y-81272457D01*
X154935165Y-81272455D01*
X154935166Y-81272454D01*
X154955647Y-81130002D01*
X154955647Y-81129997D01*
X154935166Y-80987545D01*
X154913216Y-80939483D01*
X154875377Y-80856627D01*
X154781128Y-80747857D01*
X154660053Y-80670047D01*
X154660050Y-80670046D01*
X154521965Y-80629500D01*
X154521961Y-80629500D01*
X154378039Y-80629500D01*
X154378034Y-80629500D01*
X154239949Y-80670046D01*
X154118871Y-80747857D01*
X154024625Y-80856623D01*
X154024624Y-80856625D01*
X153964833Y-80987545D01*
X153944353Y-81129997D01*
X153944353Y-81130001D01*
X153951003Y-81176256D01*
X153941728Y-81212594D01*
X153937150Y-81217877D01*
X152225489Y-82929540D01*
X152169541Y-82985488D01*
X152169540Y-82985488D01*
X152129979Y-83054008D01*
X152129979Y-83054010D01*
X152109500Y-83130436D01*
X152109500Y-84056333D01*
X152095148Y-84090981D01*
X152060500Y-84105333D01*
X152025852Y-84090981D01*
X150074852Y-82139981D01*
X150060500Y-82105333D01*
X150060500Y-70250453D01*
X150074852Y-70215805D01*
X153085805Y-67204852D01*
X153120453Y-67190500D01*
X154248993Y-67190500D01*
X154384328Y-67163580D01*
X154511811Y-67110775D01*
X154626542Y-67034114D01*
X154724114Y-66936542D01*
X154800775Y-66821811D01*
X154853580Y-66694328D01*
X154880500Y-66558993D01*
X154880500Y-66421007D01*
X154853580Y-66285672D01*
X154800775Y-66158189D01*
X154754613Y-66089102D01*
X154724116Y-66043460D01*
X154626539Y-65945883D01*
X154558074Y-65900137D01*
X154511811Y-65869225D01*
X154511808Y-65869223D01*
X154511807Y-65869223D01*
X154384329Y-65816420D01*
X154384318Y-65816417D01*
X154248998Y-65789500D01*
X154248993Y-65789500D01*
X153178993Y-65789500D01*
X152878994Y-65789500D01*
X152741006Y-65789500D01*
X152741002Y-65789500D01*
X152605679Y-65816418D01*
X152605670Y-65816420D01*
X152478192Y-65869223D01*
X152363457Y-65945885D01*
X148815885Y-69493457D01*
X148739223Y-69608192D01*
X148686420Y-69735670D01*
X148686417Y-69735681D01*
X148659500Y-69871001D01*
X148659500Y-82484783D01*
X148686418Y-82620106D01*
X148686420Y-82620114D01*
X148739225Y-82747597D01*
X148790561Y-82824427D01*
X148815885Y-82862328D01*
X149724409Y-83770852D01*
X149738761Y-83805500D01*
X149724409Y-83840148D01*
X149689761Y-83854500D01*
X148129000Y-83854500D01*
X148089859Y-83862285D01*
X148050359Y-83870142D01*
X148050349Y-83870145D01*
X148015716Y-83884491D01*
X148015710Y-83884494D01*
X148015709Y-83884495D01*
X147997618Y-83895861D01*
X147957416Y-83921122D01*
X147904496Y-83995706D01*
X147890144Y-84030353D01*
X147890142Y-84030359D01*
X147884976Y-84056333D01*
X147874500Y-84109000D01*
X147874500Y-86031000D01*
X147884880Y-86083187D01*
X147890142Y-86109640D01*
X147890145Y-86109650D01*
X147904491Y-86144283D01*
X147904490Y-86144283D01*
X147941122Y-86202583D01*
X148015430Y-86255307D01*
X148015709Y-86255505D01*
X148050357Y-86269857D01*
X148085059Y-86276759D01*
X148116242Y-86297595D01*
X148124500Y-86324818D01*
X148124500Y-86544547D01*
X148110148Y-86579195D01*
X148065885Y-86623457D01*
X147989223Y-86738192D01*
X147936420Y-86865670D01*
X147936418Y-86865679D01*
X147909500Y-87001002D01*
X147909500Y-87138997D01*
X147936418Y-87274320D01*
X147936420Y-87274329D01*
X147986624Y-87395532D01*
X147989225Y-87401811D01*
X148034453Y-87469500D01*
X148065885Y-87516542D01*
X151665148Y-91115805D01*
X151679500Y-91150453D01*
X151679500Y-97710500D01*
X151665148Y-97745148D01*
X151630500Y-97759500D01*
X149960252Y-97759500D01*
X149901769Y-97771133D01*
X149835447Y-97815447D01*
X149791133Y-97881769D01*
X149779500Y-97940252D01*
X149779500Y-99679748D01*
X149791133Y-99738231D01*
X149808882Y-99764795D01*
X149835447Y-99804552D01*
X149862012Y-99822301D01*
X149901769Y-99848867D01*
X149960252Y-99860500D01*
X151630500Y-99860500D01*
X151665148Y-99874852D01*
X151679500Y-99909500D01*
X151679500Y-101029547D01*
X151665148Y-101064195D01*
X147975885Y-104753457D01*
X147899223Y-104868192D01*
X147846420Y-104995670D01*
X147846417Y-104995681D01*
X147827647Y-105090047D01*
X147827647Y-105090048D01*
X147819500Y-105131003D01*
X145373782Y-105131003D01*
X145310053Y-105090047D01*
X145310050Y-105090046D01*
X145275472Y-105079893D01*
X145254629Y-105067526D01*
X144284852Y-104097749D01*
X144270500Y-104063101D01*
X144270500Y-102019021D01*
X144274928Y-101998665D01*
X144305165Y-101932457D01*
X144325647Y-101790000D01*
X144325647Y-101789997D01*
X144305166Y-101647545D01*
X144300751Y-101637879D01*
X144245377Y-101516627D01*
X144151128Y-101407857D01*
X144030053Y-101330047D01*
X144030050Y-101330046D01*
X143891965Y-101289500D01*
X143891961Y-101289500D01*
X143748039Y-101289500D01*
X143748034Y-101289500D01*
X143609949Y-101330046D01*
X143488871Y-101407857D01*
X143394625Y-101516623D01*
X143394624Y-101516625D01*
X143334833Y-101647545D01*
X143314353Y-101789997D01*
X141141689Y-101789997D01*
X141120844Y-101708711D01*
X141120521Y-101707370D01*
X140850128Y-100507065D01*
X140849846Y-100505725D01*
X140614920Y-99297934D01*
X140614667Y-99296516D01*
X140534832Y-98810000D01*
X147234417Y-98810000D01*
X147254700Y-99015934D01*
X147314768Y-99213954D01*
X147412315Y-99396450D01*
X147543590Y-99556410D01*
X147703550Y-99687685D01*
X147886046Y-99785232D01*
X148084066Y-99845300D01*
X148290000Y-99865583D01*
X148495934Y-99845300D01*
X148693954Y-99785232D01*
X148876450Y-99687685D01*
X149036410Y-99556410D01*
X149167685Y-99396450D01*
X149265232Y-99213954D01*
X149325300Y-99015934D01*
X149345583Y-98810000D01*
X149325300Y-98604066D01*
X149265232Y-98406046D01*
X149167685Y-98223550D01*
X149036410Y-98063590D01*
X148876450Y-97932315D01*
X148693954Y-97834768D01*
X148495934Y-97774700D01*
X148290000Y-97754417D01*
X148084065Y-97774700D01*
X148084064Y-97774700D01*
X147886043Y-97834769D01*
X147703548Y-97932316D01*
X147543590Y-98063590D01*
X147412316Y-98223548D01*
X147314769Y-98406043D01*
X147254700Y-98604064D01*
X147254700Y-98604065D01*
X147254700Y-98604066D01*
X147234417Y-98810000D01*
X140534832Y-98810000D01*
X140415444Y-98082446D01*
X140415231Y-98081018D01*
X140255690Y-96890207D01*
X140255256Y-96883700D01*
X140255256Y-96854107D01*
X140253602Y-96847938D01*
X140248410Y-96828561D01*
X140247087Y-96821686D01*
X140243962Y-96795423D01*
X140231596Y-96764487D01*
X140229770Y-96758992D01*
X140221148Y-96726814D01*
X140221147Y-96726811D01*
X140207927Y-96703914D01*
X140204862Y-96697600D01*
X140195051Y-96673053D01*
X140195050Y-96673052D01*
X140175101Y-96646373D01*
X140171909Y-96641530D01*
X140155255Y-96612685D01*
X140136561Y-96593991D01*
X140131967Y-96588687D01*
X140130046Y-96586118D01*
X140116132Y-96567510D01*
X140089950Y-96546897D01*
X140085622Y-96543052D01*
X140062070Y-96519500D01*
X140039172Y-96506280D01*
X140033360Y-96502344D01*
X140012592Y-96485992D01*
X140012588Y-96485990D01*
X139981970Y-96472858D01*
X139976788Y-96470262D01*
X139947944Y-96453608D01*
X139947940Y-96453607D01*
X139922400Y-96446763D01*
X139915770Y-96444466D01*
X139891473Y-96434046D01*
X139886874Y-96433382D01*
X139858486Y-96429285D01*
X139852823Y-96428121D01*
X139839135Y-96424453D01*
X139820650Y-96419500D01*
X139820648Y-96419500D01*
X139794208Y-96419500D01*
X139787208Y-96418997D01*
X139761041Y-96415220D01*
X139761040Y-96415220D01*
X139745147Y-96417111D01*
X139727958Y-96419157D01*
X139722168Y-96419500D01*
X138791201Y-96419500D01*
X138756553Y-96405148D01*
X138742201Y-96370500D01*
X138742201Y-95104117D01*
X137604721Y-95104117D01*
X137604721Y-96370500D01*
X137590369Y-96405148D01*
X137555721Y-96419500D01*
X137284500Y-96419500D01*
X137249852Y-96405148D01*
X137235500Y-96370500D01*
X137235500Y-94744230D01*
X141309500Y-94744230D01*
X141309500Y-94895769D01*
X141348718Y-95042133D01*
X141348719Y-95042137D01*
X141376218Y-95089765D01*
X141424485Y-95173365D01*
X141531635Y-95280515D01*
X141607396Y-95324256D01*
X141662861Y-95356279D01*
X141662865Y-95356281D01*
X141768405Y-95384559D01*
X141798156Y-95407387D01*
X141804721Y-95431888D01*
X141804721Y-97355141D01*
X142942201Y-97355141D01*
X142942201Y-95104117D01*
X142468531Y-95104117D01*
X142433883Y-95089765D01*
X142419531Y-95055117D01*
X142421201Y-95042435D01*
X142448587Y-94940228D01*
X142460499Y-94895769D01*
X142460500Y-94895769D01*
X142460500Y-94744231D01*
X142460499Y-94744230D01*
X142428178Y-94623607D01*
X142421281Y-94597865D01*
X142421280Y-94597864D01*
X142421280Y-94597862D01*
X142345514Y-94466634D01*
X142238365Y-94359485D01*
X142107137Y-94283719D01*
X142107133Y-94283718D01*
X141960769Y-94244500D01*
X141960766Y-94244500D01*
X141809234Y-94244500D01*
X141809231Y-94244500D01*
X141662866Y-94283718D01*
X141662862Y-94283719D01*
X141531634Y-94359485D01*
X141531634Y-94359486D01*
X141424486Y-94466634D01*
X141424485Y-94466634D01*
X141348719Y-94597862D01*
X141348718Y-94597866D01*
X141309500Y-94744230D01*
X137235500Y-94744230D01*
X137235500Y-88964230D01*
X141309500Y-88964230D01*
X141309500Y-89115769D01*
X141348718Y-89262133D01*
X141348719Y-89262137D01*
X141424485Y-89393365D01*
X141531635Y-89500515D01*
X141579666Y-89528246D01*
X141662862Y-89576280D01*
X141662864Y-89576280D01*
X141662865Y-89576281D01*
X141778303Y-89607212D01*
X141809230Y-89615499D01*
X141809231Y-89615500D01*
X141809234Y-89615500D01*
X141960769Y-89615500D01*
X141960769Y-89615499D01*
X142107135Y-89576281D01*
X142238365Y-89500515D01*
X142345515Y-89393365D01*
X142421281Y-89262135D01*
X142460499Y-89115769D01*
X142460500Y-89115769D01*
X142460500Y-88964231D01*
X142460499Y-88964230D01*
X142421002Y-88816823D01*
X142425897Y-88779641D01*
X142455650Y-88756811D01*
X142468332Y-88755141D01*
X142942201Y-88755141D01*
X142942201Y-86504117D01*
X141804721Y-86504117D01*
X141804721Y-88428110D01*
X141790369Y-88462758D01*
X141768403Y-88475440D01*
X141662865Y-88503718D01*
X141662862Y-88503719D01*
X141531634Y-88579485D01*
X141531634Y-88579486D01*
X141424486Y-88686634D01*
X141424485Y-88686634D01*
X141348719Y-88817862D01*
X141348718Y-88817866D01*
X141309500Y-88964230D01*
X137235500Y-88964230D01*
X137235500Y-87469500D01*
X137249852Y-87434852D01*
X137284500Y-87420500D01*
X137555721Y-87420500D01*
X137590369Y-87434852D01*
X137604721Y-87469500D01*
X137604721Y-88755141D01*
X138742201Y-88755141D01*
X138742201Y-87469500D01*
X138756553Y-87434852D01*
X138791201Y-87420500D01*
X139722169Y-87420500D01*
X139727959Y-87420843D01*
X139729304Y-87421003D01*
X139761041Y-87424780D01*
X139787209Y-87421002D01*
X139794209Y-87420500D01*
X139820647Y-87420500D01*
X139820649Y-87420500D01*
X139852829Y-87411876D01*
X139858489Y-87410713D01*
X139891473Y-87405954D01*
X139915772Y-87395531D01*
X139922397Y-87393236D01*
X139947943Y-87386392D01*
X139976793Y-87369734D01*
X139981976Y-87367139D01*
X139994597Y-87361725D01*
X140012589Y-87354010D01*
X140033363Y-87337653D01*
X140039172Y-87333720D01*
X140043738Y-87331083D01*
X140062071Y-87320500D01*
X140085633Y-87296936D01*
X140089965Y-87293091D01*
X140116133Y-87272490D01*
X140131972Y-87251305D01*
X140136547Y-87246022D01*
X140155257Y-87227314D01*
X140171915Y-87198459D01*
X140175101Y-87193626D01*
X140195051Y-87166948D01*
X140204866Y-87142388D01*
X140207923Y-87136092D01*
X140221149Y-87113186D01*
X140229775Y-87080990D01*
X140231595Y-87075516D01*
X140243963Y-87044577D01*
X140247088Y-87018312D01*
X140248411Y-87011437D01*
X140255257Y-86985892D01*
X140255257Y-86956237D01*
X140255691Y-86949730D01*
X140343964Y-86290862D01*
X140415225Y-85758970D01*
X140415437Y-85757552D01*
X140474636Y-85396793D01*
X140614663Y-84543465D01*
X140614915Y-84542060D01*
X140699148Y-84109003D01*
X140849842Y-83334258D01*
X140850118Y-83332946D01*
X141120518Y-82132611D01*
X141120833Y-82131302D01*
X141426472Y-80939469D01*
X141426848Y-80938090D01*
X141767450Y-79755829D01*
X141767870Y-79754448D01*
X142143175Y-78582657D01*
X142143591Y-78581423D01*
X142553263Y-77421171D01*
X142553710Y-77419961D01*
X142997405Y-76272224D01*
X142997898Y-76271004D01*
X143475183Y-75136901D01*
X143475708Y-75135704D01*
X143986217Y-74016105D01*
X143986761Y-74014958D01*
X144530055Y-72910835D01*
X144530633Y-72909704D01*
X145106169Y-71822155D01*
X145106815Y-71820977D01*
X145714127Y-70750876D01*
X145714822Y-70749692D01*
X146353404Y-69697932D01*
X146354090Y-69696838D01*
X147023394Y-68664319D01*
X147024139Y-68663207D01*
X147723558Y-67650868D01*
X147724342Y-67649769D01*
X148453265Y-66658496D01*
X148454052Y-66657456D01*
X149211887Y-65688051D01*
X149212750Y-65686981D01*
X149998771Y-64740371D01*
X149999640Y-64739354D01*
X150813254Y-63816257D01*
X150814141Y-63815280D01*
X151654569Y-62916580D01*
X151655513Y-62915600D01*
X152522010Y-62042087D01*
X152523039Y-62041081D01*
X152849982Y-61730358D01*
X153414897Y-61193469D01*
X153415881Y-61192561D01*
X154332359Y-60371556D01*
X154333376Y-60370672D01*
X155273639Y-59577024D01*
X155274681Y-59576171D01*
X155529879Y-59373331D01*
X155565932Y-59363008D01*
X155598726Y-59381202D01*
G37*
%TD.AperFunction*%
%TD*%
%TA.AperFunction,Conductor*%
%TO.N,GND*%
G36*
X182128426Y-59381202D02*
G01*
X182138750Y-59417256D01*
X182131439Y-59437946D01*
X182054961Y-59558457D01*
X181918315Y-59848843D01*
X181819142Y-60154065D01*
X181759007Y-60469308D01*
X181738857Y-60789595D01*
X181738857Y-60789604D01*
X181759007Y-61109891D01*
X181819142Y-61425134D01*
X181918315Y-61730356D01*
X182054961Y-62020742D01*
X182226919Y-62291706D01*
X182431483Y-62538983D01*
X182431490Y-62538991D01*
X182665431Y-62758676D01*
X182665434Y-62758678D01*
X182665436Y-62758680D01*
X182925072Y-62947316D01*
X183206303Y-63101924D01*
X183504694Y-63220066D01*
X183815539Y-63299877D01*
X184133936Y-63340100D01*
X184133937Y-63340100D01*
X184454863Y-63340100D01*
X184454864Y-63340100D01*
X184773261Y-63299877D01*
X185084106Y-63220066D01*
X185382497Y-63101924D01*
X185663728Y-62947316D01*
X185923364Y-62758680D01*
X186157311Y-62538990D01*
X186361878Y-62291710D01*
X186533839Y-62020742D01*
X186670484Y-61730358D01*
X186698471Y-61644221D01*
X186722826Y-61615706D01*
X186760214Y-61612763D01*
X186788731Y-61637119D01*
X186794072Y-61659355D01*
X186799499Y-88751080D01*
X186799499Y-88815931D01*
X186799502Y-88815955D01*
X186816731Y-88880206D01*
X186816733Y-88880215D01*
X186833608Y-88943194D01*
X186833640Y-88943270D01*
X186833646Y-88943280D01*
X186866637Y-89000396D01*
X186866639Y-89000406D01*
X186866642Y-89000405D01*
X186899497Y-89057312D01*
X186899565Y-89057400D01*
X186947422Y-89105237D01*
X186992684Y-89150499D01*
X186992687Y-89150502D01*
X186992762Y-89150560D01*
X186992764Y-89150561D01*
X186992765Y-89150562D01*
X187051920Y-89184699D01*
X187051926Y-89184706D01*
X187051927Y-89184703D01*
X187083617Y-89202999D01*
X187106814Y-89216393D01*
X187106902Y-89216429D01*
X187106903Y-89216429D01*
X187106906Y-89216431D01*
X187163115Y-89231480D01*
X187192873Y-89254305D01*
X187197775Y-89291486D01*
X187188752Y-89309364D01*
X187099608Y-89421149D01*
X186968432Y-89648353D01*
X186872579Y-89892582D01*
X186814197Y-90148366D01*
X186814196Y-90148375D01*
X186794591Y-90410000D01*
X186814196Y-90671624D01*
X186814197Y-90671633D01*
X186872579Y-90927417D01*
X186968432Y-91171646D01*
X187099609Y-91398852D01*
X187099612Y-91398856D01*
X187263194Y-91603981D01*
X187455518Y-91782431D01*
X187455526Y-91782438D01*
X187493403Y-91808261D01*
X187508302Y-91818419D01*
X187528846Y-91849795D01*
X187529700Y-91858905D01*
X187529700Y-91971094D01*
X187515348Y-92005742D01*
X187508303Y-92011580D01*
X187455520Y-92047566D01*
X187455518Y-92047568D01*
X187263194Y-92226018D01*
X187099612Y-92431143D01*
X187099609Y-92431147D01*
X186968432Y-92658353D01*
X186872579Y-92902582D01*
X186814197Y-93158366D01*
X186814196Y-93158375D01*
X186794591Y-93420000D01*
X186814196Y-93681624D01*
X186814197Y-93681633D01*
X186872579Y-93937417D01*
X186968432Y-94181646D01*
X187099609Y-94408852D01*
X187099612Y-94408856D01*
X187195346Y-94528902D01*
X187205728Y-94564939D01*
X187187587Y-94597763D01*
X187169709Y-94606786D01*
X187107018Y-94623571D01*
X187106944Y-94623602D01*
X187051480Y-94655624D01*
X187051472Y-94655629D01*
X186992863Y-94689452D01*
X186992827Y-94689479D01*
X186946292Y-94736014D01*
X186946285Y-94736020D01*
X186899672Y-94782614D01*
X186899630Y-94782669D01*
X186866486Y-94840077D01*
X186866481Y-94840085D01*
X186833750Y-94896749D01*
X186833738Y-94896778D01*
X186816893Y-94959644D01*
X186816891Y-94959652D01*
X186799623Y-95024045D01*
X186799621Y-95024064D01*
X186799621Y-95087549D01*
X186794077Y-122180658D01*
X186779718Y-122215303D01*
X186745067Y-122229648D01*
X186710422Y-122215289D01*
X186698475Y-122195790D01*
X186670484Y-122109643D01*
X186653047Y-122072587D01*
X186533839Y-121819258D01*
X186361878Y-121548290D01*
X186157311Y-121301010D01*
X186157309Y-121301008D01*
X185923368Y-121081323D01*
X185923360Y-121081317D01*
X185663735Y-120892689D01*
X185663729Y-120892685D01*
X185663730Y-120892685D01*
X185663728Y-120892684D01*
X185382497Y-120738076D01*
X185279684Y-120697369D01*
X185084107Y-120619934D01*
X184773260Y-120540122D01*
X184454866Y-120499900D01*
X184454864Y-120499900D01*
X184133936Y-120499900D01*
X184133933Y-120499900D01*
X183815539Y-120540122D01*
X183504692Y-120619934D01*
X183206300Y-120738077D01*
X182925070Y-120892685D01*
X182925064Y-120892689D01*
X182665439Y-121081317D01*
X182665431Y-121081323D01*
X182431490Y-121301008D01*
X182431483Y-121301016D01*
X182226919Y-121548293D01*
X182054961Y-121819257D01*
X181918315Y-122109643D01*
X181819142Y-122414865D01*
X181759007Y-122730108D01*
X181738857Y-123050395D01*
X181738857Y-123050404D01*
X181759007Y-123370691D01*
X181819142Y-123685934D01*
X181918315Y-123991156D01*
X182054961Y-124281542D01*
X182131426Y-124402032D01*
X182137874Y-124438976D01*
X182116309Y-124469659D01*
X182079365Y-124476107D01*
X182059565Y-124466646D01*
X181804424Y-124263853D01*
X181803307Y-124262938D01*
X180863118Y-123469352D01*
X180862029Y-123468405D01*
X179945626Y-122647467D01*
X179944565Y-122646488D01*
X179052746Y-121798911D01*
X179051714Y-121797901D01*
X178185233Y-120924405D01*
X178184232Y-120923365D01*
X177343908Y-120024774D01*
X177342937Y-120023706D01*
X176529382Y-119100676D01*
X176528444Y-119099579D01*
X175742480Y-118153038D01*
X175741574Y-118151914D01*
X175297854Y-117584318D01*
X174983786Y-117182569D01*
X174982949Y-117181463D01*
X174254075Y-116190256D01*
X174253241Y-116189087D01*
X173553869Y-115176817D01*
X173553074Y-115175629D01*
X172883818Y-114143185D01*
X172883094Y-114142030D01*
X172244549Y-113090330D01*
X172243819Y-113089086D01*
X171636557Y-112019073D01*
X171635863Y-112017808D01*
X171598170Y-111946582D01*
X171060362Y-110930328D01*
X171059734Y-110929098D01*
X170516482Y-109825061D01*
X170515914Y-109823862D01*
X170005428Y-108704314D01*
X170004881Y-108703067D01*
X169527616Y-107569015D01*
X169527104Y-107567748D01*
X169083426Y-106420056D01*
X169082963Y-106418801D01*
X168673306Y-105258593D01*
X168672876Y-105257318D01*
X168297576Y-104085545D01*
X168297157Y-104084167D01*
X167956555Y-102901906D01*
X167956176Y-102900513D01*
X167730121Y-102019021D01*
X167671389Y-101789997D01*
X169844053Y-101789997D01*
X169844053Y-101790001D01*
X169864535Y-101932457D01*
X169864535Y-101932458D01*
X169894772Y-101998665D01*
X169899200Y-102019021D01*
X169899200Y-104329310D01*
X169923413Y-104419672D01*
X169923413Y-104419673D01*
X169929900Y-104443886D01*
X169929901Y-104443888D01*
X169989211Y-104546614D01*
X171146251Y-105703654D01*
X171156174Y-105717946D01*
X171174771Y-105758665D01*
X171179200Y-105779021D01*
X171179200Y-107949310D01*
X171203413Y-108039672D01*
X171203413Y-108039673D01*
X171209900Y-108063886D01*
X171209901Y-108063888D01*
X171269211Y-108166614D01*
X172506251Y-109403654D01*
X172516175Y-109417946D01*
X172564323Y-109523373D01*
X172564324Y-109523374D01*
X172564325Y-109523376D01*
X172658571Y-109632142D01*
X172658572Y-109632143D01*
X172779647Y-109709953D01*
X172856485Y-109732514D01*
X172917734Y-109750499D01*
X172917737Y-109750499D01*
X172917739Y-109750500D01*
X172917740Y-109750500D01*
X173061660Y-109750500D01*
X173061661Y-109750500D01*
X173061663Y-109750499D01*
X173061665Y-109750499D01*
X173084495Y-109743795D01*
X173199753Y-109709953D01*
X173320828Y-109632143D01*
X173415077Y-109523373D01*
X173474865Y-109392457D01*
X173474865Y-109392455D01*
X173474866Y-109392454D01*
X173495347Y-109250002D01*
X173495347Y-109249997D01*
X173474866Y-109107545D01*
X173470451Y-109097879D01*
X173415077Y-108976627D01*
X173320828Y-108867857D01*
X173199753Y-108790047D01*
X173199750Y-108790046D01*
X173165172Y-108779893D01*
X173144329Y-108767526D01*
X172094552Y-107717749D01*
X172080200Y-107683101D01*
X172080200Y-105779021D01*
X172084628Y-105758665D01*
X172103224Y-105717946D01*
X172114865Y-105692457D01*
X172135347Y-105550000D01*
X172126743Y-105490156D01*
X172114866Y-105407545D01*
X172110451Y-105397879D01*
X172055077Y-105276627D01*
X172039491Y-105258640D01*
X171960828Y-105167857D01*
X171903482Y-105131003D01*
X174349200Y-105131003D01*
X174349200Y-114148997D01*
X174376118Y-114284320D01*
X174376120Y-114284328D01*
X174428925Y-114411811D01*
X174505586Y-114526543D01*
X177903157Y-117924114D01*
X178017889Y-118000775D01*
X178145372Y-118053580D01*
X178280706Y-118080500D01*
X180468693Y-118080500D01*
X180604028Y-118053580D01*
X180731511Y-118000775D01*
X180846242Y-117924114D01*
X180943814Y-117826542D01*
X181020475Y-117711811D01*
X181073280Y-117584328D01*
X181100200Y-117448993D01*
X181100200Y-117311007D01*
X181100199Y-117311001D01*
X181073282Y-117175681D01*
X181073279Y-117175670D01*
X181020476Y-117048192D01*
X181020475Y-117048189D01*
X180974313Y-116979102D01*
X180943816Y-116933460D01*
X180846239Y-116835883D01*
X180777774Y-116790137D01*
X180731511Y-116759225D01*
X180731508Y-116759223D01*
X180731507Y-116759223D01*
X180604029Y-116706420D01*
X180604018Y-116706417D01*
X180468698Y-116679500D01*
X180468693Y-116679500D01*
X179078693Y-116679500D01*
X178660153Y-116679500D01*
X178625505Y-116665148D01*
X175764552Y-113804195D01*
X175750200Y-113769547D01*
X175750200Y-105510452D01*
X175764552Y-105475804D01*
X177467659Y-103772697D01*
X179453813Y-101786543D01*
X179491133Y-101730691D01*
X179530475Y-101671811D01*
X179583280Y-101544328D01*
X179610200Y-101408993D01*
X179610200Y-90771007D01*
X179590433Y-90671630D01*
X179583282Y-90635681D01*
X179583279Y-90635670D01*
X179530476Y-90508192D01*
X179530475Y-90508189D01*
X179453814Y-90393457D01*
X177165749Y-88105392D01*
X177151397Y-88070744D01*
X177165749Y-88036096D01*
X177200397Y-88021744D01*
X177228752Y-88030781D01*
X177235409Y-88035505D01*
X177270057Y-88049857D01*
X177348700Y-88065500D01*
X177348703Y-88065500D01*
X179270697Y-88065500D01*
X179270700Y-88065500D01*
X179349343Y-88049857D01*
X179383991Y-88035505D01*
X179442281Y-87998879D01*
X179442281Y-87998877D01*
X179442283Y-87998877D01*
X179468743Y-87961585D01*
X179495205Y-87924291D01*
X179509557Y-87889643D01*
X179525200Y-87811000D01*
X179525200Y-86359467D01*
X179533458Y-86332244D01*
X179543458Y-86317278D01*
X179560475Y-86291811D01*
X179613280Y-86164328D01*
X179640200Y-86028993D01*
X179640200Y-85396793D01*
X179635258Y-85371950D01*
X179613280Y-85261458D01*
X179560475Y-85133975D01*
X179483814Y-85019243D01*
X179254552Y-84789981D01*
X179240200Y-84755333D01*
X179240200Y-83314766D01*
X179254551Y-83280119D01*
X180889818Y-81644851D01*
X180924466Y-81630500D01*
X181051660Y-81630500D01*
X181051661Y-81630500D01*
X181051663Y-81630499D01*
X181051665Y-81630499D01*
X181074495Y-81623795D01*
X181189753Y-81589953D01*
X181310828Y-81512143D01*
X181405077Y-81403373D01*
X181464865Y-81272457D01*
X181464865Y-81272455D01*
X181464866Y-81272454D01*
X181485347Y-81130002D01*
X181485347Y-81129997D01*
X181464866Y-80987545D01*
X181442916Y-80939483D01*
X181405077Y-80856627D01*
X181310828Y-80747857D01*
X181189753Y-80670047D01*
X181189750Y-80670046D01*
X181051665Y-80629500D01*
X181051661Y-80629500D01*
X180907739Y-80629500D01*
X180907734Y-80629500D01*
X180769649Y-80670046D01*
X180648571Y-80747857D01*
X180554325Y-80856623D01*
X180554324Y-80856625D01*
X180494533Y-80987545D01*
X180474053Y-81129997D01*
X180474053Y-81130001D01*
X180480703Y-81176256D01*
X180471428Y-81212594D01*
X180466850Y-81217877D01*
X178755189Y-82929540D01*
X178699241Y-82985488D01*
X178699240Y-82985488D01*
X178659679Y-83054008D01*
X178659679Y-83054010D01*
X178639200Y-83130436D01*
X178639200Y-84056333D01*
X178624848Y-84090981D01*
X178590200Y-84105333D01*
X178555552Y-84090981D01*
X176604552Y-82139981D01*
X176590200Y-82105333D01*
X176590200Y-70250453D01*
X176604552Y-70215805D01*
X179615505Y-67204852D01*
X179650153Y-67190500D01*
X180778693Y-67190500D01*
X180914028Y-67163580D01*
X181041511Y-67110775D01*
X181156242Y-67034114D01*
X181253814Y-66936542D01*
X181330475Y-66821811D01*
X181383280Y-66694328D01*
X181410200Y-66558993D01*
X181410200Y-66421007D01*
X181383280Y-66285672D01*
X181330475Y-66158189D01*
X181284313Y-66089102D01*
X181253816Y-66043460D01*
X181156239Y-65945883D01*
X181087774Y-65900137D01*
X181041511Y-65869225D01*
X181041508Y-65869223D01*
X181041507Y-65869223D01*
X180914029Y-65816420D01*
X180914018Y-65816417D01*
X180778698Y-65789500D01*
X180778693Y-65789500D01*
X179708693Y-65789500D01*
X179408694Y-65789500D01*
X179270706Y-65789500D01*
X179270702Y-65789500D01*
X179135379Y-65816418D01*
X179135370Y-65816420D01*
X179007892Y-65869223D01*
X178893157Y-65945885D01*
X175345585Y-69493457D01*
X175268923Y-69608192D01*
X175216120Y-69735670D01*
X175216117Y-69735681D01*
X175189200Y-69871001D01*
X175189200Y-82484783D01*
X175216118Y-82620106D01*
X175216120Y-82620114D01*
X175268925Y-82747597D01*
X175320261Y-82824427D01*
X175345585Y-82862328D01*
X176254109Y-83770852D01*
X176268461Y-83805500D01*
X176254109Y-83840148D01*
X176219461Y-83854500D01*
X174658700Y-83854500D01*
X174619559Y-83862285D01*
X174580059Y-83870142D01*
X174580049Y-83870145D01*
X174545416Y-83884491D01*
X174545410Y-83884494D01*
X174545409Y-83884495D01*
X174527318Y-83895861D01*
X174487116Y-83921122D01*
X174434196Y-83995706D01*
X174419844Y-84030353D01*
X174419842Y-84030359D01*
X174414676Y-84056333D01*
X174404200Y-84109000D01*
X174404200Y-86031000D01*
X174414580Y-86083187D01*
X174419842Y-86109640D01*
X174419845Y-86109650D01*
X174434191Y-86144283D01*
X174434190Y-86144283D01*
X174470822Y-86202583D01*
X174545130Y-86255307D01*
X174545409Y-86255505D01*
X174580057Y-86269857D01*
X174614759Y-86276759D01*
X174645942Y-86297595D01*
X174654200Y-86324818D01*
X174654200Y-86544547D01*
X174639848Y-86579195D01*
X174595585Y-86623457D01*
X174518923Y-86738192D01*
X174466120Y-86865670D01*
X174466118Y-86865679D01*
X174439200Y-87001002D01*
X174439200Y-87138997D01*
X174466118Y-87274320D01*
X174466120Y-87274329D01*
X174516324Y-87395532D01*
X174518925Y-87401811D01*
X174564153Y-87469500D01*
X174595585Y-87516542D01*
X178194848Y-91115805D01*
X178209200Y-91150453D01*
X178209200Y-97710500D01*
X178194848Y-97745148D01*
X178160200Y-97759500D01*
X176489952Y-97759500D01*
X176431469Y-97771133D01*
X176365147Y-97815447D01*
X176320833Y-97881769D01*
X176309200Y-97940252D01*
X176309200Y-99679748D01*
X176320833Y-99738231D01*
X176338582Y-99764795D01*
X176365147Y-99804552D01*
X176391712Y-99822301D01*
X176431469Y-99848867D01*
X176489952Y-99860500D01*
X178160200Y-99860500D01*
X178194848Y-99874852D01*
X178209200Y-99909500D01*
X178209200Y-101029547D01*
X178194848Y-101064195D01*
X174505585Y-104753457D01*
X174428923Y-104868192D01*
X174376120Y-104995670D01*
X174376117Y-104995681D01*
X174357347Y-105090047D01*
X174357347Y-105090048D01*
X174349200Y-105131003D01*
X171903482Y-105131003D01*
X171839753Y-105090047D01*
X171839750Y-105090046D01*
X171805172Y-105079893D01*
X171784329Y-105067526D01*
X170814552Y-104097749D01*
X170800200Y-104063101D01*
X170800200Y-102019021D01*
X170804628Y-101998665D01*
X170834865Y-101932457D01*
X170855347Y-101790000D01*
X170855347Y-101789997D01*
X170834866Y-101647545D01*
X170830451Y-101637879D01*
X170775077Y-101516627D01*
X170680828Y-101407857D01*
X170559753Y-101330047D01*
X170559750Y-101330046D01*
X170421665Y-101289500D01*
X170421661Y-101289500D01*
X170277739Y-101289500D01*
X170277734Y-101289500D01*
X170139649Y-101330046D01*
X170018571Y-101407857D01*
X169924325Y-101516623D01*
X169924324Y-101516625D01*
X169864533Y-101647545D01*
X169844053Y-101789997D01*
X167671389Y-101789997D01*
X167650543Y-101708710D01*
X167650220Y-101707369D01*
X167379826Y-100507065D01*
X167379544Y-100505725D01*
X167144618Y-99297934D01*
X167144365Y-99296516D01*
X167064530Y-98810000D01*
X173764117Y-98810000D01*
X173784400Y-99015934D01*
X173844468Y-99213954D01*
X173942015Y-99396450D01*
X174073290Y-99556410D01*
X174233250Y-99687685D01*
X174415746Y-99785232D01*
X174613766Y-99845300D01*
X174819700Y-99865583D01*
X175025634Y-99845300D01*
X175223654Y-99785232D01*
X175406150Y-99687685D01*
X175566110Y-99556410D01*
X175697385Y-99396450D01*
X175794932Y-99213954D01*
X175855000Y-99015934D01*
X175875283Y-98810000D01*
X175855000Y-98604066D01*
X175794932Y-98406046D01*
X175697385Y-98223550D01*
X175566110Y-98063590D01*
X175406150Y-97932315D01*
X175223654Y-97834768D01*
X175025634Y-97774700D01*
X174819700Y-97754417D01*
X174613765Y-97774700D01*
X174613764Y-97774700D01*
X174415743Y-97834769D01*
X174233248Y-97932316D01*
X174073290Y-98063590D01*
X173942016Y-98223548D01*
X173844469Y-98406043D01*
X173784400Y-98604064D01*
X173784400Y-98604065D01*
X173784400Y-98604066D01*
X173764117Y-98810000D01*
X167064530Y-98810000D01*
X166945141Y-98082446D01*
X166944928Y-98081018D01*
X166785390Y-96890237D01*
X166784956Y-96883730D01*
X166784956Y-96854107D01*
X166782855Y-96846267D01*
X166778111Y-96828564D01*
X166776786Y-96821679D01*
X166773662Y-96795422D01*
X166768555Y-96782645D01*
X166761299Y-96764491D01*
X166759469Y-96758987D01*
X166750848Y-96726815D01*
X166750847Y-96726811D01*
X166737628Y-96703916D01*
X166734563Y-96697602D01*
X166724751Y-96673054D01*
X166724750Y-96673051D01*
X166704799Y-96646369D01*
X166701607Y-96641526D01*
X166684959Y-96612691D01*
X166684958Y-96612690D01*
X166684956Y-96612686D01*
X166666261Y-96593991D01*
X166661667Y-96588687D01*
X166659746Y-96586118D01*
X166645832Y-96567510D01*
X166619657Y-96546902D01*
X166615321Y-96543051D01*
X166591773Y-96519503D01*
X166591770Y-96519500D01*
X166568864Y-96506274D01*
X166563064Y-96502346D01*
X166542287Y-96485989D01*
X166511667Y-96472856D01*
X166506485Y-96470260D01*
X166477644Y-96453609D01*
X166477640Y-96453607D01*
X166452107Y-96446765D01*
X166445479Y-96444469D01*
X166421172Y-96434046D01*
X166388186Y-96429285D01*
X166382523Y-96428121D01*
X166368835Y-96424453D01*
X166350350Y-96419500D01*
X166350348Y-96419500D01*
X166323907Y-96419500D01*
X166316907Y-96418997D01*
X166290740Y-96415220D01*
X166290739Y-96415220D01*
X166274846Y-96417111D01*
X166257657Y-96419157D01*
X166251867Y-96419500D01*
X165320901Y-96419500D01*
X165286253Y-96405148D01*
X165271901Y-96370500D01*
X165271901Y-95104117D01*
X164134421Y-95104117D01*
X164134421Y-96370500D01*
X164120069Y-96405148D01*
X164085421Y-96419500D01*
X163814200Y-96419500D01*
X163779552Y-96405148D01*
X163765200Y-96370500D01*
X163765200Y-95024105D01*
X163765199Y-95024104D01*
X163731092Y-94896815D01*
X163731091Y-94896811D01*
X163665199Y-94782685D01*
X163626744Y-94744230D01*
X167839200Y-94744230D01*
X167839200Y-94895769D01*
X167878418Y-95042133D01*
X167878419Y-95042137D01*
X167905918Y-95089765D01*
X167954185Y-95173365D01*
X168061335Y-95280515D01*
X168137096Y-95324256D01*
X168192561Y-95356279D01*
X168192565Y-95356281D01*
X168298105Y-95384559D01*
X168327856Y-95407387D01*
X168334421Y-95431888D01*
X168334421Y-97355141D01*
X169471901Y-97355141D01*
X169471901Y-95104117D01*
X168998231Y-95104117D01*
X168963583Y-95089765D01*
X168949231Y-95055117D01*
X168950901Y-95042435D01*
X168989932Y-94896767D01*
X168990199Y-94895769D01*
X168990200Y-94895769D01*
X168990200Y-94744231D01*
X168990199Y-94744230D01*
X168953371Y-94606786D01*
X168950981Y-94597865D01*
X168950980Y-94597864D01*
X168950980Y-94597862D01*
X168875214Y-94466634D01*
X168768065Y-94359485D01*
X168636837Y-94283719D01*
X168636833Y-94283718D01*
X168490469Y-94244500D01*
X168490466Y-94244500D01*
X168338934Y-94244500D01*
X168338931Y-94244500D01*
X168192566Y-94283718D01*
X168192562Y-94283719D01*
X168061334Y-94359485D01*
X168061334Y-94359486D01*
X167954186Y-94466634D01*
X167954185Y-94466634D01*
X167878419Y-94597862D01*
X167878418Y-94597866D01*
X167839200Y-94744230D01*
X163626744Y-94744230D01*
X163572014Y-94689500D01*
X163457887Y-94623608D01*
X163394999Y-94606757D01*
X163365247Y-94583927D01*
X163360352Y-94546744D01*
X163369370Y-94528879D01*
X163465085Y-94408857D01*
X163596267Y-94181643D01*
X163692119Y-93937416D01*
X163750501Y-93681630D01*
X163770107Y-93420000D01*
X163750501Y-93158370D01*
X163692119Y-92902584D01*
X163596267Y-92658357D01*
X163596265Y-92658353D01*
X163465088Y-92431147D01*
X163465085Y-92431143D01*
X163301503Y-92226018D01*
X163109179Y-92047568D01*
X163109177Y-92047566D01*
X163047832Y-92005742D01*
X162974118Y-91955484D01*
X162953576Y-91924110D01*
X162961236Y-91887397D01*
X162974116Y-91874516D01*
X163109178Y-91782433D01*
X163301504Y-91603981D01*
X163465085Y-91398857D01*
X163596267Y-91171643D01*
X163692119Y-90927416D01*
X163750501Y-90671630D01*
X163770107Y-90410000D01*
X163750501Y-90148370D01*
X163692119Y-89892584D01*
X163596267Y-89648357D01*
X163577297Y-89615500D01*
X163465088Y-89421147D01*
X163465085Y-89421143D01*
X163375943Y-89309362D01*
X163365561Y-89273325D01*
X163383702Y-89240501D01*
X163401565Y-89231483D01*
X163457886Y-89216392D01*
X163572014Y-89150500D01*
X163665200Y-89057314D01*
X163718943Y-88964230D01*
X167839200Y-88964230D01*
X167839200Y-89115769D01*
X167878418Y-89262133D01*
X167878419Y-89262137D01*
X167954185Y-89393365D01*
X168061335Y-89500515D01*
X168109366Y-89528246D01*
X168192562Y-89576280D01*
X168192564Y-89576280D01*
X168192565Y-89576281D01*
X168308003Y-89607212D01*
X168338930Y-89615499D01*
X168338931Y-89615500D01*
X168338934Y-89615500D01*
X168490469Y-89615500D01*
X168490469Y-89615499D01*
X168636835Y-89576281D01*
X168768065Y-89500515D01*
X168875215Y-89393365D01*
X168950981Y-89262135D01*
X168990199Y-89115769D01*
X168990200Y-89115769D01*
X168990200Y-88964231D01*
X168990199Y-88964230D01*
X168950702Y-88816823D01*
X168955597Y-88779641D01*
X168985350Y-88756811D01*
X168998032Y-88755141D01*
X169471901Y-88755141D01*
X169471901Y-86504117D01*
X168334421Y-86504117D01*
X168334421Y-88428110D01*
X168320069Y-88462758D01*
X168298103Y-88475440D01*
X168192565Y-88503718D01*
X168192562Y-88503719D01*
X168061334Y-88579485D01*
X168061334Y-88579486D01*
X167954186Y-88686634D01*
X167954185Y-88686634D01*
X167878419Y-88817862D01*
X167878418Y-88817866D01*
X167839200Y-88964230D01*
X163718943Y-88964230D01*
X163731067Y-88943230D01*
X163731091Y-88943188D01*
X163731091Y-88943187D01*
X163731092Y-88943186D01*
X163765199Y-88815895D01*
X163765200Y-88815895D01*
X163765200Y-87469500D01*
X163779552Y-87434852D01*
X163814200Y-87420500D01*
X164085421Y-87420500D01*
X164120069Y-87434852D01*
X164134421Y-87469500D01*
X164134421Y-88755141D01*
X165271901Y-88755141D01*
X165271901Y-87469500D01*
X165286253Y-87434852D01*
X165320901Y-87420500D01*
X166251869Y-87420500D01*
X166257659Y-87420843D01*
X166259004Y-87421003D01*
X166290741Y-87424780D01*
X166316909Y-87421002D01*
X166323909Y-87420500D01*
X166350347Y-87420500D01*
X166350349Y-87420500D01*
X166382529Y-87411876D01*
X166388189Y-87410713D01*
X166421173Y-87405954D01*
X166445472Y-87395531D01*
X166452097Y-87393236D01*
X166477643Y-87386392D01*
X166506493Y-87369734D01*
X166511676Y-87367139D01*
X166524297Y-87361725D01*
X166542289Y-87354010D01*
X166563063Y-87337653D01*
X166568872Y-87333720D01*
X166573438Y-87331083D01*
X166591771Y-87320500D01*
X166615333Y-87296936D01*
X166619665Y-87293091D01*
X166645833Y-87272490D01*
X166661672Y-87251305D01*
X166666247Y-87246022D01*
X166684957Y-87227314D01*
X166701615Y-87198459D01*
X166704801Y-87193626D01*
X166724751Y-87166948D01*
X166734566Y-87142388D01*
X166737623Y-87136092D01*
X166750849Y-87113186D01*
X166759475Y-87080990D01*
X166761295Y-87075516D01*
X166773663Y-87044577D01*
X166776788Y-87018312D01*
X166778111Y-87011437D01*
X166784957Y-86985892D01*
X166784957Y-86956237D01*
X166785391Y-86949730D01*
X166873664Y-86290862D01*
X166944925Y-85758970D01*
X166945137Y-85757552D01*
X167004336Y-85396793D01*
X167144363Y-84543465D01*
X167144615Y-84542060D01*
X167228848Y-84109003D01*
X167379542Y-83334258D01*
X167379818Y-83332946D01*
X167650218Y-82132611D01*
X167650533Y-82131302D01*
X167956172Y-80939469D01*
X167956548Y-80938090D01*
X168297150Y-79755829D01*
X168297570Y-79754448D01*
X168672875Y-78582657D01*
X168673291Y-78581423D01*
X169082963Y-77421171D01*
X169083410Y-77419961D01*
X169527105Y-76272224D01*
X169527598Y-76271004D01*
X170004883Y-75136901D01*
X170005408Y-75135704D01*
X170515917Y-74016105D01*
X170516461Y-74014958D01*
X171059755Y-72910835D01*
X171060333Y-72909704D01*
X171635869Y-71822155D01*
X171636515Y-71820977D01*
X172243827Y-70750876D01*
X172244522Y-70749692D01*
X172883104Y-69697932D01*
X172883790Y-69696838D01*
X173553094Y-68664319D01*
X173553839Y-68663207D01*
X174253258Y-67650868D01*
X174254042Y-67649769D01*
X174982965Y-66658496D01*
X174983752Y-66657456D01*
X175741587Y-65688051D01*
X175742450Y-65686981D01*
X176528471Y-64740371D01*
X176529340Y-64739354D01*
X177342954Y-63816257D01*
X177343841Y-63815280D01*
X178184269Y-62916580D01*
X178185213Y-62915600D01*
X179051710Y-62042087D01*
X179052739Y-62041081D01*
X179379682Y-61730358D01*
X179944597Y-61193469D01*
X179945581Y-61192561D01*
X180862059Y-60371556D01*
X180863076Y-60370672D01*
X181803339Y-59577024D01*
X181804381Y-59576171D01*
X182059579Y-59373331D01*
X182095632Y-59363008D01*
X182128426Y-59381202D01*
G37*
%TD.AperFunction*%
%TD*%
%TA.AperFunction,Conductor*%
%TO.N,/Battery-*%
G36*
X176557610Y-84074352D02*
G01*
X177055348Y-84572090D01*
X177069700Y-84606738D01*
X177069700Y-85616571D01*
X177065970Y-85635322D01*
X177016120Y-85755670D01*
X177016118Y-85755679D01*
X176989200Y-85891002D01*
X176989200Y-86031000D01*
X176974848Y-86065648D01*
X176940200Y-86080000D01*
X174658700Y-86080000D01*
X174624052Y-86065648D01*
X174609700Y-86031000D01*
X174609700Y-84109000D01*
X174624052Y-84074352D01*
X174658700Y-84060000D01*
X176522962Y-84060000D01*
X176557610Y-84074352D01*
G37*
%TD.AperFunction*%
%TD*%
%TA.AperFunction,Conductor*%
%TO.N,+BATT*%
G36*
X179305348Y-85414352D02*
G01*
X179319700Y-85449000D01*
X179319700Y-87811000D01*
X179305348Y-87845648D01*
X179270700Y-87860000D01*
X177348700Y-87860000D01*
X177314052Y-87845648D01*
X177299700Y-87811000D01*
X177299700Y-85449000D01*
X177314052Y-85414352D01*
X177348700Y-85400000D01*
X179270700Y-85400000D01*
X179305348Y-85414352D01*
G37*
%TD.AperFunction*%
%TD*%
%TA.AperFunction,Conductor*%
%TO.N,GND*%
G36*
X208658426Y-59381202D02*
G01*
X208668750Y-59417256D01*
X208661439Y-59437946D01*
X208584961Y-59558457D01*
X208448315Y-59848843D01*
X208349142Y-60154065D01*
X208289007Y-60469308D01*
X208268857Y-60789595D01*
X208268857Y-60789604D01*
X208289007Y-61109891D01*
X208349142Y-61425134D01*
X208448315Y-61730356D01*
X208584961Y-62020742D01*
X208756919Y-62291706D01*
X208961483Y-62538983D01*
X208961490Y-62538991D01*
X209195431Y-62758676D01*
X209195434Y-62758678D01*
X209195436Y-62758680D01*
X209455072Y-62947316D01*
X209736303Y-63101924D01*
X210034694Y-63220066D01*
X210345539Y-63299877D01*
X210663936Y-63340100D01*
X210663937Y-63340100D01*
X210984863Y-63340100D01*
X210984864Y-63340100D01*
X211303261Y-63299877D01*
X211614106Y-63220066D01*
X211912497Y-63101924D01*
X212193728Y-62947316D01*
X212453364Y-62758680D01*
X212687311Y-62538990D01*
X212891878Y-62291710D01*
X213063839Y-62020742D01*
X213200484Y-61730358D01*
X213229152Y-61642125D01*
X213253507Y-61613610D01*
X213290895Y-61610667D01*
X213319412Y-61635023D01*
X213324753Y-61657221D01*
X213329499Y-66470453D01*
X213329499Y-66535905D01*
X213329533Y-66536159D01*
X213329556Y-66536330D01*
X213329562Y-66536382D01*
X213346632Y-66599837D01*
X213363607Y-66663186D01*
X213363607Y-66663187D01*
X213363611Y-66663199D01*
X213363696Y-66663403D01*
X213363777Y-66663598D01*
X213363794Y-66663640D01*
X213396719Y-66720539D01*
X213396734Y-66720564D01*
X213429499Y-66777314D01*
X213429500Y-66777315D01*
X213429506Y-66777325D01*
X213429799Y-66777705D01*
X213429800Y-66777706D01*
X213429802Y-66777709D01*
X213476441Y-66824256D01*
X213476475Y-66824290D01*
X213522689Y-66870504D01*
X213523004Y-66870745D01*
X213523076Y-66870799D01*
X213523080Y-66870803D01*
X213579935Y-66903553D01*
X213579928Y-66903563D01*
X213579975Y-66903576D01*
X213636813Y-66936392D01*
X213636815Y-66936393D01*
X213637268Y-66936580D01*
X213637270Y-66936580D01*
X213637273Y-66936582D01*
X213693075Y-66951474D01*
X213722850Y-66974274D01*
X213727782Y-67011452D01*
X213718749Y-67029368D01*
X213629608Y-67141149D01*
X213498432Y-67368353D01*
X213402579Y-67612582D01*
X213344197Y-67868366D01*
X213344196Y-67868375D01*
X213324591Y-68130000D01*
X213344196Y-68391624D01*
X213344197Y-68391633D01*
X213402579Y-68647417D01*
X213498432Y-68891646D01*
X213629609Y-69118852D01*
X213629612Y-69118856D01*
X213793194Y-69323981D01*
X213985518Y-69502431D01*
X213985526Y-69502438D01*
X214023403Y-69528261D01*
X214038302Y-69538419D01*
X214058846Y-69569795D01*
X214059700Y-69578905D01*
X214059700Y-69691094D01*
X214045348Y-69725742D01*
X214038303Y-69731580D01*
X213985520Y-69767566D01*
X213985518Y-69767568D01*
X213793194Y-69946018D01*
X213629612Y-70151143D01*
X213629609Y-70151147D01*
X213498432Y-70378353D01*
X213402579Y-70622582D01*
X213344197Y-70878366D01*
X213344196Y-70878375D01*
X213324591Y-71140000D01*
X213344196Y-71401624D01*
X213344197Y-71401633D01*
X213402579Y-71657417D01*
X213498432Y-71901646D01*
X213629609Y-72128852D01*
X213629612Y-72128856D01*
X213718191Y-72239931D01*
X213728573Y-72275968D01*
X213710432Y-72308792D01*
X213692564Y-72317812D01*
X213633617Y-72333607D01*
X213633615Y-72333607D01*
X213519489Y-72399499D01*
X213519489Y-72399500D01*
X213426305Y-72492684D01*
X213426304Y-72492684D01*
X213360412Y-72606810D01*
X213360411Y-72606814D01*
X213326304Y-72734103D01*
X213326304Y-72865894D01*
X213327951Y-72872043D01*
X213329619Y-72884718D01*
X213329498Y-88815966D01*
X213329520Y-88816120D01*
X213329874Y-88817297D01*
X213363606Y-88943184D01*
X213363607Y-88943188D01*
X213411659Y-89026414D01*
X213418098Y-89037567D01*
X213428828Y-89056153D01*
X213429499Y-89057314D01*
X213429502Y-89057317D01*
X213476088Y-89103903D01*
X213476088Y-89103904D01*
X213522736Y-89150552D01*
X213522860Y-89150645D01*
X213523993Y-89151255D01*
X213524224Y-89151389D01*
X213524225Y-89151389D01*
X213636809Y-89216391D01*
X213693126Y-89231481D01*
X213722879Y-89254311D01*
X213727774Y-89291493D01*
X213718754Y-89309362D01*
X213629612Y-89421143D01*
X213629609Y-89421147D01*
X213498432Y-89648353D01*
X213402579Y-89892582D01*
X213344197Y-90148366D01*
X213344196Y-90148375D01*
X213324591Y-90410000D01*
X213344196Y-90671624D01*
X213344197Y-90671633D01*
X213402579Y-90927417D01*
X213498432Y-91171646D01*
X213629609Y-91398852D01*
X213629612Y-91398856D01*
X213793194Y-91603981D01*
X213985518Y-91782431D01*
X213985526Y-91782438D01*
X214023403Y-91808261D01*
X214038302Y-91818419D01*
X214058846Y-91849795D01*
X214059700Y-91858905D01*
X214059700Y-91971094D01*
X214045348Y-92005742D01*
X214038303Y-92011580D01*
X213985520Y-92047566D01*
X213985518Y-92047568D01*
X213793194Y-92226018D01*
X213629612Y-92431143D01*
X213629609Y-92431147D01*
X213498432Y-92658353D01*
X213402579Y-92902582D01*
X213344197Y-93158366D01*
X213344196Y-93158375D01*
X213324591Y-93420000D01*
X213344196Y-93681624D01*
X213344197Y-93681633D01*
X213402579Y-93937417D01*
X213498432Y-94181646D01*
X213629609Y-94408852D01*
X213629612Y-94408856D01*
X213629613Y-94408857D01*
X213725324Y-94528875D01*
X213725347Y-94528903D01*
X213735729Y-94564940D01*
X213717588Y-94597764D01*
X213699721Y-94606784D01*
X213684137Y-94610960D01*
X213672864Y-94613981D01*
X213637633Y-94623420D01*
X213636978Y-94623585D01*
X213636953Y-94623597D01*
X213636920Y-94623615D01*
X213553390Y-94671842D01*
X213524350Y-94688607D01*
X213524351Y-94688608D01*
X213522812Y-94689496D01*
X213522808Y-94689499D01*
X213522807Y-94689500D01*
X213476216Y-94736090D01*
X213476215Y-94736090D01*
X213429158Y-94783147D01*
X213428012Y-94785472D01*
X213363730Y-94896808D01*
X213363728Y-94896814D01*
X213329620Y-95024102D01*
X213329499Y-112614104D01*
X213329499Y-112745895D01*
X213363606Y-112873184D01*
X213363607Y-112873188D01*
X213429499Y-112987314D01*
X213476088Y-113033903D01*
X213476088Y-113033904D01*
X213522735Y-113080551D01*
X213522860Y-113080644D01*
X213523943Y-113081227D01*
X213553259Y-113098151D01*
X213553261Y-113098154D01*
X213553262Y-113098153D01*
X213631231Y-113143170D01*
X213631537Y-113143404D01*
X213636523Y-113146228D01*
X213636816Y-113146395D01*
X213637104Y-113146470D01*
X213693126Y-113161481D01*
X213722879Y-113184311D01*
X213727774Y-113221493D01*
X213718754Y-113239362D01*
X213629612Y-113351143D01*
X213629609Y-113351147D01*
X213498432Y-113578353D01*
X213402579Y-113822582D01*
X213344197Y-114078366D01*
X213344196Y-114078375D01*
X213324591Y-114340000D01*
X213344196Y-114601624D01*
X213344197Y-114601633D01*
X213402579Y-114857417D01*
X213498432Y-115101646D01*
X213629609Y-115328852D01*
X213629612Y-115328856D01*
X213793194Y-115533981D01*
X213985518Y-115712431D01*
X213985526Y-115712438D01*
X214023403Y-115738261D01*
X214038302Y-115748419D01*
X214058846Y-115779795D01*
X214059700Y-115788905D01*
X214059700Y-115901094D01*
X214045348Y-115935742D01*
X214038303Y-115941580D01*
X213985520Y-115977566D01*
X213985518Y-115977568D01*
X213793194Y-116156018D01*
X213629612Y-116361143D01*
X213629609Y-116361147D01*
X213498432Y-116588353D01*
X213402579Y-116832582D01*
X213344197Y-117088366D01*
X213344196Y-117088375D01*
X213324591Y-117350000D01*
X213344196Y-117611624D01*
X213344197Y-117611633D01*
X213402579Y-117867417D01*
X213498432Y-118111646D01*
X213629609Y-118338852D01*
X213629612Y-118338856D01*
X213725345Y-118458902D01*
X213735727Y-118494939D01*
X213717586Y-118527763D01*
X213699650Y-118536801D01*
X213637591Y-118553335D01*
X213637460Y-118553390D01*
X213637255Y-118553474D01*
X213636954Y-118553597D01*
X213580353Y-118586274D01*
X213580295Y-118586307D01*
X213523362Y-118619071D01*
X213523267Y-118619145D01*
X213523160Y-118619227D01*
X213522825Y-118619482D01*
X213476363Y-118665943D01*
X213476315Y-118665991D01*
X213430051Y-118712125D01*
X213429859Y-118712376D01*
X213429767Y-118712495D01*
X213429626Y-118712677D01*
X213396781Y-118769565D01*
X213396747Y-118769624D01*
X213363995Y-118826166D01*
X213363811Y-118826613D01*
X213363779Y-118826690D01*
X213363731Y-118826804D01*
X213346754Y-118890160D01*
X213346737Y-118890225D01*
X213329712Y-118953408D01*
X213329691Y-118953570D01*
X213329677Y-118953673D01*
X213329621Y-118954092D01*
X213329621Y-118954108D01*
X213329621Y-119019610D01*
X213329507Y-119100142D01*
X213325128Y-122183954D01*
X213310727Y-122218581D01*
X213276058Y-122232884D01*
X213241431Y-122218483D01*
X213229527Y-122199028D01*
X213200484Y-122109642D01*
X213063839Y-121819258D01*
X212891878Y-121548290D01*
X212687311Y-121301010D01*
X212687309Y-121301008D01*
X212453368Y-121081323D01*
X212453360Y-121081317D01*
X212193735Y-120892689D01*
X212193729Y-120892685D01*
X212193730Y-120892685D01*
X212193728Y-120892684D01*
X211912497Y-120738076D01*
X211809684Y-120697369D01*
X211614107Y-120619934D01*
X211303260Y-120540122D01*
X210984866Y-120499900D01*
X210984864Y-120499900D01*
X210663936Y-120499900D01*
X210663933Y-120499900D01*
X210345539Y-120540122D01*
X210034692Y-120619934D01*
X209736300Y-120738077D01*
X209455070Y-120892685D01*
X209455064Y-120892689D01*
X209195439Y-121081317D01*
X209195431Y-121081323D01*
X208961490Y-121301008D01*
X208961483Y-121301016D01*
X208756919Y-121548293D01*
X208584961Y-121819257D01*
X208448315Y-122109643D01*
X208349142Y-122414865D01*
X208289007Y-122730108D01*
X208268857Y-123050395D01*
X208268857Y-123050404D01*
X208289007Y-123370691D01*
X208349142Y-123685934D01*
X208448315Y-123991156D01*
X208584961Y-124281542D01*
X208661424Y-124402029D01*
X208667872Y-124438973D01*
X208646307Y-124469656D01*
X208609363Y-124476104D01*
X208589563Y-124466643D01*
X208334426Y-124263853D01*
X208333309Y-124262938D01*
X207393121Y-123469351D01*
X207392032Y-123468404D01*
X206475631Y-122647465D01*
X206474570Y-122646486D01*
X205582752Y-121798909D01*
X205581720Y-121797899D01*
X204715241Y-120924402D01*
X204714240Y-120923362D01*
X203873918Y-120024770D01*
X203872947Y-120023702D01*
X203059395Y-119100673D01*
X203058457Y-119099576D01*
X202272493Y-118153033D01*
X202271587Y-118151909D01*
X201849226Y-117611633D01*
X201513800Y-117182563D01*
X201512963Y-117181457D01*
X200784091Y-116190250D01*
X200783257Y-116189081D01*
X200637124Y-115977568D01*
X200083887Y-115176811D01*
X200083092Y-115175623D01*
X199413837Y-114143178D01*
X199413113Y-114142023D01*
X198774570Y-113090324D01*
X198773840Y-113089080D01*
X198768970Y-113080499D01*
X198166563Y-112019037D01*
X198165877Y-112017786D01*
X197590381Y-110930311D01*
X197589775Y-110929126D01*
X197046533Y-109825106D01*
X197045915Y-109823801D01*
X196908928Y-109523374D01*
X196535455Y-108704308D01*
X196534909Y-108703060D01*
X196057645Y-107569008D01*
X196057133Y-107567741D01*
X195613456Y-106420049D01*
X195612993Y-106418794D01*
X195203338Y-105258586D01*
X195202908Y-105257311D01*
X194827609Y-104085539D01*
X194827190Y-104084161D01*
X194486590Y-102901900D01*
X194486211Y-102900507D01*
X194397752Y-102555564D01*
X194201426Y-101789997D01*
X196374053Y-101789997D01*
X196374053Y-101790001D01*
X196394535Y-101932457D01*
X196394535Y-101932458D01*
X196424772Y-101998665D01*
X196429200Y-102019021D01*
X196429200Y-104329310D01*
X196453413Y-104419672D01*
X196453413Y-104419673D01*
X196459900Y-104443886D01*
X196459901Y-104443888D01*
X196519211Y-104546614D01*
X197676251Y-105703654D01*
X197686174Y-105717946D01*
X197704771Y-105758665D01*
X197709200Y-105779021D01*
X197709200Y-107949310D01*
X197733413Y-108039672D01*
X197733413Y-108039673D01*
X197739900Y-108063886D01*
X197739901Y-108063888D01*
X197799211Y-108166614D01*
X199036251Y-109403654D01*
X199046175Y-109417946D01*
X199094323Y-109523373D01*
X199094324Y-109523374D01*
X199094325Y-109523376D01*
X199188571Y-109632142D01*
X199188572Y-109632143D01*
X199309647Y-109709953D01*
X199386485Y-109732514D01*
X199447734Y-109750499D01*
X199447737Y-109750499D01*
X199447739Y-109750500D01*
X199447740Y-109750500D01*
X199591660Y-109750500D01*
X199591661Y-109750500D01*
X199591663Y-109750499D01*
X199591665Y-109750499D01*
X199614495Y-109743795D01*
X199729753Y-109709953D01*
X199850828Y-109632143D01*
X199945077Y-109523373D01*
X200004865Y-109392457D01*
X200004865Y-109392455D01*
X200004866Y-109392454D01*
X200025347Y-109250002D01*
X200025347Y-109249997D01*
X200004866Y-109107545D01*
X200000451Y-109097879D01*
X199945077Y-108976627D01*
X199850828Y-108867857D01*
X199729753Y-108790047D01*
X199729750Y-108790046D01*
X199695172Y-108779893D01*
X199674329Y-108767526D01*
X198624552Y-107717749D01*
X198610200Y-107683101D01*
X198610200Y-105779021D01*
X198614628Y-105758665D01*
X198633224Y-105717946D01*
X198644865Y-105692457D01*
X198665347Y-105550000D01*
X198656743Y-105490156D01*
X198644866Y-105407545D01*
X198640451Y-105397879D01*
X198585077Y-105276627D01*
X198569485Y-105258633D01*
X198490828Y-105167857D01*
X198433482Y-105131003D01*
X200879200Y-105131003D01*
X200879200Y-114148997D01*
X200884019Y-114173221D01*
X200906120Y-114284328D01*
X200958925Y-114411811D01*
X201035586Y-114526543D01*
X204433157Y-117924114D01*
X204547889Y-118000775D01*
X204675372Y-118053580D01*
X204810706Y-118080500D01*
X206998693Y-118080500D01*
X207134028Y-118053580D01*
X207261511Y-118000775D01*
X207376242Y-117924114D01*
X207473814Y-117826542D01*
X207550475Y-117711811D01*
X207603280Y-117584328D01*
X207630200Y-117448993D01*
X207630200Y-117311007D01*
X207603280Y-117175672D01*
X207550475Y-117048189D01*
X207504313Y-116979102D01*
X207473816Y-116933460D01*
X207376239Y-116835883D01*
X207307774Y-116790137D01*
X207261511Y-116759225D01*
X207261508Y-116759223D01*
X207261507Y-116759223D01*
X207134029Y-116706420D01*
X207134018Y-116706417D01*
X206998698Y-116679500D01*
X206998693Y-116679500D01*
X205608693Y-116679500D01*
X205190153Y-116679500D01*
X205155505Y-116665148D01*
X202294552Y-113804195D01*
X202280200Y-113769547D01*
X202280200Y-105510452D01*
X202294552Y-105475804D01*
X203997667Y-103772689D01*
X205983813Y-101786543D01*
X206021133Y-101730691D01*
X206060475Y-101671811D01*
X206113280Y-101544328D01*
X206140200Y-101408993D01*
X206140200Y-90771007D01*
X206120433Y-90671630D01*
X206113282Y-90635681D01*
X206113279Y-90635670D01*
X206060476Y-90508192D01*
X206060475Y-90508189D01*
X205983814Y-90393457D01*
X203695749Y-88105392D01*
X203681397Y-88070744D01*
X203695749Y-88036096D01*
X203730397Y-88021744D01*
X203758752Y-88030781D01*
X203765409Y-88035505D01*
X203800057Y-88049857D01*
X203878700Y-88065500D01*
X203878703Y-88065500D01*
X205800697Y-88065500D01*
X205800700Y-88065500D01*
X205879343Y-88049857D01*
X205913991Y-88035505D01*
X205972281Y-87998879D01*
X205972281Y-87998877D01*
X205972283Y-87998877D01*
X205998743Y-87961585D01*
X206025205Y-87924291D01*
X206039557Y-87889643D01*
X206055200Y-87811000D01*
X206055200Y-86359467D01*
X206063458Y-86332244D01*
X206073458Y-86317278D01*
X206090475Y-86291811D01*
X206143280Y-86164328D01*
X206170200Y-86028993D01*
X206170200Y-85396793D01*
X206165258Y-85371950D01*
X206143280Y-85261458D01*
X206090475Y-85133975D01*
X206013814Y-85019243D01*
X205784552Y-84789981D01*
X205770200Y-84755333D01*
X205770200Y-83314766D01*
X205784551Y-83280119D01*
X207419818Y-81644851D01*
X207454466Y-81630500D01*
X207581660Y-81630500D01*
X207581661Y-81630500D01*
X207581663Y-81630499D01*
X207581665Y-81630499D01*
X207604495Y-81623795D01*
X207719753Y-81589953D01*
X207840828Y-81512143D01*
X207935077Y-81403373D01*
X207994865Y-81272457D01*
X207994865Y-81272455D01*
X207994866Y-81272454D01*
X208015347Y-81130002D01*
X208015347Y-81129997D01*
X207994866Y-80987545D01*
X207972916Y-80939483D01*
X207935077Y-80856627D01*
X207840828Y-80747857D01*
X207719753Y-80670047D01*
X207719750Y-80670046D01*
X207581665Y-80629500D01*
X207581661Y-80629500D01*
X207437739Y-80629500D01*
X207437734Y-80629500D01*
X207299649Y-80670046D01*
X207178571Y-80747857D01*
X207084325Y-80856623D01*
X207084324Y-80856625D01*
X207024533Y-80987545D01*
X207004053Y-81129997D01*
X207004053Y-81130001D01*
X207010703Y-81176256D01*
X207001428Y-81212594D01*
X206996850Y-81217877D01*
X205285189Y-82929540D01*
X205229241Y-82985488D01*
X205229240Y-82985488D01*
X205189679Y-83054008D01*
X205189679Y-83054010D01*
X205169200Y-83130436D01*
X205169200Y-84056333D01*
X205154848Y-84090981D01*
X205120200Y-84105333D01*
X205085552Y-84090981D01*
X203134552Y-82139981D01*
X203120200Y-82105333D01*
X203120200Y-70250453D01*
X203134552Y-70215805D01*
X206145505Y-67204852D01*
X206180153Y-67190500D01*
X207308693Y-67190500D01*
X207444028Y-67163580D01*
X207571511Y-67110775D01*
X207686242Y-67034114D01*
X207783814Y-66936542D01*
X207860475Y-66821811D01*
X207913280Y-66694328D01*
X207940200Y-66558993D01*
X207940200Y-66421007D01*
X207913280Y-66285672D01*
X207860475Y-66158189D01*
X207801215Y-66069500D01*
X207783816Y-66043460D01*
X207686239Y-65945883D01*
X207617774Y-65900137D01*
X207571511Y-65869225D01*
X207571508Y-65869223D01*
X207571507Y-65869223D01*
X207444029Y-65816420D01*
X207444018Y-65816417D01*
X207308698Y-65789500D01*
X207308693Y-65789500D01*
X206238693Y-65789500D01*
X205938694Y-65789500D01*
X205800706Y-65789500D01*
X205800702Y-65789500D01*
X205665379Y-65816418D01*
X205665370Y-65816420D01*
X205537892Y-65869223D01*
X205423157Y-65945885D01*
X201875585Y-69493457D01*
X201798923Y-69608192D01*
X201746120Y-69735670D01*
X201746117Y-69735681D01*
X201719200Y-69871001D01*
X201719200Y-82484783D01*
X201746118Y-82620106D01*
X201746120Y-82620114D01*
X201798925Y-82747597D01*
X201850261Y-82824427D01*
X201875585Y-82862328D01*
X202784109Y-83770852D01*
X202798461Y-83805500D01*
X202784109Y-83840148D01*
X202749461Y-83854500D01*
X201188700Y-83854500D01*
X201149559Y-83862285D01*
X201110059Y-83870142D01*
X201110049Y-83870145D01*
X201075416Y-83884491D01*
X201075410Y-83884494D01*
X201075409Y-83884495D01*
X201057318Y-83895861D01*
X201017116Y-83921122D01*
X200964196Y-83995706D01*
X200949844Y-84030353D01*
X200949842Y-84030359D01*
X200944676Y-84056333D01*
X200934200Y-84109000D01*
X200934200Y-86031000D01*
X200944580Y-86083187D01*
X200949842Y-86109640D01*
X200949845Y-86109650D01*
X200964191Y-86144283D01*
X200964190Y-86144283D01*
X201000822Y-86202583D01*
X201075130Y-86255307D01*
X201075409Y-86255505D01*
X201110057Y-86269857D01*
X201144759Y-86276759D01*
X201175942Y-86297595D01*
X201184200Y-86324818D01*
X201184200Y-86544547D01*
X201169848Y-86579195D01*
X201125585Y-86623457D01*
X201048923Y-86738192D01*
X200996120Y-86865670D01*
X200996118Y-86865679D01*
X200969200Y-87001002D01*
X200969200Y-87138997D01*
X200996118Y-87274320D01*
X200996120Y-87274329D01*
X201046324Y-87395532D01*
X201048925Y-87401811D01*
X201071069Y-87434952D01*
X201125585Y-87516542D01*
X204724848Y-91115805D01*
X204739200Y-91150453D01*
X204739200Y-97710500D01*
X204724848Y-97745148D01*
X204690200Y-97759500D01*
X203019952Y-97759500D01*
X202961469Y-97771133D01*
X202895147Y-97815447D01*
X202850833Y-97881769D01*
X202839200Y-97940252D01*
X202839200Y-99679748D01*
X202850833Y-99738231D01*
X202868582Y-99764795D01*
X202895147Y-99804552D01*
X202921712Y-99822301D01*
X202961469Y-99848867D01*
X203019952Y-99860500D01*
X204690200Y-99860500D01*
X204724848Y-99874852D01*
X204739200Y-99909500D01*
X204739200Y-101029547D01*
X204724848Y-101064195D01*
X201035585Y-104753457D01*
X200958923Y-104868192D01*
X200906120Y-104995670D01*
X200906117Y-104995681D01*
X200887347Y-105090047D01*
X200887347Y-105090048D01*
X200879200Y-105131003D01*
X198433482Y-105131003D01*
X198369753Y-105090047D01*
X198369750Y-105090046D01*
X198335172Y-105079893D01*
X198314329Y-105067526D01*
X197344552Y-104097749D01*
X197330200Y-104063101D01*
X197330200Y-102019021D01*
X197334628Y-101998665D01*
X197364865Y-101932457D01*
X197385347Y-101790000D01*
X197385347Y-101789997D01*
X197364866Y-101647545D01*
X197360451Y-101637879D01*
X197305077Y-101516627D01*
X197210828Y-101407857D01*
X197089753Y-101330047D01*
X197086896Y-101329208D01*
X196951665Y-101289500D01*
X196951661Y-101289500D01*
X196807739Y-101289500D01*
X196807734Y-101289500D01*
X196669649Y-101330046D01*
X196548571Y-101407857D01*
X196454325Y-101516623D01*
X196454324Y-101516625D01*
X196394533Y-101647545D01*
X196374053Y-101789997D01*
X194201426Y-101789997D01*
X194180579Y-101708704D01*
X194180256Y-101707363D01*
X193909864Y-100507059D01*
X193909582Y-100505719D01*
X193674657Y-99297929D01*
X193674404Y-99296511D01*
X193594570Y-98810000D01*
X200294117Y-98810000D01*
X200314400Y-99015934D01*
X200374468Y-99213954D01*
X200472015Y-99396450D01*
X200603290Y-99556410D01*
X200763250Y-99687685D01*
X200945746Y-99785232D01*
X201143766Y-99845300D01*
X201349700Y-99865583D01*
X201555634Y-99845300D01*
X201753654Y-99785232D01*
X201936150Y-99687685D01*
X202096110Y-99556410D01*
X202227385Y-99396450D01*
X202324932Y-99213954D01*
X202385000Y-99015934D01*
X202405283Y-98810000D01*
X202385000Y-98604066D01*
X202324932Y-98406046D01*
X202227385Y-98223550D01*
X202096110Y-98063590D01*
X201936150Y-97932315D01*
X201753654Y-97834768D01*
X201555634Y-97774700D01*
X201349700Y-97754417D01*
X201143765Y-97774700D01*
X201143764Y-97774700D01*
X200945743Y-97834769D01*
X200763248Y-97932316D01*
X200603290Y-98063590D01*
X200472016Y-98223548D01*
X200374469Y-98406043D01*
X200314400Y-98604064D01*
X200314400Y-98604065D01*
X200314400Y-98604066D01*
X200294117Y-98810000D01*
X193594570Y-98810000D01*
X193475181Y-98082441D01*
X193474968Y-98081013D01*
X193315390Y-96889919D01*
X193314956Y-96883412D01*
X193314956Y-96854107D01*
X193313302Y-96847938D01*
X193308110Y-96828561D01*
X193306787Y-96821686D01*
X193303662Y-96795423D01*
X193291296Y-96764487D01*
X193289470Y-96758992D01*
X193280848Y-96726814D01*
X193280847Y-96726811D01*
X193267627Y-96703914D01*
X193264562Y-96697600D01*
X193254751Y-96673053D01*
X193254750Y-96673052D01*
X193234800Y-96646371D01*
X193231608Y-96641528D01*
X193214955Y-96612685D01*
X193196264Y-96593994D01*
X193191670Y-96588690D01*
X193190110Y-96586604D01*
X193175833Y-96567510D01*
X193149656Y-96546901D01*
X193145319Y-96543049D01*
X193121772Y-96519502D01*
X193121766Y-96519497D01*
X193098873Y-96506281D01*
X193093061Y-96502345D01*
X193072289Y-96485991D01*
X193072288Y-96485990D01*
X193041670Y-96472858D01*
X193036488Y-96470262D01*
X193007644Y-96453608D01*
X193007640Y-96453607D01*
X192982100Y-96446763D01*
X192975470Y-96444466D01*
X192951173Y-96434046D01*
X192946574Y-96433382D01*
X192918186Y-96429285D01*
X192912523Y-96428121D01*
X192898835Y-96424453D01*
X192880350Y-96419500D01*
X192880348Y-96419500D01*
X192853908Y-96419500D01*
X192846908Y-96418997D01*
X192820741Y-96415220D01*
X192820740Y-96415220D01*
X192804847Y-96417111D01*
X192787658Y-96419157D01*
X192781868Y-96419500D01*
X191850901Y-96419500D01*
X191816253Y-96405148D01*
X191801901Y-96370500D01*
X191801901Y-95104117D01*
X190664421Y-95104117D01*
X190664421Y-96370500D01*
X190650069Y-96405148D01*
X190615421Y-96419500D01*
X190345794Y-96419500D01*
X190311146Y-96405148D01*
X190296794Y-96370500D01*
X190296794Y-96370358D01*
X190300297Y-95160489D01*
X190300500Y-95157492D01*
X190300500Y-95090811D01*
X190300603Y-95055117D01*
X190300689Y-95025557D01*
X190300687Y-95025553D01*
X190300688Y-95025545D01*
X190300616Y-95024994D01*
X190300595Y-95024830D01*
X190300503Y-95024120D01*
X190283680Y-94961337D01*
X190283643Y-94961198D01*
X190266948Y-94898156D01*
X190266773Y-94897733D01*
X190266721Y-94897607D01*
X190266402Y-94896830D01*
X190233847Y-94840445D01*
X190233776Y-94840322D01*
X190201381Y-94783835D01*
X190200916Y-94783229D01*
X190200836Y-94783124D01*
X190200508Y-94782694D01*
X190200497Y-94782683D01*
X190162044Y-94744230D01*
X194369200Y-94744230D01*
X194369200Y-94895769D01*
X194408418Y-95042133D01*
X194408419Y-95042137D01*
X194444204Y-95104117D01*
X194484185Y-95173365D01*
X194591335Y-95280515D01*
X194667096Y-95324256D01*
X194722561Y-95356279D01*
X194722565Y-95356281D01*
X194828105Y-95384559D01*
X194857856Y-95407387D01*
X194864421Y-95431888D01*
X194864421Y-97355141D01*
X196001901Y-97355141D01*
X196001901Y-95104117D01*
X195528231Y-95104117D01*
X195493583Y-95089765D01*
X195479231Y-95055117D01*
X195480901Y-95042435D01*
X195519557Y-94898165D01*
X195520199Y-94895769D01*
X195520200Y-94895769D01*
X195520200Y-94744231D01*
X195520199Y-94744230D01*
X195487977Y-94623975D01*
X195480981Y-94597865D01*
X195480980Y-94597864D01*
X195480980Y-94597862D01*
X195405214Y-94466634D01*
X195298065Y-94359485D01*
X195166837Y-94283719D01*
X195166833Y-94283718D01*
X195020469Y-94244500D01*
X195020466Y-94244500D01*
X194868934Y-94244500D01*
X194868931Y-94244500D01*
X194722566Y-94283718D01*
X194722562Y-94283719D01*
X194591334Y-94359485D01*
X194591334Y-94359486D01*
X194484186Y-94466634D01*
X194484185Y-94466634D01*
X194408419Y-94597862D01*
X194408418Y-94597866D01*
X194369200Y-94744230D01*
X190162044Y-94744230D01*
X190154600Y-94736786D01*
X190154542Y-94736646D01*
X190154502Y-94736687D01*
X190131812Y-94713866D01*
X190108473Y-94690391D01*
X190108470Y-94690389D01*
X190108467Y-94690386D01*
X190108262Y-94690228D01*
X190108149Y-94690141D01*
X190107334Y-94689512D01*
X190107315Y-94689501D01*
X190107314Y-94689500D01*
X190051184Y-94657093D01*
X190051062Y-94657022D01*
X189994518Y-94624158D01*
X189994034Y-94623958D01*
X189993897Y-94623901D01*
X189993209Y-94623613D01*
X189930426Y-94606791D01*
X189930042Y-94606497D01*
X189929994Y-94606673D01*
X189929868Y-94606638D01*
X189911056Y-94591928D01*
X189900673Y-94583961D01*
X189900650Y-94583791D01*
X189900325Y-94583537D01*
X189896488Y-94552173D01*
X189895778Y-94546779D01*
X189895821Y-94546722D01*
X189895771Y-94546311D01*
X189904671Y-94528877D01*
X190000385Y-94408857D01*
X190131567Y-94181643D01*
X190227419Y-93937416D01*
X190285801Y-93681630D01*
X190305407Y-93420000D01*
X190285801Y-93158370D01*
X190227419Y-92902584D01*
X190131567Y-92658357D01*
X190131565Y-92658353D01*
X190000388Y-92431147D01*
X190000385Y-92431143D01*
X189836803Y-92226018D01*
X189644479Y-92047568D01*
X189644477Y-92047566D01*
X189583132Y-92005742D01*
X189509418Y-91955484D01*
X189488876Y-91924110D01*
X189496536Y-91887397D01*
X189509416Y-91874516D01*
X189644478Y-91782433D01*
X189836804Y-91603981D01*
X190000385Y-91398857D01*
X190131567Y-91171643D01*
X190227419Y-90927416D01*
X190285801Y-90671630D01*
X190305407Y-90410000D01*
X190285801Y-90148370D01*
X190227419Y-89892584D01*
X190131567Y-89648357D01*
X190112597Y-89615500D01*
X190000388Y-89421147D01*
X190000385Y-89421143D01*
X189911243Y-89309362D01*
X189900861Y-89273325D01*
X189919002Y-89240501D01*
X189936867Y-89231481D01*
X189993186Y-89216392D01*
X189993190Y-89216389D01*
X189993203Y-89216386D01*
X189994177Y-89215980D01*
X189994293Y-89215932D01*
X189994533Y-89215832D01*
X189994533Y-89215831D01*
X189994536Y-89215831D01*
X190051061Y-89182977D01*
X190051069Y-89182991D01*
X190051172Y-89182912D01*
X190107314Y-89150500D01*
X190107316Y-89150497D01*
X190107321Y-89150495D01*
X190108309Y-89149734D01*
X190108395Y-89149668D01*
X190108466Y-89149613D01*
X190108473Y-89149609D01*
X190108479Y-89149603D01*
X190154400Y-89103414D01*
X190154501Y-89103313D01*
X190177501Y-89080312D01*
X190200500Y-89057314D01*
X190200501Y-89057311D01*
X190200504Y-89057309D01*
X190201020Y-89056634D01*
X190201097Y-89056533D01*
X190201390Y-89056150D01*
X190233776Y-88999678D01*
X190233847Y-88999553D01*
X190254241Y-88964231D01*
X190254242Y-88964230D01*
X194369200Y-88964230D01*
X194369200Y-89115769D01*
X194408418Y-89262133D01*
X194408419Y-89262137D01*
X194484185Y-89393365D01*
X194591335Y-89500515D01*
X194639366Y-89528246D01*
X194722562Y-89576280D01*
X194722564Y-89576280D01*
X194722565Y-89576281D01*
X194838003Y-89607212D01*
X194868930Y-89615499D01*
X194868931Y-89615500D01*
X194868934Y-89615500D01*
X195020469Y-89615500D01*
X195020469Y-89615499D01*
X195166835Y-89576281D01*
X195298065Y-89500515D01*
X195405215Y-89393365D01*
X195480981Y-89262135D01*
X195520199Y-89115769D01*
X195520200Y-89115769D01*
X195520200Y-88964231D01*
X195520199Y-88964230D01*
X195480702Y-88816823D01*
X195485597Y-88779641D01*
X195515350Y-88756811D01*
X195528032Y-88755141D01*
X196001901Y-88755141D01*
X196001901Y-86504117D01*
X194864421Y-86504117D01*
X194864421Y-88428110D01*
X194850069Y-88462758D01*
X194828103Y-88475440D01*
X194722565Y-88503718D01*
X194722562Y-88503719D01*
X194591334Y-88579485D01*
X194591334Y-88579486D01*
X194484186Y-88686634D01*
X194484185Y-88686634D01*
X194408419Y-88817862D01*
X194408418Y-88817866D01*
X194369200Y-88964230D01*
X190254242Y-88964230D01*
X190266392Y-88943186D01*
X190266392Y-88943183D01*
X190266397Y-88943176D01*
X190266718Y-88942396D01*
X190266778Y-88942251D01*
X190266948Y-88941839D01*
X190266948Y-88941838D01*
X190266950Y-88941835D01*
X190283680Y-88878662D01*
X190300500Y-88815892D01*
X190300500Y-88815891D01*
X190300503Y-88815881D01*
X190300591Y-88815198D01*
X190300614Y-88815024D01*
X190300688Y-88814457D01*
X190300687Y-88814446D01*
X190300689Y-88814443D01*
X190300500Y-88749188D01*
X190300500Y-88684108D01*
X190300500Y-88682518D01*
X190300297Y-88679510D01*
X190296794Y-87469641D01*
X190311046Y-87434952D01*
X190345652Y-87420500D01*
X190615421Y-87420500D01*
X190650069Y-87434852D01*
X190664421Y-87469500D01*
X190664421Y-88755141D01*
X191801901Y-88755141D01*
X191801901Y-87469500D01*
X191816253Y-87434852D01*
X191850901Y-87420500D01*
X192781869Y-87420500D01*
X192787659Y-87420843D01*
X192789004Y-87421003D01*
X192820741Y-87424780D01*
X192846909Y-87421002D01*
X192853909Y-87420500D01*
X192880347Y-87420500D01*
X192880349Y-87420500D01*
X192912529Y-87411876D01*
X192918189Y-87410713D01*
X192951173Y-87405954D01*
X192975472Y-87395531D01*
X192982097Y-87393236D01*
X193007643Y-87386392D01*
X193036493Y-87369734D01*
X193041676Y-87367139D01*
X193054297Y-87361725D01*
X193072289Y-87354010D01*
X193093063Y-87337653D01*
X193098872Y-87333720D01*
X193103438Y-87331083D01*
X193121771Y-87320500D01*
X193145333Y-87296936D01*
X193149665Y-87293091D01*
X193175833Y-87272490D01*
X193191672Y-87251305D01*
X193196247Y-87246022D01*
X193214957Y-87227314D01*
X193231615Y-87198459D01*
X193234801Y-87193626D01*
X193254751Y-87166948D01*
X193264566Y-87142388D01*
X193267623Y-87136092D01*
X193280849Y-87113186D01*
X193289475Y-87080990D01*
X193291295Y-87075516D01*
X193303663Y-87044577D01*
X193306788Y-87018312D01*
X193308111Y-87011437D01*
X193314957Y-86985892D01*
X193314957Y-86956237D01*
X193315391Y-86949730D01*
X193343733Y-86738189D01*
X193474925Y-85758970D01*
X193475137Y-85757552D01*
X193534336Y-85396793D01*
X193674363Y-84543465D01*
X193674615Y-84542060D01*
X193758848Y-84109003D01*
X193909542Y-83334258D01*
X193909818Y-83332946D01*
X194180218Y-82132611D01*
X194180533Y-82131302D01*
X194486172Y-80939469D01*
X194486548Y-80938090D01*
X194827150Y-79755829D01*
X194827570Y-79754448D01*
X195202875Y-78582657D01*
X195203291Y-78581423D01*
X195612963Y-77421171D01*
X195613410Y-77419961D01*
X196057105Y-76272224D01*
X196057598Y-76271004D01*
X196534883Y-75136901D01*
X196535408Y-75135704D01*
X197045917Y-74016105D01*
X197046461Y-74014958D01*
X197589755Y-72910835D01*
X197590333Y-72909704D01*
X198165869Y-71822155D01*
X198166515Y-71820977D01*
X198773827Y-70750876D01*
X198774522Y-70749692D01*
X199413104Y-69697932D01*
X199413790Y-69696838D01*
X200083094Y-68664319D01*
X200083839Y-68663207D01*
X200783258Y-67650868D01*
X200784042Y-67649769D01*
X201512965Y-66658496D01*
X201513752Y-66657456D01*
X202271587Y-65688051D01*
X202272450Y-65686981D01*
X203058471Y-64740371D01*
X203059340Y-64739354D01*
X203872954Y-63816257D01*
X203873841Y-63815280D01*
X204714269Y-62916580D01*
X204715213Y-62915600D01*
X205581710Y-62042087D01*
X205582739Y-62041081D01*
X205909682Y-61730358D01*
X206474597Y-61193469D01*
X206475581Y-61192561D01*
X207392059Y-60371556D01*
X207393076Y-60370672D01*
X208333339Y-59577024D01*
X208334381Y-59576171D01*
X208589579Y-59373331D01*
X208625632Y-59363008D01*
X208658426Y-59381202D01*
G37*
%TD.AperFunction*%
%TD*%
%TA.AperFunction,Conductor*%
%TO.N,/Battery-*%
G36*
X203087610Y-84074352D02*
G01*
X203585348Y-84572090D01*
X203599700Y-84606738D01*
X203599700Y-85616571D01*
X203595970Y-85635322D01*
X203546120Y-85755670D01*
X203546118Y-85755679D01*
X203519200Y-85891002D01*
X203519200Y-86031000D01*
X203504848Y-86065648D01*
X203470200Y-86080000D01*
X201188700Y-86080000D01*
X201154052Y-86065648D01*
X201139700Y-86031000D01*
X201139700Y-84109000D01*
X201154052Y-84074352D01*
X201188700Y-84060000D01*
X203052962Y-84060000D01*
X203087610Y-84074352D01*
G37*
%TD.AperFunction*%
%TD*%
%TA.AperFunction,Conductor*%
%TO.N,+BATT*%
G36*
X205835348Y-85414352D02*
G01*
X205849700Y-85449000D01*
X205849700Y-87811000D01*
X205835348Y-87845648D01*
X205800700Y-87860000D01*
X203878700Y-87860000D01*
X203844052Y-87845648D01*
X203829700Y-87811000D01*
X203829700Y-85449000D01*
X203844052Y-85414352D01*
X203878700Y-85400000D01*
X205800700Y-85400000D01*
X205835348Y-85414352D01*
G37*
%TD.AperFunction*%
%TD*%
M02*
