%TF.GenerationSoftware,KiCad,Pcbnew,8.0.5*%
%TF.CreationDate,2025-01-30T01:50:47+01:00*%
%TF.ProjectId,LAMP_OUTDOOR_BATTERY_PANEL,4c414d50-5f4f-4555-9444-4f4f525f4241,rev?*%
%TF.SameCoordinates,Original*%
%TF.FileFunction,Drillmap*%
%TF.FilePolarity,Positive*%
%FSLAX45Y45*%
G04 Gerber Fmt 4.5, Leading zero omitted, Abs format (unit mm)*
G04 Created by KiCad (PCBNEW 8.0.5) date 2025-01-30 01:50:47*
%MOMM*%
%LPD*%
G01*
G04 APERTURE LIST*
%ADD10C,0.050000*%
%ADD11C,0.200000*%
%ADD12C,0.100000*%
%ADD13C,0.270000*%
G04 APERTURE END LIST*
D10*
X22030500Y-12200000D02*
G75*
G02*
X21735500Y-12200000I-147500J0D01*
G01*
X21735500Y-12200000D02*
G75*
G02*
X22030500Y-12200000I147500J0D01*
G01*
X22030500Y-6200000D02*
G75*
G02*
X21735500Y-6200000I-147500J0D01*
G01*
X21735500Y-6200000D02*
G75*
G02*
X22030500Y-6200000I147500J0D01*
G01*
D11*
X21633000Y-8875000D02*
X21633000Y-7281000D01*
X21633000Y-11268000D02*
X21633000Y-9509000D01*
X21633000Y-12617000D02*
X21633000Y-11902000D01*
X22133000Y-12617000D02*
X21633000Y-12617000D01*
X22133000Y-5783000D02*
X22133000Y-12617000D01*
X21633000Y-5783000D02*
X22133000Y-5783000D01*
X21633000Y-6647000D02*
X21633000Y-5783000D01*
X21383000Y-6647000D02*
X21382440Y-6078956D01*
X21382680Y-7280000D02*
X21382680Y-7280000D01*
X21383000Y-8875000D02*
X21383012Y-7281000D01*
X21383000Y-11268000D02*
X21383012Y-9509000D01*
D10*
X21633000Y-11434000D02*
G75*
G02*
X21383000Y-11434000I-125000J0D01*
G01*
X21383000Y-11434000D02*
G75*
G02*
X21633000Y-11434000I125000J0D01*
G01*
D11*
X21633000Y-11268000D02*
X21383000Y-11268000D01*
D10*
X21633000Y-11735000D02*
G75*
G02*
X21383000Y-11735000I-125000J0D01*
G01*
X21383000Y-11735000D02*
G75*
G02*
X21633000Y-11735000I125000J0D01*
G01*
D11*
X21633000Y-11902000D02*
X21383012Y-11902000D01*
D10*
X21633000Y-9041000D02*
G75*
G02*
X21383000Y-9041000I-125000J0D01*
G01*
X21383000Y-9041000D02*
G75*
G02*
X21633000Y-9041000I125000J0D01*
G01*
D11*
X21633000Y-9509000D02*
X21383012Y-9509000D01*
D10*
X21633000Y-9342000D02*
G75*
G02*
X21383000Y-9342000I-125000J0D01*
G01*
X21383000Y-9342000D02*
G75*
G02*
X21633000Y-9342000I125000J0D01*
G01*
D11*
X21633000Y-8875000D02*
X21383000Y-8875000D01*
D10*
X21633000Y-6813000D02*
G75*
G02*
X21383000Y-6813000I-125000J0D01*
G01*
X21383000Y-6813000D02*
G75*
G02*
X21633000Y-6813000I125000J0D01*
G01*
D11*
X21633000Y-7281000D02*
X21383012Y-7281000D01*
D10*
X21633000Y-7114000D02*
G75*
G02*
X21383000Y-7114000I-125000J0D01*
G01*
X21383000Y-7114000D02*
G75*
G02*
X21633000Y-7114000I125000J0D01*
G01*
D11*
X21633000Y-6647000D02*
X21383000Y-6647000D01*
X18980000Y-9509000D02*
X18979470Y-9692000D01*
X18730000Y-8875000D02*
X18729440Y-6078956D01*
D10*
X18980000Y-9342000D02*
G75*
G02*
X18730000Y-9342000I-125000J0D01*
G01*
X18730000Y-9342000D02*
G75*
G02*
X18980000Y-9342000I125000J0D01*
G01*
X18980000Y-9041000D02*
G75*
G02*
X18730000Y-9041000I-125000J0D01*
G01*
X18730000Y-9041000D02*
G75*
G02*
X18980000Y-9041000I125000J0D01*
G01*
D11*
X18980000Y-9509000D02*
X18730012Y-9509000D01*
X18980000Y-8875000D02*
X18730000Y-8875000D01*
D10*
X16326470Y-9342000D02*
G75*
G02*
X16076470Y-9342000I-125000J0D01*
G01*
X16076470Y-9342000D02*
G75*
G02*
X16326470Y-9342000I125000J0D01*
G01*
X16326470Y-9041000D02*
G75*
G02*
X16076470Y-9041000I-125000J0D01*
G01*
X16076470Y-9041000D02*
G75*
G02*
X16326470Y-9041000I125000J0D01*
G01*
D11*
X16326470Y-9509000D02*
X16326470Y-9692000D01*
X16326470Y-9509000D02*
X16076482Y-9509000D01*
X16076470Y-8875000D02*
X16076470Y-6078956D01*
X16326470Y-8875000D02*
X16076470Y-8875000D01*
X13673500Y-8692000D02*
X13673500Y-9692000D01*
X15593283Y-12542620D02*
G75*
G02*
X13975476Y-9692000I2583547J3350620D01*
G01*
X13673500Y-9692000D02*
X13975476Y-9692000D01*
X16076470Y-12305044D02*
X16076482Y-9509000D01*
X13975476Y-8692000D02*
X13673500Y-8692000D01*
X15593283Y-5841379D02*
G75*
G02*
X16076473Y-6078956I183187J-237581D01*
G01*
X16076470Y-12305044D02*
G75*
G02*
X15593285Y-12542618I-300000J4D01*
G01*
X13975476Y-8692000D02*
G75*
G02*
X15593283Y-5841379I4201354J-500000D01*
G01*
X16326470Y-8692000D02*
X16326470Y-8875000D01*
X18246253Y-12542620D02*
G75*
G02*
X16628446Y-9692000I2583551J3350623D01*
G01*
X16326470Y-9692000D02*
X16628446Y-9692000D01*
X16628446Y-8692000D02*
X16326470Y-8692000D01*
X18246253Y-5841379D02*
G75*
G02*
X18729440Y-6078956I183187J-237577D01*
G01*
X18729440Y-12305044D02*
X18730012Y-9509000D01*
X18729440Y-12305044D02*
G75*
G02*
X18246253Y-12542620I-300003J6D01*
G01*
X16628446Y-8692000D02*
G75*
G02*
X18246253Y-5841379I4201350J-499999D01*
G01*
X18979470Y-8692000D02*
X18980000Y-8875000D01*
X20899253Y-12542620D02*
G75*
G02*
X19281446Y-9692000I2583551J3350623D01*
G01*
X18979470Y-9692000D02*
X19281446Y-9692000D01*
X19281446Y-8692000D02*
X18979470Y-8692000D01*
X20899253Y-5841379D02*
G75*
G02*
X21382440Y-6078956I183187J-237577D01*
G01*
X21382440Y-12305044D02*
X21383012Y-11902000D01*
X21382440Y-12305044D02*
G75*
G02*
X20899253Y-12542620I-300003J6D01*
G01*
X19281446Y-8692000D02*
G75*
G02*
X20899253Y-5841379I4201350J-499999D01*
G01*
D12*
X14012000Y-8833000D02*
X14042000Y-8863000D01*
X14042000Y-8833000D02*
X14012000Y-8863000D01*
X14012000Y-9131000D02*
X14042000Y-9161000D01*
X14042000Y-9131000D02*
X14012000Y-9161000D01*
X14012000Y-9413000D02*
X14042000Y-9443000D01*
X14042000Y-9413000D02*
X14012000Y-9443000D01*
X14076000Y-8554000D02*
X14106000Y-8584000D01*
X14106000Y-8554000D02*
X14076000Y-8584000D01*
X14097000Y-9808000D02*
X14127000Y-9838000D01*
X14127000Y-9808000D02*
X14097000Y-9838000D01*
X14342000Y-9951000D02*
X14372000Y-9981000D01*
X14372000Y-9951000D02*
X14342000Y-9981000D01*
X14367000Y-10164000D02*
X14397000Y-10194000D01*
X14397000Y-10164000D02*
X14367000Y-10194000D01*
X14454000Y-8749000D02*
X14484000Y-8779000D01*
X14484000Y-8749000D02*
X14454000Y-8779000D01*
X14484000Y-9456000D02*
X14514000Y-9486000D01*
X14514000Y-9456000D02*
X14484000Y-9486000D01*
X14495000Y-10540000D02*
X14525000Y-10570000D01*
X14525000Y-10540000D02*
X14495000Y-10570000D01*
X14631000Y-10910000D02*
X14661000Y-10940000D01*
X14661000Y-10910000D02*
X14631000Y-10940000D01*
X14708000Y-6967000D02*
X14738000Y-6997000D01*
X14738000Y-6967000D02*
X14708000Y-6997000D01*
X14708000Y-7308072D02*
X14738000Y-7338072D01*
X14738000Y-7308072D02*
X14708000Y-7338072D01*
X14708000Y-7628072D02*
X14738000Y-7658072D01*
X14738000Y-7628072D02*
X14708000Y-7658072D01*
X14775000Y-9317000D02*
X14805000Y-9347000D01*
X14805000Y-9317000D02*
X14775000Y-9347000D01*
X14804000Y-9665000D02*
X14834000Y-9695000D01*
X14834000Y-9665000D02*
X14804000Y-9695000D01*
X14843000Y-8430000D02*
X14873000Y-8460000D01*
X14873000Y-8430000D02*
X14843000Y-8460000D01*
X14843000Y-8555000D02*
X14873000Y-8585000D01*
X14873000Y-8555000D02*
X14843000Y-8585000D01*
X14983000Y-8430000D02*
X15013000Y-8460000D01*
X15013000Y-8430000D02*
X14983000Y-8460000D01*
X14983000Y-8555000D02*
X15013000Y-8585000D01*
X15013000Y-8555000D02*
X14983000Y-8585000D01*
X15004000Y-10726000D02*
X15034000Y-10756000D01*
X15034000Y-10726000D02*
X15004000Y-10756000D01*
X15033000Y-9670000D02*
X15063000Y-9700000D01*
X15063000Y-9670000D02*
X15033000Y-9700000D01*
X15064000Y-10103000D02*
X15094000Y-10133000D01*
X15094000Y-10103000D02*
X15064000Y-10133000D01*
X15094928Y-11887000D02*
X15124928Y-11917000D01*
X15124928Y-11887000D02*
X15094928Y-11917000D01*
X15101000Y-8581000D02*
X15131000Y-8611000D01*
X15131000Y-8581000D02*
X15101000Y-8611000D01*
X15101000Y-8721000D02*
X15131000Y-8751000D01*
X15131000Y-8721000D02*
X15101000Y-8751000D01*
X15167000Y-6970000D02*
X15197000Y-7000000D01*
X15197000Y-6970000D02*
X15167000Y-7000000D01*
X15167000Y-7311072D02*
X15197000Y-7341072D01*
X15197000Y-7311072D02*
X15167000Y-7341072D01*
X15167000Y-7631072D02*
X15197000Y-7661072D01*
X15197000Y-7631072D02*
X15167000Y-7661072D01*
X15207000Y-6693000D02*
X15237000Y-6723000D01*
X15237000Y-6693000D02*
X15207000Y-6723000D01*
X15226000Y-8581000D02*
X15256000Y-8611000D01*
X15256000Y-8581000D02*
X15226000Y-8611000D01*
X15226000Y-8721000D02*
X15256000Y-8751000D01*
X15256000Y-8721000D02*
X15226000Y-8751000D01*
X15233000Y-11723000D02*
X15263000Y-11753000D01*
X15263000Y-11723000D02*
X15233000Y-11753000D01*
X15239928Y-11553000D02*
X15269928Y-11583000D01*
X15269928Y-11553000D02*
X15239928Y-11583000D01*
X15260000Y-11887000D02*
X15290000Y-11917000D01*
X15290000Y-11887000D02*
X15260000Y-11917000D01*
X15296000Y-6634000D02*
X15326000Y-6664000D01*
X15326000Y-6634000D02*
X15296000Y-6664000D01*
X15372000Y-11723000D02*
X15402000Y-11753000D01*
X15402000Y-11723000D02*
X15372000Y-11753000D01*
X15403000Y-6634000D02*
X15433000Y-6664000D01*
X15433000Y-6634000D02*
X15403000Y-6664000D01*
X15405000Y-11553000D02*
X15435000Y-11583000D01*
X15435000Y-11553000D02*
X15405000Y-11583000D01*
X15430000Y-8098000D02*
X15460000Y-8128000D01*
X15460000Y-8098000D02*
X15430000Y-8128000D01*
X15515000Y-6963000D02*
X15545000Y-6993000D01*
X15545000Y-6963000D02*
X15515000Y-6993000D01*
X15515000Y-7304072D02*
X15545000Y-7334072D01*
X15545000Y-7304072D02*
X15515000Y-7334072D01*
X15515000Y-7624072D02*
X15545000Y-7654072D01*
X15545000Y-7624072D02*
X15515000Y-7654072D01*
X15536000Y-10715000D02*
X15566000Y-10745000D01*
X15566000Y-10715000D02*
X15536000Y-10745000D01*
X15554000Y-8796000D02*
X15584000Y-8826000D01*
X15584000Y-8796000D02*
X15554000Y-8826000D01*
X15554000Y-9137072D02*
X15584000Y-9167072D01*
X15584000Y-9137072D02*
X15554000Y-9167072D01*
X15554000Y-9457072D02*
X15584000Y-9487072D01*
X15584000Y-9457072D02*
X15554000Y-9487072D01*
X15557000Y-9759000D02*
X15587000Y-9789000D01*
X15587000Y-9759000D02*
X15557000Y-9789000D01*
X15557000Y-10079000D02*
X15587000Y-10109000D01*
X15587000Y-10079000D02*
X15557000Y-10109000D01*
X15857000Y-6960000D02*
X15887000Y-6990000D01*
X15887000Y-6960000D02*
X15857000Y-6990000D01*
X15857000Y-7280000D02*
X15887000Y-7310000D01*
X15887000Y-7280000D02*
X15857000Y-7310000D01*
X15857000Y-7621072D02*
X15887000Y-7651072D01*
X15887000Y-7621072D02*
X15857000Y-7651072D01*
X15891000Y-8817000D02*
X15921000Y-8847000D01*
X15921000Y-8817000D02*
X15891000Y-8847000D01*
X15891000Y-9137000D02*
X15921000Y-9167000D01*
X15921000Y-9137000D02*
X15891000Y-9167000D01*
X15891000Y-9478072D02*
X15921000Y-9508072D01*
X15921000Y-9478072D02*
X15891000Y-9508072D01*
X15894000Y-9758928D02*
X15924000Y-9788928D01*
X15924000Y-9758928D02*
X15894000Y-9788928D01*
X15899000Y-10076000D02*
X15929000Y-10106000D01*
X15929000Y-10076000D02*
X15899000Y-10106000D01*
X15930000Y-10523000D02*
X15960000Y-10553000D01*
X15960000Y-10523000D02*
X15930000Y-10553000D01*
X15932000Y-10719000D02*
X15962000Y-10749000D01*
X15962000Y-10719000D02*
X15932000Y-10749000D01*
X16664970Y-8833000D02*
X16694970Y-8863000D01*
X16694970Y-8833000D02*
X16664970Y-8863000D01*
X16664970Y-9131000D02*
X16694970Y-9161000D01*
X16694970Y-9131000D02*
X16664970Y-9161000D01*
X16664970Y-9413000D02*
X16694970Y-9443000D01*
X16694970Y-9413000D02*
X16664970Y-9443000D01*
X16728970Y-8554000D02*
X16758970Y-8584000D01*
X16758970Y-8554000D02*
X16728970Y-8584000D01*
X16749970Y-9808000D02*
X16779970Y-9838000D01*
X16779970Y-9808000D02*
X16749970Y-9838000D01*
X16994970Y-9951000D02*
X17024970Y-9981000D01*
X17024970Y-9951000D02*
X16994970Y-9981000D01*
X17019970Y-10164000D02*
X17049970Y-10194000D01*
X17049970Y-10164000D02*
X17019970Y-10194000D01*
X17106970Y-8749000D02*
X17136970Y-8779000D01*
X17136970Y-8749000D02*
X17106970Y-8779000D01*
X17136970Y-9456000D02*
X17166970Y-9486000D01*
X17166970Y-9456000D02*
X17136970Y-9486000D01*
X17147970Y-10540000D02*
X17177970Y-10570000D01*
X17177970Y-10540000D02*
X17147970Y-10570000D01*
X17283970Y-10910000D02*
X17313970Y-10940000D01*
X17313970Y-10910000D02*
X17283970Y-10940000D01*
X17360970Y-6967000D02*
X17390970Y-6997000D01*
X17390970Y-6967000D02*
X17360970Y-6997000D01*
X17360970Y-7308072D02*
X17390970Y-7338072D01*
X17390970Y-7308072D02*
X17360970Y-7338072D01*
X17360970Y-7628072D02*
X17390970Y-7658072D01*
X17390970Y-7628072D02*
X17360970Y-7658072D01*
X17427970Y-9317000D02*
X17457970Y-9347000D01*
X17457970Y-9317000D02*
X17427970Y-9347000D01*
X17456970Y-9665000D02*
X17486970Y-9695000D01*
X17486970Y-9665000D02*
X17456970Y-9695000D01*
X17495970Y-8430000D02*
X17525970Y-8460000D01*
X17525970Y-8430000D02*
X17495970Y-8460000D01*
X17495970Y-8555000D02*
X17525970Y-8585000D01*
X17525970Y-8555000D02*
X17495970Y-8585000D01*
X17635970Y-8430000D02*
X17665970Y-8460000D01*
X17665970Y-8430000D02*
X17635970Y-8460000D01*
X17635970Y-8555000D02*
X17665970Y-8585000D01*
X17665970Y-8555000D02*
X17635970Y-8585000D01*
X17656970Y-10726000D02*
X17686970Y-10756000D01*
X17686970Y-10726000D02*
X17656970Y-10756000D01*
X17685970Y-9670000D02*
X17715970Y-9700000D01*
X17715970Y-9670000D02*
X17685970Y-9700000D01*
X17716970Y-10103000D02*
X17746970Y-10133000D01*
X17746970Y-10103000D02*
X17716970Y-10133000D01*
X17747898Y-11887000D02*
X17777898Y-11917000D01*
X17777898Y-11887000D02*
X17747898Y-11917000D01*
X17753970Y-8581000D02*
X17783970Y-8611000D01*
X17783970Y-8581000D02*
X17753970Y-8611000D01*
X17753970Y-8721000D02*
X17783970Y-8751000D01*
X17783970Y-8721000D02*
X17753970Y-8751000D01*
X17819970Y-6970000D02*
X17849970Y-7000000D01*
X17849970Y-6970000D02*
X17819970Y-7000000D01*
X17819970Y-7311072D02*
X17849970Y-7341072D01*
X17849970Y-7311072D02*
X17819970Y-7341072D01*
X17819970Y-7631072D02*
X17849970Y-7661072D01*
X17849970Y-7631072D02*
X17819970Y-7661072D01*
X17859970Y-6693000D02*
X17889970Y-6723000D01*
X17889970Y-6693000D02*
X17859970Y-6723000D01*
X17878970Y-8581000D02*
X17908970Y-8611000D01*
X17908970Y-8581000D02*
X17878970Y-8611000D01*
X17878970Y-8721000D02*
X17908970Y-8751000D01*
X17908970Y-8721000D02*
X17878970Y-8751000D01*
X17885970Y-11723000D02*
X17915970Y-11753000D01*
X17915970Y-11723000D02*
X17885970Y-11753000D01*
X17892898Y-11553000D02*
X17922898Y-11583000D01*
X17922898Y-11553000D02*
X17892898Y-11583000D01*
X17912970Y-11887000D02*
X17942970Y-11917000D01*
X17942970Y-11887000D02*
X17912970Y-11917000D01*
X17948970Y-6634000D02*
X17978970Y-6664000D01*
X17978970Y-6634000D02*
X17948970Y-6664000D01*
X18024970Y-11723000D02*
X18054970Y-11753000D01*
X18054970Y-11723000D02*
X18024970Y-11753000D01*
X18055970Y-6634000D02*
X18085970Y-6664000D01*
X18085970Y-6634000D02*
X18055970Y-6664000D01*
X18057970Y-11553000D02*
X18087970Y-11583000D01*
X18087970Y-11553000D02*
X18057970Y-11583000D01*
X18082970Y-8098000D02*
X18112970Y-8128000D01*
X18112970Y-8098000D02*
X18082970Y-8128000D01*
X18167970Y-6963000D02*
X18197970Y-6993000D01*
X18197970Y-6963000D02*
X18167970Y-6993000D01*
X18167970Y-7304072D02*
X18197970Y-7334072D01*
X18197970Y-7304072D02*
X18167970Y-7334072D01*
X18167970Y-7624072D02*
X18197970Y-7654072D01*
X18197970Y-7624072D02*
X18167970Y-7654072D01*
X18188970Y-10715000D02*
X18218970Y-10745000D01*
X18218970Y-10715000D02*
X18188970Y-10745000D01*
X18206970Y-8796000D02*
X18236970Y-8826000D01*
X18236970Y-8796000D02*
X18206970Y-8826000D01*
X18206970Y-9137072D02*
X18236970Y-9167072D01*
X18236970Y-9137072D02*
X18206970Y-9167072D01*
X18206970Y-9457072D02*
X18236970Y-9487072D01*
X18236970Y-9457072D02*
X18206970Y-9487072D01*
X18209970Y-9759000D02*
X18239970Y-9789000D01*
X18239970Y-9759000D02*
X18209970Y-9789000D01*
X18209970Y-10079000D02*
X18239970Y-10109000D01*
X18239970Y-10079000D02*
X18209970Y-10109000D01*
X18509970Y-6960000D02*
X18539970Y-6990000D01*
X18539970Y-6960000D02*
X18509970Y-6990000D01*
X18509970Y-7280000D02*
X18539970Y-7310000D01*
X18539970Y-7280000D02*
X18509970Y-7310000D01*
X18509970Y-7621072D02*
X18539970Y-7651072D01*
X18539970Y-7621072D02*
X18509970Y-7651072D01*
X18543970Y-8817000D02*
X18573970Y-8847000D01*
X18573970Y-8817000D02*
X18543970Y-8847000D01*
X18543970Y-9137000D02*
X18573970Y-9167000D01*
X18573970Y-9137000D02*
X18543970Y-9167000D01*
X18543970Y-9478072D02*
X18573970Y-9508072D01*
X18573970Y-9478072D02*
X18543970Y-9508072D01*
X18546970Y-9758928D02*
X18576970Y-9788928D01*
X18576970Y-9758928D02*
X18546970Y-9788928D01*
X18551970Y-10076000D02*
X18581970Y-10106000D01*
X18581970Y-10076000D02*
X18551970Y-10106000D01*
X18582970Y-10523000D02*
X18612970Y-10553000D01*
X18612970Y-10523000D02*
X18582970Y-10553000D01*
X18584970Y-10719000D02*
X18614970Y-10749000D01*
X18614970Y-10719000D02*
X18584970Y-10749000D01*
X19317970Y-8833000D02*
X19347970Y-8863000D01*
X19347970Y-8833000D02*
X19317970Y-8863000D01*
X19317970Y-9131000D02*
X19347970Y-9161000D01*
X19347970Y-9131000D02*
X19317970Y-9161000D01*
X19317970Y-9413000D02*
X19347970Y-9443000D01*
X19347970Y-9413000D02*
X19317970Y-9443000D01*
X19381970Y-8554000D02*
X19411970Y-8584000D01*
X19411970Y-8554000D02*
X19381970Y-8584000D01*
X19402970Y-9808000D02*
X19432970Y-9838000D01*
X19432970Y-9808000D02*
X19402970Y-9838000D01*
X19647970Y-9951000D02*
X19677970Y-9981000D01*
X19677970Y-9951000D02*
X19647970Y-9981000D01*
X19672970Y-10164000D02*
X19702970Y-10194000D01*
X19702970Y-10164000D02*
X19672970Y-10194000D01*
X19759970Y-8749000D02*
X19789970Y-8779000D01*
X19789970Y-8749000D02*
X19759970Y-8779000D01*
X19789970Y-9456000D02*
X19819970Y-9486000D01*
X19819970Y-9456000D02*
X19789970Y-9486000D01*
X19800970Y-10540000D02*
X19830970Y-10570000D01*
X19830970Y-10540000D02*
X19800970Y-10570000D01*
X19936970Y-10910000D02*
X19966970Y-10940000D01*
X19966970Y-10910000D02*
X19936970Y-10940000D01*
X20013970Y-6967000D02*
X20043970Y-6997000D01*
X20043970Y-6967000D02*
X20013970Y-6997000D01*
X20013970Y-7308072D02*
X20043970Y-7338072D01*
X20043970Y-7308072D02*
X20013970Y-7338072D01*
X20013970Y-7628072D02*
X20043970Y-7658072D01*
X20043970Y-7628072D02*
X20013970Y-7658072D01*
X20080970Y-9317000D02*
X20110970Y-9347000D01*
X20110970Y-9317000D02*
X20080970Y-9347000D01*
X20109970Y-9665000D02*
X20139970Y-9695000D01*
X20139970Y-9665000D02*
X20109970Y-9695000D01*
X20148970Y-8430000D02*
X20178970Y-8460000D01*
X20178970Y-8430000D02*
X20148970Y-8460000D01*
X20148970Y-8555000D02*
X20178970Y-8585000D01*
X20178970Y-8555000D02*
X20148970Y-8585000D01*
X20288970Y-8430000D02*
X20318970Y-8460000D01*
X20318970Y-8430000D02*
X20288970Y-8460000D01*
X20288970Y-8555000D02*
X20318970Y-8585000D01*
X20318970Y-8555000D02*
X20288970Y-8585000D01*
X20309970Y-10726000D02*
X20339970Y-10756000D01*
X20339970Y-10726000D02*
X20309970Y-10756000D01*
X20338970Y-9670000D02*
X20368970Y-9700000D01*
X20368970Y-9670000D02*
X20338970Y-9700000D01*
X20369970Y-10103000D02*
X20399970Y-10133000D01*
X20399970Y-10103000D02*
X20369970Y-10133000D01*
X20400898Y-11887000D02*
X20430898Y-11917000D01*
X20430898Y-11887000D02*
X20400898Y-11917000D01*
X20406970Y-8581000D02*
X20436970Y-8611000D01*
X20436970Y-8581000D02*
X20406970Y-8611000D01*
X20406970Y-8721000D02*
X20436970Y-8751000D01*
X20436970Y-8721000D02*
X20406970Y-8751000D01*
X20472970Y-6970000D02*
X20502970Y-7000000D01*
X20502970Y-6970000D02*
X20472970Y-7000000D01*
X20472970Y-7311072D02*
X20502970Y-7341072D01*
X20502970Y-7311072D02*
X20472970Y-7341072D01*
X20472970Y-7631072D02*
X20502970Y-7661072D01*
X20502970Y-7631072D02*
X20472970Y-7661072D01*
X20512970Y-6693000D02*
X20542970Y-6723000D01*
X20542970Y-6693000D02*
X20512970Y-6723000D01*
X20531970Y-8581000D02*
X20561970Y-8611000D01*
X20561970Y-8581000D02*
X20531970Y-8611000D01*
X20531970Y-8721000D02*
X20561970Y-8751000D01*
X20561970Y-8721000D02*
X20531970Y-8751000D01*
X20538970Y-11723000D02*
X20568970Y-11753000D01*
X20568970Y-11723000D02*
X20538970Y-11753000D01*
X20545898Y-11553000D02*
X20575898Y-11583000D01*
X20575898Y-11553000D02*
X20545898Y-11583000D01*
X20565970Y-11887000D02*
X20595970Y-11917000D01*
X20595970Y-11887000D02*
X20565970Y-11917000D01*
X20601970Y-6634000D02*
X20631970Y-6664000D01*
X20631970Y-6634000D02*
X20601970Y-6664000D01*
X20677970Y-11723000D02*
X20707970Y-11753000D01*
X20707970Y-11723000D02*
X20677970Y-11753000D01*
X20708970Y-6634000D02*
X20738970Y-6664000D01*
X20738970Y-6634000D02*
X20708970Y-6664000D01*
X20710970Y-11553000D02*
X20740970Y-11583000D01*
X20740970Y-11553000D02*
X20710970Y-11583000D01*
X20735970Y-8098000D02*
X20765970Y-8128000D01*
X20765970Y-8098000D02*
X20735970Y-8128000D01*
X20820970Y-6963000D02*
X20850970Y-6993000D01*
X20850970Y-6963000D02*
X20820970Y-6993000D01*
X20820970Y-7304072D02*
X20850970Y-7334072D01*
X20850970Y-7304072D02*
X20820970Y-7334072D01*
X20820970Y-7624072D02*
X20850970Y-7654072D01*
X20850970Y-7624072D02*
X20820970Y-7654072D01*
X20841970Y-10715000D02*
X20871970Y-10745000D01*
X20871970Y-10715000D02*
X20841970Y-10745000D01*
X20859970Y-8796000D02*
X20889970Y-8826000D01*
X20889970Y-8796000D02*
X20859970Y-8826000D01*
X20859970Y-9137072D02*
X20889970Y-9167072D01*
X20889970Y-9137072D02*
X20859970Y-9167072D01*
X20859970Y-9457072D02*
X20889970Y-9487072D01*
X20889970Y-9457072D02*
X20859970Y-9487072D01*
X20862970Y-9759000D02*
X20892970Y-9789000D01*
X20892970Y-9759000D02*
X20862970Y-9789000D01*
X20862970Y-10079000D02*
X20892970Y-10109000D01*
X20892970Y-10079000D02*
X20862970Y-10109000D01*
X21162970Y-6960000D02*
X21192970Y-6990000D01*
X21192970Y-6960000D02*
X21162970Y-6990000D01*
X21162970Y-7280000D02*
X21192970Y-7310000D01*
X21192970Y-7280000D02*
X21162970Y-7310000D01*
X21162970Y-7621072D02*
X21192970Y-7651072D01*
X21192970Y-7621072D02*
X21162970Y-7651072D01*
X21196970Y-8817000D02*
X21226970Y-8847000D01*
X21226970Y-8817000D02*
X21196970Y-8847000D01*
X21196970Y-9137000D02*
X21226970Y-9167000D01*
X21226970Y-9137000D02*
X21196970Y-9167000D01*
X21196970Y-9478072D02*
X21226970Y-9508072D01*
X21226970Y-9478072D02*
X21196970Y-9508072D01*
X21199970Y-9758928D02*
X21229970Y-9788928D01*
X21229970Y-9758928D02*
X21199970Y-9788928D01*
X21204970Y-10076000D02*
X21234970Y-10106000D01*
X21234970Y-10076000D02*
X21204970Y-10106000D01*
X21235970Y-10523000D02*
X21265970Y-10553000D01*
X21265970Y-10523000D02*
X21235970Y-10553000D01*
X21237970Y-10719000D02*
X21267970Y-10749000D01*
X21267970Y-10719000D02*
X21237970Y-10749000D01*
X13850500Y-8761000D02*
G75*
G02*
X13790500Y-8761000I-30000J0D01*
G01*
X13790500Y-8761000D02*
G75*
G02*
X13850500Y-8761000I30000J0D01*
G01*
X13860500Y-8731000D02*
X13780500Y-8731000D01*
X13780500Y-8791000D02*
G75*
G02*
X13780500Y-8731000I0J30000D01*
G01*
X13780500Y-8791000D02*
X13860500Y-8791000D01*
X13860500Y-8791000D02*
G75*
G03*
X13860500Y-8731000I0J30000D01*
G01*
X13850500Y-9625000D02*
G75*
G02*
X13790500Y-9625000I-30000J0D01*
G01*
X13790500Y-9625000D02*
G75*
G02*
X13850500Y-9625000I30000J0D01*
G01*
X13860500Y-9595000D02*
X13780500Y-9595000D01*
X13780500Y-9655000D02*
G75*
G02*
X13780500Y-9595000I0J30000D01*
G01*
X13780500Y-9655000D02*
X13860500Y-9655000D01*
X13860500Y-9655000D02*
G75*
G03*
X13860500Y-9595000I0J30000D01*
G01*
X14268500Y-8761000D02*
G75*
G02*
X14208500Y-8761000I-30000J0D01*
G01*
X14208500Y-8761000D02*
G75*
G02*
X14268500Y-8761000I30000J0D01*
G01*
X14293500Y-8731000D02*
X14183500Y-8731000D01*
X14183500Y-8791000D02*
G75*
G02*
X14183500Y-8731000I0J30000D01*
G01*
X14183500Y-8791000D02*
X14293500Y-8791000D01*
X14293500Y-8791000D02*
G75*
G03*
X14293500Y-8731000I0J30000D01*
G01*
X14268500Y-9625000D02*
G75*
G02*
X14208500Y-9625000I-30000J0D01*
G01*
X14208500Y-9625000D02*
G75*
G02*
X14268500Y-9625000I30000J0D01*
G01*
X14293500Y-9595000D02*
X14183500Y-9595000D01*
X14183500Y-9655000D02*
G75*
G02*
X14183500Y-9595000I0J30000D01*
G01*
X14183500Y-9655000D02*
X14293500Y-9655000D01*
X14293500Y-9655000D02*
G75*
G03*
X14293500Y-9595000I0J30000D01*
G01*
X16503470Y-8761000D02*
G75*
G02*
X16443470Y-8761000I-30000J0D01*
G01*
X16443470Y-8761000D02*
G75*
G02*
X16503470Y-8761000I30000J0D01*
G01*
X16513470Y-8731000D02*
X16433470Y-8731000D01*
X16433470Y-8791000D02*
G75*
G02*
X16433470Y-8731000I0J30000D01*
G01*
X16433470Y-8791000D02*
X16513470Y-8791000D01*
X16513470Y-8791000D02*
G75*
G03*
X16513470Y-8731000I0J30000D01*
G01*
X16503470Y-9625000D02*
G75*
G02*
X16443470Y-9625000I-30000J0D01*
G01*
X16443470Y-9625000D02*
G75*
G02*
X16503470Y-9625000I30000J0D01*
G01*
X16513470Y-9595000D02*
X16433470Y-9595000D01*
X16433470Y-9655000D02*
G75*
G02*
X16433470Y-9595000I0J30000D01*
G01*
X16433470Y-9655000D02*
X16513470Y-9655000D01*
X16513470Y-9655000D02*
G75*
G03*
X16513470Y-9595000I0J30000D01*
G01*
X16921470Y-8761000D02*
G75*
G02*
X16861470Y-8761000I-30000J0D01*
G01*
X16861470Y-8761000D02*
G75*
G02*
X16921470Y-8761000I30000J0D01*
G01*
X16946470Y-8731000D02*
X16836470Y-8731000D01*
X16836470Y-8791000D02*
G75*
G02*
X16836470Y-8731000I0J30000D01*
G01*
X16836470Y-8791000D02*
X16946470Y-8791000D01*
X16946470Y-8791000D02*
G75*
G03*
X16946470Y-8731000I0J30000D01*
G01*
X16921470Y-9625000D02*
G75*
G02*
X16861470Y-9625000I-30000J0D01*
G01*
X16861470Y-9625000D02*
G75*
G02*
X16921470Y-9625000I30000J0D01*
G01*
X16946470Y-9595000D02*
X16836470Y-9595000D01*
X16836470Y-9655000D02*
G75*
G02*
X16836470Y-9595000I0J30000D01*
G01*
X16836470Y-9655000D02*
X16946470Y-9655000D01*
X16946470Y-9655000D02*
G75*
G03*
X16946470Y-9595000I0J30000D01*
G01*
X19156470Y-8761000D02*
G75*
G02*
X19096470Y-8761000I-30000J0D01*
G01*
X19096470Y-8761000D02*
G75*
G02*
X19156470Y-8761000I30000J0D01*
G01*
X19166470Y-8731000D02*
X19086470Y-8731000D01*
X19086470Y-8791000D02*
G75*
G02*
X19086470Y-8731000I0J30000D01*
G01*
X19086470Y-8791000D02*
X19166470Y-8791000D01*
X19166470Y-8791000D02*
G75*
G03*
X19166470Y-8731000I0J30000D01*
G01*
X19156470Y-9625000D02*
G75*
G02*
X19096470Y-9625000I-30000J0D01*
G01*
X19096470Y-9625000D02*
G75*
G02*
X19156470Y-9625000I30000J0D01*
G01*
X19166470Y-9595000D02*
X19086470Y-9595000D01*
X19086470Y-9655000D02*
G75*
G02*
X19086470Y-9595000I0J30000D01*
G01*
X19086470Y-9655000D02*
X19166470Y-9655000D01*
X19166470Y-9655000D02*
G75*
G03*
X19166470Y-9595000I0J30000D01*
G01*
X19574470Y-8761000D02*
G75*
G02*
X19514470Y-8761000I-30000J0D01*
G01*
X19514470Y-8761000D02*
G75*
G02*
X19574470Y-8761000I30000J0D01*
G01*
X19599470Y-8731000D02*
X19489470Y-8731000D01*
X19489470Y-8791000D02*
G75*
G02*
X19489470Y-8731000I0J30000D01*
G01*
X19489470Y-8791000D02*
X19599470Y-8791000D01*
X19599470Y-8791000D02*
G75*
G03*
X19599470Y-8731000I0J30000D01*
G01*
X19574470Y-9625000D02*
G75*
G02*
X19514470Y-9625000I-30000J0D01*
G01*
X19514470Y-9625000D02*
G75*
G02*
X19574470Y-9625000I30000J0D01*
G01*
X19599470Y-9595000D02*
X19489470Y-9595000D01*
X19489470Y-9655000D02*
G75*
G02*
X19489470Y-9595000I0J30000D01*
G01*
X19489470Y-9655000D02*
X19599470Y-9655000D01*
X19599470Y-9655000D02*
G75*
G03*
X19599470Y-9595000I0J30000D01*
G01*
X14829000Y-9831000D02*
X14829000Y-9931000D01*
X14779000Y-9881000D02*
X14879000Y-9881000D01*
X15083000Y-9831000D02*
X15083000Y-9931000D01*
X15033000Y-9881000D02*
X15133000Y-9881000D01*
X17481970Y-9831000D02*
X17481970Y-9931000D01*
X17431970Y-9881000D02*
X17531970Y-9881000D01*
X17735970Y-9831000D02*
X17735970Y-9931000D01*
X17685970Y-9881000D02*
X17785970Y-9881000D01*
X20134970Y-9831000D02*
X20134970Y-9931000D01*
X20084970Y-9881000D02*
X20184970Y-9881000D01*
X20388970Y-9831000D02*
X20388970Y-9931000D01*
X20338970Y-9881000D02*
X20438970Y-9881000D01*
D13*
X15871930Y-6174420D02*
X15871930Y-5983500D01*
X15681010Y-5983500D01*
X15681010Y-6174420D01*
X15871930Y-6174420D01*
X15871930Y-12400500D02*
X15871930Y-12209580D01*
X15681010Y-12209580D01*
X15681010Y-12400500D01*
X15871930Y-12400500D01*
X18524900Y-6174420D02*
X18524900Y-5983500D01*
X18333980Y-5983500D01*
X18333980Y-6174420D01*
X18524900Y-6174420D01*
X18524900Y-12400500D02*
X18524900Y-12209580D01*
X18333980Y-12209580D01*
X18333980Y-12400500D01*
X18524900Y-12400500D01*
X21177900Y-6174420D02*
X21177900Y-5983500D01*
X20986980Y-5983500D01*
X20986980Y-6174420D01*
X21177900Y-6174420D01*
X21177900Y-12400500D02*
X21177900Y-12209580D01*
X20986980Y-12209580D01*
X20986980Y-12400500D01*
X21177900Y-12400500D01*
D11*
X13924277Y-12938484D02*
X13924277Y-12738484D01*
X13924277Y-12738484D02*
X13971896Y-12738484D01*
X13971896Y-12738484D02*
X14000467Y-12748008D01*
X14000467Y-12748008D02*
X14019515Y-12767055D01*
X14019515Y-12767055D02*
X14029039Y-12786103D01*
X14029039Y-12786103D02*
X14038562Y-12824198D01*
X14038562Y-12824198D02*
X14038562Y-12852769D01*
X14038562Y-12852769D02*
X14029039Y-12890865D01*
X14029039Y-12890865D02*
X14019515Y-12909912D01*
X14019515Y-12909912D02*
X14000467Y-12928960D01*
X14000467Y-12928960D02*
X13971896Y-12938484D01*
X13971896Y-12938484D02*
X13924277Y-12938484D01*
X14124277Y-12938484D02*
X14124277Y-12805150D01*
X14124277Y-12843246D02*
X14133801Y-12824198D01*
X14133801Y-12824198D02*
X14143324Y-12814674D01*
X14143324Y-12814674D02*
X14162372Y-12805150D01*
X14162372Y-12805150D02*
X14181420Y-12805150D01*
X14248086Y-12938484D02*
X14248086Y-12805150D01*
X14248086Y-12738484D02*
X14238562Y-12748008D01*
X14238562Y-12748008D02*
X14248086Y-12757531D01*
X14248086Y-12757531D02*
X14257610Y-12748008D01*
X14257610Y-12748008D02*
X14248086Y-12738484D01*
X14248086Y-12738484D02*
X14248086Y-12757531D01*
X14371896Y-12938484D02*
X14352848Y-12928960D01*
X14352848Y-12928960D02*
X14343324Y-12909912D01*
X14343324Y-12909912D02*
X14343324Y-12738484D01*
X14476658Y-12938484D02*
X14457610Y-12928960D01*
X14457610Y-12928960D02*
X14448086Y-12909912D01*
X14448086Y-12909912D02*
X14448086Y-12738484D01*
X14705229Y-12938484D02*
X14705229Y-12738484D01*
X14705229Y-12738484D02*
X14771896Y-12881341D01*
X14771896Y-12881341D02*
X14838562Y-12738484D01*
X14838562Y-12738484D02*
X14838562Y-12938484D01*
X15019515Y-12938484D02*
X15019515Y-12833722D01*
X15019515Y-12833722D02*
X15009991Y-12814674D01*
X15009991Y-12814674D02*
X14990943Y-12805150D01*
X14990943Y-12805150D02*
X14952848Y-12805150D01*
X14952848Y-12805150D02*
X14933801Y-12814674D01*
X15019515Y-12928960D02*
X15000467Y-12938484D01*
X15000467Y-12938484D02*
X14952848Y-12938484D01*
X14952848Y-12938484D02*
X14933801Y-12928960D01*
X14933801Y-12928960D02*
X14924277Y-12909912D01*
X14924277Y-12909912D02*
X14924277Y-12890865D01*
X14924277Y-12890865D02*
X14933801Y-12871817D01*
X14933801Y-12871817D02*
X14952848Y-12862293D01*
X14952848Y-12862293D02*
X15000467Y-12862293D01*
X15000467Y-12862293D02*
X15019515Y-12852769D01*
X15114753Y-12805150D02*
X15114753Y-13005150D01*
X15114753Y-12814674D02*
X15133801Y-12805150D01*
X15133801Y-12805150D02*
X15171896Y-12805150D01*
X15171896Y-12805150D02*
X15190943Y-12814674D01*
X15190943Y-12814674D02*
X15200467Y-12824198D01*
X15200467Y-12824198D02*
X15209991Y-12843246D01*
X15209991Y-12843246D02*
X15209991Y-12900388D01*
X15209991Y-12900388D02*
X15200467Y-12919436D01*
X15200467Y-12919436D02*
X15190943Y-12928960D01*
X15190943Y-12928960D02*
X15171896Y-12938484D01*
X15171896Y-12938484D02*
X15133801Y-12938484D01*
X15133801Y-12938484D02*
X15114753Y-12928960D01*
X15295705Y-12919436D02*
X15305229Y-12928960D01*
X15305229Y-12928960D02*
X15295705Y-12938484D01*
X15295705Y-12938484D02*
X15286182Y-12928960D01*
X15286182Y-12928960D02*
X15295705Y-12919436D01*
X15295705Y-12919436D02*
X15295705Y-12938484D01*
X15295705Y-12814674D02*
X15305229Y-12824198D01*
X15305229Y-12824198D02*
X15295705Y-12833722D01*
X15295705Y-12833722D02*
X15286182Y-12824198D01*
X15286182Y-12824198D02*
X15295705Y-12814674D01*
X15295705Y-12814674D02*
X15295705Y-12833722D01*
D12*
X13633500Y-13252000D02*
X13663500Y-13282000D01*
X13663500Y-13252000D02*
X13633500Y-13282000D01*
D11*
X13962372Y-13158484D02*
X13981420Y-13158484D01*
X13981420Y-13158484D02*
X14000467Y-13168008D01*
X14000467Y-13168008D02*
X14009991Y-13177531D01*
X14009991Y-13177531D02*
X14019515Y-13196579D01*
X14019515Y-13196579D02*
X14029039Y-13234674D01*
X14029039Y-13234674D02*
X14029039Y-13282293D01*
X14029039Y-13282293D02*
X14019515Y-13320388D01*
X14019515Y-13320388D02*
X14009991Y-13339436D01*
X14009991Y-13339436D02*
X14000467Y-13348960D01*
X14000467Y-13348960D02*
X13981420Y-13358484D01*
X13981420Y-13358484D02*
X13962372Y-13358484D01*
X13962372Y-13358484D02*
X13943324Y-13348960D01*
X13943324Y-13348960D02*
X13933801Y-13339436D01*
X13933801Y-13339436D02*
X13924277Y-13320388D01*
X13924277Y-13320388D02*
X13914753Y-13282293D01*
X13914753Y-13282293D02*
X13914753Y-13234674D01*
X13914753Y-13234674D02*
X13924277Y-13196579D01*
X13924277Y-13196579D02*
X13933801Y-13177531D01*
X13933801Y-13177531D02*
X13943324Y-13168008D01*
X13943324Y-13168008D02*
X13962372Y-13158484D01*
X14114753Y-13339436D02*
X14124277Y-13348960D01*
X14124277Y-13348960D02*
X14114753Y-13358484D01*
X14114753Y-13358484D02*
X14105229Y-13348960D01*
X14105229Y-13348960D02*
X14114753Y-13339436D01*
X14114753Y-13339436D02*
X14114753Y-13358484D01*
X14190943Y-13158484D02*
X14314753Y-13158484D01*
X14314753Y-13158484D02*
X14248086Y-13234674D01*
X14248086Y-13234674D02*
X14276658Y-13234674D01*
X14276658Y-13234674D02*
X14295705Y-13244198D01*
X14295705Y-13244198D02*
X14305229Y-13253722D01*
X14305229Y-13253722D02*
X14314753Y-13272769D01*
X14314753Y-13272769D02*
X14314753Y-13320388D01*
X14314753Y-13320388D02*
X14305229Y-13339436D01*
X14305229Y-13339436D02*
X14295705Y-13348960D01*
X14295705Y-13348960D02*
X14276658Y-13358484D01*
X14276658Y-13358484D02*
X14219515Y-13358484D01*
X14219515Y-13358484D02*
X14200467Y-13348960D01*
X14200467Y-13348960D02*
X14190943Y-13339436D01*
X14438562Y-13158484D02*
X14457610Y-13158484D01*
X14457610Y-13158484D02*
X14476658Y-13168008D01*
X14476658Y-13168008D02*
X14486182Y-13177531D01*
X14486182Y-13177531D02*
X14495705Y-13196579D01*
X14495705Y-13196579D02*
X14505229Y-13234674D01*
X14505229Y-13234674D02*
X14505229Y-13282293D01*
X14505229Y-13282293D02*
X14495705Y-13320388D01*
X14495705Y-13320388D02*
X14486182Y-13339436D01*
X14486182Y-13339436D02*
X14476658Y-13348960D01*
X14476658Y-13348960D02*
X14457610Y-13358484D01*
X14457610Y-13358484D02*
X14438562Y-13358484D01*
X14438562Y-13358484D02*
X14419515Y-13348960D01*
X14419515Y-13348960D02*
X14409991Y-13339436D01*
X14409991Y-13339436D02*
X14400467Y-13320388D01*
X14400467Y-13320388D02*
X14390943Y-13282293D01*
X14390943Y-13282293D02*
X14390943Y-13234674D01*
X14390943Y-13234674D02*
X14400467Y-13196579D01*
X14400467Y-13196579D02*
X14409991Y-13177531D01*
X14409991Y-13177531D02*
X14419515Y-13168008D01*
X14419515Y-13168008D02*
X14438562Y-13158484D01*
X14629039Y-13158484D02*
X14648086Y-13158484D01*
X14648086Y-13158484D02*
X14667134Y-13168008D01*
X14667134Y-13168008D02*
X14676658Y-13177531D01*
X14676658Y-13177531D02*
X14686182Y-13196579D01*
X14686182Y-13196579D02*
X14695705Y-13234674D01*
X14695705Y-13234674D02*
X14695705Y-13282293D01*
X14695705Y-13282293D02*
X14686182Y-13320388D01*
X14686182Y-13320388D02*
X14676658Y-13339436D01*
X14676658Y-13339436D02*
X14667134Y-13348960D01*
X14667134Y-13348960D02*
X14648086Y-13358484D01*
X14648086Y-13358484D02*
X14629039Y-13358484D01*
X14629039Y-13358484D02*
X14609991Y-13348960D01*
X14609991Y-13348960D02*
X14600467Y-13339436D01*
X14600467Y-13339436D02*
X14590943Y-13320388D01*
X14590943Y-13320388D02*
X14581420Y-13282293D01*
X14581420Y-13282293D02*
X14581420Y-13234674D01*
X14581420Y-13234674D02*
X14590943Y-13196579D01*
X14590943Y-13196579D02*
X14600467Y-13177531D01*
X14600467Y-13177531D02*
X14609991Y-13168008D01*
X14609991Y-13168008D02*
X14629039Y-13158484D01*
X14781420Y-13358484D02*
X14781420Y-13225150D01*
X14781420Y-13244198D02*
X14790943Y-13234674D01*
X14790943Y-13234674D02*
X14809991Y-13225150D01*
X14809991Y-13225150D02*
X14838563Y-13225150D01*
X14838563Y-13225150D02*
X14857610Y-13234674D01*
X14857610Y-13234674D02*
X14867134Y-13253722D01*
X14867134Y-13253722D02*
X14867134Y-13358484D01*
X14867134Y-13253722D02*
X14876658Y-13234674D01*
X14876658Y-13234674D02*
X14895705Y-13225150D01*
X14895705Y-13225150D02*
X14924277Y-13225150D01*
X14924277Y-13225150D02*
X14943324Y-13234674D01*
X14943324Y-13234674D02*
X14952848Y-13253722D01*
X14952848Y-13253722D02*
X14952848Y-13358484D01*
X15048086Y-13358484D02*
X15048086Y-13225150D01*
X15048086Y-13244198D02*
X15057610Y-13234674D01*
X15057610Y-13234674D02*
X15076658Y-13225150D01*
X15076658Y-13225150D02*
X15105229Y-13225150D01*
X15105229Y-13225150D02*
X15124277Y-13234674D01*
X15124277Y-13234674D02*
X15133801Y-13253722D01*
X15133801Y-13253722D02*
X15133801Y-13358484D01*
X15133801Y-13253722D02*
X15143324Y-13234674D01*
X15143324Y-13234674D02*
X15162372Y-13225150D01*
X15162372Y-13225150D02*
X15190943Y-13225150D01*
X15190943Y-13225150D02*
X15209991Y-13234674D01*
X15209991Y-13234674D02*
X15219515Y-13253722D01*
X15219515Y-13253722D02*
X15219515Y-13358484D01*
X15609991Y-13148960D02*
X15438563Y-13406103D01*
X15867134Y-13158484D02*
X15886182Y-13158484D01*
X15886182Y-13158484D02*
X15905229Y-13168008D01*
X15905229Y-13168008D02*
X15914753Y-13177531D01*
X15914753Y-13177531D02*
X15924277Y-13196579D01*
X15924277Y-13196579D02*
X15933801Y-13234674D01*
X15933801Y-13234674D02*
X15933801Y-13282293D01*
X15933801Y-13282293D02*
X15924277Y-13320388D01*
X15924277Y-13320388D02*
X15914753Y-13339436D01*
X15914753Y-13339436D02*
X15905229Y-13348960D01*
X15905229Y-13348960D02*
X15886182Y-13358484D01*
X15886182Y-13358484D02*
X15867134Y-13358484D01*
X15867134Y-13358484D02*
X15848086Y-13348960D01*
X15848086Y-13348960D02*
X15838563Y-13339436D01*
X15838563Y-13339436D02*
X15829039Y-13320388D01*
X15829039Y-13320388D02*
X15819515Y-13282293D01*
X15819515Y-13282293D02*
X15819515Y-13234674D01*
X15819515Y-13234674D02*
X15829039Y-13196579D01*
X15829039Y-13196579D02*
X15838563Y-13177531D01*
X15838563Y-13177531D02*
X15848086Y-13168008D01*
X15848086Y-13168008D02*
X15867134Y-13158484D01*
X16019515Y-13339436D02*
X16029039Y-13348960D01*
X16029039Y-13348960D02*
X16019515Y-13358484D01*
X16019515Y-13358484D02*
X16009991Y-13348960D01*
X16009991Y-13348960D02*
X16019515Y-13339436D01*
X16019515Y-13339436D02*
X16019515Y-13358484D01*
X16152848Y-13158484D02*
X16171896Y-13158484D01*
X16171896Y-13158484D02*
X16190944Y-13168008D01*
X16190944Y-13168008D02*
X16200467Y-13177531D01*
X16200467Y-13177531D02*
X16209991Y-13196579D01*
X16209991Y-13196579D02*
X16219515Y-13234674D01*
X16219515Y-13234674D02*
X16219515Y-13282293D01*
X16219515Y-13282293D02*
X16209991Y-13320388D01*
X16209991Y-13320388D02*
X16200467Y-13339436D01*
X16200467Y-13339436D02*
X16190944Y-13348960D01*
X16190944Y-13348960D02*
X16171896Y-13358484D01*
X16171896Y-13358484D02*
X16152848Y-13358484D01*
X16152848Y-13358484D02*
X16133801Y-13348960D01*
X16133801Y-13348960D02*
X16124277Y-13339436D01*
X16124277Y-13339436D02*
X16114753Y-13320388D01*
X16114753Y-13320388D02*
X16105229Y-13282293D01*
X16105229Y-13282293D02*
X16105229Y-13234674D01*
X16105229Y-13234674D02*
X16114753Y-13196579D01*
X16114753Y-13196579D02*
X16124277Y-13177531D01*
X16124277Y-13177531D02*
X16133801Y-13168008D01*
X16133801Y-13168008D02*
X16152848Y-13158484D01*
X16409991Y-13358484D02*
X16295706Y-13358484D01*
X16352848Y-13358484D02*
X16352848Y-13158484D01*
X16352848Y-13158484D02*
X16333801Y-13187055D01*
X16333801Y-13187055D02*
X16314753Y-13206103D01*
X16314753Y-13206103D02*
X16295706Y-13215627D01*
X16600467Y-13358484D02*
X16486182Y-13358484D01*
X16543325Y-13358484D02*
X16543325Y-13158484D01*
X16543325Y-13158484D02*
X16524277Y-13187055D01*
X16524277Y-13187055D02*
X16505229Y-13206103D01*
X16505229Y-13206103D02*
X16486182Y-13215627D01*
X16714753Y-13244198D02*
X16695706Y-13234674D01*
X16695706Y-13234674D02*
X16686182Y-13225150D01*
X16686182Y-13225150D02*
X16676658Y-13206103D01*
X16676658Y-13206103D02*
X16676658Y-13196579D01*
X16676658Y-13196579D02*
X16686182Y-13177531D01*
X16686182Y-13177531D02*
X16695706Y-13168008D01*
X16695706Y-13168008D02*
X16714753Y-13158484D01*
X16714753Y-13158484D02*
X16752848Y-13158484D01*
X16752848Y-13158484D02*
X16771896Y-13168008D01*
X16771896Y-13168008D02*
X16781420Y-13177531D01*
X16781420Y-13177531D02*
X16790944Y-13196579D01*
X16790944Y-13196579D02*
X16790944Y-13206103D01*
X16790944Y-13206103D02*
X16781420Y-13225150D01*
X16781420Y-13225150D02*
X16771896Y-13234674D01*
X16771896Y-13234674D02*
X16752848Y-13244198D01*
X16752848Y-13244198D02*
X16714753Y-13244198D01*
X16714753Y-13244198D02*
X16695706Y-13253722D01*
X16695706Y-13253722D02*
X16686182Y-13263246D01*
X16686182Y-13263246D02*
X16676658Y-13282293D01*
X16676658Y-13282293D02*
X16676658Y-13320388D01*
X16676658Y-13320388D02*
X16686182Y-13339436D01*
X16686182Y-13339436D02*
X16695706Y-13348960D01*
X16695706Y-13348960D02*
X16714753Y-13358484D01*
X16714753Y-13358484D02*
X16752848Y-13358484D01*
X16752848Y-13358484D02*
X16771896Y-13348960D01*
X16771896Y-13348960D02*
X16781420Y-13339436D01*
X16781420Y-13339436D02*
X16790944Y-13320388D01*
X16790944Y-13320388D02*
X16790944Y-13282293D01*
X16790944Y-13282293D02*
X16781420Y-13263246D01*
X16781420Y-13263246D02*
X16771896Y-13253722D01*
X16771896Y-13253722D02*
X16752848Y-13244198D01*
X16867134Y-13158484D02*
X16867134Y-13196579D01*
X16943325Y-13158484D02*
X16943325Y-13196579D01*
X17238563Y-13434674D02*
X17229039Y-13425150D01*
X17229039Y-13425150D02*
X17209991Y-13396579D01*
X17209991Y-13396579D02*
X17200468Y-13377531D01*
X17200468Y-13377531D02*
X17190944Y-13348960D01*
X17190944Y-13348960D02*
X17181420Y-13301341D01*
X17181420Y-13301341D02*
X17181420Y-13263246D01*
X17181420Y-13263246D02*
X17190944Y-13215627D01*
X17190944Y-13215627D02*
X17200468Y-13187055D01*
X17200468Y-13187055D02*
X17209991Y-13168008D01*
X17209991Y-13168008D02*
X17229039Y-13139436D01*
X17229039Y-13139436D02*
X17238563Y-13129912D01*
X17419515Y-13358484D02*
X17305230Y-13358484D01*
X17362372Y-13358484D02*
X17362372Y-13158484D01*
X17362372Y-13158484D02*
X17343325Y-13187055D01*
X17343325Y-13187055D02*
X17324277Y-13206103D01*
X17324277Y-13206103D02*
X17305230Y-13215627D01*
X17486182Y-13158484D02*
X17619515Y-13158484D01*
X17619515Y-13158484D02*
X17533801Y-13358484D01*
X17676658Y-13158484D02*
X17809991Y-13158484D01*
X17809991Y-13158484D02*
X17724277Y-13358484D01*
X18038563Y-13358484D02*
X18038563Y-13158484D01*
X18124277Y-13358484D02*
X18124277Y-13253722D01*
X18124277Y-13253722D02*
X18114753Y-13234674D01*
X18114753Y-13234674D02*
X18095706Y-13225150D01*
X18095706Y-13225150D02*
X18067134Y-13225150D01*
X18067134Y-13225150D02*
X18048087Y-13234674D01*
X18048087Y-13234674D02*
X18038563Y-13244198D01*
X18248087Y-13358484D02*
X18229039Y-13348960D01*
X18229039Y-13348960D02*
X18219515Y-13339436D01*
X18219515Y-13339436D02*
X18209992Y-13320388D01*
X18209992Y-13320388D02*
X18209992Y-13263246D01*
X18209992Y-13263246D02*
X18219515Y-13244198D01*
X18219515Y-13244198D02*
X18229039Y-13234674D01*
X18229039Y-13234674D02*
X18248087Y-13225150D01*
X18248087Y-13225150D02*
X18276658Y-13225150D01*
X18276658Y-13225150D02*
X18295706Y-13234674D01*
X18295706Y-13234674D02*
X18305230Y-13244198D01*
X18305230Y-13244198D02*
X18314753Y-13263246D01*
X18314753Y-13263246D02*
X18314753Y-13320388D01*
X18314753Y-13320388D02*
X18305230Y-13339436D01*
X18305230Y-13339436D02*
X18295706Y-13348960D01*
X18295706Y-13348960D02*
X18276658Y-13358484D01*
X18276658Y-13358484D02*
X18248087Y-13358484D01*
X18429039Y-13358484D02*
X18409992Y-13348960D01*
X18409992Y-13348960D02*
X18400468Y-13329912D01*
X18400468Y-13329912D02*
X18400468Y-13158484D01*
X18581420Y-13348960D02*
X18562373Y-13358484D01*
X18562373Y-13358484D02*
X18524277Y-13358484D01*
X18524277Y-13358484D02*
X18505230Y-13348960D01*
X18505230Y-13348960D02*
X18495706Y-13329912D01*
X18495706Y-13329912D02*
X18495706Y-13253722D01*
X18495706Y-13253722D02*
X18505230Y-13234674D01*
X18505230Y-13234674D02*
X18524277Y-13225150D01*
X18524277Y-13225150D02*
X18562373Y-13225150D01*
X18562373Y-13225150D02*
X18581420Y-13234674D01*
X18581420Y-13234674D02*
X18590944Y-13253722D01*
X18590944Y-13253722D02*
X18590944Y-13272769D01*
X18590944Y-13272769D02*
X18495706Y-13291817D01*
X18667134Y-13348960D02*
X18686182Y-13358484D01*
X18686182Y-13358484D02*
X18724277Y-13358484D01*
X18724277Y-13358484D02*
X18743325Y-13348960D01*
X18743325Y-13348960D02*
X18752849Y-13329912D01*
X18752849Y-13329912D02*
X18752849Y-13320388D01*
X18752849Y-13320388D02*
X18743325Y-13301341D01*
X18743325Y-13301341D02*
X18724277Y-13291817D01*
X18724277Y-13291817D02*
X18695706Y-13291817D01*
X18695706Y-13291817D02*
X18676658Y-13282293D01*
X18676658Y-13282293D02*
X18667134Y-13263246D01*
X18667134Y-13263246D02*
X18667134Y-13253722D01*
X18667134Y-13253722D02*
X18676658Y-13234674D01*
X18676658Y-13234674D02*
X18695706Y-13225150D01*
X18695706Y-13225150D02*
X18724277Y-13225150D01*
X18724277Y-13225150D02*
X18743325Y-13234674D01*
X18819515Y-13434674D02*
X18829039Y-13425150D01*
X18829039Y-13425150D02*
X18848087Y-13396579D01*
X18848087Y-13396579D02*
X18857611Y-13377531D01*
X18857611Y-13377531D02*
X18867134Y-13348960D01*
X18867134Y-13348960D02*
X18876658Y-13301341D01*
X18876658Y-13301341D02*
X18876658Y-13263246D01*
X18876658Y-13263246D02*
X18867134Y-13215627D01*
X18867134Y-13215627D02*
X18857611Y-13187055D01*
X18857611Y-13187055D02*
X18848087Y-13168008D01*
X18848087Y-13168008D02*
X18829039Y-13139436D01*
X18829039Y-13139436D02*
X18819515Y-13129912D01*
D12*
X13663500Y-13531000D02*
G75*
G02*
X13603500Y-13531000I-30000J0D01*
G01*
X13603500Y-13531000D02*
G75*
G02*
X13663500Y-13531000I30000J0D01*
G01*
D11*
X13962372Y-13422484D02*
X13981420Y-13422484D01*
X13981420Y-13422484D02*
X14000467Y-13432008D01*
X14000467Y-13432008D02*
X14009991Y-13441531D01*
X14009991Y-13441531D02*
X14019515Y-13460579D01*
X14019515Y-13460579D02*
X14029039Y-13498674D01*
X14029039Y-13498674D02*
X14029039Y-13546293D01*
X14029039Y-13546293D02*
X14019515Y-13584388D01*
X14019515Y-13584388D02*
X14009991Y-13603436D01*
X14009991Y-13603436D02*
X14000467Y-13612960D01*
X14000467Y-13612960D02*
X13981420Y-13622484D01*
X13981420Y-13622484D02*
X13962372Y-13622484D01*
X13962372Y-13622484D02*
X13943324Y-13612960D01*
X13943324Y-13612960D02*
X13933801Y-13603436D01*
X13933801Y-13603436D02*
X13924277Y-13584388D01*
X13924277Y-13584388D02*
X13914753Y-13546293D01*
X13914753Y-13546293D02*
X13914753Y-13498674D01*
X13914753Y-13498674D02*
X13924277Y-13460579D01*
X13924277Y-13460579D02*
X13933801Y-13441531D01*
X13933801Y-13441531D02*
X13943324Y-13432008D01*
X13943324Y-13432008D02*
X13962372Y-13422484D01*
X14114753Y-13603436D02*
X14124277Y-13612960D01*
X14124277Y-13612960D02*
X14114753Y-13622484D01*
X14114753Y-13622484D02*
X14105229Y-13612960D01*
X14105229Y-13612960D02*
X14114753Y-13603436D01*
X14114753Y-13603436D02*
X14114753Y-13622484D01*
X14295705Y-13422484D02*
X14257610Y-13422484D01*
X14257610Y-13422484D02*
X14238562Y-13432008D01*
X14238562Y-13432008D02*
X14229039Y-13441531D01*
X14229039Y-13441531D02*
X14209991Y-13470103D01*
X14209991Y-13470103D02*
X14200467Y-13508198D01*
X14200467Y-13508198D02*
X14200467Y-13584388D01*
X14200467Y-13584388D02*
X14209991Y-13603436D01*
X14209991Y-13603436D02*
X14219515Y-13612960D01*
X14219515Y-13612960D02*
X14238562Y-13622484D01*
X14238562Y-13622484D02*
X14276658Y-13622484D01*
X14276658Y-13622484D02*
X14295705Y-13612960D01*
X14295705Y-13612960D02*
X14305229Y-13603436D01*
X14305229Y-13603436D02*
X14314753Y-13584388D01*
X14314753Y-13584388D02*
X14314753Y-13536769D01*
X14314753Y-13536769D02*
X14305229Y-13517722D01*
X14305229Y-13517722D02*
X14295705Y-13508198D01*
X14295705Y-13508198D02*
X14276658Y-13498674D01*
X14276658Y-13498674D02*
X14238562Y-13498674D01*
X14238562Y-13498674D02*
X14219515Y-13508198D01*
X14219515Y-13508198D02*
X14209991Y-13517722D01*
X14209991Y-13517722D02*
X14200467Y-13536769D01*
X14438562Y-13422484D02*
X14457610Y-13422484D01*
X14457610Y-13422484D02*
X14476658Y-13432008D01*
X14476658Y-13432008D02*
X14486182Y-13441531D01*
X14486182Y-13441531D02*
X14495705Y-13460579D01*
X14495705Y-13460579D02*
X14505229Y-13498674D01*
X14505229Y-13498674D02*
X14505229Y-13546293D01*
X14505229Y-13546293D02*
X14495705Y-13584388D01*
X14495705Y-13584388D02*
X14486182Y-13603436D01*
X14486182Y-13603436D02*
X14476658Y-13612960D01*
X14476658Y-13612960D02*
X14457610Y-13622484D01*
X14457610Y-13622484D02*
X14438562Y-13622484D01*
X14438562Y-13622484D02*
X14419515Y-13612960D01*
X14419515Y-13612960D02*
X14409991Y-13603436D01*
X14409991Y-13603436D02*
X14400467Y-13584388D01*
X14400467Y-13584388D02*
X14390943Y-13546293D01*
X14390943Y-13546293D02*
X14390943Y-13498674D01*
X14390943Y-13498674D02*
X14400467Y-13460579D01*
X14400467Y-13460579D02*
X14409991Y-13441531D01*
X14409991Y-13441531D02*
X14419515Y-13432008D01*
X14419515Y-13432008D02*
X14438562Y-13422484D01*
X14629039Y-13422484D02*
X14648086Y-13422484D01*
X14648086Y-13422484D02*
X14667134Y-13432008D01*
X14667134Y-13432008D02*
X14676658Y-13441531D01*
X14676658Y-13441531D02*
X14686182Y-13460579D01*
X14686182Y-13460579D02*
X14695705Y-13498674D01*
X14695705Y-13498674D02*
X14695705Y-13546293D01*
X14695705Y-13546293D02*
X14686182Y-13584388D01*
X14686182Y-13584388D02*
X14676658Y-13603436D01*
X14676658Y-13603436D02*
X14667134Y-13612960D01*
X14667134Y-13612960D02*
X14648086Y-13622484D01*
X14648086Y-13622484D02*
X14629039Y-13622484D01*
X14629039Y-13622484D02*
X14609991Y-13612960D01*
X14609991Y-13612960D02*
X14600467Y-13603436D01*
X14600467Y-13603436D02*
X14590943Y-13584388D01*
X14590943Y-13584388D02*
X14581420Y-13546293D01*
X14581420Y-13546293D02*
X14581420Y-13498674D01*
X14581420Y-13498674D02*
X14590943Y-13460579D01*
X14590943Y-13460579D02*
X14600467Y-13441531D01*
X14600467Y-13441531D02*
X14609991Y-13432008D01*
X14609991Y-13432008D02*
X14629039Y-13422484D01*
X14781420Y-13622484D02*
X14781420Y-13489150D01*
X14781420Y-13508198D02*
X14790943Y-13498674D01*
X14790943Y-13498674D02*
X14809991Y-13489150D01*
X14809991Y-13489150D02*
X14838563Y-13489150D01*
X14838563Y-13489150D02*
X14857610Y-13498674D01*
X14857610Y-13498674D02*
X14867134Y-13517722D01*
X14867134Y-13517722D02*
X14867134Y-13622484D01*
X14867134Y-13517722D02*
X14876658Y-13498674D01*
X14876658Y-13498674D02*
X14895705Y-13489150D01*
X14895705Y-13489150D02*
X14924277Y-13489150D01*
X14924277Y-13489150D02*
X14943324Y-13498674D01*
X14943324Y-13498674D02*
X14952848Y-13517722D01*
X14952848Y-13517722D02*
X14952848Y-13622484D01*
X15048086Y-13622484D02*
X15048086Y-13489150D01*
X15048086Y-13508198D02*
X15057610Y-13498674D01*
X15057610Y-13498674D02*
X15076658Y-13489150D01*
X15076658Y-13489150D02*
X15105229Y-13489150D01*
X15105229Y-13489150D02*
X15124277Y-13498674D01*
X15124277Y-13498674D02*
X15133801Y-13517722D01*
X15133801Y-13517722D02*
X15133801Y-13622484D01*
X15133801Y-13517722D02*
X15143324Y-13498674D01*
X15143324Y-13498674D02*
X15162372Y-13489150D01*
X15162372Y-13489150D02*
X15190943Y-13489150D01*
X15190943Y-13489150D02*
X15209991Y-13498674D01*
X15209991Y-13498674D02*
X15219515Y-13517722D01*
X15219515Y-13517722D02*
X15219515Y-13622484D01*
X15609991Y-13412960D02*
X15438563Y-13670103D01*
X15867134Y-13422484D02*
X15886182Y-13422484D01*
X15886182Y-13422484D02*
X15905229Y-13432008D01*
X15905229Y-13432008D02*
X15914753Y-13441531D01*
X15914753Y-13441531D02*
X15924277Y-13460579D01*
X15924277Y-13460579D02*
X15933801Y-13498674D01*
X15933801Y-13498674D02*
X15933801Y-13546293D01*
X15933801Y-13546293D02*
X15924277Y-13584388D01*
X15924277Y-13584388D02*
X15914753Y-13603436D01*
X15914753Y-13603436D02*
X15905229Y-13612960D01*
X15905229Y-13612960D02*
X15886182Y-13622484D01*
X15886182Y-13622484D02*
X15867134Y-13622484D01*
X15867134Y-13622484D02*
X15848086Y-13612960D01*
X15848086Y-13612960D02*
X15838563Y-13603436D01*
X15838563Y-13603436D02*
X15829039Y-13584388D01*
X15829039Y-13584388D02*
X15819515Y-13546293D01*
X15819515Y-13546293D02*
X15819515Y-13498674D01*
X15819515Y-13498674D02*
X15829039Y-13460579D01*
X15829039Y-13460579D02*
X15838563Y-13441531D01*
X15838563Y-13441531D02*
X15848086Y-13432008D01*
X15848086Y-13432008D02*
X15867134Y-13422484D01*
X16019515Y-13603436D02*
X16029039Y-13612960D01*
X16029039Y-13612960D02*
X16019515Y-13622484D01*
X16019515Y-13622484D02*
X16009991Y-13612960D01*
X16009991Y-13612960D02*
X16019515Y-13603436D01*
X16019515Y-13603436D02*
X16019515Y-13622484D01*
X16152848Y-13422484D02*
X16171896Y-13422484D01*
X16171896Y-13422484D02*
X16190944Y-13432008D01*
X16190944Y-13432008D02*
X16200467Y-13441531D01*
X16200467Y-13441531D02*
X16209991Y-13460579D01*
X16209991Y-13460579D02*
X16219515Y-13498674D01*
X16219515Y-13498674D02*
X16219515Y-13546293D01*
X16219515Y-13546293D02*
X16209991Y-13584388D01*
X16209991Y-13584388D02*
X16200467Y-13603436D01*
X16200467Y-13603436D02*
X16190944Y-13612960D01*
X16190944Y-13612960D02*
X16171896Y-13622484D01*
X16171896Y-13622484D02*
X16152848Y-13622484D01*
X16152848Y-13622484D02*
X16133801Y-13612960D01*
X16133801Y-13612960D02*
X16124277Y-13603436D01*
X16124277Y-13603436D02*
X16114753Y-13584388D01*
X16114753Y-13584388D02*
X16105229Y-13546293D01*
X16105229Y-13546293D02*
X16105229Y-13498674D01*
X16105229Y-13498674D02*
X16114753Y-13460579D01*
X16114753Y-13460579D02*
X16124277Y-13441531D01*
X16124277Y-13441531D02*
X16133801Y-13432008D01*
X16133801Y-13432008D02*
X16152848Y-13422484D01*
X16295706Y-13441531D02*
X16305229Y-13432008D01*
X16305229Y-13432008D02*
X16324277Y-13422484D01*
X16324277Y-13422484D02*
X16371896Y-13422484D01*
X16371896Y-13422484D02*
X16390944Y-13432008D01*
X16390944Y-13432008D02*
X16400467Y-13441531D01*
X16400467Y-13441531D02*
X16409991Y-13460579D01*
X16409991Y-13460579D02*
X16409991Y-13479627D01*
X16409991Y-13479627D02*
X16400467Y-13508198D01*
X16400467Y-13508198D02*
X16286182Y-13622484D01*
X16286182Y-13622484D02*
X16409991Y-13622484D01*
X16476658Y-13422484D02*
X16600467Y-13422484D01*
X16600467Y-13422484D02*
X16533801Y-13498674D01*
X16533801Y-13498674D02*
X16562372Y-13498674D01*
X16562372Y-13498674D02*
X16581420Y-13508198D01*
X16581420Y-13508198D02*
X16590944Y-13517722D01*
X16590944Y-13517722D02*
X16600467Y-13536769D01*
X16600467Y-13536769D02*
X16600467Y-13584388D01*
X16600467Y-13584388D02*
X16590944Y-13603436D01*
X16590944Y-13603436D02*
X16581420Y-13612960D01*
X16581420Y-13612960D02*
X16562372Y-13622484D01*
X16562372Y-13622484D02*
X16505229Y-13622484D01*
X16505229Y-13622484D02*
X16486182Y-13612960D01*
X16486182Y-13612960D02*
X16476658Y-13603436D01*
X16771896Y-13422484D02*
X16733801Y-13422484D01*
X16733801Y-13422484D02*
X16714753Y-13432008D01*
X16714753Y-13432008D02*
X16705229Y-13441531D01*
X16705229Y-13441531D02*
X16686182Y-13470103D01*
X16686182Y-13470103D02*
X16676658Y-13508198D01*
X16676658Y-13508198D02*
X16676658Y-13584388D01*
X16676658Y-13584388D02*
X16686182Y-13603436D01*
X16686182Y-13603436D02*
X16695706Y-13612960D01*
X16695706Y-13612960D02*
X16714753Y-13622484D01*
X16714753Y-13622484D02*
X16752848Y-13622484D01*
X16752848Y-13622484D02*
X16771896Y-13612960D01*
X16771896Y-13612960D02*
X16781420Y-13603436D01*
X16781420Y-13603436D02*
X16790944Y-13584388D01*
X16790944Y-13584388D02*
X16790944Y-13536769D01*
X16790944Y-13536769D02*
X16781420Y-13517722D01*
X16781420Y-13517722D02*
X16771896Y-13508198D01*
X16771896Y-13508198D02*
X16752848Y-13498674D01*
X16752848Y-13498674D02*
X16714753Y-13498674D01*
X16714753Y-13498674D02*
X16695706Y-13508198D01*
X16695706Y-13508198D02*
X16686182Y-13517722D01*
X16686182Y-13517722D02*
X16676658Y-13536769D01*
X16867134Y-13422484D02*
X16867134Y-13460579D01*
X16943325Y-13422484D02*
X16943325Y-13460579D01*
X17238563Y-13698674D02*
X17229039Y-13689150D01*
X17229039Y-13689150D02*
X17209991Y-13660579D01*
X17209991Y-13660579D02*
X17200468Y-13641531D01*
X17200468Y-13641531D02*
X17190944Y-13612960D01*
X17190944Y-13612960D02*
X17181420Y-13565341D01*
X17181420Y-13565341D02*
X17181420Y-13527246D01*
X17181420Y-13527246D02*
X17190944Y-13479627D01*
X17190944Y-13479627D02*
X17200468Y-13451055D01*
X17200468Y-13451055D02*
X17209991Y-13432008D01*
X17209991Y-13432008D02*
X17229039Y-13403436D01*
X17229039Y-13403436D02*
X17238563Y-13393912D01*
X17352849Y-13422484D02*
X17371896Y-13422484D01*
X17371896Y-13422484D02*
X17390944Y-13432008D01*
X17390944Y-13432008D02*
X17400468Y-13441531D01*
X17400468Y-13441531D02*
X17409991Y-13460579D01*
X17409991Y-13460579D02*
X17419515Y-13498674D01*
X17419515Y-13498674D02*
X17419515Y-13546293D01*
X17419515Y-13546293D02*
X17409991Y-13584388D01*
X17409991Y-13584388D02*
X17400468Y-13603436D01*
X17400468Y-13603436D02*
X17390944Y-13612960D01*
X17390944Y-13612960D02*
X17371896Y-13622484D01*
X17371896Y-13622484D02*
X17352849Y-13622484D01*
X17352849Y-13622484D02*
X17333801Y-13612960D01*
X17333801Y-13612960D02*
X17324277Y-13603436D01*
X17324277Y-13603436D02*
X17314753Y-13584388D01*
X17314753Y-13584388D02*
X17305230Y-13546293D01*
X17305230Y-13546293D02*
X17305230Y-13498674D01*
X17305230Y-13498674D02*
X17314753Y-13460579D01*
X17314753Y-13460579D02*
X17324277Y-13441531D01*
X17324277Y-13441531D02*
X17333801Y-13432008D01*
X17333801Y-13432008D02*
X17352849Y-13422484D01*
X17657611Y-13622484D02*
X17657611Y-13422484D01*
X17743325Y-13622484D02*
X17743325Y-13517722D01*
X17743325Y-13517722D02*
X17733801Y-13498674D01*
X17733801Y-13498674D02*
X17714753Y-13489150D01*
X17714753Y-13489150D02*
X17686182Y-13489150D01*
X17686182Y-13489150D02*
X17667134Y-13498674D01*
X17667134Y-13498674D02*
X17657611Y-13508198D01*
X17867134Y-13622484D02*
X17848087Y-13612960D01*
X17848087Y-13612960D02*
X17838563Y-13603436D01*
X17838563Y-13603436D02*
X17829039Y-13584388D01*
X17829039Y-13584388D02*
X17829039Y-13527246D01*
X17829039Y-13527246D02*
X17838563Y-13508198D01*
X17838563Y-13508198D02*
X17848087Y-13498674D01*
X17848087Y-13498674D02*
X17867134Y-13489150D01*
X17867134Y-13489150D02*
X17895706Y-13489150D01*
X17895706Y-13489150D02*
X17914753Y-13498674D01*
X17914753Y-13498674D02*
X17924277Y-13508198D01*
X17924277Y-13508198D02*
X17933801Y-13527246D01*
X17933801Y-13527246D02*
X17933801Y-13584388D01*
X17933801Y-13584388D02*
X17924277Y-13603436D01*
X17924277Y-13603436D02*
X17914753Y-13612960D01*
X17914753Y-13612960D02*
X17895706Y-13622484D01*
X17895706Y-13622484D02*
X17867134Y-13622484D01*
X18048087Y-13622484D02*
X18029039Y-13612960D01*
X18029039Y-13612960D02*
X18019515Y-13593912D01*
X18019515Y-13593912D02*
X18019515Y-13422484D01*
X18200468Y-13612960D02*
X18181420Y-13622484D01*
X18181420Y-13622484D02*
X18143325Y-13622484D01*
X18143325Y-13622484D02*
X18124277Y-13612960D01*
X18124277Y-13612960D02*
X18114753Y-13593912D01*
X18114753Y-13593912D02*
X18114753Y-13517722D01*
X18114753Y-13517722D02*
X18124277Y-13498674D01*
X18124277Y-13498674D02*
X18143325Y-13489150D01*
X18143325Y-13489150D02*
X18181420Y-13489150D01*
X18181420Y-13489150D02*
X18200468Y-13498674D01*
X18200468Y-13498674D02*
X18209992Y-13517722D01*
X18209992Y-13517722D02*
X18209992Y-13536769D01*
X18209992Y-13536769D02*
X18114753Y-13555817D01*
X18286182Y-13612960D02*
X18305230Y-13622484D01*
X18305230Y-13622484D02*
X18343325Y-13622484D01*
X18343325Y-13622484D02*
X18362373Y-13612960D01*
X18362373Y-13612960D02*
X18371896Y-13593912D01*
X18371896Y-13593912D02*
X18371896Y-13584388D01*
X18371896Y-13584388D02*
X18362373Y-13565341D01*
X18362373Y-13565341D02*
X18343325Y-13555817D01*
X18343325Y-13555817D02*
X18314753Y-13555817D01*
X18314753Y-13555817D02*
X18295706Y-13546293D01*
X18295706Y-13546293D02*
X18286182Y-13527246D01*
X18286182Y-13527246D02*
X18286182Y-13517722D01*
X18286182Y-13517722D02*
X18295706Y-13498674D01*
X18295706Y-13498674D02*
X18314753Y-13489150D01*
X18314753Y-13489150D02*
X18343325Y-13489150D01*
X18343325Y-13489150D02*
X18362373Y-13498674D01*
X18609992Y-13546293D02*
X18762373Y-13546293D01*
X18686182Y-13622484D02*
X18686182Y-13470103D01*
X19114754Y-13622484D02*
X19000468Y-13622484D01*
X19057611Y-13622484D02*
X19057611Y-13422484D01*
X19057611Y-13422484D02*
X19038563Y-13451055D01*
X19038563Y-13451055D02*
X19019515Y-13470103D01*
X19019515Y-13470103D02*
X19000468Y-13479627D01*
X19190944Y-13441531D02*
X19200468Y-13432008D01*
X19200468Y-13432008D02*
X19219515Y-13422484D01*
X19219515Y-13422484D02*
X19267135Y-13422484D01*
X19267135Y-13422484D02*
X19286182Y-13432008D01*
X19286182Y-13432008D02*
X19295706Y-13441531D01*
X19295706Y-13441531D02*
X19305230Y-13460579D01*
X19305230Y-13460579D02*
X19305230Y-13479627D01*
X19305230Y-13479627D02*
X19295706Y-13508198D01*
X19295706Y-13508198D02*
X19181420Y-13622484D01*
X19181420Y-13622484D02*
X19305230Y-13622484D01*
X19533801Y-13612960D02*
X19552849Y-13622484D01*
X19552849Y-13622484D02*
X19590944Y-13622484D01*
X19590944Y-13622484D02*
X19609992Y-13612960D01*
X19609992Y-13612960D02*
X19619516Y-13593912D01*
X19619516Y-13593912D02*
X19619516Y-13584388D01*
X19619516Y-13584388D02*
X19609992Y-13565341D01*
X19609992Y-13565341D02*
X19590944Y-13555817D01*
X19590944Y-13555817D02*
X19562373Y-13555817D01*
X19562373Y-13555817D02*
X19543325Y-13546293D01*
X19543325Y-13546293D02*
X19533801Y-13527246D01*
X19533801Y-13527246D02*
X19533801Y-13517722D01*
X19533801Y-13517722D02*
X19543325Y-13498674D01*
X19543325Y-13498674D02*
X19562373Y-13489150D01*
X19562373Y-13489150D02*
X19590944Y-13489150D01*
X19590944Y-13489150D02*
X19609992Y-13498674D01*
X19733801Y-13622484D02*
X19714754Y-13612960D01*
X19714754Y-13612960D02*
X19705230Y-13593912D01*
X19705230Y-13593912D02*
X19705230Y-13422484D01*
X19838563Y-13622484D02*
X19819516Y-13612960D01*
X19819516Y-13612960D02*
X19809992Y-13603436D01*
X19809992Y-13603436D02*
X19800468Y-13584388D01*
X19800468Y-13584388D02*
X19800468Y-13527246D01*
X19800468Y-13527246D02*
X19809992Y-13508198D01*
X19809992Y-13508198D02*
X19819516Y-13498674D01*
X19819516Y-13498674D02*
X19838563Y-13489150D01*
X19838563Y-13489150D02*
X19867135Y-13489150D01*
X19867135Y-13489150D02*
X19886182Y-13498674D01*
X19886182Y-13498674D02*
X19895706Y-13508198D01*
X19895706Y-13508198D02*
X19905230Y-13527246D01*
X19905230Y-13527246D02*
X19905230Y-13584388D01*
X19905230Y-13584388D02*
X19895706Y-13603436D01*
X19895706Y-13603436D02*
X19886182Y-13612960D01*
X19886182Y-13612960D02*
X19867135Y-13622484D01*
X19867135Y-13622484D02*
X19838563Y-13622484D01*
X19962373Y-13489150D02*
X20038563Y-13489150D01*
X19990944Y-13422484D02*
X19990944Y-13593912D01*
X19990944Y-13593912D02*
X20000468Y-13612960D01*
X20000468Y-13612960D02*
X20019516Y-13622484D01*
X20019516Y-13622484D02*
X20038563Y-13622484D01*
X20095706Y-13612960D02*
X20114754Y-13622484D01*
X20114754Y-13622484D02*
X20152849Y-13622484D01*
X20152849Y-13622484D02*
X20171897Y-13612960D01*
X20171897Y-13612960D02*
X20181420Y-13593912D01*
X20181420Y-13593912D02*
X20181420Y-13584388D01*
X20181420Y-13584388D02*
X20171897Y-13565341D01*
X20171897Y-13565341D02*
X20152849Y-13555817D01*
X20152849Y-13555817D02*
X20124277Y-13555817D01*
X20124277Y-13555817D02*
X20105230Y-13546293D01*
X20105230Y-13546293D02*
X20095706Y-13527246D01*
X20095706Y-13527246D02*
X20095706Y-13517722D01*
X20095706Y-13517722D02*
X20105230Y-13498674D01*
X20105230Y-13498674D02*
X20124277Y-13489150D01*
X20124277Y-13489150D02*
X20152849Y-13489150D01*
X20152849Y-13489150D02*
X20171897Y-13498674D01*
X20248087Y-13698674D02*
X20257611Y-13689150D01*
X20257611Y-13689150D02*
X20276658Y-13660579D01*
X20276658Y-13660579D02*
X20286182Y-13641531D01*
X20286182Y-13641531D02*
X20295706Y-13612960D01*
X20295706Y-13612960D02*
X20305230Y-13565341D01*
X20305230Y-13565341D02*
X20305230Y-13527246D01*
X20305230Y-13527246D02*
X20295706Y-13479627D01*
X20295706Y-13479627D02*
X20286182Y-13451055D01*
X20286182Y-13451055D02*
X20276658Y-13432008D01*
X20276658Y-13432008D02*
X20257611Y-13403436D01*
X20257611Y-13403436D02*
X20248087Y-13393912D01*
D12*
X13613500Y-13745000D02*
X13613500Y-13845000D01*
X13563500Y-13795000D02*
X13663500Y-13795000D01*
D11*
X14029039Y-13886484D02*
X13914753Y-13886484D01*
X13971896Y-13886484D02*
X13971896Y-13686484D01*
X13971896Y-13686484D02*
X13952848Y-13715055D01*
X13952848Y-13715055D02*
X13933801Y-13734103D01*
X13933801Y-13734103D02*
X13914753Y-13743627D01*
X14114753Y-13867436D02*
X14124277Y-13876960D01*
X14124277Y-13876960D02*
X14114753Y-13886484D01*
X14114753Y-13886484D02*
X14105229Y-13876960D01*
X14105229Y-13876960D02*
X14114753Y-13867436D01*
X14114753Y-13867436D02*
X14114753Y-13886484D01*
X14248086Y-13686484D02*
X14267134Y-13686484D01*
X14267134Y-13686484D02*
X14286182Y-13696008D01*
X14286182Y-13696008D02*
X14295705Y-13705531D01*
X14295705Y-13705531D02*
X14305229Y-13724579D01*
X14305229Y-13724579D02*
X14314753Y-13762674D01*
X14314753Y-13762674D02*
X14314753Y-13810293D01*
X14314753Y-13810293D02*
X14305229Y-13848388D01*
X14305229Y-13848388D02*
X14295705Y-13867436D01*
X14295705Y-13867436D02*
X14286182Y-13876960D01*
X14286182Y-13876960D02*
X14267134Y-13886484D01*
X14267134Y-13886484D02*
X14248086Y-13886484D01*
X14248086Y-13886484D02*
X14229039Y-13876960D01*
X14229039Y-13876960D02*
X14219515Y-13867436D01*
X14219515Y-13867436D02*
X14209991Y-13848388D01*
X14209991Y-13848388D02*
X14200467Y-13810293D01*
X14200467Y-13810293D02*
X14200467Y-13762674D01*
X14200467Y-13762674D02*
X14209991Y-13724579D01*
X14209991Y-13724579D02*
X14219515Y-13705531D01*
X14219515Y-13705531D02*
X14229039Y-13696008D01*
X14229039Y-13696008D02*
X14248086Y-13686484D01*
X14438562Y-13686484D02*
X14457610Y-13686484D01*
X14457610Y-13686484D02*
X14476658Y-13696008D01*
X14476658Y-13696008D02*
X14486182Y-13705531D01*
X14486182Y-13705531D02*
X14495705Y-13724579D01*
X14495705Y-13724579D02*
X14505229Y-13762674D01*
X14505229Y-13762674D02*
X14505229Y-13810293D01*
X14505229Y-13810293D02*
X14495705Y-13848388D01*
X14495705Y-13848388D02*
X14486182Y-13867436D01*
X14486182Y-13867436D02*
X14476658Y-13876960D01*
X14476658Y-13876960D02*
X14457610Y-13886484D01*
X14457610Y-13886484D02*
X14438562Y-13886484D01*
X14438562Y-13886484D02*
X14419515Y-13876960D01*
X14419515Y-13876960D02*
X14409991Y-13867436D01*
X14409991Y-13867436D02*
X14400467Y-13848388D01*
X14400467Y-13848388D02*
X14390943Y-13810293D01*
X14390943Y-13810293D02*
X14390943Y-13762674D01*
X14390943Y-13762674D02*
X14400467Y-13724579D01*
X14400467Y-13724579D02*
X14409991Y-13705531D01*
X14409991Y-13705531D02*
X14419515Y-13696008D01*
X14419515Y-13696008D02*
X14438562Y-13686484D01*
X14629039Y-13686484D02*
X14648086Y-13686484D01*
X14648086Y-13686484D02*
X14667134Y-13696008D01*
X14667134Y-13696008D02*
X14676658Y-13705531D01*
X14676658Y-13705531D02*
X14686182Y-13724579D01*
X14686182Y-13724579D02*
X14695705Y-13762674D01*
X14695705Y-13762674D02*
X14695705Y-13810293D01*
X14695705Y-13810293D02*
X14686182Y-13848388D01*
X14686182Y-13848388D02*
X14676658Y-13867436D01*
X14676658Y-13867436D02*
X14667134Y-13876960D01*
X14667134Y-13876960D02*
X14648086Y-13886484D01*
X14648086Y-13886484D02*
X14629039Y-13886484D01*
X14629039Y-13886484D02*
X14609991Y-13876960D01*
X14609991Y-13876960D02*
X14600467Y-13867436D01*
X14600467Y-13867436D02*
X14590943Y-13848388D01*
X14590943Y-13848388D02*
X14581420Y-13810293D01*
X14581420Y-13810293D02*
X14581420Y-13762674D01*
X14581420Y-13762674D02*
X14590943Y-13724579D01*
X14590943Y-13724579D02*
X14600467Y-13705531D01*
X14600467Y-13705531D02*
X14609991Y-13696008D01*
X14609991Y-13696008D02*
X14629039Y-13686484D01*
X14781420Y-13886484D02*
X14781420Y-13753150D01*
X14781420Y-13772198D02*
X14790943Y-13762674D01*
X14790943Y-13762674D02*
X14809991Y-13753150D01*
X14809991Y-13753150D02*
X14838563Y-13753150D01*
X14838563Y-13753150D02*
X14857610Y-13762674D01*
X14857610Y-13762674D02*
X14867134Y-13781722D01*
X14867134Y-13781722D02*
X14867134Y-13886484D01*
X14867134Y-13781722D02*
X14876658Y-13762674D01*
X14876658Y-13762674D02*
X14895705Y-13753150D01*
X14895705Y-13753150D02*
X14924277Y-13753150D01*
X14924277Y-13753150D02*
X14943324Y-13762674D01*
X14943324Y-13762674D02*
X14952848Y-13781722D01*
X14952848Y-13781722D02*
X14952848Y-13886484D01*
X15048086Y-13886484D02*
X15048086Y-13753150D01*
X15048086Y-13772198D02*
X15057610Y-13762674D01*
X15057610Y-13762674D02*
X15076658Y-13753150D01*
X15076658Y-13753150D02*
X15105229Y-13753150D01*
X15105229Y-13753150D02*
X15124277Y-13762674D01*
X15124277Y-13762674D02*
X15133801Y-13781722D01*
X15133801Y-13781722D02*
X15133801Y-13886484D01*
X15133801Y-13781722D02*
X15143324Y-13762674D01*
X15143324Y-13762674D02*
X15162372Y-13753150D01*
X15162372Y-13753150D02*
X15190943Y-13753150D01*
X15190943Y-13753150D02*
X15209991Y-13762674D01*
X15209991Y-13762674D02*
X15219515Y-13781722D01*
X15219515Y-13781722D02*
X15219515Y-13886484D01*
X15609991Y-13676960D02*
X15438563Y-13934103D01*
X15867134Y-13686484D02*
X15886182Y-13686484D01*
X15886182Y-13686484D02*
X15905229Y-13696008D01*
X15905229Y-13696008D02*
X15914753Y-13705531D01*
X15914753Y-13705531D02*
X15924277Y-13724579D01*
X15924277Y-13724579D02*
X15933801Y-13762674D01*
X15933801Y-13762674D02*
X15933801Y-13810293D01*
X15933801Y-13810293D02*
X15924277Y-13848388D01*
X15924277Y-13848388D02*
X15914753Y-13867436D01*
X15914753Y-13867436D02*
X15905229Y-13876960D01*
X15905229Y-13876960D02*
X15886182Y-13886484D01*
X15886182Y-13886484D02*
X15867134Y-13886484D01*
X15867134Y-13886484D02*
X15848086Y-13876960D01*
X15848086Y-13876960D02*
X15838563Y-13867436D01*
X15838563Y-13867436D02*
X15829039Y-13848388D01*
X15829039Y-13848388D02*
X15819515Y-13810293D01*
X15819515Y-13810293D02*
X15819515Y-13762674D01*
X15819515Y-13762674D02*
X15829039Y-13724579D01*
X15829039Y-13724579D02*
X15838563Y-13705531D01*
X15838563Y-13705531D02*
X15848086Y-13696008D01*
X15848086Y-13696008D02*
X15867134Y-13686484D01*
X16019515Y-13867436D02*
X16029039Y-13876960D01*
X16029039Y-13876960D02*
X16019515Y-13886484D01*
X16019515Y-13886484D02*
X16009991Y-13876960D01*
X16009991Y-13876960D02*
X16019515Y-13867436D01*
X16019515Y-13867436D02*
X16019515Y-13886484D01*
X16152848Y-13686484D02*
X16171896Y-13686484D01*
X16171896Y-13686484D02*
X16190944Y-13696008D01*
X16190944Y-13696008D02*
X16200467Y-13705531D01*
X16200467Y-13705531D02*
X16209991Y-13724579D01*
X16209991Y-13724579D02*
X16219515Y-13762674D01*
X16219515Y-13762674D02*
X16219515Y-13810293D01*
X16219515Y-13810293D02*
X16209991Y-13848388D01*
X16209991Y-13848388D02*
X16200467Y-13867436D01*
X16200467Y-13867436D02*
X16190944Y-13876960D01*
X16190944Y-13876960D02*
X16171896Y-13886484D01*
X16171896Y-13886484D02*
X16152848Y-13886484D01*
X16152848Y-13886484D02*
X16133801Y-13876960D01*
X16133801Y-13876960D02*
X16124277Y-13867436D01*
X16124277Y-13867436D02*
X16114753Y-13848388D01*
X16114753Y-13848388D02*
X16105229Y-13810293D01*
X16105229Y-13810293D02*
X16105229Y-13762674D01*
X16105229Y-13762674D02*
X16114753Y-13724579D01*
X16114753Y-13724579D02*
X16124277Y-13705531D01*
X16124277Y-13705531D02*
X16133801Y-13696008D01*
X16133801Y-13696008D02*
X16152848Y-13686484D01*
X16286182Y-13686484D02*
X16409991Y-13686484D01*
X16409991Y-13686484D02*
X16343325Y-13762674D01*
X16343325Y-13762674D02*
X16371896Y-13762674D01*
X16371896Y-13762674D02*
X16390944Y-13772198D01*
X16390944Y-13772198D02*
X16400467Y-13781722D01*
X16400467Y-13781722D02*
X16409991Y-13800769D01*
X16409991Y-13800769D02*
X16409991Y-13848388D01*
X16409991Y-13848388D02*
X16400467Y-13867436D01*
X16400467Y-13867436D02*
X16390944Y-13876960D01*
X16390944Y-13876960D02*
X16371896Y-13886484D01*
X16371896Y-13886484D02*
X16314753Y-13886484D01*
X16314753Y-13886484D02*
X16295706Y-13876960D01*
X16295706Y-13876960D02*
X16286182Y-13867436D01*
X16505229Y-13886484D02*
X16543325Y-13886484D01*
X16543325Y-13886484D02*
X16562372Y-13876960D01*
X16562372Y-13876960D02*
X16571896Y-13867436D01*
X16571896Y-13867436D02*
X16590944Y-13838865D01*
X16590944Y-13838865D02*
X16600467Y-13800769D01*
X16600467Y-13800769D02*
X16600467Y-13724579D01*
X16600467Y-13724579D02*
X16590944Y-13705531D01*
X16590944Y-13705531D02*
X16581420Y-13696008D01*
X16581420Y-13696008D02*
X16562372Y-13686484D01*
X16562372Y-13686484D02*
X16524277Y-13686484D01*
X16524277Y-13686484D02*
X16505229Y-13696008D01*
X16505229Y-13696008D02*
X16495706Y-13705531D01*
X16495706Y-13705531D02*
X16486182Y-13724579D01*
X16486182Y-13724579D02*
X16486182Y-13772198D01*
X16486182Y-13772198D02*
X16495706Y-13791246D01*
X16495706Y-13791246D02*
X16505229Y-13800769D01*
X16505229Y-13800769D02*
X16524277Y-13810293D01*
X16524277Y-13810293D02*
X16562372Y-13810293D01*
X16562372Y-13810293D02*
X16581420Y-13800769D01*
X16581420Y-13800769D02*
X16590944Y-13791246D01*
X16590944Y-13791246D02*
X16600467Y-13772198D01*
X16771896Y-13753150D02*
X16771896Y-13886484D01*
X16724277Y-13676960D02*
X16676658Y-13819817D01*
X16676658Y-13819817D02*
X16800468Y-13819817D01*
X16867134Y-13686484D02*
X16867134Y-13724579D01*
X16943325Y-13686484D02*
X16943325Y-13724579D01*
X17238563Y-13962674D02*
X17229039Y-13953150D01*
X17229039Y-13953150D02*
X17209991Y-13924579D01*
X17209991Y-13924579D02*
X17200468Y-13905531D01*
X17200468Y-13905531D02*
X17190944Y-13876960D01*
X17190944Y-13876960D02*
X17181420Y-13829341D01*
X17181420Y-13829341D02*
X17181420Y-13791246D01*
X17181420Y-13791246D02*
X17190944Y-13743627D01*
X17190944Y-13743627D02*
X17200468Y-13715055D01*
X17200468Y-13715055D02*
X17209991Y-13696008D01*
X17209991Y-13696008D02*
X17229039Y-13667436D01*
X17229039Y-13667436D02*
X17238563Y-13657912D01*
X17400468Y-13686484D02*
X17362372Y-13686484D01*
X17362372Y-13686484D02*
X17343325Y-13696008D01*
X17343325Y-13696008D02*
X17333801Y-13705531D01*
X17333801Y-13705531D02*
X17314753Y-13734103D01*
X17314753Y-13734103D02*
X17305230Y-13772198D01*
X17305230Y-13772198D02*
X17305230Y-13848388D01*
X17305230Y-13848388D02*
X17314753Y-13867436D01*
X17314753Y-13867436D02*
X17324277Y-13876960D01*
X17324277Y-13876960D02*
X17343325Y-13886484D01*
X17343325Y-13886484D02*
X17381420Y-13886484D01*
X17381420Y-13886484D02*
X17400468Y-13876960D01*
X17400468Y-13876960D02*
X17409991Y-13867436D01*
X17409991Y-13867436D02*
X17419515Y-13848388D01*
X17419515Y-13848388D02*
X17419515Y-13800769D01*
X17419515Y-13800769D02*
X17409991Y-13781722D01*
X17409991Y-13781722D02*
X17400468Y-13772198D01*
X17400468Y-13772198D02*
X17381420Y-13762674D01*
X17381420Y-13762674D02*
X17343325Y-13762674D01*
X17343325Y-13762674D02*
X17324277Y-13772198D01*
X17324277Y-13772198D02*
X17314753Y-13781722D01*
X17314753Y-13781722D02*
X17305230Y-13800769D01*
X17657611Y-13886484D02*
X17657611Y-13686484D01*
X17743325Y-13886484D02*
X17743325Y-13781722D01*
X17743325Y-13781722D02*
X17733801Y-13762674D01*
X17733801Y-13762674D02*
X17714753Y-13753150D01*
X17714753Y-13753150D02*
X17686182Y-13753150D01*
X17686182Y-13753150D02*
X17667134Y-13762674D01*
X17667134Y-13762674D02*
X17657611Y-13772198D01*
X17867134Y-13886484D02*
X17848087Y-13876960D01*
X17848087Y-13876960D02*
X17838563Y-13867436D01*
X17838563Y-13867436D02*
X17829039Y-13848388D01*
X17829039Y-13848388D02*
X17829039Y-13791246D01*
X17829039Y-13791246D02*
X17838563Y-13772198D01*
X17838563Y-13772198D02*
X17848087Y-13762674D01*
X17848087Y-13762674D02*
X17867134Y-13753150D01*
X17867134Y-13753150D02*
X17895706Y-13753150D01*
X17895706Y-13753150D02*
X17914753Y-13762674D01*
X17914753Y-13762674D02*
X17924277Y-13772198D01*
X17924277Y-13772198D02*
X17933801Y-13791246D01*
X17933801Y-13791246D02*
X17933801Y-13848388D01*
X17933801Y-13848388D02*
X17924277Y-13867436D01*
X17924277Y-13867436D02*
X17914753Y-13876960D01*
X17914753Y-13876960D02*
X17895706Y-13886484D01*
X17895706Y-13886484D02*
X17867134Y-13886484D01*
X18048087Y-13886484D02*
X18029039Y-13876960D01*
X18029039Y-13876960D02*
X18019515Y-13857912D01*
X18019515Y-13857912D02*
X18019515Y-13686484D01*
X18200468Y-13876960D02*
X18181420Y-13886484D01*
X18181420Y-13886484D02*
X18143325Y-13886484D01*
X18143325Y-13886484D02*
X18124277Y-13876960D01*
X18124277Y-13876960D02*
X18114753Y-13857912D01*
X18114753Y-13857912D02*
X18114753Y-13781722D01*
X18114753Y-13781722D02*
X18124277Y-13762674D01*
X18124277Y-13762674D02*
X18143325Y-13753150D01*
X18143325Y-13753150D02*
X18181420Y-13753150D01*
X18181420Y-13753150D02*
X18200468Y-13762674D01*
X18200468Y-13762674D02*
X18209992Y-13781722D01*
X18209992Y-13781722D02*
X18209992Y-13800769D01*
X18209992Y-13800769D02*
X18114753Y-13819817D01*
X18286182Y-13876960D02*
X18305230Y-13886484D01*
X18305230Y-13886484D02*
X18343325Y-13886484D01*
X18343325Y-13886484D02*
X18362373Y-13876960D01*
X18362373Y-13876960D02*
X18371896Y-13857912D01*
X18371896Y-13857912D02*
X18371896Y-13848388D01*
X18371896Y-13848388D02*
X18362373Y-13829341D01*
X18362373Y-13829341D02*
X18343325Y-13819817D01*
X18343325Y-13819817D02*
X18314753Y-13819817D01*
X18314753Y-13819817D02*
X18295706Y-13810293D01*
X18295706Y-13810293D02*
X18286182Y-13791246D01*
X18286182Y-13791246D02*
X18286182Y-13781722D01*
X18286182Y-13781722D02*
X18295706Y-13762674D01*
X18295706Y-13762674D02*
X18314753Y-13753150D01*
X18314753Y-13753150D02*
X18343325Y-13753150D01*
X18343325Y-13753150D02*
X18362373Y-13762674D01*
X18438563Y-13962674D02*
X18448087Y-13953150D01*
X18448087Y-13953150D02*
X18467134Y-13924579D01*
X18467134Y-13924579D02*
X18476658Y-13905531D01*
X18476658Y-13905531D02*
X18486182Y-13876960D01*
X18486182Y-13876960D02*
X18495706Y-13829341D01*
X18495706Y-13829341D02*
X18495706Y-13791246D01*
X18495706Y-13791246D02*
X18486182Y-13743627D01*
X18486182Y-13743627D02*
X18476658Y-13715055D01*
X18476658Y-13715055D02*
X18467134Y-13696008D01*
X18467134Y-13696008D02*
X18448087Y-13667436D01*
X18448087Y-13667436D02*
X18438563Y-13657912D01*
X13634211Y-14129711D02*
X13634211Y-13988289D01*
X13492789Y-13988289D01*
X13492789Y-14129711D01*
X13634211Y-14129711D01*
X13914753Y-13969531D02*
X13924277Y-13960008D01*
X13924277Y-13960008D02*
X13943324Y-13950484D01*
X13943324Y-13950484D02*
X13990943Y-13950484D01*
X13990943Y-13950484D02*
X14009991Y-13960008D01*
X14009991Y-13960008D02*
X14019515Y-13969531D01*
X14019515Y-13969531D02*
X14029039Y-13988579D01*
X14029039Y-13988579D02*
X14029039Y-14007627D01*
X14029039Y-14007627D02*
X14019515Y-14036198D01*
X14019515Y-14036198D02*
X13905229Y-14150484D01*
X13905229Y-14150484D02*
X14029039Y-14150484D01*
X14114753Y-14131436D02*
X14124277Y-14140960D01*
X14124277Y-14140960D02*
X14114753Y-14150484D01*
X14114753Y-14150484D02*
X14105229Y-14140960D01*
X14105229Y-14140960D02*
X14114753Y-14131436D01*
X14114753Y-14131436D02*
X14114753Y-14150484D01*
X14190943Y-13950484D02*
X14324277Y-13950484D01*
X14324277Y-13950484D02*
X14238562Y-14150484D01*
X14438562Y-13950484D02*
X14457610Y-13950484D01*
X14457610Y-13950484D02*
X14476658Y-13960008D01*
X14476658Y-13960008D02*
X14486182Y-13969531D01*
X14486182Y-13969531D02*
X14495705Y-13988579D01*
X14495705Y-13988579D02*
X14505229Y-14026674D01*
X14505229Y-14026674D02*
X14505229Y-14074293D01*
X14505229Y-14074293D02*
X14495705Y-14112388D01*
X14495705Y-14112388D02*
X14486182Y-14131436D01*
X14486182Y-14131436D02*
X14476658Y-14140960D01*
X14476658Y-14140960D02*
X14457610Y-14150484D01*
X14457610Y-14150484D02*
X14438562Y-14150484D01*
X14438562Y-14150484D02*
X14419515Y-14140960D01*
X14419515Y-14140960D02*
X14409991Y-14131436D01*
X14409991Y-14131436D02*
X14400467Y-14112388D01*
X14400467Y-14112388D02*
X14390943Y-14074293D01*
X14390943Y-14074293D02*
X14390943Y-14026674D01*
X14390943Y-14026674D02*
X14400467Y-13988579D01*
X14400467Y-13988579D02*
X14409991Y-13969531D01*
X14409991Y-13969531D02*
X14419515Y-13960008D01*
X14419515Y-13960008D02*
X14438562Y-13950484D01*
X14629039Y-13950484D02*
X14648086Y-13950484D01*
X14648086Y-13950484D02*
X14667134Y-13960008D01*
X14667134Y-13960008D02*
X14676658Y-13969531D01*
X14676658Y-13969531D02*
X14686182Y-13988579D01*
X14686182Y-13988579D02*
X14695705Y-14026674D01*
X14695705Y-14026674D02*
X14695705Y-14074293D01*
X14695705Y-14074293D02*
X14686182Y-14112388D01*
X14686182Y-14112388D02*
X14676658Y-14131436D01*
X14676658Y-14131436D02*
X14667134Y-14140960D01*
X14667134Y-14140960D02*
X14648086Y-14150484D01*
X14648086Y-14150484D02*
X14629039Y-14150484D01*
X14629039Y-14150484D02*
X14609991Y-14140960D01*
X14609991Y-14140960D02*
X14600467Y-14131436D01*
X14600467Y-14131436D02*
X14590943Y-14112388D01*
X14590943Y-14112388D02*
X14581420Y-14074293D01*
X14581420Y-14074293D02*
X14581420Y-14026674D01*
X14581420Y-14026674D02*
X14590943Y-13988579D01*
X14590943Y-13988579D02*
X14600467Y-13969531D01*
X14600467Y-13969531D02*
X14609991Y-13960008D01*
X14609991Y-13960008D02*
X14629039Y-13950484D01*
X14781420Y-14150484D02*
X14781420Y-14017150D01*
X14781420Y-14036198D02*
X14790943Y-14026674D01*
X14790943Y-14026674D02*
X14809991Y-14017150D01*
X14809991Y-14017150D02*
X14838563Y-14017150D01*
X14838563Y-14017150D02*
X14857610Y-14026674D01*
X14857610Y-14026674D02*
X14867134Y-14045722D01*
X14867134Y-14045722D02*
X14867134Y-14150484D01*
X14867134Y-14045722D02*
X14876658Y-14026674D01*
X14876658Y-14026674D02*
X14895705Y-14017150D01*
X14895705Y-14017150D02*
X14924277Y-14017150D01*
X14924277Y-14017150D02*
X14943324Y-14026674D01*
X14943324Y-14026674D02*
X14952848Y-14045722D01*
X14952848Y-14045722D02*
X14952848Y-14150484D01*
X15048086Y-14150484D02*
X15048086Y-14017150D01*
X15048086Y-14036198D02*
X15057610Y-14026674D01*
X15057610Y-14026674D02*
X15076658Y-14017150D01*
X15076658Y-14017150D02*
X15105229Y-14017150D01*
X15105229Y-14017150D02*
X15124277Y-14026674D01*
X15124277Y-14026674D02*
X15133801Y-14045722D01*
X15133801Y-14045722D02*
X15133801Y-14150484D01*
X15133801Y-14045722D02*
X15143324Y-14026674D01*
X15143324Y-14026674D02*
X15162372Y-14017150D01*
X15162372Y-14017150D02*
X15190943Y-14017150D01*
X15190943Y-14017150D02*
X15209991Y-14026674D01*
X15209991Y-14026674D02*
X15219515Y-14045722D01*
X15219515Y-14045722D02*
X15219515Y-14150484D01*
X15609991Y-13940960D02*
X15438563Y-14198103D01*
X15867134Y-13950484D02*
X15886182Y-13950484D01*
X15886182Y-13950484D02*
X15905229Y-13960008D01*
X15905229Y-13960008D02*
X15914753Y-13969531D01*
X15914753Y-13969531D02*
X15924277Y-13988579D01*
X15924277Y-13988579D02*
X15933801Y-14026674D01*
X15933801Y-14026674D02*
X15933801Y-14074293D01*
X15933801Y-14074293D02*
X15924277Y-14112388D01*
X15924277Y-14112388D02*
X15914753Y-14131436D01*
X15914753Y-14131436D02*
X15905229Y-14140960D01*
X15905229Y-14140960D02*
X15886182Y-14150484D01*
X15886182Y-14150484D02*
X15867134Y-14150484D01*
X15867134Y-14150484D02*
X15848086Y-14140960D01*
X15848086Y-14140960D02*
X15838563Y-14131436D01*
X15838563Y-14131436D02*
X15829039Y-14112388D01*
X15829039Y-14112388D02*
X15819515Y-14074293D01*
X15819515Y-14074293D02*
X15819515Y-14026674D01*
X15819515Y-14026674D02*
X15829039Y-13988579D01*
X15829039Y-13988579D02*
X15838563Y-13969531D01*
X15838563Y-13969531D02*
X15848086Y-13960008D01*
X15848086Y-13960008D02*
X15867134Y-13950484D01*
X16019515Y-14131436D02*
X16029039Y-14140960D01*
X16029039Y-14140960D02*
X16019515Y-14150484D01*
X16019515Y-14150484D02*
X16009991Y-14140960D01*
X16009991Y-14140960D02*
X16019515Y-14131436D01*
X16019515Y-14131436D02*
X16019515Y-14150484D01*
X16219515Y-14150484D02*
X16105229Y-14150484D01*
X16162372Y-14150484D02*
X16162372Y-13950484D01*
X16162372Y-13950484D02*
X16143325Y-13979055D01*
X16143325Y-13979055D02*
X16124277Y-13998103D01*
X16124277Y-13998103D02*
X16105229Y-14007627D01*
X16343325Y-13950484D02*
X16362372Y-13950484D01*
X16362372Y-13950484D02*
X16381420Y-13960008D01*
X16381420Y-13960008D02*
X16390944Y-13969531D01*
X16390944Y-13969531D02*
X16400467Y-13988579D01*
X16400467Y-13988579D02*
X16409991Y-14026674D01*
X16409991Y-14026674D02*
X16409991Y-14074293D01*
X16409991Y-14074293D02*
X16400467Y-14112388D01*
X16400467Y-14112388D02*
X16390944Y-14131436D01*
X16390944Y-14131436D02*
X16381420Y-14140960D01*
X16381420Y-14140960D02*
X16362372Y-14150484D01*
X16362372Y-14150484D02*
X16343325Y-14150484D01*
X16343325Y-14150484D02*
X16324277Y-14140960D01*
X16324277Y-14140960D02*
X16314753Y-14131436D01*
X16314753Y-14131436D02*
X16305229Y-14112388D01*
X16305229Y-14112388D02*
X16295706Y-14074293D01*
X16295706Y-14074293D02*
X16295706Y-14026674D01*
X16295706Y-14026674D02*
X16305229Y-13988579D01*
X16305229Y-13988579D02*
X16314753Y-13969531D01*
X16314753Y-13969531D02*
X16324277Y-13960008D01*
X16324277Y-13960008D02*
X16343325Y-13950484D01*
X16581420Y-13950484D02*
X16543325Y-13950484D01*
X16543325Y-13950484D02*
X16524277Y-13960008D01*
X16524277Y-13960008D02*
X16514753Y-13969531D01*
X16514753Y-13969531D02*
X16495706Y-13998103D01*
X16495706Y-13998103D02*
X16486182Y-14036198D01*
X16486182Y-14036198D02*
X16486182Y-14112388D01*
X16486182Y-14112388D02*
X16495706Y-14131436D01*
X16495706Y-14131436D02*
X16505229Y-14140960D01*
X16505229Y-14140960D02*
X16524277Y-14150484D01*
X16524277Y-14150484D02*
X16562372Y-14150484D01*
X16562372Y-14150484D02*
X16581420Y-14140960D01*
X16581420Y-14140960D02*
X16590944Y-14131436D01*
X16590944Y-14131436D02*
X16600467Y-14112388D01*
X16600467Y-14112388D02*
X16600467Y-14064769D01*
X16600467Y-14064769D02*
X16590944Y-14045722D01*
X16590944Y-14045722D02*
X16581420Y-14036198D01*
X16581420Y-14036198D02*
X16562372Y-14026674D01*
X16562372Y-14026674D02*
X16524277Y-14026674D01*
X16524277Y-14026674D02*
X16505229Y-14036198D01*
X16505229Y-14036198D02*
X16495706Y-14045722D01*
X16495706Y-14045722D02*
X16486182Y-14064769D01*
X16667134Y-13950484D02*
X16790944Y-13950484D01*
X16790944Y-13950484D02*
X16724277Y-14026674D01*
X16724277Y-14026674D02*
X16752848Y-14026674D01*
X16752848Y-14026674D02*
X16771896Y-14036198D01*
X16771896Y-14036198D02*
X16781420Y-14045722D01*
X16781420Y-14045722D02*
X16790944Y-14064769D01*
X16790944Y-14064769D02*
X16790944Y-14112388D01*
X16790944Y-14112388D02*
X16781420Y-14131436D01*
X16781420Y-14131436D02*
X16771896Y-14140960D01*
X16771896Y-14140960D02*
X16752848Y-14150484D01*
X16752848Y-14150484D02*
X16695706Y-14150484D01*
X16695706Y-14150484D02*
X16676658Y-14140960D01*
X16676658Y-14140960D02*
X16667134Y-14131436D01*
X16867134Y-13950484D02*
X16867134Y-13988579D01*
X16943325Y-13950484D02*
X16943325Y-13988579D01*
X17238563Y-14226674D02*
X17229039Y-14217150D01*
X17229039Y-14217150D02*
X17209991Y-14188579D01*
X17209991Y-14188579D02*
X17200468Y-14169531D01*
X17200468Y-14169531D02*
X17190944Y-14140960D01*
X17190944Y-14140960D02*
X17181420Y-14093341D01*
X17181420Y-14093341D02*
X17181420Y-14055246D01*
X17181420Y-14055246D02*
X17190944Y-14007627D01*
X17190944Y-14007627D02*
X17200468Y-13979055D01*
X17200468Y-13979055D02*
X17209991Y-13960008D01*
X17209991Y-13960008D02*
X17229039Y-13931436D01*
X17229039Y-13931436D02*
X17238563Y-13921912D01*
X17400468Y-13950484D02*
X17362372Y-13950484D01*
X17362372Y-13950484D02*
X17343325Y-13960008D01*
X17343325Y-13960008D02*
X17333801Y-13969531D01*
X17333801Y-13969531D02*
X17314753Y-13998103D01*
X17314753Y-13998103D02*
X17305230Y-14036198D01*
X17305230Y-14036198D02*
X17305230Y-14112388D01*
X17305230Y-14112388D02*
X17314753Y-14131436D01*
X17314753Y-14131436D02*
X17324277Y-14140960D01*
X17324277Y-14140960D02*
X17343325Y-14150484D01*
X17343325Y-14150484D02*
X17381420Y-14150484D01*
X17381420Y-14150484D02*
X17400468Y-14140960D01*
X17400468Y-14140960D02*
X17409991Y-14131436D01*
X17409991Y-14131436D02*
X17419515Y-14112388D01*
X17419515Y-14112388D02*
X17419515Y-14064769D01*
X17419515Y-14064769D02*
X17409991Y-14045722D01*
X17409991Y-14045722D02*
X17400468Y-14036198D01*
X17400468Y-14036198D02*
X17381420Y-14026674D01*
X17381420Y-14026674D02*
X17343325Y-14026674D01*
X17343325Y-14026674D02*
X17324277Y-14036198D01*
X17324277Y-14036198D02*
X17314753Y-14045722D01*
X17314753Y-14045722D02*
X17305230Y-14064769D01*
X17657611Y-14150484D02*
X17657611Y-13950484D01*
X17743325Y-14150484D02*
X17743325Y-14045722D01*
X17743325Y-14045722D02*
X17733801Y-14026674D01*
X17733801Y-14026674D02*
X17714753Y-14017150D01*
X17714753Y-14017150D02*
X17686182Y-14017150D01*
X17686182Y-14017150D02*
X17667134Y-14026674D01*
X17667134Y-14026674D02*
X17657611Y-14036198D01*
X17867134Y-14150484D02*
X17848087Y-14140960D01*
X17848087Y-14140960D02*
X17838563Y-14131436D01*
X17838563Y-14131436D02*
X17829039Y-14112388D01*
X17829039Y-14112388D02*
X17829039Y-14055246D01*
X17829039Y-14055246D02*
X17838563Y-14036198D01*
X17838563Y-14036198D02*
X17848087Y-14026674D01*
X17848087Y-14026674D02*
X17867134Y-14017150D01*
X17867134Y-14017150D02*
X17895706Y-14017150D01*
X17895706Y-14017150D02*
X17914753Y-14026674D01*
X17914753Y-14026674D02*
X17924277Y-14036198D01*
X17924277Y-14036198D02*
X17933801Y-14055246D01*
X17933801Y-14055246D02*
X17933801Y-14112388D01*
X17933801Y-14112388D02*
X17924277Y-14131436D01*
X17924277Y-14131436D02*
X17914753Y-14140960D01*
X17914753Y-14140960D02*
X17895706Y-14150484D01*
X17895706Y-14150484D02*
X17867134Y-14150484D01*
X18048087Y-14150484D02*
X18029039Y-14140960D01*
X18029039Y-14140960D02*
X18019515Y-14121912D01*
X18019515Y-14121912D02*
X18019515Y-13950484D01*
X18200468Y-14140960D02*
X18181420Y-14150484D01*
X18181420Y-14150484D02*
X18143325Y-14150484D01*
X18143325Y-14150484D02*
X18124277Y-14140960D01*
X18124277Y-14140960D02*
X18114753Y-14121912D01*
X18114753Y-14121912D02*
X18114753Y-14045722D01*
X18114753Y-14045722D02*
X18124277Y-14026674D01*
X18124277Y-14026674D02*
X18143325Y-14017150D01*
X18143325Y-14017150D02*
X18181420Y-14017150D01*
X18181420Y-14017150D02*
X18200468Y-14026674D01*
X18200468Y-14026674D02*
X18209992Y-14045722D01*
X18209992Y-14045722D02*
X18209992Y-14064769D01*
X18209992Y-14064769D02*
X18114753Y-14083817D01*
X18286182Y-14140960D02*
X18305230Y-14150484D01*
X18305230Y-14150484D02*
X18343325Y-14150484D01*
X18343325Y-14150484D02*
X18362373Y-14140960D01*
X18362373Y-14140960D02*
X18371896Y-14121912D01*
X18371896Y-14121912D02*
X18371896Y-14112388D01*
X18371896Y-14112388D02*
X18362373Y-14093341D01*
X18362373Y-14093341D02*
X18343325Y-14083817D01*
X18343325Y-14083817D02*
X18314753Y-14083817D01*
X18314753Y-14083817D02*
X18295706Y-14074293D01*
X18295706Y-14074293D02*
X18286182Y-14055246D01*
X18286182Y-14055246D02*
X18286182Y-14045722D01*
X18286182Y-14045722D02*
X18295706Y-14026674D01*
X18295706Y-14026674D02*
X18314753Y-14017150D01*
X18314753Y-14017150D02*
X18343325Y-14017150D01*
X18343325Y-14017150D02*
X18362373Y-14026674D01*
X18438563Y-14226674D02*
X18448087Y-14217150D01*
X18448087Y-14217150D02*
X18467134Y-14188579D01*
X18467134Y-14188579D02*
X18476658Y-14169531D01*
X18476658Y-14169531D02*
X18486182Y-14140960D01*
X18486182Y-14140960D02*
X18495706Y-14093341D01*
X18495706Y-14093341D02*
X18495706Y-14055246D01*
X18495706Y-14055246D02*
X18486182Y-14007627D01*
X18486182Y-14007627D02*
X18476658Y-13979055D01*
X18476658Y-13979055D02*
X18467134Y-13960008D01*
X18467134Y-13960008D02*
X18448087Y-13931436D01*
X18448087Y-13931436D02*
X18438563Y-13921912D01*
M02*
