M48
; DRILL file {KiCad 8.0.5} date 2025-01-30T01:50:48+0100
; FORMAT={-:-/ absolute / inch / decimal}
; #@! TF.CreationDate,2025-01-30T01:50:48+01:00
; #@! TF.GenerationSoftware,Kicad,Pcbnew,8.0.5
; #@! TF.FileFunction,Plated,1,2,PTH
FMAT,2
INCH
; #@! TA.AperFunction,Plated,PTH,ViaDrill
T1C0.0118
; #@! TA.AperFunction,Plated,PTH,ComponentDrill
T2C0.0236
; #@! TA.AperFunction,Plated,PTH,ComponentDrill
T3C0.0394
; #@! TA.AperFunction,Plated,PTH,ComponentDrill
T4C0.1063
%
G90
G05
T1
X5.5224Y-3.4835
X5.5224Y-3.6008
X5.5224Y-3.7118
X5.5476Y-3.3736
X5.5559Y-3.8673
X5.6524Y-3.9236
X5.6622Y-4.0075
X5.6965Y-3.4504
X5.7083Y-3.7287
X5.7126Y-4.1555
X5.7661Y-4.3012
X5.7965Y-2.7488
X5.7965Y-2.8831
X5.7965Y-3.0091
X5.8228Y-3.674
X5.8343Y-3.811
X5.8496Y-3.3248
X5.8496Y-3.374
X5.9047Y-3.3248
X5.9047Y-3.374
X5.913Y-4.2287
X5.9244Y-3.813
X5.9366Y-3.9835
X5.9488Y-4.6858
X5.9512Y-3.3843
X5.9512Y-3.4394
X5.9772Y-2.75
X5.9772Y-2.8843
X5.9772Y-3.0103
X5.9929Y-2.6409
X6.0004Y-3.3843
X6.0004Y-3.4394
X6.0031Y-4.6213
X6.0059Y-4.5543
X6.0138Y-4.6858
X6.028Y-2.6177
X6.0579Y-4.6213
X6.0701Y-2.6177
X6.0709Y-4.5543
X6.0807Y-3.1941
X6.1142Y-2.7472
X6.1142Y-2.8815
X6.1142Y-3.0075
X6.1224Y-4.2244
X6.1295Y-3.4689
X6.1295Y-3.6032
X6.1295Y-3.7292
X6.1307Y-3.848
X6.1307Y-3.974
X6.2488Y-2.7461
X6.2488Y-2.872
X6.2488Y-3.0063
X6.2622Y-3.4772
X6.2622Y-3.6031
X6.2622Y-3.7374
X6.2634Y-3.848
X6.2654Y-3.9728
X6.2776Y-4.1488
X6.2783Y-4.226
X6.5669Y-3.4835
X6.5669Y-3.6008
X6.5669Y-3.7118
X6.5921Y-3.3736
X6.6004Y-3.8673
X6.6968Y-3.9236
X6.7067Y-4.0075
X6.7409Y-3.4504
X6.7527Y-3.7287
X6.7571Y-4.1555
X6.8106Y-4.3012
X6.8409Y-2.7488
X6.8409Y-2.8831
X6.8409Y-3.0091
X6.8673Y-3.674
X6.8787Y-3.811
X6.8941Y-3.3248
X6.8941Y-3.374
X6.9492Y-3.3248
X6.9492Y-3.374
X6.9575Y-4.2287
X6.9689Y-3.813
X6.9811Y-3.9835
X6.9933Y-4.6858
X6.9957Y-3.3843
X6.9957Y-3.4394
X7.0216Y-2.75
X7.0216Y-2.8843
X7.0216Y-3.0103
X7.0374Y-2.6409
X7.0449Y-3.3843
X7.0449Y-3.4394
X7.0476Y-4.6213
X7.0504Y-4.5543
X7.0583Y-4.6858
X7.0724Y-2.6177
X7.1024Y-4.6213
X7.1146Y-2.6177
X7.1153Y-4.5543
X7.1252Y-3.1941
X7.1586Y-2.7472
X7.1586Y-2.8815
X7.1586Y-3.0075
X7.1669Y-4.2244
X7.174Y-3.4689
X7.174Y-3.6032
X7.174Y-3.7292
X7.1752Y-3.848
X7.1752Y-3.974
X7.2933Y-2.7461
X7.2933Y-2.872
X7.2933Y-3.0063
X7.3067Y-3.4772
X7.3067Y-3.6031
X7.3067Y-3.7374
X7.3079Y-3.848
X7.3098Y-3.9728
X7.322Y-4.1488
X7.3228Y-4.226
X7.6114Y-3.4835
X7.6114Y-3.6008
X7.6114Y-3.7118
X7.6366Y-3.3736
X7.6449Y-3.8673
X7.7413Y-3.9236
X7.7512Y-4.0075
X7.7854Y-3.4504
X7.7972Y-3.7287
X7.8016Y-4.1555
X7.8551Y-4.3012
X7.8854Y-2.7488
X7.8854Y-2.8831
X7.8854Y-3.0091
X7.9118Y-3.674
X7.9232Y-3.811
X7.9386Y-3.3248
X7.9386Y-3.374
X7.9937Y-3.3248
X7.9937Y-3.374
X8.002Y-4.2287
X8.0134Y-3.813
X8.0256Y-3.9835
X8.0378Y-4.6858
X8.0401Y-3.3843
X8.0401Y-3.4394
X8.0661Y-2.75
X8.0661Y-2.8843
X8.0661Y-3.0103
X8.0819Y-2.6409
X8.0894Y-3.3843
X8.0894Y-3.4394
X8.0921Y-4.6213
X8.0948Y-4.5543
X8.1027Y-4.6858
X8.1169Y-2.6177
X8.1468Y-4.6213
X8.159Y-2.6177
X8.1598Y-4.5543
X8.1697Y-3.1941
X8.2031Y-2.7472
X8.2031Y-2.8815
X8.2031Y-3.0075
X8.2114Y-4.2244
X8.2185Y-3.4689
X8.2185Y-3.6032
X8.2185Y-3.7292
X8.2197Y-3.848
X8.2197Y-3.974
X8.3378Y-2.7461
X8.3378Y-2.872
X8.3378Y-3.0063
X8.3512Y-3.4772
X8.3512Y-3.6031
X8.3512Y-3.7374
X8.3524Y-3.848
X8.3543Y-3.9728
X8.3665Y-4.1488
X8.3673Y-4.226
T3
X5.8382Y-3.8902
X5.9382Y-3.8902
X6.8827Y-3.8902
X6.9827Y-3.8902
X7.9272Y-3.8902
X8.0272Y-3.8902
T4
X6.2112Y-2.3933
X6.2112Y-4.8445
X7.2557Y-2.3933
X7.2557Y-4.8445
X8.3002Y-2.3933
X8.3002Y-4.8445
T2
G00X5.4569Y-3.4492
M15
G01X5.4254Y-3.4492
M16
G05
G00X5.4569Y-3.7894
M15
G01X5.4254Y-3.7894
M16
G05
G00X5.6274Y-3.4492
M15
G01X5.5841Y-3.4492
M16
G05
G00X5.6274Y-3.7894
M15
G01X5.5841Y-3.7894
M16
G05
G00X6.5014Y-3.4492
M15
G01X6.4699Y-3.4492
M16
G05
G00X6.5014Y-3.7894
M15
G01X6.4699Y-3.7894
M16
G05
G00X6.6718Y-3.4492
M15
G01X6.6285Y-3.4492
M16
G05
G00X6.6718Y-3.7894
M15
G01X6.6285Y-3.7894
M16
G05
G00X7.5459Y-3.4492
M15
G01X7.5144Y-3.4492
M16
G05
G00X7.5459Y-3.7894
M15
G01X7.5144Y-3.7894
M16
G05
G00X7.7163Y-3.4492
M15
G01X7.673Y-3.4492
M16
G05
G00X7.7163Y-3.7894
M15
G01X7.673Y-3.7894
M16
G05
M30
