%TF.GenerationSoftware,KiCad,Pcbnew,8.0.5*%
%TF.CreationDate,2025-01-30T01:50:47+01:00*%
%TF.ProjectId,LAMP_OUTDOOR_BATTERY_PANEL,4c414d50-5f4f-4555-9444-4f4f525f4241,rev?*%
%TF.SameCoordinates,Original*%
%TF.FileFunction,Drillmap*%
%TF.FilePolarity,Positive*%
%FSLAX45Y45*%
G04 Gerber Fmt 4.5, Leading zero omitted, Abs format (unit mm)*
G04 Created by KiCad (PCBNEW 8.0.5) date 2025-01-30 01:50:47*
%MOMM*%
%LPD*%
G01*
G04 APERTURE LIST*
%ADD10C,0.050000*%
%ADD11C,0.200000*%
%ADD12C,0.100000*%
G04 APERTURE END LIST*
D10*
X22030500Y-12200000D02*
G75*
G02*
X21735500Y-12200000I-147500J0D01*
G01*
X21735500Y-12200000D02*
G75*
G02*
X22030500Y-12200000I147500J0D01*
G01*
X22030500Y-6200000D02*
G75*
G02*
X21735500Y-6200000I-147500J0D01*
G01*
X21735500Y-6200000D02*
G75*
G02*
X22030500Y-6200000I147500J0D01*
G01*
D11*
X21633000Y-8875000D02*
X21633000Y-7281000D01*
X21633000Y-11268000D02*
X21633000Y-9509000D01*
X21633000Y-12617000D02*
X21633000Y-11902000D01*
X22133000Y-12617000D02*
X21633000Y-12617000D01*
X22133000Y-5783000D02*
X22133000Y-12617000D01*
X21633000Y-5783000D02*
X22133000Y-5783000D01*
X21633000Y-6647000D02*
X21633000Y-5783000D01*
X21383000Y-6647000D02*
X21382440Y-6078956D01*
X21382680Y-7280000D02*
X21382680Y-7280000D01*
X21383000Y-8875000D02*
X21383012Y-7281000D01*
X21383000Y-11268000D02*
X21383012Y-9509000D01*
D10*
X21633000Y-11434000D02*
G75*
G02*
X21383000Y-11434000I-125000J0D01*
G01*
X21383000Y-11434000D02*
G75*
G02*
X21633000Y-11434000I125000J0D01*
G01*
D11*
X21633000Y-11268000D02*
X21383000Y-11268000D01*
D10*
X21633000Y-11735000D02*
G75*
G02*
X21383000Y-11735000I-125000J0D01*
G01*
X21383000Y-11735000D02*
G75*
G02*
X21633000Y-11735000I125000J0D01*
G01*
D11*
X21633000Y-11902000D02*
X21383012Y-11902000D01*
D10*
X21633000Y-9041000D02*
G75*
G02*
X21383000Y-9041000I-125000J0D01*
G01*
X21383000Y-9041000D02*
G75*
G02*
X21633000Y-9041000I125000J0D01*
G01*
D11*
X21633000Y-9509000D02*
X21383012Y-9509000D01*
D10*
X21633000Y-9342000D02*
G75*
G02*
X21383000Y-9342000I-125000J0D01*
G01*
X21383000Y-9342000D02*
G75*
G02*
X21633000Y-9342000I125000J0D01*
G01*
D11*
X21633000Y-8875000D02*
X21383000Y-8875000D01*
D10*
X21633000Y-6813000D02*
G75*
G02*
X21383000Y-6813000I-125000J0D01*
G01*
X21383000Y-6813000D02*
G75*
G02*
X21633000Y-6813000I125000J0D01*
G01*
D11*
X21633000Y-7281000D02*
X21383012Y-7281000D01*
D10*
X21633000Y-7114000D02*
G75*
G02*
X21383000Y-7114000I-125000J0D01*
G01*
X21383000Y-7114000D02*
G75*
G02*
X21633000Y-7114000I125000J0D01*
G01*
D11*
X21633000Y-6647000D02*
X21383000Y-6647000D01*
X18980000Y-9509000D02*
X18979470Y-9692000D01*
X18730000Y-8875000D02*
X18729440Y-6078956D01*
D10*
X18980000Y-9342000D02*
G75*
G02*
X18730000Y-9342000I-125000J0D01*
G01*
X18730000Y-9342000D02*
G75*
G02*
X18980000Y-9342000I125000J0D01*
G01*
X18980000Y-9041000D02*
G75*
G02*
X18730000Y-9041000I-125000J0D01*
G01*
X18730000Y-9041000D02*
G75*
G02*
X18980000Y-9041000I125000J0D01*
G01*
D11*
X18980000Y-9509000D02*
X18730012Y-9509000D01*
X18980000Y-8875000D02*
X18730000Y-8875000D01*
D10*
X16326470Y-9342000D02*
G75*
G02*
X16076470Y-9342000I-125000J0D01*
G01*
X16076470Y-9342000D02*
G75*
G02*
X16326470Y-9342000I125000J0D01*
G01*
X16326470Y-9041000D02*
G75*
G02*
X16076470Y-9041000I-125000J0D01*
G01*
X16076470Y-9041000D02*
G75*
G02*
X16326470Y-9041000I125000J0D01*
G01*
D11*
X16326470Y-9509000D02*
X16326470Y-9692000D01*
X16326470Y-9509000D02*
X16076482Y-9509000D01*
X16076470Y-8875000D02*
X16076470Y-6078956D01*
X16326470Y-8875000D02*
X16076470Y-8875000D01*
X13673500Y-8692000D02*
X13673500Y-9692000D01*
X15593283Y-12542620D02*
G75*
G02*
X13975476Y-9692000I2583547J3350620D01*
G01*
X13673500Y-9692000D02*
X13975476Y-9692000D01*
X16076470Y-12305044D02*
X16076482Y-9509000D01*
X13975476Y-8692000D02*
X13673500Y-8692000D01*
X15593283Y-5841379D02*
G75*
G02*
X16076473Y-6078956I183187J-237581D01*
G01*
X16076470Y-12305044D02*
G75*
G02*
X15593285Y-12542618I-300000J4D01*
G01*
X13975476Y-8692000D02*
G75*
G02*
X15593283Y-5841379I4201354J-500000D01*
G01*
X16326470Y-8692000D02*
X16326470Y-8875000D01*
X18246253Y-12542620D02*
G75*
G02*
X16628446Y-9692000I2583551J3350623D01*
G01*
X16326470Y-9692000D02*
X16628446Y-9692000D01*
X16628446Y-8692000D02*
X16326470Y-8692000D01*
X18246253Y-5841379D02*
G75*
G02*
X18729440Y-6078956I183187J-237577D01*
G01*
X18729440Y-12305044D02*
X18730012Y-9509000D01*
X18729440Y-12305044D02*
G75*
G02*
X18246253Y-12542620I-300003J6D01*
G01*
X16628446Y-8692000D02*
G75*
G02*
X18246253Y-5841379I4201350J-499999D01*
G01*
X18979470Y-8692000D02*
X18980000Y-8875000D01*
X20899253Y-12542620D02*
G75*
G02*
X19281446Y-9692000I2583551J3350623D01*
G01*
X18979470Y-9692000D02*
X19281446Y-9692000D01*
X19281446Y-8692000D02*
X18979470Y-8692000D01*
X20899253Y-5841379D02*
G75*
G02*
X21382440Y-6078956I183187J-237577D01*
G01*
X21382440Y-12305044D02*
X21383012Y-11902000D01*
X21382440Y-12305044D02*
G75*
G02*
X20899253Y-12542620I-300003J6D01*
G01*
X19281446Y-8692000D02*
G75*
G02*
X20899253Y-5841379I4201350J-499999D01*
G01*
D12*
X14156000Y-8871500D02*
X14221000Y-8936500D01*
X14221000Y-8871500D02*
X14156000Y-8936500D01*
X14156000Y-9449500D02*
X14221000Y-9514500D01*
X14221000Y-9449500D02*
X14156000Y-9514500D01*
X16808970Y-8871500D02*
X16873970Y-8936500D01*
X16873970Y-8871500D02*
X16808970Y-8936500D01*
X16808970Y-9449500D02*
X16873970Y-9514500D01*
X16873970Y-9449500D02*
X16808970Y-9514500D01*
X19461970Y-8871500D02*
X19526970Y-8936500D01*
X19526970Y-8871500D02*
X19461970Y-8936500D01*
X19461970Y-9449500D02*
X19526970Y-9514500D01*
X19526970Y-9449500D02*
X19461970Y-9514500D01*
D11*
X13924277Y-12938484D02*
X13924277Y-12738484D01*
X13924277Y-12738484D02*
X13971896Y-12738484D01*
X13971896Y-12738484D02*
X14000467Y-12748008D01*
X14000467Y-12748008D02*
X14019515Y-12767055D01*
X14019515Y-12767055D02*
X14029039Y-12786103D01*
X14029039Y-12786103D02*
X14038562Y-12824198D01*
X14038562Y-12824198D02*
X14038562Y-12852769D01*
X14038562Y-12852769D02*
X14029039Y-12890865D01*
X14029039Y-12890865D02*
X14019515Y-12909912D01*
X14019515Y-12909912D02*
X14000467Y-12928960D01*
X14000467Y-12928960D02*
X13971896Y-12938484D01*
X13971896Y-12938484D02*
X13924277Y-12938484D01*
X14124277Y-12938484D02*
X14124277Y-12805150D01*
X14124277Y-12843246D02*
X14133801Y-12824198D01*
X14133801Y-12824198D02*
X14143324Y-12814674D01*
X14143324Y-12814674D02*
X14162372Y-12805150D01*
X14162372Y-12805150D02*
X14181420Y-12805150D01*
X14248086Y-12938484D02*
X14248086Y-12805150D01*
X14248086Y-12738484D02*
X14238562Y-12748008D01*
X14238562Y-12748008D02*
X14248086Y-12757531D01*
X14248086Y-12757531D02*
X14257610Y-12748008D01*
X14257610Y-12748008D02*
X14248086Y-12738484D01*
X14248086Y-12738484D02*
X14248086Y-12757531D01*
X14371896Y-12938484D02*
X14352848Y-12928960D01*
X14352848Y-12928960D02*
X14343324Y-12909912D01*
X14343324Y-12909912D02*
X14343324Y-12738484D01*
X14476658Y-12938484D02*
X14457610Y-12928960D01*
X14457610Y-12928960D02*
X14448086Y-12909912D01*
X14448086Y-12909912D02*
X14448086Y-12738484D01*
X14705229Y-12938484D02*
X14705229Y-12738484D01*
X14705229Y-12738484D02*
X14771896Y-12881341D01*
X14771896Y-12881341D02*
X14838562Y-12738484D01*
X14838562Y-12738484D02*
X14838562Y-12938484D01*
X15019515Y-12938484D02*
X15019515Y-12833722D01*
X15019515Y-12833722D02*
X15009991Y-12814674D01*
X15009991Y-12814674D02*
X14990943Y-12805150D01*
X14990943Y-12805150D02*
X14952848Y-12805150D01*
X14952848Y-12805150D02*
X14933801Y-12814674D01*
X15019515Y-12928960D02*
X15000467Y-12938484D01*
X15000467Y-12938484D02*
X14952848Y-12938484D01*
X14952848Y-12938484D02*
X14933801Y-12928960D01*
X14933801Y-12928960D02*
X14924277Y-12909912D01*
X14924277Y-12909912D02*
X14924277Y-12890865D01*
X14924277Y-12890865D02*
X14933801Y-12871817D01*
X14933801Y-12871817D02*
X14952848Y-12862293D01*
X14952848Y-12862293D02*
X15000467Y-12862293D01*
X15000467Y-12862293D02*
X15019515Y-12852769D01*
X15114753Y-12805150D02*
X15114753Y-13005150D01*
X15114753Y-12814674D02*
X15133801Y-12805150D01*
X15133801Y-12805150D02*
X15171896Y-12805150D01*
X15171896Y-12805150D02*
X15190943Y-12814674D01*
X15190943Y-12814674D02*
X15200467Y-12824198D01*
X15200467Y-12824198D02*
X15209991Y-12843246D01*
X15209991Y-12843246D02*
X15209991Y-12900388D01*
X15209991Y-12900388D02*
X15200467Y-12919436D01*
X15200467Y-12919436D02*
X15190943Y-12928960D01*
X15190943Y-12928960D02*
X15171896Y-12938484D01*
X15171896Y-12938484D02*
X15133801Y-12938484D01*
X15133801Y-12938484D02*
X15114753Y-12928960D01*
X15295705Y-12919436D02*
X15305229Y-12928960D01*
X15305229Y-12928960D02*
X15295705Y-12938484D01*
X15295705Y-12938484D02*
X15286182Y-12928960D01*
X15286182Y-12928960D02*
X15295705Y-12919436D01*
X15295705Y-12919436D02*
X15295705Y-12938484D01*
X15295705Y-12814674D02*
X15305229Y-12824198D01*
X15305229Y-12824198D02*
X15295705Y-12833722D01*
X15295705Y-12833722D02*
X15286182Y-12824198D01*
X15286182Y-12824198D02*
X15295705Y-12814674D01*
X15295705Y-12814674D02*
X15295705Y-12833722D01*
D12*
X13598500Y-13234500D02*
X13663500Y-13299500D01*
X13663500Y-13234500D02*
X13598500Y-13299500D01*
D11*
X13962372Y-13158484D02*
X13981420Y-13158484D01*
X13981420Y-13158484D02*
X14000467Y-13168008D01*
X14000467Y-13168008D02*
X14009991Y-13177531D01*
X14009991Y-13177531D02*
X14019515Y-13196579D01*
X14019515Y-13196579D02*
X14029039Y-13234674D01*
X14029039Y-13234674D02*
X14029039Y-13282293D01*
X14029039Y-13282293D02*
X14019515Y-13320388D01*
X14019515Y-13320388D02*
X14009991Y-13339436D01*
X14009991Y-13339436D02*
X14000467Y-13348960D01*
X14000467Y-13348960D02*
X13981420Y-13358484D01*
X13981420Y-13358484D02*
X13962372Y-13358484D01*
X13962372Y-13358484D02*
X13943324Y-13348960D01*
X13943324Y-13348960D02*
X13933801Y-13339436D01*
X13933801Y-13339436D02*
X13924277Y-13320388D01*
X13924277Y-13320388D02*
X13914753Y-13282293D01*
X13914753Y-13282293D02*
X13914753Y-13234674D01*
X13914753Y-13234674D02*
X13924277Y-13196579D01*
X13924277Y-13196579D02*
X13933801Y-13177531D01*
X13933801Y-13177531D02*
X13943324Y-13168008D01*
X13943324Y-13168008D02*
X13962372Y-13158484D01*
X14114753Y-13339436D02*
X14124277Y-13348960D01*
X14124277Y-13348960D02*
X14114753Y-13358484D01*
X14114753Y-13358484D02*
X14105229Y-13348960D01*
X14105229Y-13348960D02*
X14114753Y-13339436D01*
X14114753Y-13339436D02*
X14114753Y-13358484D01*
X14295705Y-13158484D02*
X14257610Y-13158484D01*
X14257610Y-13158484D02*
X14238562Y-13168008D01*
X14238562Y-13168008D02*
X14229039Y-13177531D01*
X14229039Y-13177531D02*
X14209991Y-13206103D01*
X14209991Y-13206103D02*
X14200467Y-13244198D01*
X14200467Y-13244198D02*
X14200467Y-13320388D01*
X14200467Y-13320388D02*
X14209991Y-13339436D01*
X14209991Y-13339436D02*
X14219515Y-13348960D01*
X14219515Y-13348960D02*
X14238562Y-13358484D01*
X14238562Y-13358484D02*
X14276658Y-13358484D01*
X14276658Y-13358484D02*
X14295705Y-13348960D01*
X14295705Y-13348960D02*
X14305229Y-13339436D01*
X14305229Y-13339436D02*
X14314753Y-13320388D01*
X14314753Y-13320388D02*
X14314753Y-13272769D01*
X14314753Y-13272769D02*
X14305229Y-13253722D01*
X14305229Y-13253722D02*
X14295705Y-13244198D01*
X14295705Y-13244198D02*
X14276658Y-13234674D01*
X14276658Y-13234674D02*
X14238562Y-13234674D01*
X14238562Y-13234674D02*
X14219515Y-13244198D01*
X14219515Y-13244198D02*
X14209991Y-13253722D01*
X14209991Y-13253722D02*
X14200467Y-13272769D01*
X14495705Y-13158484D02*
X14400467Y-13158484D01*
X14400467Y-13158484D02*
X14390943Y-13253722D01*
X14390943Y-13253722D02*
X14400467Y-13244198D01*
X14400467Y-13244198D02*
X14419515Y-13234674D01*
X14419515Y-13234674D02*
X14467134Y-13234674D01*
X14467134Y-13234674D02*
X14486182Y-13244198D01*
X14486182Y-13244198D02*
X14495705Y-13253722D01*
X14495705Y-13253722D02*
X14505229Y-13272769D01*
X14505229Y-13272769D02*
X14505229Y-13320388D01*
X14505229Y-13320388D02*
X14495705Y-13339436D01*
X14495705Y-13339436D02*
X14486182Y-13348960D01*
X14486182Y-13348960D02*
X14467134Y-13358484D01*
X14467134Y-13358484D02*
X14419515Y-13358484D01*
X14419515Y-13358484D02*
X14400467Y-13348960D01*
X14400467Y-13348960D02*
X14390943Y-13339436D01*
X14629039Y-13158484D02*
X14648086Y-13158484D01*
X14648086Y-13158484D02*
X14667134Y-13168008D01*
X14667134Y-13168008D02*
X14676658Y-13177531D01*
X14676658Y-13177531D02*
X14686182Y-13196579D01*
X14686182Y-13196579D02*
X14695705Y-13234674D01*
X14695705Y-13234674D02*
X14695705Y-13282293D01*
X14695705Y-13282293D02*
X14686182Y-13320388D01*
X14686182Y-13320388D02*
X14676658Y-13339436D01*
X14676658Y-13339436D02*
X14667134Y-13348960D01*
X14667134Y-13348960D02*
X14648086Y-13358484D01*
X14648086Y-13358484D02*
X14629039Y-13358484D01*
X14629039Y-13358484D02*
X14609991Y-13348960D01*
X14609991Y-13348960D02*
X14600467Y-13339436D01*
X14600467Y-13339436D02*
X14590943Y-13320388D01*
X14590943Y-13320388D02*
X14581420Y-13282293D01*
X14581420Y-13282293D02*
X14581420Y-13234674D01*
X14581420Y-13234674D02*
X14590943Y-13196579D01*
X14590943Y-13196579D02*
X14600467Y-13177531D01*
X14600467Y-13177531D02*
X14609991Y-13168008D01*
X14609991Y-13168008D02*
X14629039Y-13158484D01*
X14781420Y-13358484D02*
X14781420Y-13225150D01*
X14781420Y-13244198D02*
X14790943Y-13234674D01*
X14790943Y-13234674D02*
X14809991Y-13225150D01*
X14809991Y-13225150D02*
X14838563Y-13225150D01*
X14838563Y-13225150D02*
X14857610Y-13234674D01*
X14857610Y-13234674D02*
X14867134Y-13253722D01*
X14867134Y-13253722D02*
X14867134Y-13358484D01*
X14867134Y-13253722D02*
X14876658Y-13234674D01*
X14876658Y-13234674D02*
X14895705Y-13225150D01*
X14895705Y-13225150D02*
X14924277Y-13225150D01*
X14924277Y-13225150D02*
X14943324Y-13234674D01*
X14943324Y-13234674D02*
X14952848Y-13253722D01*
X14952848Y-13253722D02*
X14952848Y-13358484D01*
X15048086Y-13358484D02*
X15048086Y-13225150D01*
X15048086Y-13244198D02*
X15057610Y-13234674D01*
X15057610Y-13234674D02*
X15076658Y-13225150D01*
X15076658Y-13225150D02*
X15105229Y-13225150D01*
X15105229Y-13225150D02*
X15124277Y-13234674D01*
X15124277Y-13234674D02*
X15133801Y-13253722D01*
X15133801Y-13253722D02*
X15133801Y-13358484D01*
X15133801Y-13253722D02*
X15143324Y-13234674D01*
X15143324Y-13234674D02*
X15162372Y-13225150D01*
X15162372Y-13225150D02*
X15190943Y-13225150D01*
X15190943Y-13225150D02*
X15209991Y-13234674D01*
X15209991Y-13234674D02*
X15219515Y-13253722D01*
X15219515Y-13253722D02*
X15219515Y-13358484D01*
X15609991Y-13148960D02*
X15438563Y-13406103D01*
X15867134Y-13158484D02*
X15886182Y-13158484D01*
X15886182Y-13158484D02*
X15905229Y-13168008D01*
X15905229Y-13168008D02*
X15914753Y-13177531D01*
X15914753Y-13177531D02*
X15924277Y-13196579D01*
X15924277Y-13196579D02*
X15933801Y-13234674D01*
X15933801Y-13234674D02*
X15933801Y-13282293D01*
X15933801Y-13282293D02*
X15924277Y-13320388D01*
X15924277Y-13320388D02*
X15914753Y-13339436D01*
X15914753Y-13339436D02*
X15905229Y-13348960D01*
X15905229Y-13348960D02*
X15886182Y-13358484D01*
X15886182Y-13358484D02*
X15867134Y-13358484D01*
X15867134Y-13358484D02*
X15848086Y-13348960D01*
X15848086Y-13348960D02*
X15838563Y-13339436D01*
X15838563Y-13339436D02*
X15829039Y-13320388D01*
X15829039Y-13320388D02*
X15819515Y-13282293D01*
X15819515Y-13282293D02*
X15819515Y-13234674D01*
X15819515Y-13234674D02*
X15829039Y-13196579D01*
X15829039Y-13196579D02*
X15838563Y-13177531D01*
X15838563Y-13177531D02*
X15848086Y-13168008D01*
X15848086Y-13168008D02*
X15867134Y-13158484D01*
X16019515Y-13339436D02*
X16029039Y-13348960D01*
X16029039Y-13348960D02*
X16019515Y-13358484D01*
X16019515Y-13358484D02*
X16009991Y-13348960D01*
X16009991Y-13348960D02*
X16019515Y-13339436D01*
X16019515Y-13339436D02*
X16019515Y-13358484D01*
X16152848Y-13158484D02*
X16171896Y-13158484D01*
X16171896Y-13158484D02*
X16190944Y-13168008D01*
X16190944Y-13168008D02*
X16200467Y-13177531D01*
X16200467Y-13177531D02*
X16209991Y-13196579D01*
X16209991Y-13196579D02*
X16219515Y-13234674D01*
X16219515Y-13234674D02*
X16219515Y-13282293D01*
X16219515Y-13282293D02*
X16209991Y-13320388D01*
X16209991Y-13320388D02*
X16200467Y-13339436D01*
X16200467Y-13339436D02*
X16190944Y-13348960D01*
X16190944Y-13348960D02*
X16171896Y-13358484D01*
X16171896Y-13358484D02*
X16152848Y-13358484D01*
X16152848Y-13358484D02*
X16133801Y-13348960D01*
X16133801Y-13348960D02*
X16124277Y-13339436D01*
X16124277Y-13339436D02*
X16114753Y-13320388D01*
X16114753Y-13320388D02*
X16105229Y-13282293D01*
X16105229Y-13282293D02*
X16105229Y-13234674D01*
X16105229Y-13234674D02*
X16114753Y-13196579D01*
X16114753Y-13196579D02*
X16124277Y-13177531D01*
X16124277Y-13177531D02*
X16133801Y-13168008D01*
X16133801Y-13168008D02*
X16152848Y-13158484D01*
X16295706Y-13177531D02*
X16305229Y-13168008D01*
X16305229Y-13168008D02*
X16324277Y-13158484D01*
X16324277Y-13158484D02*
X16371896Y-13158484D01*
X16371896Y-13158484D02*
X16390944Y-13168008D01*
X16390944Y-13168008D02*
X16400467Y-13177531D01*
X16400467Y-13177531D02*
X16409991Y-13196579D01*
X16409991Y-13196579D02*
X16409991Y-13215627D01*
X16409991Y-13215627D02*
X16400467Y-13244198D01*
X16400467Y-13244198D02*
X16286182Y-13358484D01*
X16286182Y-13358484D02*
X16409991Y-13358484D01*
X16590944Y-13158484D02*
X16495706Y-13158484D01*
X16495706Y-13158484D02*
X16486182Y-13253722D01*
X16486182Y-13253722D02*
X16495706Y-13244198D01*
X16495706Y-13244198D02*
X16514753Y-13234674D01*
X16514753Y-13234674D02*
X16562372Y-13234674D01*
X16562372Y-13234674D02*
X16581420Y-13244198D01*
X16581420Y-13244198D02*
X16590944Y-13253722D01*
X16590944Y-13253722D02*
X16600467Y-13272769D01*
X16600467Y-13272769D02*
X16600467Y-13320388D01*
X16600467Y-13320388D02*
X16590944Y-13339436D01*
X16590944Y-13339436D02*
X16581420Y-13348960D01*
X16581420Y-13348960D02*
X16562372Y-13358484D01*
X16562372Y-13358484D02*
X16514753Y-13358484D01*
X16514753Y-13358484D02*
X16495706Y-13348960D01*
X16495706Y-13348960D02*
X16486182Y-13339436D01*
X16771896Y-13158484D02*
X16733801Y-13158484D01*
X16733801Y-13158484D02*
X16714753Y-13168008D01*
X16714753Y-13168008D02*
X16705229Y-13177531D01*
X16705229Y-13177531D02*
X16686182Y-13206103D01*
X16686182Y-13206103D02*
X16676658Y-13244198D01*
X16676658Y-13244198D02*
X16676658Y-13320388D01*
X16676658Y-13320388D02*
X16686182Y-13339436D01*
X16686182Y-13339436D02*
X16695706Y-13348960D01*
X16695706Y-13348960D02*
X16714753Y-13358484D01*
X16714753Y-13358484D02*
X16752848Y-13358484D01*
X16752848Y-13358484D02*
X16771896Y-13348960D01*
X16771896Y-13348960D02*
X16781420Y-13339436D01*
X16781420Y-13339436D02*
X16790944Y-13320388D01*
X16790944Y-13320388D02*
X16790944Y-13272769D01*
X16790944Y-13272769D02*
X16781420Y-13253722D01*
X16781420Y-13253722D02*
X16771896Y-13244198D01*
X16771896Y-13244198D02*
X16752848Y-13234674D01*
X16752848Y-13234674D02*
X16714753Y-13234674D01*
X16714753Y-13234674D02*
X16695706Y-13244198D01*
X16695706Y-13244198D02*
X16686182Y-13253722D01*
X16686182Y-13253722D02*
X16676658Y-13272769D01*
X16867134Y-13158484D02*
X16867134Y-13196579D01*
X16943325Y-13158484D02*
X16943325Y-13196579D01*
X17238563Y-13434674D02*
X17229039Y-13425150D01*
X17229039Y-13425150D02*
X17209991Y-13396579D01*
X17209991Y-13396579D02*
X17200468Y-13377531D01*
X17200468Y-13377531D02*
X17190944Y-13348960D01*
X17190944Y-13348960D02*
X17181420Y-13301341D01*
X17181420Y-13301341D02*
X17181420Y-13263246D01*
X17181420Y-13263246D02*
X17190944Y-13215627D01*
X17190944Y-13215627D02*
X17200468Y-13187055D01*
X17200468Y-13187055D02*
X17209991Y-13168008D01*
X17209991Y-13168008D02*
X17229039Y-13139436D01*
X17229039Y-13139436D02*
X17238563Y-13129912D01*
X17400468Y-13158484D02*
X17362372Y-13158484D01*
X17362372Y-13158484D02*
X17343325Y-13168008D01*
X17343325Y-13168008D02*
X17333801Y-13177531D01*
X17333801Y-13177531D02*
X17314753Y-13206103D01*
X17314753Y-13206103D02*
X17305230Y-13244198D01*
X17305230Y-13244198D02*
X17305230Y-13320388D01*
X17305230Y-13320388D02*
X17314753Y-13339436D01*
X17314753Y-13339436D02*
X17324277Y-13348960D01*
X17324277Y-13348960D02*
X17343325Y-13358484D01*
X17343325Y-13358484D02*
X17381420Y-13358484D01*
X17381420Y-13358484D02*
X17400468Y-13348960D01*
X17400468Y-13348960D02*
X17409991Y-13339436D01*
X17409991Y-13339436D02*
X17419515Y-13320388D01*
X17419515Y-13320388D02*
X17419515Y-13272769D01*
X17419515Y-13272769D02*
X17409991Y-13253722D01*
X17409991Y-13253722D02*
X17400468Y-13244198D01*
X17400468Y-13244198D02*
X17381420Y-13234674D01*
X17381420Y-13234674D02*
X17343325Y-13234674D01*
X17343325Y-13234674D02*
X17324277Y-13244198D01*
X17324277Y-13244198D02*
X17314753Y-13253722D01*
X17314753Y-13253722D02*
X17305230Y-13272769D01*
X17657611Y-13358484D02*
X17657611Y-13158484D01*
X17743325Y-13358484D02*
X17743325Y-13253722D01*
X17743325Y-13253722D02*
X17733801Y-13234674D01*
X17733801Y-13234674D02*
X17714753Y-13225150D01*
X17714753Y-13225150D02*
X17686182Y-13225150D01*
X17686182Y-13225150D02*
X17667134Y-13234674D01*
X17667134Y-13234674D02*
X17657611Y-13244198D01*
X17867134Y-13358484D02*
X17848087Y-13348960D01*
X17848087Y-13348960D02*
X17838563Y-13339436D01*
X17838563Y-13339436D02*
X17829039Y-13320388D01*
X17829039Y-13320388D02*
X17829039Y-13263246D01*
X17829039Y-13263246D02*
X17838563Y-13244198D01*
X17838563Y-13244198D02*
X17848087Y-13234674D01*
X17848087Y-13234674D02*
X17867134Y-13225150D01*
X17867134Y-13225150D02*
X17895706Y-13225150D01*
X17895706Y-13225150D02*
X17914753Y-13234674D01*
X17914753Y-13234674D02*
X17924277Y-13244198D01*
X17924277Y-13244198D02*
X17933801Y-13263246D01*
X17933801Y-13263246D02*
X17933801Y-13320388D01*
X17933801Y-13320388D02*
X17924277Y-13339436D01*
X17924277Y-13339436D02*
X17914753Y-13348960D01*
X17914753Y-13348960D02*
X17895706Y-13358484D01*
X17895706Y-13358484D02*
X17867134Y-13358484D01*
X18048087Y-13358484D02*
X18029039Y-13348960D01*
X18029039Y-13348960D02*
X18019515Y-13329912D01*
X18019515Y-13329912D02*
X18019515Y-13158484D01*
X18200468Y-13348960D02*
X18181420Y-13358484D01*
X18181420Y-13358484D02*
X18143325Y-13358484D01*
X18143325Y-13358484D02*
X18124277Y-13348960D01*
X18124277Y-13348960D02*
X18114753Y-13329912D01*
X18114753Y-13329912D02*
X18114753Y-13253722D01*
X18114753Y-13253722D02*
X18124277Y-13234674D01*
X18124277Y-13234674D02*
X18143325Y-13225150D01*
X18143325Y-13225150D02*
X18181420Y-13225150D01*
X18181420Y-13225150D02*
X18200468Y-13234674D01*
X18200468Y-13234674D02*
X18209992Y-13253722D01*
X18209992Y-13253722D02*
X18209992Y-13272769D01*
X18209992Y-13272769D02*
X18114753Y-13291817D01*
X18286182Y-13348960D02*
X18305230Y-13358484D01*
X18305230Y-13358484D02*
X18343325Y-13358484D01*
X18343325Y-13358484D02*
X18362373Y-13348960D01*
X18362373Y-13348960D02*
X18371896Y-13329912D01*
X18371896Y-13329912D02*
X18371896Y-13320388D01*
X18371896Y-13320388D02*
X18362373Y-13301341D01*
X18362373Y-13301341D02*
X18343325Y-13291817D01*
X18343325Y-13291817D02*
X18314753Y-13291817D01*
X18314753Y-13291817D02*
X18295706Y-13282293D01*
X18295706Y-13282293D02*
X18286182Y-13263246D01*
X18286182Y-13263246D02*
X18286182Y-13253722D01*
X18286182Y-13253722D02*
X18295706Y-13234674D01*
X18295706Y-13234674D02*
X18314753Y-13225150D01*
X18314753Y-13225150D02*
X18343325Y-13225150D01*
X18343325Y-13225150D02*
X18362373Y-13234674D01*
X18438563Y-13434674D02*
X18448087Y-13425150D01*
X18448087Y-13425150D02*
X18467134Y-13396579D01*
X18467134Y-13396579D02*
X18476658Y-13377531D01*
X18476658Y-13377531D02*
X18486182Y-13348960D01*
X18486182Y-13348960D02*
X18495706Y-13301341D01*
X18495706Y-13301341D02*
X18495706Y-13263246D01*
X18495706Y-13263246D02*
X18486182Y-13215627D01*
X18486182Y-13215627D02*
X18476658Y-13187055D01*
X18476658Y-13187055D02*
X18467134Y-13168008D01*
X18467134Y-13168008D02*
X18448087Y-13139436D01*
X18448087Y-13139436D02*
X18438563Y-13129912D01*
X18800468Y-13434674D02*
X18790944Y-13425150D01*
X18790944Y-13425150D02*
X18771896Y-13396579D01*
X18771896Y-13396579D02*
X18762373Y-13377531D01*
X18762373Y-13377531D02*
X18752849Y-13348960D01*
X18752849Y-13348960D02*
X18743325Y-13301341D01*
X18743325Y-13301341D02*
X18743325Y-13263246D01*
X18743325Y-13263246D02*
X18752849Y-13215627D01*
X18752849Y-13215627D02*
X18762373Y-13187055D01*
X18762373Y-13187055D02*
X18771896Y-13168008D01*
X18771896Y-13168008D02*
X18790944Y-13139436D01*
X18790944Y-13139436D02*
X18800468Y-13129912D01*
X18876658Y-13225150D02*
X18876658Y-13358484D01*
X18876658Y-13244198D02*
X18886182Y-13234674D01*
X18886182Y-13234674D02*
X18905230Y-13225150D01*
X18905230Y-13225150D02*
X18933801Y-13225150D01*
X18933801Y-13225150D02*
X18952849Y-13234674D01*
X18952849Y-13234674D02*
X18962373Y-13253722D01*
X18962373Y-13253722D02*
X18962373Y-13358484D01*
X19086182Y-13358484D02*
X19067134Y-13348960D01*
X19067134Y-13348960D02*
X19057611Y-13339436D01*
X19057611Y-13339436D02*
X19048087Y-13320388D01*
X19048087Y-13320388D02*
X19048087Y-13263246D01*
X19048087Y-13263246D02*
X19057611Y-13244198D01*
X19057611Y-13244198D02*
X19067134Y-13234674D01*
X19067134Y-13234674D02*
X19086182Y-13225150D01*
X19086182Y-13225150D02*
X19114754Y-13225150D01*
X19114754Y-13225150D02*
X19133801Y-13234674D01*
X19133801Y-13234674D02*
X19143325Y-13244198D01*
X19143325Y-13244198D02*
X19152849Y-13263246D01*
X19152849Y-13263246D02*
X19152849Y-13320388D01*
X19152849Y-13320388D02*
X19143325Y-13339436D01*
X19143325Y-13339436D02*
X19133801Y-13348960D01*
X19133801Y-13348960D02*
X19114754Y-13358484D01*
X19114754Y-13358484D02*
X19086182Y-13358484D01*
X19209992Y-13225150D02*
X19286182Y-13225150D01*
X19238563Y-13158484D02*
X19238563Y-13329912D01*
X19238563Y-13329912D02*
X19248087Y-13348960D01*
X19248087Y-13348960D02*
X19267134Y-13358484D01*
X19267134Y-13358484D02*
X19286182Y-13358484D01*
X19505230Y-13225150D02*
X19505230Y-13425150D01*
X19505230Y-13234674D02*
X19524277Y-13225150D01*
X19524277Y-13225150D02*
X19562373Y-13225150D01*
X19562373Y-13225150D02*
X19581420Y-13234674D01*
X19581420Y-13234674D02*
X19590944Y-13244198D01*
X19590944Y-13244198D02*
X19600468Y-13263246D01*
X19600468Y-13263246D02*
X19600468Y-13320388D01*
X19600468Y-13320388D02*
X19590944Y-13339436D01*
X19590944Y-13339436D02*
X19581420Y-13348960D01*
X19581420Y-13348960D02*
X19562373Y-13358484D01*
X19562373Y-13358484D02*
X19524277Y-13358484D01*
X19524277Y-13358484D02*
X19505230Y-13348960D01*
X19714754Y-13358484D02*
X19695706Y-13348960D01*
X19695706Y-13348960D02*
X19686182Y-13329912D01*
X19686182Y-13329912D02*
X19686182Y-13158484D01*
X19876658Y-13358484D02*
X19876658Y-13253722D01*
X19876658Y-13253722D02*
X19867135Y-13234674D01*
X19867135Y-13234674D02*
X19848087Y-13225150D01*
X19848087Y-13225150D02*
X19809992Y-13225150D01*
X19809992Y-13225150D02*
X19790944Y-13234674D01*
X19876658Y-13348960D02*
X19857611Y-13358484D01*
X19857611Y-13358484D02*
X19809992Y-13358484D01*
X19809992Y-13358484D02*
X19790944Y-13348960D01*
X19790944Y-13348960D02*
X19781420Y-13329912D01*
X19781420Y-13329912D02*
X19781420Y-13310865D01*
X19781420Y-13310865D02*
X19790944Y-13291817D01*
X19790944Y-13291817D02*
X19809992Y-13282293D01*
X19809992Y-13282293D02*
X19857611Y-13282293D01*
X19857611Y-13282293D02*
X19876658Y-13272769D01*
X19943325Y-13225150D02*
X20019515Y-13225150D01*
X19971896Y-13158484D02*
X19971896Y-13329912D01*
X19971896Y-13329912D02*
X19981420Y-13348960D01*
X19981420Y-13348960D02*
X20000468Y-13358484D01*
X20000468Y-13358484D02*
X20019515Y-13358484D01*
X20162373Y-13348960D02*
X20143325Y-13358484D01*
X20143325Y-13358484D02*
X20105230Y-13358484D01*
X20105230Y-13358484D02*
X20086182Y-13348960D01*
X20086182Y-13348960D02*
X20076658Y-13329912D01*
X20076658Y-13329912D02*
X20076658Y-13253722D01*
X20076658Y-13253722D02*
X20086182Y-13234674D01*
X20086182Y-13234674D02*
X20105230Y-13225150D01*
X20105230Y-13225150D02*
X20143325Y-13225150D01*
X20143325Y-13225150D02*
X20162373Y-13234674D01*
X20162373Y-13234674D02*
X20171896Y-13253722D01*
X20171896Y-13253722D02*
X20171896Y-13272769D01*
X20171896Y-13272769D02*
X20076658Y-13291817D01*
X20343325Y-13358484D02*
X20343325Y-13158484D01*
X20343325Y-13348960D02*
X20324277Y-13358484D01*
X20324277Y-13358484D02*
X20286182Y-13358484D01*
X20286182Y-13358484D02*
X20267135Y-13348960D01*
X20267135Y-13348960D02*
X20257611Y-13339436D01*
X20257611Y-13339436D02*
X20248087Y-13320388D01*
X20248087Y-13320388D02*
X20248087Y-13263246D01*
X20248087Y-13263246D02*
X20257611Y-13244198D01*
X20257611Y-13244198D02*
X20267135Y-13234674D01*
X20267135Y-13234674D02*
X20286182Y-13225150D01*
X20286182Y-13225150D02*
X20324277Y-13225150D01*
X20324277Y-13225150D02*
X20343325Y-13234674D01*
X20419516Y-13434674D02*
X20429039Y-13425150D01*
X20429039Y-13425150D02*
X20448087Y-13396579D01*
X20448087Y-13396579D02*
X20457611Y-13377531D01*
X20457611Y-13377531D02*
X20467135Y-13348960D01*
X20467135Y-13348960D02*
X20476658Y-13301341D01*
X20476658Y-13301341D02*
X20476658Y-13263246D01*
X20476658Y-13263246D02*
X20467135Y-13215627D01*
X20467135Y-13215627D02*
X20457611Y-13187055D01*
X20457611Y-13187055D02*
X20448087Y-13168008D01*
X20448087Y-13168008D02*
X20429039Y-13139436D01*
X20429039Y-13139436D02*
X20419516Y-13129912D01*
M02*
