%TF.GenerationSoftware,KiCad,Pcbnew,8.0.5*%
%TF.CreationDate,2025-01-30T01:50:55+01:00*%
%TF.ProjectId,LAMP_OUTDOOR_BATTERY_PANEL,4c414d50-5f4f-4555-9444-4f4f525f4241,rev?*%
%TF.SameCoordinates,Original*%
%TF.FileFunction,Legend,Top*%
%TF.FilePolarity,Positive*%
%FSLAX46Y46*%
G04 Gerber Fmt 4.6, Leading zero omitted, Abs format (unit mm)*
G04 Created by KiCad (PCBNEW 8.0.5) date 2025-01-30 01:50:55*
%MOMM*%
%LPD*%
G01*
G04 APERTURE LIST*
%ADD10C,0.100000*%
%ADD11C,0.150000*%
%ADD12C,0.120000*%
%ADD13C,0.200000*%
%ADD14C,0.127000*%
G04 APERTURE END LIST*
D10*
X159320000Y-106780000D02*
X158880000Y-106350000D01*
X159750000Y-106350000D02*
X159320000Y-106780000D01*
X159310000Y-101900000D02*
X159315000Y-106350000D01*
X159320000Y-106780000D02*
X159750000Y-106350000D01*
X158880000Y-106350000D02*
X159750000Y-106350000D01*
G36*
X153496289Y-73368635D02*
G01*
X153567743Y-73391607D01*
X153608374Y-73453454D01*
X153618690Y-73532972D01*
X153618690Y-73672923D01*
X153608374Y-73752441D01*
X153562521Y-73817983D01*
X153488265Y-73837421D01*
X153480263Y-73837260D01*
X153409010Y-73814289D01*
X153368493Y-73752441D01*
X153358205Y-73672923D01*
X153358205Y-73532972D01*
X153368493Y-73453454D01*
X153414217Y-73387912D01*
X153488265Y-73368475D01*
X153496289Y-73368635D01*
G37*
G36*
X153557723Y-72753320D02*
G01*
X153600614Y-72813753D01*
X153610264Y-72887072D01*
X153610264Y-73005774D01*
X153602639Y-73072132D01*
X153562608Y-73136120D01*
X153488265Y-73157449D01*
X153419015Y-73139526D01*
X153376253Y-73079093D01*
X153366632Y-73005774D01*
X153366632Y-72887072D01*
X153374234Y-72820714D01*
X153414145Y-72756727D01*
X153488265Y-72735397D01*
X153557723Y-72753320D01*
G37*
G36*
X154392301Y-73286451D02*
G01*
X154442337Y-73344990D01*
X154454001Y-73423429D01*
X154454001Y-73690875D01*
X154448286Y-73747977D01*
X154407347Y-73816813D01*
X154334566Y-73837421D01*
X154276655Y-73825829D01*
X154226464Y-73768155D01*
X154214765Y-73690875D01*
X154214765Y-73423429D01*
X154222253Y-73358354D01*
X154261562Y-73295603D01*
X154334566Y-73274685D01*
X154392301Y-73286451D01*
G37*
G36*
X156065297Y-72746960D02*
G01*
X156115487Y-72804490D01*
X156127187Y-72881577D01*
X156127187Y-73691242D01*
X156121454Y-73748200D01*
X156080389Y-73816865D01*
X156007385Y-73837421D01*
X155949651Y-73825858D01*
X155899614Y-73768328D01*
X155887951Y-73691242D01*
X155887951Y-72881577D01*
X155893666Y-72824618D01*
X155934605Y-72755954D01*
X156007385Y-72735397D01*
X156065297Y-72746960D01*
G37*
G36*
X146817556Y-73372231D02*
G01*
X146886381Y-73406943D01*
X146914523Y-73469282D01*
X146921185Y-73544696D01*
X146921185Y-73671092D01*
X146918867Y-73711718D01*
X146891876Y-73782100D01*
X146875252Y-73796045D01*
X146801750Y-73813974D01*
X146669493Y-73813974D01*
X146669493Y-73368475D01*
X146772075Y-73368475D01*
X146817556Y-73372231D01*
G37*
G36*
X146802286Y-72760133D02*
G01*
X146869894Y-72795481D01*
X146890143Y-72839729D01*
X146898104Y-72913817D01*
X146898104Y-72998080D01*
X146893992Y-73051427D01*
X146863300Y-73120812D01*
X146832577Y-73143138D01*
X146759619Y-73157449D01*
X146669493Y-73157449D01*
X146669493Y-72758845D01*
X146780501Y-72758845D01*
X146802286Y-72760133D01*
G37*
G36*
X147717295Y-73532606D02*
G01*
X147509566Y-73532606D01*
X147610316Y-72812700D01*
X147614346Y-72812700D01*
X147717295Y-73532606D01*
G37*
G36*
X150698445Y-72760107D02*
G01*
X150765812Y-72794748D01*
X150785347Y-72834649D01*
X150794388Y-72910886D01*
X150794388Y-73024825D01*
X150790276Y-73077042D01*
X150759584Y-73144993D01*
X150728861Y-73166871D01*
X150655903Y-73180896D01*
X150572005Y-73180896D01*
X150572005Y-72758845D01*
X150676785Y-72758845D01*
X150698445Y-72760107D01*
G37*
G36*
X156525029Y-74215114D02*
G01*
X146271650Y-74215114D01*
X146271650Y-73157449D01*
X146438317Y-73157449D01*
X146438317Y-73813974D01*
X146438317Y-74025000D01*
X146801750Y-74025000D01*
X147226000Y-74025000D01*
X147439957Y-74025000D01*
X147482089Y-73743632D01*
X147744772Y-73743632D01*
X147786538Y-74025000D01*
X148017713Y-74025000D01*
X147812340Y-72758845D01*
X147970452Y-72758845D01*
X148211887Y-72758845D01*
X148211887Y-74025000D01*
X148442696Y-74025000D01*
X148442696Y-72758845D01*
X148684496Y-72758845D01*
X148754472Y-72758845D01*
X148995906Y-72758845D01*
X148995906Y-74025000D01*
X149226716Y-74025000D01*
X149578792Y-74025000D01*
X150208938Y-74025000D01*
X150208938Y-73813974D01*
X149809967Y-73813974D01*
X149809967Y-73368475D01*
X150126873Y-73368475D01*
X150126873Y-73180896D01*
X150340829Y-73180896D01*
X150340829Y-74025000D01*
X150572005Y-74025000D01*
X150572005Y-73391922D01*
X150651506Y-73391922D01*
X150696808Y-73395858D01*
X150763980Y-73432222D01*
X150790345Y-73496506D01*
X150796586Y-73573272D01*
X150796586Y-73843649D01*
X150796838Y-73881545D01*
X150800616Y-73957588D01*
X150817469Y-74025000D01*
X151052675Y-74025000D01*
X151050617Y-74020278D01*
X151031426Y-73948429D01*
X151029301Y-73921603D01*
X151027396Y-73846214D01*
X151027396Y-73587194D01*
X151025221Y-73525256D01*
X151015126Y-73450783D01*
X150992591Y-73378733D01*
X150988093Y-73369185D01*
X150942042Y-73310709D01*
X150874256Y-73275418D01*
X150874256Y-73271388D01*
X150901296Y-73258426D01*
X150960401Y-73209281D01*
X151000592Y-73138934D01*
X151020245Y-73059986D01*
X151025564Y-72979396D01*
X151025564Y-72888538D01*
X151023561Y-72836470D01*
X151012020Y-72762316D01*
X150986775Y-72692358D01*
X150943499Y-72631350D01*
X150903109Y-72598802D01*
X150829293Y-72566173D01*
X150756587Y-72551816D01*
X150683014Y-72547819D01*
X151085648Y-72547819D01*
X151364817Y-73405111D01*
X151364817Y-74025000D01*
X151595627Y-74025000D01*
X151595627Y-73405111D01*
X151814000Y-72735397D01*
X152396866Y-72735397D01*
X152396866Y-72899528D01*
X152638300Y-72899528D01*
X152638300Y-74025000D01*
X152869109Y-74025000D01*
X152869109Y-73557519D01*
X153127030Y-73557519D01*
X153127030Y-73686845D01*
X153130314Y-73749755D01*
X153144911Y-73824620D01*
X153175292Y-73896525D01*
X153220452Y-73955390D01*
X153265325Y-73991650D01*
X153334300Y-74025183D01*
X153406268Y-74042631D01*
X153488265Y-74048447D01*
X153550814Y-74045175D01*
X153625358Y-74030635D01*
X153697122Y-74000374D01*
X153756077Y-73955390D01*
X153792479Y-73910734D01*
X153826144Y-73841726D01*
X153843661Y-73769438D01*
X153849500Y-73686845D01*
X153849500Y-73557152D01*
X153848623Y-73523999D01*
X153838140Y-73445753D01*
X153813596Y-73374337D01*
X153806547Y-73360675D01*
X153759706Y-73300869D01*
X153698558Y-73257833D01*
X153698558Y-73253803D01*
X153724027Y-73237318D01*
X153779697Y-73181963D01*
X153817553Y-73110030D01*
X153836063Y-73033489D01*
X153841074Y-72957780D01*
X153841074Y-72909787D01*
X153983589Y-72909787D01*
X153983589Y-73423429D01*
X153983589Y-73675854D01*
X153986758Y-73739666D01*
X154000840Y-73815973D01*
X154030148Y-73889830D01*
X154073715Y-73950994D01*
X154110457Y-73984113D01*
X154176100Y-74020943D01*
X154254378Y-74042356D01*
X154334566Y-74048447D01*
X154395506Y-74044995D01*
X154468023Y-74029653D01*
X154537672Y-73997724D01*
X154594685Y-73950261D01*
X154634275Y-73896085D01*
X154665293Y-73822985D01*
X154680847Y-73747205D01*
X154685177Y-73672557D01*
X154685177Y-73405478D01*
X154684466Y-73377267D01*
X154827693Y-73377267D01*
X155046046Y-73377267D01*
X155053533Y-73311871D01*
X155092843Y-73248811D01*
X155165847Y-73227791D01*
X155223581Y-73239122D01*
X155273618Y-73295498D01*
X155285282Y-73371039D01*
X155285282Y-73696371D01*
X155279566Y-73751331D01*
X155238627Y-73817586D01*
X155165847Y-73837421D01*
X155107935Y-73826264D01*
X155057745Y-73770753D01*
X155046046Y-73696371D01*
X155046046Y-73565579D01*
X154827693Y-73565579D01*
X154827693Y-73680617D01*
X154830784Y-73744352D01*
X154844522Y-73820315D01*
X154873116Y-73893457D01*
X154915620Y-73953558D01*
X154951538Y-73985806D01*
X155015944Y-74021667D01*
X155092986Y-74042516D01*
X155172075Y-74048447D01*
X155222570Y-74046130D01*
X155295287Y-74032787D01*
X155365216Y-74003597D01*
X155428164Y-73953558D01*
X155466792Y-73900802D01*
X155497057Y-73829189D01*
X155512232Y-73754634D01*
X155516457Y-73680983D01*
X155516457Y-73350889D01*
X155515884Y-73321003D01*
X155508752Y-73247982D01*
X155488373Y-73170359D01*
X155451245Y-73102494D01*
X155404741Y-73057285D01*
X155333162Y-73025137D01*
X155260369Y-73016765D01*
X155252033Y-73016871D01*
X155176112Y-73029622D01*
X155108220Y-73068195D01*
X155060700Y-73125575D01*
X155056670Y-73125575D01*
X155068318Y-72896964D01*
X155656775Y-72896964D01*
X155656775Y-73675854D01*
X155659943Y-73739666D01*
X155674025Y-73815973D01*
X155703334Y-73889830D01*
X155746900Y-73950994D01*
X155783630Y-73984113D01*
X155849205Y-74020943D01*
X155927358Y-74042356D01*
X156007385Y-74048447D01*
X156068450Y-74045021D01*
X156141093Y-74029794D01*
X156210828Y-73998102D01*
X156267870Y-73950994D01*
X156307461Y-73897253D01*
X156338479Y-73824806D01*
X156354032Y-73749753D01*
X156358362Y-73675854D01*
X156358362Y-72896964D01*
X156355181Y-72833152D01*
X156341042Y-72756845D01*
X156311614Y-72682988D01*
X156267870Y-72621824D01*
X156231253Y-72588706D01*
X156165748Y-72551875D01*
X156087551Y-72530462D01*
X156007385Y-72524371D01*
X155946433Y-72527798D01*
X155873859Y-72543025D01*
X155804091Y-72574716D01*
X155746900Y-72621824D01*
X155707471Y-72675565D01*
X155676578Y-72748012D01*
X155661088Y-72823065D01*
X155657673Y-72881577D01*
X155656775Y-72896964D01*
X155068318Y-72896964D01*
X155075355Y-72758845D01*
X155478722Y-72758845D01*
X155478722Y-72547819D01*
X154869458Y-72547819D01*
X154827693Y-73377267D01*
X154684466Y-73377267D01*
X154684158Y-73365040D01*
X154676006Y-73291584D01*
X154657092Y-73220770D01*
X154619964Y-73151221D01*
X154578500Y-73108894D01*
X154508338Y-73074006D01*
X154429088Y-73063660D01*
X154393185Y-73065692D01*
X154322448Y-73085125D01*
X154260166Y-73130848D01*
X154218795Y-73193719D01*
X154214765Y-73193719D01*
X154214765Y-72914549D01*
X154219196Y-72848037D01*
X154246272Y-72774965D01*
X154269256Y-72754099D01*
X154342993Y-72735397D01*
X154400727Y-72746670D01*
X154450764Y-72802758D01*
X154462427Y-72877913D01*
X154462427Y-72919312D01*
X154680780Y-72919312D01*
X154680780Y-72892201D01*
X154677676Y-72828480D01*
X154663880Y-72752573D01*
X154635168Y-72679550D01*
X154592487Y-72619626D01*
X154556693Y-72587254D01*
X154492425Y-72551255D01*
X154415464Y-72530325D01*
X154336398Y-72524371D01*
X154253708Y-72530394D01*
X154165851Y-72554858D01*
X154095220Y-72598142D01*
X154041816Y-72660245D01*
X154005640Y-72741168D01*
X153989102Y-72819455D01*
X153983589Y-72909787D01*
X153841074Y-72909787D01*
X153841074Y-72895498D01*
X153837866Y-72830892D01*
X153823613Y-72754047D01*
X153793947Y-72680297D01*
X153749849Y-72619993D01*
X153712858Y-72587496D01*
X153646938Y-72551358D01*
X153568499Y-72530348D01*
X153488265Y-72524371D01*
X153427274Y-72527733D01*
X153354527Y-72542674D01*
X153284402Y-72573769D01*
X153226681Y-72619993D01*
X153186770Y-72673092D01*
X153155500Y-72745475D01*
X153139821Y-72821055D01*
X153135969Y-72887072D01*
X153135456Y-72895865D01*
X153135456Y-72958147D01*
X153136306Y-72991994D01*
X153146468Y-73071040D01*
X153170261Y-73141695D01*
X153172473Y-73146153D01*
X153218097Y-73209202D01*
X153278338Y-73254169D01*
X153278338Y-73258565D01*
X153263749Y-73266683D01*
X153205887Y-73312144D01*
X153162567Y-73374703D01*
X153148720Y-73408746D01*
X153132027Y-73480805D01*
X153128629Y-73532972D01*
X153127030Y-73557519D01*
X152869109Y-73557519D01*
X152869109Y-72547819D01*
X152713771Y-72547819D01*
X152692201Y-72598927D01*
X152650756Y-72662124D01*
X152623424Y-72686478D01*
X152555135Y-72718545D01*
X152543597Y-72721556D01*
X152470530Y-72732616D01*
X152396866Y-72735397D01*
X151814000Y-72735397D01*
X151875163Y-72547819D01*
X151650215Y-72547819D01*
X151493045Y-73103593D01*
X151488649Y-73103593D01*
X151331112Y-72547819D01*
X151085648Y-72547819D01*
X150683014Y-72547819D01*
X150340829Y-72547819D01*
X150340829Y-73180896D01*
X150126873Y-73180896D01*
X150126873Y-73157449D01*
X149809967Y-73157449D01*
X149809967Y-72758845D01*
X150208938Y-72758845D01*
X150208938Y-72547819D01*
X149578792Y-72547819D01*
X149578792Y-74025000D01*
X149226716Y-74025000D01*
X149226716Y-72758845D01*
X149468516Y-72758845D01*
X149468516Y-72547819D01*
X148754472Y-72547819D01*
X148754472Y-72758845D01*
X148684496Y-72758845D01*
X148684496Y-72547819D01*
X147970452Y-72547819D01*
X147970452Y-72758845D01*
X147812340Y-72758845D01*
X147778111Y-72547819D01*
X147465236Y-72547819D01*
X147305745Y-73532606D01*
X147226000Y-74025000D01*
X146801750Y-74025000D01*
X146853530Y-74022835D01*
X146927930Y-74010367D01*
X146999205Y-73983094D01*
X147062968Y-73936339D01*
X147088721Y-73906674D01*
X147127132Y-73835591D01*
X147146774Y-73758218D01*
X147152361Y-73678785D01*
X147152361Y-73553855D01*
X147149671Y-73495323D01*
X147135546Y-73418493D01*
X147103764Y-73345496D01*
X147047264Y-73284010D01*
X146980170Y-73249406D01*
X146980170Y-73245376D01*
X147045932Y-73203061D01*
X147092277Y-73140596D01*
X147108466Y-73101487D01*
X147124908Y-73026604D01*
X147129280Y-72952285D01*
X147129280Y-72892201D01*
X147127277Y-72839588D01*
X147115736Y-72764672D01*
X147090491Y-72694022D01*
X147047215Y-72632449D01*
X147006843Y-72599473D01*
X146933112Y-72566414D01*
X146860526Y-72551868D01*
X146787096Y-72547819D01*
X146438317Y-72547819D01*
X146438317Y-73157449D01*
X146271650Y-73157449D01*
X146271650Y-72357704D01*
X156525029Y-72357704D01*
X156525029Y-74215114D01*
G37*
G36*
X156438561Y-69074821D02*
G01*
X156484445Y-69097962D01*
X156503206Y-69139521D01*
X156507648Y-69189797D01*
X156507648Y-69274061D01*
X156506102Y-69301145D01*
X156488108Y-69348066D01*
X156477026Y-69357363D01*
X156428024Y-69369316D01*
X156339853Y-69369316D01*
X156339853Y-69072316D01*
X156408241Y-69072316D01*
X156438561Y-69074821D01*
G37*
G36*
X156428381Y-68666755D02*
G01*
X156473454Y-68690321D01*
X156486953Y-68719819D01*
X156492260Y-68769211D01*
X156492260Y-68825387D01*
X156489519Y-68860951D01*
X156469057Y-68907208D01*
X156448575Y-68922092D01*
X156399937Y-68931632D01*
X156339853Y-68931632D01*
X156339853Y-68665896D01*
X156413858Y-68665896D01*
X156428381Y-68666755D01*
G37*
G36*
X157038387Y-69181737D02*
G01*
X156899902Y-69181737D01*
X156967068Y-68701800D01*
X156969755Y-68701800D01*
X157038387Y-69181737D01*
G37*
G36*
X158855290Y-69621111D02*
G01*
X156074625Y-69621111D01*
X156074625Y-68931632D01*
X156185736Y-68931632D01*
X156185736Y-69369316D01*
X156185736Y-69510000D01*
X156428024Y-69510000D01*
X156710858Y-69510000D01*
X156853496Y-69510000D01*
X156881583Y-69322421D01*
X157056706Y-69322421D01*
X157084549Y-69510000D01*
X157238666Y-69510000D01*
X157101751Y-68665896D01*
X157207159Y-68665896D01*
X157368115Y-68665896D01*
X157368115Y-69510000D01*
X157521988Y-69510000D01*
X157521988Y-68665896D01*
X157683188Y-68665896D01*
X157729839Y-68665896D01*
X157890795Y-68665896D01*
X157890795Y-69510000D01*
X158044668Y-69510000D01*
X158044668Y-68962896D01*
X158259846Y-68962896D01*
X158259846Y-69072316D01*
X158447424Y-69072316D01*
X158447424Y-69259895D01*
X158556601Y-69259895D01*
X158556601Y-69072316D01*
X158744179Y-69072316D01*
X158744179Y-68962896D01*
X158556601Y-68962896D01*
X158556601Y-68759685D01*
X158447424Y-68759685D01*
X158447424Y-68962896D01*
X158259846Y-68962896D01*
X158044668Y-68962896D01*
X158044668Y-68665896D01*
X158205868Y-68665896D01*
X158205868Y-68525212D01*
X157729839Y-68525212D01*
X157729839Y-68665896D01*
X157683188Y-68665896D01*
X157683188Y-68525212D01*
X157207159Y-68525212D01*
X157207159Y-68665896D01*
X157101751Y-68665896D01*
X157078932Y-68525212D01*
X156870348Y-68525212D01*
X156764021Y-69181737D01*
X156710858Y-69510000D01*
X156428024Y-69510000D01*
X156462544Y-69508556D01*
X156512144Y-69500245D01*
X156559661Y-69482062D01*
X156602170Y-69450893D01*
X156619338Y-69431116D01*
X156644946Y-69383727D01*
X156658040Y-69332145D01*
X156661765Y-69279190D01*
X156661765Y-69195903D01*
X156659971Y-69156882D01*
X156650555Y-69105662D01*
X156629367Y-69056997D01*
X156591700Y-69016007D01*
X156546971Y-68992937D01*
X156546971Y-68990251D01*
X156590812Y-68962041D01*
X156621709Y-68920397D01*
X156632502Y-68894324D01*
X156643463Y-68844402D01*
X156646378Y-68794856D01*
X156646378Y-68754801D01*
X156645042Y-68719725D01*
X156637348Y-68669781D01*
X156620518Y-68622681D01*
X156591667Y-68581632D01*
X156564753Y-68559648D01*
X156515599Y-68537609D01*
X156467208Y-68527912D01*
X156418255Y-68525212D01*
X156185736Y-68525212D01*
X156185736Y-68931632D01*
X156074625Y-68931632D01*
X156074625Y-68414101D01*
X158855290Y-68414101D01*
X158855290Y-69621111D01*
G37*
G36*
X156580222Y-119984821D02*
G01*
X156626106Y-120007962D01*
X156644867Y-120049521D01*
X156649309Y-120099797D01*
X156649309Y-120184061D01*
X156647763Y-120211145D01*
X156629769Y-120258066D01*
X156618687Y-120267363D01*
X156569685Y-120279316D01*
X156481514Y-120279316D01*
X156481514Y-119982316D01*
X156549902Y-119982316D01*
X156580222Y-119984821D01*
G37*
G36*
X156570042Y-119576755D02*
G01*
X156615115Y-119600321D01*
X156628614Y-119629819D01*
X156633921Y-119679211D01*
X156633921Y-119735387D01*
X156631180Y-119770951D01*
X156610718Y-119817208D01*
X156590236Y-119832092D01*
X156541598Y-119841632D01*
X156481514Y-119841632D01*
X156481514Y-119575896D01*
X156555519Y-119575896D01*
X156570042Y-119576755D01*
G37*
G36*
X157180048Y-120091737D02*
G01*
X157041563Y-120091737D01*
X157108729Y-119611800D01*
X157111416Y-119611800D01*
X157180048Y-120091737D01*
G37*
G36*
X158716072Y-120531111D02*
G01*
X156216286Y-120531111D01*
X156216286Y-119841632D01*
X156327397Y-119841632D01*
X156327397Y-120279316D01*
X156327397Y-120420000D01*
X156569685Y-120420000D01*
X156852519Y-120420000D01*
X156995157Y-120420000D01*
X157023244Y-120232421D01*
X157198367Y-120232421D01*
X157226210Y-120420000D01*
X157380327Y-120420000D01*
X157243412Y-119575896D01*
X157348820Y-119575896D01*
X157509776Y-119575896D01*
X157509776Y-120420000D01*
X157663649Y-120420000D01*
X157663649Y-119575896D01*
X157824849Y-119575896D01*
X157871500Y-119575896D01*
X158032456Y-119575896D01*
X158032456Y-120420000D01*
X158186329Y-120420000D01*
X158186329Y-119997948D01*
X158296971Y-119997948D01*
X158604961Y-119997948D01*
X158604961Y-119857264D01*
X158296971Y-119857264D01*
X158296971Y-119997948D01*
X158186329Y-119997948D01*
X158186329Y-119575896D01*
X158347529Y-119575896D01*
X158347529Y-119435212D01*
X157871500Y-119435212D01*
X157871500Y-119575896D01*
X157824849Y-119575896D01*
X157824849Y-119435212D01*
X157348820Y-119435212D01*
X157348820Y-119575896D01*
X157243412Y-119575896D01*
X157220593Y-119435212D01*
X157012009Y-119435212D01*
X156905682Y-120091737D01*
X156852519Y-120420000D01*
X156569685Y-120420000D01*
X156604205Y-120418556D01*
X156653805Y-120410245D01*
X156701322Y-120392062D01*
X156743831Y-120360893D01*
X156760999Y-120341116D01*
X156786607Y-120293727D01*
X156799701Y-120242145D01*
X156803426Y-120189190D01*
X156803426Y-120105903D01*
X156801632Y-120066882D01*
X156792216Y-120015662D01*
X156771028Y-119966997D01*
X156733361Y-119926007D01*
X156688632Y-119902937D01*
X156688632Y-119900251D01*
X156732473Y-119872041D01*
X156763370Y-119830397D01*
X156774163Y-119804324D01*
X156785124Y-119754402D01*
X156788039Y-119704856D01*
X156788039Y-119664801D01*
X156786703Y-119629725D01*
X156779009Y-119579781D01*
X156762179Y-119532681D01*
X156733328Y-119491632D01*
X156706414Y-119469648D01*
X156657260Y-119447609D01*
X156608869Y-119437912D01*
X156559916Y-119435212D01*
X156327397Y-119435212D01*
X156327397Y-119841632D01*
X156216286Y-119841632D01*
X156216286Y-119324101D01*
X158716072Y-119324101D01*
X158716072Y-120531111D01*
G37*
G36*
X157984302Y-87197973D02*
G01*
X158017762Y-87236326D01*
X158025561Y-87287718D01*
X158025561Y-87827494D01*
X158021739Y-87865467D01*
X157994363Y-87911243D01*
X157945694Y-87924947D01*
X157907204Y-87917238D01*
X157873846Y-87878885D01*
X157866071Y-87827494D01*
X157866071Y-87287718D01*
X157869881Y-87249745D01*
X157897173Y-87203969D01*
X157945694Y-87190265D01*
X157984302Y-87197973D01*
G37*
G36*
X157397887Y-87206738D02*
G01*
X157442798Y-87229832D01*
X157455821Y-87256433D01*
X157461849Y-87307257D01*
X157461849Y-87383217D01*
X157459107Y-87418028D01*
X157438646Y-87463328D01*
X157418164Y-87477914D01*
X157369525Y-87487264D01*
X157313593Y-87487264D01*
X157313593Y-87205896D01*
X157383447Y-87205896D01*
X157397887Y-87206738D01*
G37*
G36*
X158529008Y-87206686D02*
G01*
X158573398Y-87228367D01*
X158586682Y-87251300D01*
X158593914Y-87301639D01*
X158593914Y-87813572D01*
X158592291Y-87839908D01*
X158573398Y-87886845D01*
X158563699Y-87895601D01*
X158515512Y-87909316D01*
X158437110Y-87909316D01*
X158437110Y-87205896D01*
X158515512Y-87205896D01*
X158529008Y-87206686D01*
G37*
G36*
X159381822Y-88176742D02*
G01*
X154506286Y-88176742D01*
X154506286Y-88050000D01*
X154617397Y-88050000D01*
X155037494Y-88050000D01*
X155125422Y-88050000D01*
X155532819Y-88050000D01*
X155607069Y-88050000D01*
X156027166Y-88050000D01*
X156027166Y-87909316D01*
X155761186Y-87909316D01*
X155761186Y-87612316D01*
X155972456Y-87612316D01*
X155972456Y-87471632D01*
X155761186Y-87471632D01*
X155761186Y-87292358D01*
X156105324Y-87292358D01*
X156105324Y-87822854D01*
X156106743Y-87857756D01*
X156114918Y-87908291D01*
X156132799Y-87957334D01*
X156163454Y-88002128D01*
X156182895Y-88020422D01*
X156229435Y-88047709D01*
X156280049Y-88061662D01*
X156331981Y-88065631D01*
X156358821Y-88064643D01*
X156413211Y-88055191D01*
X156459294Y-88035731D01*
X156500753Y-88002372D01*
X156523403Y-87972088D01*
X156544351Y-87925802D01*
X156555250Y-87877717D01*
X156558883Y-87823098D01*
X156558883Y-87683635D01*
X156413314Y-87683635D01*
X156413314Y-87834577D01*
X156410609Y-87865289D01*
X156386191Y-87910033D01*
X156336378Y-87924947D01*
X156306304Y-87920623D01*
X156268317Y-87886028D01*
X156259197Y-87834577D01*
X156259197Y-87282100D01*
X156261910Y-87250890D01*
X156286406Y-87205421D01*
X156336378Y-87190265D01*
X156370037Y-87196020D01*
X156405801Y-87233787D01*
X156413314Y-87282344D01*
X156413314Y-87396894D01*
X156558883Y-87396894D01*
X156558883Y-87292358D01*
X156557464Y-87257456D01*
X156549289Y-87206920D01*
X156548916Y-87205896D01*
X156609930Y-87205896D01*
X156770886Y-87205896D01*
X156770886Y-88050000D01*
X156924759Y-88050000D01*
X156924759Y-87487264D01*
X157159476Y-87487264D01*
X157159476Y-88050000D01*
X157313593Y-88050000D01*
X157313593Y-87627948D01*
X157366594Y-87627948D01*
X157396795Y-87630572D01*
X157441577Y-87654815D01*
X157459154Y-87697671D01*
X157463314Y-87748848D01*
X157463314Y-87929099D01*
X157463482Y-87954363D01*
X157466001Y-88005059D01*
X157477236Y-88050000D01*
X157634040Y-88050000D01*
X157632668Y-88046852D01*
X157619874Y-87998953D01*
X157618457Y-87981069D01*
X157617187Y-87930809D01*
X157617187Y-87758129D01*
X157615737Y-87716837D01*
X157609007Y-87667189D01*
X157593984Y-87619155D01*
X157590985Y-87612790D01*
X157560285Y-87573806D01*
X157515094Y-87550279D01*
X157515094Y-87547592D01*
X157533121Y-87538950D01*
X157572524Y-87506187D01*
X157599318Y-87459289D01*
X157612420Y-87406657D01*
X157615966Y-87352930D01*
X157615966Y-87297976D01*
X157711953Y-87297976D01*
X157711953Y-87817236D01*
X157714066Y-87859777D01*
X157723454Y-87910648D01*
X157742993Y-87959887D01*
X157772037Y-88000662D01*
X157796523Y-88022742D01*
X157840240Y-88047295D01*
X157892342Y-88061571D01*
X157945694Y-88065631D01*
X157986403Y-88063347D01*
X158034832Y-88053196D01*
X158081322Y-88032068D01*
X158119351Y-88000662D01*
X158145744Y-87964835D01*
X158166423Y-87916537D01*
X158167919Y-87909316D01*
X158282993Y-87909316D01*
X158282993Y-88050000D01*
X158518199Y-88050000D01*
X158850614Y-88050000D01*
X159270711Y-88050000D01*
X159270711Y-87909316D01*
X159004731Y-87909316D01*
X159004731Y-87612316D01*
X159216001Y-87612316D01*
X159216001Y-87471632D01*
X159004731Y-87471632D01*
X159004731Y-87205896D01*
X159270711Y-87205896D01*
X159270711Y-87065212D01*
X158850614Y-87065212D01*
X158850614Y-88050000D01*
X158518199Y-88050000D01*
X158552671Y-88048491D01*
X158601997Y-88039801D01*
X158648912Y-88020792D01*
X158690390Y-87988206D01*
X158715502Y-87953600D01*
X158735176Y-87906092D01*
X158745041Y-87856240D01*
X158747787Y-87806734D01*
X158747787Y-87308478D01*
X158746386Y-87272562D01*
X158738315Y-87220951D01*
X158720658Y-87171500D01*
X158690390Y-87127250D01*
X158666849Y-87106167D01*
X158623969Y-87082721D01*
X158572009Y-87069090D01*
X158518199Y-87065212D01*
X158282993Y-87065212D01*
X158282993Y-87909316D01*
X158167919Y-87909316D01*
X158176792Y-87866502D01*
X158179678Y-87817236D01*
X158179678Y-87297976D01*
X158177558Y-87255435D01*
X158168131Y-87204563D01*
X158148513Y-87155325D01*
X158119351Y-87114549D01*
X158094939Y-87092470D01*
X158051269Y-87067917D01*
X157999137Y-87053641D01*
X157945694Y-87049581D01*
X157905059Y-87051865D01*
X157856676Y-87062016D01*
X157810164Y-87083144D01*
X157772037Y-87114549D01*
X157745751Y-87150377D01*
X157725155Y-87198675D01*
X157714829Y-87248710D01*
X157712552Y-87287718D01*
X157711953Y-87297976D01*
X157615966Y-87297976D01*
X157615966Y-87292358D01*
X157614630Y-87257647D01*
X157606937Y-87208210D01*
X157590107Y-87161572D01*
X157561256Y-87120900D01*
X157534330Y-87099201D01*
X157485118Y-87077448D01*
X157436648Y-87067877D01*
X157387599Y-87065212D01*
X157159476Y-87065212D01*
X157159476Y-87487264D01*
X156924759Y-87487264D01*
X156924759Y-87205896D01*
X157085959Y-87205896D01*
X157085959Y-87065212D01*
X156609930Y-87065212D01*
X156609930Y-87205896D01*
X156548916Y-87205896D01*
X156531408Y-87157878D01*
X156500753Y-87113084D01*
X156481306Y-87094790D01*
X156434718Y-87067503D01*
X156384020Y-87053550D01*
X156331981Y-87049581D01*
X156305199Y-87050573D01*
X156250909Y-87060061D01*
X156204889Y-87079596D01*
X156163454Y-87113084D01*
X156140804Y-87143368D01*
X156119856Y-87189654D01*
X156108957Y-87237739D01*
X156105324Y-87292358D01*
X155761186Y-87292358D01*
X155761186Y-87205896D01*
X156027166Y-87205896D01*
X156027166Y-87065212D01*
X155607069Y-87065212D01*
X155607069Y-88050000D01*
X155532819Y-88050000D01*
X155532819Y-87909316D01*
X155279539Y-87909316D01*
X155279539Y-87065212D01*
X155125422Y-87065212D01*
X155125422Y-88050000D01*
X155037494Y-88050000D01*
X155037494Y-87909316D01*
X154771514Y-87909316D01*
X154771514Y-87612316D01*
X154982784Y-87612316D01*
X154982784Y-87471632D01*
X154771514Y-87471632D01*
X154771514Y-87205896D01*
X155037494Y-87205896D01*
X155037494Y-87065212D01*
X154617397Y-87065212D01*
X154617397Y-88050000D01*
X154506286Y-88050000D01*
X154506286Y-86938470D01*
X159381822Y-86938470D01*
X159381822Y-88176742D01*
G37*
G36*
X157742225Y-100736686D02*
G01*
X157786615Y-100758367D01*
X157799899Y-100781300D01*
X157807132Y-100831639D01*
X157807132Y-101343572D01*
X157805509Y-101369908D01*
X157786615Y-101416845D01*
X157776916Y-101425601D01*
X157728730Y-101439316D01*
X157650328Y-101439316D01*
X157650328Y-100735896D01*
X157728730Y-100735896D01*
X157742225Y-100736686D01*
G37*
G36*
X158639736Y-101691111D02*
G01*
X156395428Y-101691111D01*
X156395428Y-101580000D01*
X156506539Y-101580000D01*
X156913936Y-101580000D01*
X156988185Y-101580000D01*
X157408283Y-101580000D01*
X157408283Y-101439316D01*
X157496211Y-101439316D01*
X157496211Y-101580000D01*
X157731416Y-101580000D01*
X157765888Y-101578491D01*
X157815214Y-101569801D01*
X157862129Y-101550792D01*
X157903608Y-101518206D01*
X157928719Y-101483600D01*
X157948393Y-101436092D01*
X157958258Y-101386240D01*
X157961005Y-101336734D01*
X157961005Y-101032896D01*
X158044292Y-101032896D01*
X158044292Y-101142316D01*
X158231870Y-101142316D01*
X158231870Y-101329895D01*
X158341047Y-101329895D01*
X158341047Y-101142316D01*
X158528625Y-101142316D01*
X158528625Y-101032896D01*
X158341047Y-101032896D01*
X158341047Y-100829685D01*
X158231870Y-100829685D01*
X158231870Y-101032896D01*
X158044292Y-101032896D01*
X157961005Y-101032896D01*
X157961005Y-100838478D01*
X157959603Y-100802562D01*
X157951532Y-100750951D01*
X157933876Y-100701500D01*
X157903608Y-100657250D01*
X157880066Y-100636167D01*
X157837186Y-100612721D01*
X157785226Y-100599090D01*
X157731416Y-100595212D01*
X157496211Y-100595212D01*
X157496211Y-101439316D01*
X157408283Y-101439316D01*
X157142303Y-101439316D01*
X157142303Y-101142316D01*
X157353573Y-101142316D01*
X157353573Y-101001632D01*
X157142303Y-101001632D01*
X157142303Y-100735896D01*
X157408283Y-100735896D01*
X157408283Y-100595212D01*
X156988185Y-100595212D01*
X156988185Y-101580000D01*
X156913936Y-101580000D01*
X156913936Y-101439316D01*
X156660656Y-101439316D01*
X156660656Y-100595212D01*
X156506539Y-100595212D01*
X156506539Y-101580000D01*
X156395428Y-101580000D01*
X156395428Y-100484101D01*
X158639736Y-100484101D01*
X158639736Y-101691111D01*
G37*
G36*
X146271650Y-70657819D02*
G01*
X146502826Y-70657819D01*
X146502826Y-71923974D01*
X146882746Y-71923974D01*
X146882746Y-72135000D01*
X146271650Y-72135000D01*
X146271650Y-70657819D01*
G37*
G36*
X147732344Y-72135000D02*
G01*
X147501169Y-72135000D01*
X147459403Y-71853632D01*
X147196720Y-71853632D01*
X147154588Y-72135000D01*
X146940631Y-72135000D01*
X147020376Y-71642606D01*
X147224197Y-71642606D01*
X147431926Y-71642606D01*
X147328977Y-70922700D01*
X147324947Y-70922700D01*
X147224197Y-71642606D01*
X147020376Y-71642606D01*
X147179867Y-70657819D01*
X147492742Y-70657819D01*
X147732344Y-72135000D01*
G37*
G36*
X147842620Y-70657819D02*
G01*
X148172348Y-70657819D01*
X148319260Y-71721008D01*
X148323656Y-71721008D01*
X148470568Y-70657819D01*
X148800296Y-70657819D01*
X148800296Y-72135000D01*
X148581943Y-72135000D01*
X148581943Y-71032243D01*
X148577547Y-71032243D01*
X148409752Y-72135000D01*
X148216312Y-72135000D01*
X148048517Y-71032243D01*
X148044120Y-71032243D01*
X148044120Y-72135000D01*
X147842620Y-72135000D01*
X147842620Y-70657819D01*
G37*
G36*
X149393555Y-70663566D02*
G01*
X149471495Y-70683772D01*
X149542120Y-70723285D01*
X149571127Y-70749776D01*
X149616529Y-70815622D01*
X149643013Y-70889199D01*
X149655120Y-70965986D01*
X149657222Y-71019420D01*
X149657222Y-71163768D01*
X149653103Y-71237403D01*
X149638305Y-71311512D01*
X149608794Y-71382075D01*
X149571127Y-71433412D01*
X149508909Y-71481905D01*
X149438536Y-71510193D01*
X149364548Y-71523124D01*
X149312840Y-71525369D01*
X149203663Y-71525369D01*
X149203663Y-72135000D01*
X148972488Y-72135000D01*
X148972488Y-71314344D01*
X149203663Y-71314344D01*
X149312840Y-71314344D01*
X149383778Y-71295337D01*
X149397470Y-71283203D01*
X149424260Y-71212174D01*
X149426046Y-71177690D01*
X149426046Y-71005498D01*
X149415972Y-70932422D01*
X149397470Y-70899986D01*
X149329782Y-70869605D01*
X149312840Y-70868845D01*
X149203663Y-70868845D01*
X149203663Y-71314344D01*
X148972488Y-71314344D01*
X148972488Y-70657819D01*
X149312840Y-70657819D01*
X149393555Y-70663566D01*
G37*
G36*
X150532398Y-70640462D02*
G01*
X150610596Y-70661875D01*
X150676100Y-70698706D01*
X150712718Y-70731824D01*
X150756461Y-70792988D01*
X150785889Y-70866845D01*
X150800028Y-70943152D01*
X150803210Y-71006964D01*
X150803210Y-71785854D01*
X150798880Y-71859753D01*
X150783326Y-71934806D01*
X150752308Y-72007253D01*
X150712718Y-72060994D01*
X150655676Y-72108102D01*
X150585940Y-72139794D01*
X150513297Y-72155021D01*
X150452233Y-72158447D01*
X150372205Y-72152356D01*
X150294053Y-72130943D01*
X150228477Y-72094113D01*
X150191748Y-72060994D01*
X150148181Y-71999830D01*
X150118873Y-71925973D01*
X150104791Y-71849666D01*
X150101622Y-71785854D01*
X150101622Y-71006964D01*
X150102520Y-70991577D01*
X150332798Y-70991577D01*
X150332798Y-71801242D01*
X150344462Y-71878328D01*
X150394498Y-71935858D01*
X150452233Y-71947421D01*
X150525237Y-71926865D01*
X150566301Y-71858200D01*
X150572034Y-71801242D01*
X150572034Y-70991577D01*
X150560335Y-70914490D01*
X150510144Y-70856960D01*
X150452233Y-70845397D01*
X150379452Y-70865954D01*
X150338513Y-70934618D01*
X150332798Y-70991577D01*
X150102520Y-70991577D01*
X150105935Y-70933065D01*
X150121425Y-70858012D01*
X150152318Y-70785565D01*
X150191748Y-70731824D01*
X150248938Y-70684716D01*
X150318706Y-70653025D01*
X150391280Y-70637798D01*
X150452233Y-70634371D01*
X150532398Y-70640462D01*
G37*
G36*
X151294138Y-72158447D02*
G01*
X151215209Y-72152448D01*
X151138293Y-72131357D01*
X151073954Y-72095080D01*
X151038049Y-72062459D01*
X150995368Y-72001682D01*
X150966655Y-71927748D01*
X150952860Y-71850983D01*
X150949755Y-71786587D01*
X150949755Y-70657819D01*
X151180931Y-70657819D01*
X151180931Y-71803806D01*
X151191651Y-71879139D01*
X151211340Y-71913715D01*
X151278167Y-71946236D01*
X151298534Y-71947421D01*
X151370814Y-71926849D01*
X151385363Y-71913715D01*
X151413703Y-71843161D01*
X151416137Y-71803806D01*
X151416137Y-70657819D01*
X151638520Y-70657819D01*
X151638520Y-71786587D01*
X151634295Y-71861147D01*
X151619120Y-71936612D01*
X151588855Y-72009085D01*
X151550227Y-72062459D01*
X151487437Y-72113078D01*
X151417527Y-72142605D01*
X151344729Y-72156103D01*
X151294138Y-72158447D01*
G37*
G36*
X151982903Y-70868845D02*
G01*
X151741469Y-70868845D01*
X151741469Y-70657819D01*
X152455513Y-70657819D01*
X152455513Y-70868845D01*
X152213712Y-70868845D01*
X152213712Y-72135000D01*
X151982903Y-72135000D01*
X151982903Y-70868845D01*
G37*
G36*
X152999312Y-70663635D02*
G01*
X153077252Y-70684082D01*
X153141571Y-70719251D01*
X153176884Y-70750875D01*
X153222286Y-70817250D01*
X153248770Y-70891426D01*
X153260878Y-70968843D01*
X153262979Y-71022718D01*
X153262979Y-71770101D01*
X153258860Y-71844360D01*
X153244062Y-71919138D01*
X153214551Y-71990400D01*
X153176884Y-72042309D01*
X153114666Y-72091189D01*
X153044293Y-72119702D01*
X152970305Y-72132737D01*
X152918597Y-72135000D01*
X152565788Y-72135000D01*
X152565788Y-71923974D01*
X152796964Y-71923974D01*
X152914567Y-71923974D01*
X152986847Y-71903401D01*
X153001395Y-71890268D01*
X153029736Y-71819862D01*
X153032170Y-71780359D01*
X153032170Y-71012459D01*
X153021321Y-70936950D01*
X153001395Y-70902550D01*
X152934810Y-70870030D01*
X152914567Y-70868845D01*
X152796964Y-70868845D01*
X152796964Y-71923974D01*
X152565788Y-71923974D01*
X152565788Y-70657819D01*
X152918597Y-70657819D01*
X152999312Y-70663635D01*
G37*
G36*
X153831142Y-70640462D02*
G01*
X153909339Y-70661875D01*
X153974844Y-70698706D01*
X154011462Y-70731824D01*
X154055205Y-70792988D01*
X154084633Y-70866845D01*
X154098772Y-70943152D01*
X154101954Y-71006964D01*
X154101954Y-71785854D01*
X154097623Y-71859753D01*
X154082070Y-71934806D01*
X154051052Y-72007253D01*
X154011462Y-72060994D01*
X153954419Y-72108102D01*
X153884684Y-72139794D01*
X153812041Y-72155021D01*
X153750977Y-72158447D01*
X153670949Y-72152356D01*
X153592796Y-72130943D01*
X153527221Y-72094113D01*
X153490492Y-72060994D01*
X153446925Y-71999830D01*
X153417617Y-71925973D01*
X153403535Y-71849666D01*
X153400366Y-71785854D01*
X153400366Y-71006964D01*
X153401264Y-70991577D01*
X153631542Y-70991577D01*
X153631542Y-71801242D01*
X153643205Y-71878328D01*
X153693242Y-71935858D01*
X153750977Y-71947421D01*
X153823980Y-71926865D01*
X153865045Y-71858200D01*
X153870778Y-71801242D01*
X153870778Y-70991577D01*
X153859078Y-70914490D01*
X153808888Y-70856960D01*
X153750977Y-70845397D01*
X153678196Y-70865954D01*
X153637257Y-70934618D01*
X153631542Y-70991577D01*
X153401264Y-70991577D01*
X153404679Y-70933065D01*
X153420169Y-70858012D01*
X153451062Y-70785565D01*
X153490492Y-70731824D01*
X153547682Y-70684716D01*
X153617450Y-70653025D01*
X153690024Y-70637798D01*
X153750977Y-70634371D01*
X153831142Y-70640462D01*
G37*
G36*
X154670849Y-70640462D02*
G01*
X154749046Y-70661875D01*
X154814551Y-70698706D01*
X154851169Y-70731824D01*
X154894912Y-70792988D01*
X154924340Y-70866845D01*
X154938479Y-70943152D01*
X154941661Y-71006964D01*
X154941661Y-71785854D01*
X154937330Y-71859753D01*
X154921777Y-71934806D01*
X154890759Y-72007253D01*
X154851169Y-72060994D01*
X154794126Y-72108102D01*
X154724391Y-72139794D01*
X154651748Y-72155021D01*
X154590684Y-72158447D01*
X154510656Y-72152356D01*
X154432503Y-72130943D01*
X154366928Y-72094113D01*
X154330199Y-72060994D01*
X154286632Y-71999830D01*
X154257324Y-71925973D01*
X154243241Y-71849666D01*
X154240073Y-71785854D01*
X154240073Y-71006964D01*
X154240971Y-70991577D01*
X154471249Y-70991577D01*
X154471249Y-71801242D01*
X154482912Y-71878328D01*
X154532949Y-71935858D01*
X154590684Y-71947421D01*
X154663687Y-71926865D01*
X154704752Y-71858200D01*
X154710485Y-71801242D01*
X154710485Y-70991577D01*
X154698785Y-70914490D01*
X154648595Y-70856960D01*
X154590684Y-70845397D01*
X154517903Y-70865954D01*
X154476964Y-70934618D01*
X154471249Y-70991577D01*
X154240971Y-70991577D01*
X154244386Y-70933065D01*
X154259876Y-70858012D01*
X154290769Y-70785565D01*
X154330199Y-70731824D01*
X154387389Y-70684716D01*
X154457157Y-70653025D01*
X154529731Y-70637798D01*
X154590684Y-70634371D01*
X154670849Y-70640462D01*
G37*
G36*
X155512390Y-70661816D02*
G01*
X155585096Y-70676173D01*
X155658913Y-70708802D01*
X155699302Y-70741350D01*
X155742579Y-70802358D01*
X155767823Y-70872316D01*
X155779364Y-70946470D01*
X155781367Y-70998538D01*
X155781367Y-71089396D01*
X155776048Y-71169986D01*
X155756396Y-71248934D01*
X155716204Y-71319281D01*
X155657100Y-71368426D01*
X155630059Y-71381388D01*
X155630059Y-71385418D01*
X155697845Y-71420709D01*
X155743897Y-71479185D01*
X155748395Y-71488733D01*
X155770929Y-71560783D01*
X155781024Y-71635256D01*
X155783199Y-71697194D01*
X155783199Y-71956214D01*
X155785104Y-72031603D01*
X155787229Y-72058429D01*
X155806420Y-72130278D01*
X155808478Y-72135000D01*
X155573273Y-72135000D01*
X155556420Y-72067588D01*
X155552642Y-71991545D01*
X155552390Y-71953649D01*
X155552390Y-71683272D01*
X155546149Y-71606506D01*
X155519783Y-71542222D01*
X155452611Y-71505858D01*
X155407310Y-71501922D01*
X155327809Y-71501922D01*
X155327809Y-72135000D01*
X155096633Y-72135000D01*
X155096633Y-71290896D01*
X155327809Y-71290896D01*
X155411706Y-71290896D01*
X155484664Y-71276871D01*
X155515387Y-71254993D01*
X155546079Y-71187042D01*
X155550192Y-71134825D01*
X155550192Y-71020886D01*
X155541150Y-70944649D01*
X155521615Y-70904748D01*
X155454249Y-70870107D01*
X155432589Y-70868845D01*
X155327809Y-70868845D01*
X155327809Y-71290896D01*
X155096633Y-71290896D01*
X155096633Y-70657819D01*
X155438817Y-70657819D01*
X155512390Y-70661816D01*
G37*
G36*
X157833083Y-102186686D02*
G01*
X157877473Y-102208367D01*
X157890757Y-102231300D01*
X157897990Y-102281639D01*
X157897990Y-102793572D01*
X157896367Y-102819908D01*
X157877473Y-102866845D01*
X157867774Y-102875601D01*
X157819588Y-102889316D01*
X157741186Y-102889316D01*
X157741186Y-102185896D01*
X157819588Y-102185896D01*
X157833083Y-102186686D01*
G37*
G36*
X158551320Y-103141111D02*
G01*
X156486286Y-103141111D01*
X156486286Y-103030000D01*
X156597397Y-103030000D01*
X157004794Y-103030000D01*
X157079043Y-103030000D01*
X157499141Y-103030000D01*
X157499141Y-102889316D01*
X157587069Y-102889316D01*
X157587069Y-103030000D01*
X157822274Y-103030000D01*
X157856746Y-103028491D01*
X157906072Y-103019801D01*
X157952987Y-103000792D01*
X157994466Y-102968206D01*
X158019577Y-102933600D01*
X158039251Y-102886092D01*
X158049116Y-102836240D01*
X158051863Y-102786734D01*
X158051863Y-102607948D01*
X158132219Y-102607948D01*
X158440209Y-102607948D01*
X158440209Y-102467264D01*
X158132219Y-102467264D01*
X158132219Y-102607948D01*
X158051863Y-102607948D01*
X158051863Y-102288478D01*
X158050461Y-102252562D01*
X158042390Y-102200951D01*
X158024734Y-102151500D01*
X157994466Y-102107250D01*
X157970924Y-102086167D01*
X157928044Y-102062721D01*
X157876084Y-102049090D01*
X157822274Y-102045212D01*
X157587069Y-102045212D01*
X157587069Y-102889316D01*
X157499141Y-102889316D01*
X157233161Y-102889316D01*
X157233161Y-102592316D01*
X157444431Y-102592316D01*
X157444431Y-102451632D01*
X157233161Y-102451632D01*
X157233161Y-102185896D01*
X157499141Y-102185896D01*
X157499141Y-102045212D01*
X157079043Y-102045212D01*
X157079043Y-103030000D01*
X157004794Y-103030000D01*
X157004794Y-102889316D01*
X156751514Y-102889316D01*
X156751514Y-102045212D01*
X156597397Y-102045212D01*
X156597397Y-103030000D01*
X156486286Y-103030000D01*
X156486286Y-101934101D01*
X158551320Y-101934101D01*
X158551320Y-103141111D01*
G37*
G36*
X159393285Y-72746960D02*
G01*
X159443475Y-72804490D01*
X159455174Y-72881577D01*
X159455174Y-73691242D01*
X159449441Y-73748200D01*
X159408377Y-73816865D01*
X159335373Y-73837421D01*
X159277638Y-73825858D01*
X159227602Y-73768328D01*
X159215938Y-73691242D01*
X159215938Y-72881577D01*
X159221653Y-72824618D01*
X159262592Y-72755954D01*
X159335373Y-72735397D01*
X159393285Y-72746960D01*
G37*
G36*
X159853017Y-74215114D02*
G01*
X156738612Y-74215114D01*
X156738612Y-72547819D01*
X156905279Y-72547819D01*
X157127662Y-74025000D01*
X157434309Y-74025000D01*
X157628772Y-72735397D01*
X157849766Y-72735397D01*
X157849766Y-72899528D01*
X158091200Y-72899528D01*
X158091200Y-74025000D01*
X158322009Y-74025000D01*
X158607407Y-74025000D01*
X158830157Y-74025000D01*
X158830157Y-73813974D01*
X158607407Y-73813974D01*
X158607407Y-74025000D01*
X158322009Y-74025000D01*
X158322009Y-72896964D01*
X158984762Y-72896964D01*
X158984762Y-73675854D01*
X158987931Y-73739666D01*
X159002013Y-73815973D01*
X159031321Y-73889830D01*
X159074888Y-73950994D01*
X159111617Y-73984113D01*
X159177193Y-74020943D01*
X159255345Y-74042356D01*
X159335373Y-74048447D01*
X159396437Y-74045021D01*
X159469080Y-74029794D01*
X159538816Y-73998102D01*
X159595858Y-73950994D01*
X159635448Y-73897253D01*
X159666466Y-73824806D01*
X159682020Y-73749753D01*
X159686350Y-73675854D01*
X159686350Y-72896964D01*
X159683168Y-72833152D01*
X159669029Y-72756845D01*
X159639602Y-72682988D01*
X159595858Y-72621824D01*
X159559240Y-72588706D01*
X159493736Y-72551875D01*
X159415538Y-72530462D01*
X159335373Y-72524371D01*
X159274420Y-72527798D01*
X159201846Y-72543025D01*
X159132078Y-72574716D01*
X159074888Y-72621824D01*
X159035458Y-72675565D01*
X159004565Y-72748012D01*
X158989075Y-72823065D01*
X158985660Y-72881577D01*
X158984762Y-72896964D01*
X158322009Y-72896964D01*
X158322009Y-72547819D01*
X158166671Y-72547819D01*
X158145101Y-72598927D01*
X158103656Y-72662124D01*
X158076324Y-72686478D01*
X158008035Y-72718545D01*
X157996497Y-72721556D01*
X157923430Y-72732616D01*
X157849766Y-72735397D01*
X157628772Y-72735397D01*
X157657058Y-72547819D01*
X157444933Y-72547819D01*
X157293625Y-73698569D01*
X157289595Y-73698569D01*
X157138286Y-72547819D01*
X156905279Y-72547819D01*
X156738612Y-72547819D01*
X156738612Y-72357704D01*
X159853017Y-72357704D01*
X159853017Y-74215114D01*
G37*
G36*
X148210570Y-74697973D02*
G01*
X148244030Y-74736326D01*
X148251829Y-74787718D01*
X148251829Y-75327494D01*
X148248008Y-75365467D01*
X148220631Y-75411243D01*
X148171962Y-75424947D01*
X148133472Y-75417238D01*
X148100115Y-75378885D01*
X148092339Y-75327494D01*
X148092339Y-74787718D01*
X148096149Y-74749745D01*
X148123442Y-74703969D01*
X148171962Y-74690265D01*
X148210570Y-74697973D01*
G37*
G36*
X147077754Y-75221737D02*
G01*
X146939268Y-75221737D01*
X147006435Y-74741800D01*
X147009122Y-74741800D01*
X147077754Y-75221737D01*
G37*
G36*
X149288640Y-75221737D02*
G01*
X149150155Y-75221737D01*
X149217321Y-74741800D01*
X149220008Y-74741800D01*
X149288640Y-75221737D01*
G37*
G36*
X149800847Y-74706738D02*
G01*
X149845758Y-74729832D01*
X149858781Y-74756433D01*
X149864809Y-74807257D01*
X149864809Y-74883217D01*
X149862067Y-74918028D01*
X149841606Y-74963328D01*
X149821124Y-74977914D01*
X149772485Y-74987264D01*
X149716554Y-74987264D01*
X149716554Y-74705896D01*
X149786407Y-74705896D01*
X149800847Y-74706738D01*
G37*
G36*
X150372164Y-74706686D02*
G01*
X150416554Y-74728367D01*
X150429837Y-74751300D01*
X150437070Y-74801639D01*
X150437070Y-75313572D01*
X150435447Y-75339908D01*
X150416554Y-75386845D01*
X150406855Y-75395601D01*
X150358668Y-75409316D01*
X150280266Y-75409316D01*
X150280266Y-74705896D01*
X150358668Y-74705896D01*
X150372164Y-74706686D01*
G37*
G36*
X151204481Y-75221737D02*
G01*
X151065996Y-75221737D01*
X151133162Y-74741800D01*
X151135849Y-74741800D01*
X151204481Y-75221737D01*
G37*
G36*
X151716688Y-74706738D02*
G01*
X151761599Y-74729832D01*
X151774622Y-74756433D01*
X151780650Y-74807257D01*
X151780650Y-74883217D01*
X151777908Y-74918028D01*
X151757447Y-74963328D01*
X151736965Y-74977914D01*
X151688326Y-74987264D01*
X151632395Y-74987264D01*
X151632395Y-74705896D01*
X151702248Y-74705896D01*
X151716688Y-74706738D01*
G37*
G36*
X152926882Y-75221737D02*
G01*
X152788396Y-75221737D01*
X152855563Y-74741800D01*
X152858250Y-74741800D01*
X152926882Y-75221737D01*
G37*
G36*
X154007474Y-74706686D02*
G01*
X154051864Y-74728367D01*
X154065148Y-74751300D01*
X154072381Y-74801639D01*
X154072381Y-75313572D01*
X154070758Y-75339908D01*
X154051864Y-75386845D01*
X154042166Y-75395601D01*
X153993979Y-75409316D01*
X153915577Y-75409316D01*
X153915577Y-74705896D01*
X153993979Y-74705896D01*
X154007474Y-74706686D01*
G37*
G36*
X154337365Y-75676742D02*
G01*
X146242952Y-75676742D01*
X146242952Y-75550000D01*
X146354063Y-75550000D01*
X146508180Y-75550000D01*
X146750224Y-75550000D01*
X146892862Y-75550000D01*
X146920950Y-75362421D01*
X147096072Y-75362421D01*
X147123916Y-75550000D01*
X147278033Y-75550000D01*
X147351550Y-75550000D01*
X147488815Y-75550000D01*
X147488815Y-74841207D01*
X147491502Y-74841207D01*
X147676393Y-75550000D01*
X147834663Y-75550000D01*
X147834663Y-74797976D01*
X147938222Y-74797976D01*
X147938222Y-75317236D01*
X147940334Y-75359777D01*
X147949722Y-75410648D01*
X147969261Y-75459887D01*
X147998305Y-75500662D01*
X148022792Y-75522742D01*
X148066509Y-75547295D01*
X148118610Y-75561571D01*
X148171962Y-75565631D01*
X148212671Y-75563347D01*
X148261100Y-75553196D01*
X148307591Y-75532068D01*
X148345619Y-75500662D01*
X148372012Y-75464835D01*
X148392691Y-75416537D01*
X148403060Y-75366502D01*
X148405947Y-75317236D01*
X148405947Y-74797976D01*
X148403826Y-74755435D01*
X148394400Y-74704563D01*
X148374781Y-74655325D01*
X148345619Y-74614549D01*
X148321207Y-74592470D01*
X148277537Y-74567917D01*
X148267659Y-74565212D01*
X148465786Y-74565212D01*
X148614042Y-75550000D01*
X148818473Y-75550000D01*
X148961111Y-75550000D01*
X149103749Y-75550000D01*
X149131836Y-75362421D01*
X149306959Y-75362421D01*
X149334802Y-75550000D01*
X149488920Y-75550000D01*
X149397643Y-74987264D01*
X149562437Y-74987264D01*
X149562437Y-75550000D01*
X149716554Y-75550000D01*
X149716554Y-75127948D01*
X149769555Y-75127948D01*
X149799756Y-75130572D01*
X149844537Y-75154815D01*
X149862114Y-75197671D01*
X149866275Y-75248848D01*
X149866275Y-75429099D01*
X149866443Y-75454363D01*
X149868961Y-75505059D01*
X149880197Y-75550000D01*
X150037000Y-75550000D01*
X150035629Y-75546852D01*
X150022834Y-75498953D01*
X150021418Y-75481069D01*
X150020148Y-75430809D01*
X150020148Y-75409316D01*
X150126149Y-75409316D01*
X150126149Y-75550000D01*
X150361355Y-75550000D01*
X150876952Y-75550000D01*
X151019589Y-75550000D01*
X151047677Y-75362421D01*
X151222799Y-75362421D01*
X151250643Y-75550000D01*
X151404760Y-75550000D01*
X151313483Y-74987264D01*
X151478278Y-74987264D01*
X151478278Y-75550000D01*
X151632395Y-75550000D01*
X151632395Y-75127948D01*
X151685395Y-75127948D01*
X151715597Y-75130572D01*
X151760378Y-75154815D01*
X151777955Y-75197671D01*
X151782116Y-75248848D01*
X151782116Y-75429099D01*
X151782284Y-75454363D01*
X151784802Y-75505059D01*
X151796037Y-75550000D01*
X151952841Y-75550000D01*
X152041990Y-75550000D01*
X152179254Y-75550000D01*
X152179254Y-74841207D01*
X152181941Y-74841207D01*
X152366833Y-75550000D01*
X152525102Y-75550000D01*
X152599352Y-75550000D01*
X152741990Y-75550000D01*
X152770078Y-75362421D01*
X152945200Y-75362421D01*
X152973044Y-75550000D01*
X153127161Y-75550000D01*
X153089485Y-75317725D01*
X153193107Y-75317725D01*
X153195176Y-75360655D01*
X153204373Y-75411832D01*
X153223515Y-75461121D01*
X153251969Y-75501639D01*
X153275906Y-75523387D01*
X153318798Y-75547571D01*
X153370076Y-75561632D01*
X153422695Y-75565631D01*
X153456423Y-75564069D01*
X153504954Y-75555070D01*
X153551561Y-75535385D01*
X153593421Y-75501639D01*
X153619173Y-75466056D01*
X153639349Y-75417741D01*
X153641043Y-75409316D01*
X153761460Y-75409316D01*
X153761460Y-75550000D01*
X153996666Y-75550000D01*
X154031137Y-75548491D01*
X154080463Y-75539801D01*
X154127378Y-75520792D01*
X154168857Y-75488206D01*
X154193968Y-75453600D01*
X154213642Y-75406092D01*
X154223507Y-75356240D01*
X154226254Y-75306734D01*
X154226254Y-74808478D01*
X154224852Y-74772562D01*
X154216781Y-74720951D01*
X154199125Y-74671500D01*
X154168857Y-74627250D01*
X154145315Y-74606167D01*
X154102435Y-74582721D01*
X154050475Y-74569090D01*
X153996666Y-74565212D01*
X153761460Y-74565212D01*
X153761460Y-75409316D01*
X153641043Y-75409316D01*
X153649466Y-75367431D01*
X153652283Y-75317725D01*
X153652283Y-74565212D01*
X153504028Y-74565212D01*
X153504028Y-75329204D01*
X153502405Y-75355441D01*
X153483511Y-75402477D01*
X153473812Y-75411232D01*
X153425626Y-75424947D01*
X153412047Y-75424157D01*
X153367496Y-75402477D01*
X153354370Y-75379426D01*
X153347224Y-75329204D01*
X153347224Y-74565212D01*
X153193107Y-74565212D01*
X153193107Y-75317725D01*
X153089485Y-75317725D01*
X152967426Y-74565212D01*
X152758843Y-74565212D01*
X152652516Y-75221737D01*
X152599352Y-75550000D01*
X152525102Y-75550000D01*
X152525102Y-74565212D01*
X152387838Y-74565212D01*
X152387838Y-75160188D01*
X152384907Y-75160188D01*
X152235186Y-74565212D01*
X152041990Y-74565212D01*
X152041990Y-75550000D01*
X151952841Y-75550000D01*
X151951469Y-75546852D01*
X151938675Y-75498953D01*
X151937258Y-75481069D01*
X151935989Y-75430809D01*
X151935989Y-75258129D01*
X151934538Y-75216837D01*
X151927809Y-75167189D01*
X151912786Y-75119155D01*
X151909787Y-75112790D01*
X151879086Y-75073806D01*
X151833895Y-75050279D01*
X151833895Y-75047592D01*
X151851922Y-75038950D01*
X151891325Y-75006187D01*
X151918120Y-74959289D01*
X151931221Y-74906657D01*
X151934767Y-74852930D01*
X151934767Y-74792358D01*
X151933432Y-74757647D01*
X151925738Y-74708210D01*
X151908908Y-74661572D01*
X151880057Y-74620900D01*
X151853131Y-74599201D01*
X151803920Y-74577448D01*
X151755449Y-74567877D01*
X151706400Y-74565212D01*
X151478278Y-74565212D01*
X151478278Y-74987264D01*
X151313483Y-74987264D01*
X151245026Y-74565212D01*
X151036442Y-74565212D01*
X150930115Y-75221737D01*
X150876952Y-75550000D01*
X150361355Y-75550000D01*
X150395827Y-75548491D01*
X150445152Y-75539801D01*
X150492068Y-75520792D01*
X150533546Y-75488206D01*
X150558657Y-75453600D01*
X150578332Y-75406092D01*
X150588197Y-75356240D01*
X150590943Y-75306734D01*
X150590943Y-74808478D01*
X150589542Y-74772562D01*
X150581470Y-74720951D01*
X150563814Y-74671500D01*
X150533546Y-74627250D01*
X150510004Y-74606167D01*
X150467125Y-74582721D01*
X150415165Y-74569090D01*
X150361355Y-74565212D01*
X150126149Y-74565212D01*
X150126149Y-75409316D01*
X150020148Y-75409316D01*
X150020148Y-75258129D01*
X150018698Y-75216837D01*
X150011968Y-75167189D01*
X149996945Y-75119155D01*
X149993946Y-75112790D01*
X149963245Y-75073806D01*
X149918054Y-75050279D01*
X149918054Y-75047592D01*
X149936081Y-75038950D01*
X149975484Y-75006187D01*
X150002279Y-74959289D01*
X150015380Y-74906657D01*
X150018926Y-74852930D01*
X150018926Y-74792358D01*
X150017591Y-74757647D01*
X150009897Y-74708210D01*
X149993067Y-74661572D01*
X149964216Y-74620900D01*
X149937290Y-74599201D01*
X149888079Y-74577448D01*
X149839608Y-74567877D01*
X149790559Y-74565212D01*
X149562437Y-74565212D01*
X149562437Y-74987264D01*
X149397643Y-74987264D01*
X149329185Y-74565212D01*
X149120601Y-74565212D01*
X149014274Y-75221737D01*
X148961111Y-75550000D01*
X148818473Y-75550000D01*
X148966973Y-74565212D01*
X148825556Y-74565212D01*
X148724684Y-75332379D01*
X148721997Y-75332379D01*
X148621125Y-74565212D01*
X148465786Y-74565212D01*
X148267659Y-74565212D01*
X148225405Y-74553641D01*
X148171962Y-74549581D01*
X148131327Y-74551865D01*
X148082944Y-74562016D01*
X148036432Y-74583144D01*
X147998305Y-74614549D01*
X147972019Y-74650377D01*
X147951424Y-74698675D01*
X147941097Y-74748710D01*
X147938821Y-74787718D01*
X147938222Y-74797976D01*
X147834663Y-74797976D01*
X147834663Y-74565212D01*
X147697398Y-74565212D01*
X147697398Y-75160188D01*
X147694467Y-75160188D01*
X147544746Y-74565212D01*
X147351550Y-74565212D01*
X147351550Y-75550000D01*
X147278033Y-75550000D01*
X147118298Y-74565212D01*
X146909715Y-74565212D01*
X146803388Y-75221737D01*
X146750224Y-75550000D01*
X146508180Y-75550000D01*
X146508180Y-75127948D01*
X146706749Y-75127948D01*
X146706749Y-74987264D01*
X146508180Y-74987264D01*
X146508180Y-74705896D01*
X146761460Y-74705896D01*
X146761460Y-74565212D01*
X146354063Y-74565212D01*
X146354063Y-75550000D01*
X146242952Y-75550000D01*
X146242952Y-74438470D01*
X154337365Y-74438470D01*
X154337365Y-75676742D01*
G37*
G36*
X182968261Y-69074821D02*
G01*
X183014145Y-69097962D01*
X183032906Y-69139521D01*
X183037348Y-69189797D01*
X183037348Y-69274061D01*
X183035802Y-69301145D01*
X183017808Y-69348066D01*
X183006726Y-69357363D01*
X182957724Y-69369316D01*
X182869553Y-69369316D01*
X182869553Y-69072316D01*
X182937941Y-69072316D01*
X182968261Y-69074821D01*
G37*
G36*
X182958081Y-68666755D02*
G01*
X183003154Y-68690321D01*
X183016653Y-68719819D01*
X183021960Y-68769211D01*
X183021960Y-68825387D01*
X183019219Y-68860951D01*
X182998757Y-68907208D01*
X182978275Y-68922092D01*
X182929637Y-68931632D01*
X182869553Y-68931632D01*
X182869553Y-68665896D01*
X182943558Y-68665896D01*
X182958081Y-68666755D01*
G37*
G36*
X183568087Y-69181737D02*
G01*
X183429602Y-69181737D01*
X183496768Y-68701800D01*
X183499455Y-68701800D01*
X183568087Y-69181737D01*
G37*
G36*
X185384990Y-69621111D02*
G01*
X182604325Y-69621111D01*
X182604325Y-68931632D01*
X182715436Y-68931632D01*
X182715436Y-69369316D01*
X182715436Y-69510000D01*
X182957724Y-69510000D01*
X183240558Y-69510000D01*
X183383196Y-69510000D01*
X183411283Y-69322421D01*
X183586406Y-69322421D01*
X183614249Y-69510000D01*
X183768366Y-69510000D01*
X183631451Y-68665896D01*
X183736859Y-68665896D01*
X183897815Y-68665896D01*
X183897815Y-69510000D01*
X184051688Y-69510000D01*
X184051688Y-68665896D01*
X184212888Y-68665896D01*
X184259539Y-68665896D01*
X184420495Y-68665896D01*
X184420495Y-69510000D01*
X184574368Y-69510000D01*
X184574368Y-68962896D01*
X184789546Y-68962896D01*
X184789546Y-69072316D01*
X184977124Y-69072316D01*
X184977124Y-69259895D01*
X185086301Y-69259895D01*
X185086301Y-69072316D01*
X185273879Y-69072316D01*
X185273879Y-68962896D01*
X185086301Y-68962896D01*
X185086301Y-68759685D01*
X184977124Y-68759685D01*
X184977124Y-68962896D01*
X184789546Y-68962896D01*
X184574368Y-68962896D01*
X184574368Y-68665896D01*
X184735568Y-68665896D01*
X184735568Y-68525212D01*
X184259539Y-68525212D01*
X184259539Y-68665896D01*
X184212888Y-68665896D01*
X184212888Y-68525212D01*
X183736859Y-68525212D01*
X183736859Y-68665896D01*
X183631451Y-68665896D01*
X183608632Y-68525212D01*
X183400048Y-68525212D01*
X183293721Y-69181737D01*
X183240558Y-69510000D01*
X182957724Y-69510000D01*
X182992244Y-69508556D01*
X183041844Y-69500245D01*
X183089361Y-69482062D01*
X183131870Y-69450893D01*
X183149038Y-69431116D01*
X183174646Y-69383727D01*
X183187740Y-69332145D01*
X183191465Y-69279190D01*
X183191465Y-69195903D01*
X183189671Y-69156882D01*
X183180255Y-69105662D01*
X183159067Y-69056997D01*
X183121400Y-69016007D01*
X183076671Y-68992937D01*
X183076671Y-68990251D01*
X183120512Y-68962041D01*
X183151409Y-68920397D01*
X183162202Y-68894324D01*
X183173163Y-68844402D01*
X183176078Y-68794856D01*
X183176078Y-68754801D01*
X183174742Y-68719725D01*
X183167048Y-68669781D01*
X183150218Y-68622681D01*
X183121367Y-68581632D01*
X183094453Y-68559648D01*
X183045299Y-68537609D01*
X182996908Y-68527912D01*
X182947955Y-68525212D01*
X182715436Y-68525212D01*
X182715436Y-68931632D01*
X182604325Y-68931632D01*
X182604325Y-68414101D01*
X185384990Y-68414101D01*
X185384990Y-69621111D01*
G37*
G36*
X183109922Y-119984821D02*
G01*
X183155806Y-120007962D01*
X183174567Y-120049521D01*
X183179009Y-120099797D01*
X183179009Y-120184061D01*
X183177463Y-120211145D01*
X183159469Y-120258066D01*
X183148387Y-120267363D01*
X183099385Y-120279316D01*
X183011214Y-120279316D01*
X183011214Y-119982316D01*
X183079602Y-119982316D01*
X183109922Y-119984821D01*
G37*
G36*
X183099742Y-119576755D02*
G01*
X183144815Y-119600321D01*
X183158314Y-119629819D01*
X183163621Y-119679211D01*
X183163621Y-119735387D01*
X183160880Y-119770951D01*
X183140418Y-119817208D01*
X183119936Y-119832092D01*
X183071298Y-119841632D01*
X183011214Y-119841632D01*
X183011214Y-119575896D01*
X183085219Y-119575896D01*
X183099742Y-119576755D01*
G37*
G36*
X183709748Y-120091737D02*
G01*
X183571263Y-120091737D01*
X183638429Y-119611800D01*
X183641116Y-119611800D01*
X183709748Y-120091737D01*
G37*
G36*
X185245772Y-120531111D02*
G01*
X182745986Y-120531111D01*
X182745986Y-119841632D01*
X182857097Y-119841632D01*
X182857097Y-120279316D01*
X182857097Y-120420000D01*
X183099385Y-120420000D01*
X183382219Y-120420000D01*
X183524857Y-120420000D01*
X183552944Y-120232421D01*
X183728067Y-120232421D01*
X183755910Y-120420000D01*
X183910027Y-120420000D01*
X183773112Y-119575896D01*
X183878520Y-119575896D01*
X184039476Y-119575896D01*
X184039476Y-120420000D01*
X184193349Y-120420000D01*
X184193349Y-119575896D01*
X184354549Y-119575896D01*
X184401200Y-119575896D01*
X184562156Y-119575896D01*
X184562156Y-120420000D01*
X184716029Y-120420000D01*
X184716029Y-119997948D01*
X184826671Y-119997948D01*
X185134661Y-119997948D01*
X185134661Y-119857264D01*
X184826671Y-119857264D01*
X184826671Y-119997948D01*
X184716029Y-119997948D01*
X184716029Y-119575896D01*
X184877229Y-119575896D01*
X184877229Y-119435212D01*
X184401200Y-119435212D01*
X184401200Y-119575896D01*
X184354549Y-119575896D01*
X184354549Y-119435212D01*
X183878520Y-119435212D01*
X183878520Y-119575896D01*
X183773112Y-119575896D01*
X183750293Y-119435212D01*
X183541709Y-119435212D01*
X183435382Y-120091737D01*
X183382219Y-120420000D01*
X183099385Y-120420000D01*
X183133905Y-120418556D01*
X183183505Y-120410245D01*
X183231022Y-120392062D01*
X183273531Y-120360893D01*
X183290699Y-120341116D01*
X183316307Y-120293727D01*
X183329401Y-120242145D01*
X183333126Y-120189190D01*
X183333126Y-120105903D01*
X183331332Y-120066882D01*
X183321916Y-120015662D01*
X183300728Y-119966997D01*
X183263061Y-119926007D01*
X183218332Y-119902937D01*
X183218332Y-119900251D01*
X183262173Y-119872041D01*
X183293070Y-119830397D01*
X183303863Y-119804324D01*
X183314824Y-119754402D01*
X183317739Y-119704856D01*
X183317739Y-119664801D01*
X183316403Y-119629725D01*
X183308709Y-119579781D01*
X183291879Y-119532681D01*
X183263028Y-119491632D01*
X183236114Y-119469648D01*
X183186960Y-119447609D01*
X183138569Y-119437912D01*
X183089616Y-119435212D01*
X182857097Y-119435212D01*
X182857097Y-119841632D01*
X182745986Y-119841632D01*
X182745986Y-119324101D01*
X185245772Y-119324101D01*
X185245772Y-120531111D01*
G37*
G36*
X184362783Y-102186686D02*
G01*
X184407173Y-102208367D01*
X184420457Y-102231300D01*
X184427690Y-102281639D01*
X184427690Y-102793572D01*
X184426067Y-102819908D01*
X184407173Y-102866845D01*
X184397474Y-102875601D01*
X184349288Y-102889316D01*
X184270886Y-102889316D01*
X184270886Y-102185896D01*
X184349288Y-102185896D01*
X184362783Y-102186686D01*
G37*
G36*
X185081020Y-103141111D02*
G01*
X183015986Y-103141111D01*
X183015986Y-103030000D01*
X183127097Y-103030000D01*
X183534494Y-103030000D01*
X183608743Y-103030000D01*
X184028841Y-103030000D01*
X184028841Y-102889316D01*
X184116769Y-102889316D01*
X184116769Y-103030000D01*
X184351974Y-103030000D01*
X184386446Y-103028491D01*
X184435772Y-103019801D01*
X184482687Y-103000792D01*
X184524166Y-102968206D01*
X184549277Y-102933600D01*
X184568951Y-102886092D01*
X184578816Y-102836240D01*
X184581563Y-102786734D01*
X184581563Y-102607948D01*
X184661919Y-102607948D01*
X184969909Y-102607948D01*
X184969909Y-102467264D01*
X184661919Y-102467264D01*
X184661919Y-102607948D01*
X184581563Y-102607948D01*
X184581563Y-102288478D01*
X184580161Y-102252562D01*
X184572090Y-102200951D01*
X184554434Y-102151500D01*
X184524166Y-102107250D01*
X184500624Y-102086167D01*
X184457744Y-102062721D01*
X184405784Y-102049090D01*
X184351974Y-102045212D01*
X184116769Y-102045212D01*
X184116769Y-102889316D01*
X184028841Y-102889316D01*
X183762861Y-102889316D01*
X183762861Y-102592316D01*
X183974131Y-102592316D01*
X183974131Y-102451632D01*
X183762861Y-102451632D01*
X183762861Y-102185896D01*
X184028841Y-102185896D01*
X184028841Y-102045212D01*
X183608743Y-102045212D01*
X183608743Y-103030000D01*
X183534494Y-103030000D01*
X183534494Y-102889316D01*
X183281214Y-102889316D01*
X183281214Y-102045212D01*
X183127097Y-102045212D01*
X183127097Y-103030000D01*
X183015986Y-103030000D01*
X183015986Y-101934101D01*
X185081020Y-101934101D01*
X185081020Y-103141111D01*
G37*
G36*
X184514002Y-87197973D02*
G01*
X184547462Y-87236326D01*
X184555261Y-87287718D01*
X184555261Y-87827494D01*
X184551439Y-87865467D01*
X184524063Y-87911243D01*
X184475394Y-87924947D01*
X184436904Y-87917238D01*
X184403546Y-87878885D01*
X184395771Y-87827494D01*
X184395771Y-87287718D01*
X184399581Y-87249745D01*
X184426873Y-87203969D01*
X184475394Y-87190265D01*
X184514002Y-87197973D01*
G37*
G36*
X183927587Y-87206738D02*
G01*
X183972498Y-87229832D01*
X183985521Y-87256433D01*
X183991549Y-87307257D01*
X183991549Y-87383217D01*
X183988807Y-87418028D01*
X183968346Y-87463328D01*
X183947864Y-87477914D01*
X183899225Y-87487264D01*
X183843293Y-87487264D01*
X183843293Y-87205896D01*
X183913147Y-87205896D01*
X183927587Y-87206738D01*
G37*
G36*
X185058708Y-87206686D02*
G01*
X185103098Y-87228367D01*
X185116382Y-87251300D01*
X185123614Y-87301639D01*
X185123614Y-87813572D01*
X185121991Y-87839908D01*
X185103098Y-87886845D01*
X185093399Y-87895601D01*
X185045212Y-87909316D01*
X184966810Y-87909316D01*
X184966810Y-87205896D01*
X185045212Y-87205896D01*
X185058708Y-87206686D01*
G37*
G36*
X185911522Y-88176742D02*
G01*
X181035986Y-88176742D01*
X181035986Y-88050000D01*
X181147097Y-88050000D01*
X181567194Y-88050000D01*
X181655122Y-88050000D01*
X182062519Y-88050000D01*
X182136769Y-88050000D01*
X182556866Y-88050000D01*
X182556866Y-87909316D01*
X182290886Y-87909316D01*
X182290886Y-87612316D01*
X182502156Y-87612316D01*
X182502156Y-87471632D01*
X182290886Y-87471632D01*
X182290886Y-87292358D01*
X182635024Y-87292358D01*
X182635024Y-87822854D01*
X182636443Y-87857756D01*
X182644618Y-87908291D01*
X182662499Y-87957334D01*
X182693154Y-88002128D01*
X182712595Y-88020422D01*
X182759135Y-88047709D01*
X182809749Y-88061662D01*
X182861681Y-88065631D01*
X182888521Y-88064643D01*
X182942911Y-88055191D01*
X182988994Y-88035731D01*
X183030453Y-88002372D01*
X183053103Y-87972088D01*
X183074051Y-87925802D01*
X183084950Y-87877717D01*
X183088583Y-87823098D01*
X183088583Y-87683635D01*
X182943014Y-87683635D01*
X182943014Y-87834577D01*
X182940309Y-87865289D01*
X182915891Y-87910033D01*
X182866078Y-87924947D01*
X182836004Y-87920623D01*
X182798017Y-87886028D01*
X182788897Y-87834577D01*
X182788897Y-87282100D01*
X182791610Y-87250890D01*
X182816106Y-87205421D01*
X182866078Y-87190265D01*
X182899737Y-87196020D01*
X182935501Y-87233787D01*
X182943014Y-87282344D01*
X182943014Y-87396894D01*
X183088583Y-87396894D01*
X183088583Y-87292358D01*
X183087164Y-87257456D01*
X183078989Y-87206920D01*
X183078616Y-87205896D01*
X183139630Y-87205896D01*
X183300586Y-87205896D01*
X183300586Y-88050000D01*
X183454459Y-88050000D01*
X183454459Y-87487264D01*
X183689176Y-87487264D01*
X183689176Y-88050000D01*
X183843293Y-88050000D01*
X183843293Y-87627948D01*
X183896294Y-87627948D01*
X183926495Y-87630572D01*
X183971277Y-87654815D01*
X183988854Y-87697671D01*
X183993014Y-87748848D01*
X183993014Y-87929099D01*
X183993182Y-87954363D01*
X183995701Y-88005059D01*
X184006936Y-88050000D01*
X184163740Y-88050000D01*
X184162368Y-88046852D01*
X184149574Y-87998953D01*
X184148157Y-87981069D01*
X184146887Y-87930809D01*
X184146887Y-87758129D01*
X184145437Y-87716837D01*
X184138707Y-87667189D01*
X184123684Y-87619155D01*
X184120685Y-87612790D01*
X184089985Y-87573806D01*
X184044794Y-87550279D01*
X184044794Y-87547592D01*
X184062821Y-87538950D01*
X184102224Y-87506187D01*
X184129018Y-87459289D01*
X184142120Y-87406657D01*
X184145666Y-87352930D01*
X184145666Y-87297976D01*
X184241653Y-87297976D01*
X184241653Y-87817236D01*
X184243766Y-87859777D01*
X184253154Y-87910648D01*
X184272693Y-87959887D01*
X184301737Y-88000662D01*
X184326223Y-88022742D01*
X184369940Y-88047295D01*
X184422042Y-88061571D01*
X184475394Y-88065631D01*
X184516103Y-88063347D01*
X184564532Y-88053196D01*
X184611022Y-88032068D01*
X184649051Y-88000662D01*
X184675444Y-87964835D01*
X184696123Y-87916537D01*
X184697619Y-87909316D01*
X184812693Y-87909316D01*
X184812693Y-88050000D01*
X185047899Y-88050000D01*
X185380314Y-88050000D01*
X185800411Y-88050000D01*
X185800411Y-87909316D01*
X185534431Y-87909316D01*
X185534431Y-87612316D01*
X185745701Y-87612316D01*
X185745701Y-87471632D01*
X185534431Y-87471632D01*
X185534431Y-87205896D01*
X185800411Y-87205896D01*
X185800411Y-87065212D01*
X185380314Y-87065212D01*
X185380314Y-88050000D01*
X185047899Y-88050000D01*
X185082371Y-88048491D01*
X185131697Y-88039801D01*
X185178612Y-88020792D01*
X185220090Y-87988206D01*
X185245202Y-87953600D01*
X185264876Y-87906092D01*
X185274741Y-87856240D01*
X185277487Y-87806734D01*
X185277487Y-87308478D01*
X185276086Y-87272562D01*
X185268015Y-87220951D01*
X185250358Y-87171500D01*
X185220090Y-87127250D01*
X185196549Y-87106167D01*
X185153669Y-87082721D01*
X185101709Y-87069090D01*
X185047899Y-87065212D01*
X184812693Y-87065212D01*
X184812693Y-87909316D01*
X184697619Y-87909316D01*
X184706492Y-87866502D01*
X184709378Y-87817236D01*
X184709378Y-87297976D01*
X184707258Y-87255435D01*
X184697831Y-87204563D01*
X184678213Y-87155325D01*
X184649051Y-87114549D01*
X184624639Y-87092470D01*
X184580969Y-87067917D01*
X184528837Y-87053641D01*
X184475394Y-87049581D01*
X184434759Y-87051865D01*
X184386376Y-87062016D01*
X184339864Y-87083144D01*
X184301737Y-87114549D01*
X184275451Y-87150377D01*
X184254855Y-87198675D01*
X184244529Y-87248710D01*
X184242252Y-87287718D01*
X184241653Y-87297976D01*
X184145666Y-87297976D01*
X184145666Y-87292358D01*
X184144330Y-87257647D01*
X184136637Y-87208210D01*
X184119807Y-87161572D01*
X184090956Y-87120900D01*
X184064030Y-87099201D01*
X184014818Y-87077448D01*
X183966348Y-87067877D01*
X183917299Y-87065212D01*
X183689176Y-87065212D01*
X183689176Y-87487264D01*
X183454459Y-87487264D01*
X183454459Y-87205896D01*
X183615659Y-87205896D01*
X183615659Y-87065212D01*
X183139630Y-87065212D01*
X183139630Y-87205896D01*
X183078616Y-87205896D01*
X183061108Y-87157878D01*
X183030453Y-87113084D01*
X183011006Y-87094790D01*
X182964418Y-87067503D01*
X182913720Y-87053550D01*
X182861681Y-87049581D01*
X182834899Y-87050573D01*
X182780609Y-87060061D01*
X182734589Y-87079596D01*
X182693154Y-87113084D01*
X182670504Y-87143368D01*
X182649556Y-87189654D01*
X182638657Y-87237739D01*
X182635024Y-87292358D01*
X182290886Y-87292358D01*
X182290886Y-87205896D01*
X182556866Y-87205896D01*
X182556866Y-87065212D01*
X182136769Y-87065212D01*
X182136769Y-88050000D01*
X182062519Y-88050000D01*
X182062519Y-87909316D01*
X181809239Y-87909316D01*
X181809239Y-87065212D01*
X181655122Y-87065212D01*
X181655122Y-88050000D01*
X181567194Y-88050000D01*
X181567194Y-87909316D01*
X181301214Y-87909316D01*
X181301214Y-87612316D01*
X181512484Y-87612316D01*
X181512484Y-87471632D01*
X181301214Y-87471632D01*
X181301214Y-87205896D01*
X181567194Y-87205896D01*
X181567194Y-87065212D01*
X181147097Y-87065212D01*
X181147097Y-88050000D01*
X181035986Y-88050000D01*
X181035986Y-86938470D01*
X185911522Y-86938470D01*
X185911522Y-88176742D01*
G37*
G36*
X184271925Y-100736686D02*
G01*
X184316315Y-100758367D01*
X184329599Y-100781300D01*
X184336832Y-100831639D01*
X184336832Y-101343572D01*
X184335209Y-101369908D01*
X184316315Y-101416845D01*
X184306616Y-101425601D01*
X184258430Y-101439316D01*
X184180028Y-101439316D01*
X184180028Y-100735896D01*
X184258430Y-100735896D01*
X184271925Y-100736686D01*
G37*
G36*
X185169436Y-101691111D02*
G01*
X182925128Y-101691111D01*
X182925128Y-101580000D01*
X183036239Y-101580000D01*
X183443636Y-101580000D01*
X183517885Y-101580000D01*
X183937983Y-101580000D01*
X183937983Y-101439316D01*
X184025911Y-101439316D01*
X184025911Y-101580000D01*
X184261116Y-101580000D01*
X184295588Y-101578491D01*
X184344914Y-101569801D01*
X184391829Y-101550792D01*
X184433308Y-101518206D01*
X184458419Y-101483600D01*
X184478093Y-101436092D01*
X184487958Y-101386240D01*
X184490705Y-101336734D01*
X184490705Y-101032896D01*
X184573992Y-101032896D01*
X184573992Y-101142316D01*
X184761570Y-101142316D01*
X184761570Y-101329895D01*
X184870747Y-101329895D01*
X184870747Y-101142316D01*
X185058325Y-101142316D01*
X185058325Y-101032896D01*
X184870747Y-101032896D01*
X184870747Y-100829685D01*
X184761570Y-100829685D01*
X184761570Y-101032896D01*
X184573992Y-101032896D01*
X184490705Y-101032896D01*
X184490705Y-100838478D01*
X184489303Y-100802562D01*
X184481232Y-100750951D01*
X184463576Y-100701500D01*
X184433308Y-100657250D01*
X184409766Y-100636167D01*
X184366886Y-100612721D01*
X184314926Y-100599090D01*
X184261116Y-100595212D01*
X184025911Y-100595212D01*
X184025911Y-101439316D01*
X183937983Y-101439316D01*
X183672003Y-101439316D01*
X183672003Y-101142316D01*
X183883273Y-101142316D01*
X183883273Y-101001632D01*
X183672003Y-101001632D01*
X183672003Y-100735896D01*
X183937983Y-100735896D01*
X183937983Y-100595212D01*
X183517885Y-100595212D01*
X183517885Y-101580000D01*
X183443636Y-101580000D01*
X183443636Y-101439316D01*
X183190356Y-101439316D01*
X183190356Y-100595212D01*
X183036239Y-100595212D01*
X183036239Y-101580000D01*
X182925128Y-101580000D01*
X182925128Y-100484101D01*
X185169436Y-100484101D01*
X185169436Y-101691111D01*
G37*
X185839700Y-101900000D02*
X185844700Y-106350000D01*
X185849700Y-106780000D02*
X185409700Y-106350000D01*
X186279700Y-106350000D02*
X185849700Y-106780000D01*
X185409700Y-106350000D02*
X186279700Y-106350000D01*
X185849700Y-106780000D02*
X186279700Y-106350000D01*
G36*
X185922985Y-72746960D02*
G01*
X185973175Y-72804490D01*
X185984874Y-72881577D01*
X185984874Y-73691242D01*
X185979141Y-73748200D01*
X185938077Y-73816865D01*
X185865073Y-73837421D01*
X185807338Y-73825858D01*
X185757302Y-73768328D01*
X185745638Y-73691242D01*
X185745638Y-72881577D01*
X185751353Y-72824618D01*
X185792292Y-72755954D01*
X185865073Y-72735397D01*
X185922985Y-72746960D01*
G37*
G36*
X186382717Y-74215114D02*
G01*
X183268312Y-74215114D01*
X183268312Y-72547819D01*
X183434979Y-72547819D01*
X183657362Y-74025000D01*
X183964009Y-74025000D01*
X184158472Y-72735397D01*
X184379466Y-72735397D01*
X184379466Y-72899528D01*
X184620900Y-72899528D01*
X184620900Y-74025000D01*
X184851709Y-74025000D01*
X185137107Y-74025000D01*
X185359857Y-74025000D01*
X185359857Y-73813974D01*
X185137107Y-73813974D01*
X185137107Y-74025000D01*
X184851709Y-74025000D01*
X184851709Y-72896964D01*
X185514462Y-72896964D01*
X185514462Y-73675854D01*
X185517631Y-73739666D01*
X185531713Y-73815973D01*
X185561021Y-73889830D01*
X185604588Y-73950994D01*
X185641317Y-73984113D01*
X185706893Y-74020943D01*
X185785045Y-74042356D01*
X185865073Y-74048447D01*
X185926137Y-74045021D01*
X185998780Y-74029794D01*
X186068516Y-73998102D01*
X186125558Y-73950994D01*
X186165148Y-73897253D01*
X186196166Y-73824806D01*
X186211720Y-73749753D01*
X186216050Y-73675854D01*
X186216050Y-72896964D01*
X186212868Y-72833152D01*
X186198729Y-72756845D01*
X186169302Y-72682988D01*
X186125558Y-72621824D01*
X186088940Y-72588706D01*
X186023436Y-72551875D01*
X185945238Y-72530462D01*
X185865073Y-72524371D01*
X185804120Y-72527798D01*
X185731546Y-72543025D01*
X185661778Y-72574716D01*
X185604588Y-72621824D01*
X185565158Y-72675565D01*
X185534265Y-72748012D01*
X185518775Y-72823065D01*
X185515360Y-72881577D01*
X185514462Y-72896964D01*
X184851709Y-72896964D01*
X184851709Y-72547819D01*
X184696371Y-72547819D01*
X184674801Y-72598927D01*
X184633356Y-72662124D01*
X184606024Y-72686478D01*
X184537735Y-72718545D01*
X184526197Y-72721556D01*
X184453130Y-72732616D01*
X184379466Y-72735397D01*
X184158472Y-72735397D01*
X184186758Y-72547819D01*
X183974633Y-72547819D01*
X183823325Y-73698569D01*
X183819295Y-73698569D01*
X183667986Y-72547819D01*
X183434979Y-72547819D01*
X183268312Y-72547819D01*
X183268312Y-72357704D01*
X186382717Y-72357704D01*
X186382717Y-74215114D01*
G37*
G36*
X180025989Y-73368635D02*
G01*
X180097443Y-73391607D01*
X180138074Y-73453454D01*
X180148390Y-73532972D01*
X180148390Y-73672923D01*
X180138074Y-73752441D01*
X180092221Y-73817983D01*
X180017965Y-73837421D01*
X180009963Y-73837260D01*
X179938710Y-73814289D01*
X179898193Y-73752441D01*
X179887905Y-73672923D01*
X179887905Y-73532972D01*
X179898193Y-73453454D01*
X179943917Y-73387912D01*
X180017965Y-73368475D01*
X180025989Y-73368635D01*
G37*
G36*
X180087423Y-72753320D02*
G01*
X180130314Y-72813753D01*
X180139964Y-72887072D01*
X180139964Y-73005774D01*
X180132339Y-73072132D01*
X180092308Y-73136120D01*
X180017965Y-73157449D01*
X179948715Y-73139526D01*
X179905953Y-73079093D01*
X179896332Y-73005774D01*
X179896332Y-72887072D01*
X179903934Y-72820714D01*
X179943845Y-72756727D01*
X180017965Y-72735397D01*
X180087423Y-72753320D01*
G37*
G36*
X180922001Y-73286451D02*
G01*
X180972037Y-73344990D01*
X180983701Y-73423429D01*
X180983701Y-73690875D01*
X180977986Y-73747977D01*
X180937047Y-73816813D01*
X180864266Y-73837421D01*
X180806355Y-73825829D01*
X180756164Y-73768155D01*
X180744465Y-73690875D01*
X180744465Y-73423429D01*
X180751953Y-73358354D01*
X180791262Y-73295603D01*
X180864266Y-73274685D01*
X180922001Y-73286451D01*
G37*
G36*
X182594997Y-72746960D02*
G01*
X182645187Y-72804490D01*
X182656887Y-72881577D01*
X182656887Y-73691242D01*
X182651154Y-73748200D01*
X182610089Y-73816865D01*
X182537085Y-73837421D01*
X182479351Y-73825858D01*
X182429314Y-73768328D01*
X182417651Y-73691242D01*
X182417651Y-72881577D01*
X182423366Y-72824618D01*
X182464305Y-72755954D01*
X182537085Y-72735397D01*
X182594997Y-72746960D01*
G37*
G36*
X173347256Y-73372231D02*
G01*
X173416081Y-73406943D01*
X173444223Y-73469282D01*
X173450885Y-73544696D01*
X173450885Y-73671092D01*
X173448567Y-73711718D01*
X173421576Y-73782100D01*
X173404952Y-73796045D01*
X173331450Y-73813974D01*
X173199193Y-73813974D01*
X173199193Y-73368475D01*
X173301775Y-73368475D01*
X173347256Y-73372231D01*
G37*
G36*
X173331986Y-72760133D02*
G01*
X173399594Y-72795481D01*
X173419843Y-72839729D01*
X173427804Y-72913817D01*
X173427804Y-72998080D01*
X173423692Y-73051427D01*
X173393000Y-73120812D01*
X173362277Y-73143138D01*
X173289319Y-73157449D01*
X173199193Y-73157449D01*
X173199193Y-72758845D01*
X173310201Y-72758845D01*
X173331986Y-72760133D01*
G37*
G36*
X174246995Y-73532606D02*
G01*
X174039266Y-73532606D01*
X174140016Y-72812700D01*
X174144046Y-72812700D01*
X174246995Y-73532606D01*
G37*
G36*
X177228145Y-72760107D02*
G01*
X177295512Y-72794748D01*
X177315047Y-72834649D01*
X177324088Y-72910886D01*
X177324088Y-73024825D01*
X177319976Y-73077042D01*
X177289284Y-73144993D01*
X177258561Y-73166871D01*
X177185603Y-73180896D01*
X177101705Y-73180896D01*
X177101705Y-72758845D01*
X177206485Y-72758845D01*
X177228145Y-72760107D01*
G37*
G36*
X183054729Y-74215114D02*
G01*
X172801350Y-74215114D01*
X172801350Y-73157449D01*
X172968017Y-73157449D01*
X172968017Y-73813974D01*
X172968017Y-74025000D01*
X173331450Y-74025000D01*
X173755700Y-74025000D01*
X173969657Y-74025000D01*
X174011789Y-73743632D01*
X174274472Y-73743632D01*
X174316238Y-74025000D01*
X174547413Y-74025000D01*
X174342040Y-72758845D01*
X174500152Y-72758845D01*
X174741587Y-72758845D01*
X174741587Y-74025000D01*
X174972396Y-74025000D01*
X174972396Y-72758845D01*
X175214196Y-72758845D01*
X175284172Y-72758845D01*
X175525606Y-72758845D01*
X175525606Y-74025000D01*
X175756416Y-74025000D01*
X176108492Y-74025000D01*
X176738638Y-74025000D01*
X176738638Y-73813974D01*
X176339667Y-73813974D01*
X176339667Y-73368475D01*
X176656573Y-73368475D01*
X176656573Y-73180896D01*
X176870529Y-73180896D01*
X176870529Y-74025000D01*
X177101705Y-74025000D01*
X177101705Y-73391922D01*
X177181206Y-73391922D01*
X177226508Y-73395858D01*
X177293680Y-73432222D01*
X177320045Y-73496506D01*
X177326286Y-73573272D01*
X177326286Y-73843649D01*
X177326538Y-73881545D01*
X177330316Y-73957588D01*
X177347169Y-74025000D01*
X177582375Y-74025000D01*
X177580317Y-74020278D01*
X177561126Y-73948429D01*
X177559001Y-73921603D01*
X177557096Y-73846214D01*
X177557096Y-73587194D01*
X177554921Y-73525256D01*
X177544826Y-73450783D01*
X177522291Y-73378733D01*
X177517793Y-73369185D01*
X177471742Y-73310709D01*
X177403956Y-73275418D01*
X177403956Y-73271388D01*
X177430996Y-73258426D01*
X177490101Y-73209281D01*
X177530292Y-73138934D01*
X177549945Y-73059986D01*
X177555264Y-72979396D01*
X177555264Y-72888538D01*
X177553261Y-72836470D01*
X177541720Y-72762316D01*
X177516475Y-72692358D01*
X177473199Y-72631350D01*
X177432809Y-72598802D01*
X177358993Y-72566173D01*
X177286287Y-72551816D01*
X177212714Y-72547819D01*
X177615348Y-72547819D01*
X177894517Y-73405111D01*
X177894517Y-74025000D01*
X178125327Y-74025000D01*
X178125327Y-73405111D01*
X178343700Y-72735397D01*
X178926566Y-72735397D01*
X178926566Y-72899528D01*
X179168000Y-72899528D01*
X179168000Y-74025000D01*
X179398809Y-74025000D01*
X179398809Y-73557519D01*
X179656730Y-73557519D01*
X179656730Y-73686845D01*
X179660014Y-73749755D01*
X179674611Y-73824620D01*
X179704992Y-73896525D01*
X179750152Y-73955390D01*
X179795025Y-73991650D01*
X179864000Y-74025183D01*
X179935968Y-74042631D01*
X180017965Y-74048447D01*
X180080514Y-74045175D01*
X180155058Y-74030635D01*
X180226822Y-74000374D01*
X180285777Y-73955390D01*
X180322179Y-73910734D01*
X180355844Y-73841726D01*
X180373361Y-73769438D01*
X180379200Y-73686845D01*
X180379200Y-73557152D01*
X180378323Y-73523999D01*
X180367840Y-73445753D01*
X180343296Y-73374337D01*
X180336247Y-73360675D01*
X180289406Y-73300869D01*
X180228258Y-73257833D01*
X180228258Y-73253803D01*
X180253727Y-73237318D01*
X180309397Y-73181963D01*
X180347253Y-73110030D01*
X180365763Y-73033489D01*
X180370774Y-72957780D01*
X180370774Y-72909787D01*
X180513289Y-72909787D01*
X180513289Y-73423429D01*
X180513289Y-73675854D01*
X180516458Y-73739666D01*
X180530540Y-73815973D01*
X180559848Y-73889830D01*
X180603415Y-73950994D01*
X180640157Y-73984113D01*
X180705800Y-74020943D01*
X180784078Y-74042356D01*
X180864266Y-74048447D01*
X180925206Y-74044995D01*
X180997723Y-74029653D01*
X181067372Y-73997724D01*
X181124385Y-73950261D01*
X181163975Y-73896085D01*
X181194993Y-73822985D01*
X181210547Y-73747205D01*
X181214877Y-73672557D01*
X181214877Y-73405478D01*
X181214166Y-73377267D01*
X181357393Y-73377267D01*
X181575746Y-73377267D01*
X181583233Y-73311871D01*
X181622543Y-73248811D01*
X181695547Y-73227791D01*
X181753281Y-73239122D01*
X181803318Y-73295498D01*
X181814982Y-73371039D01*
X181814982Y-73696371D01*
X181809266Y-73751331D01*
X181768327Y-73817586D01*
X181695547Y-73837421D01*
X181637635Y-73826264D01*
X181587445Y-73770753D01*
X181575746Y-73696371D01*
X181575746Y-73565579D01*
X181357393Y-73565579D01*
X181357393Y-73680617D01*
X181360484Y-73744352D01*
X181374222Y-73820315D01*
X181402816Y-73893457D01*
X181445320Y-73953558D01*
X181481238Y-73985806D01*
X181545644Y-74021667D01*
X181622686Y-74042516D01*
X181701775Y-74048447D01*
X181752270Y-74046130D01*
X181824987Y-74032787D01*
X181894916Y-74003597D01*
X181957864Y-73953558D01*
X181996492Y-73900802D01*
X182026757Y-73829189D01*
X182041932Y-73754634D01*
X182046157Y-73680983D01*
X182046157Y-73350889D01*
X182045584Y-73321003D01*
X182038452Y-73247982D01*
X182018073Y-73170359D01*
X181980945Y-73102494D01*
X181934441Y-73057285D01*
X181862862Y-73025137D01*
X181790069Y-73016765D01*
X181781733Y-73016871D01*
X181705812Y-73029622D01*
X181637920Y-73068195D01*
X181590400Y-73125575D01*
X181586370Y-73125575D01*
X181598018Y-72896964D01*
X182186475Y-72896964D01*
X182186475Y-73675854D01*
X182189643Y-73739666D01*
X182203725Y-73815973D01*
X182233034Y-73889830D01*
X182276600Y-73950994D01*
X182313330Y-73984113D01*
X182378905Y-74020943D01*
X182457058Y-74042356D01*
X182537085Y-74048447D01*
X182598150Y-74045021D01*
X182670793Y-74029794D01*
X182740528Y-73998102D01*
X182797570Y-73950994D01*
X182837161Y-73897253D01*
X182868179Y-73824806D01*
X182883732Y-73749753D01*
X182888062Y-73675854D01*
X182888062Y-72896964D01*
X182884881Y-72833152D01*
X182870742Y-72756845D01*
X182841314Y-72682988D01*
X182797570Y-72621824D01*
X182760953Y-72588706D01*
X182695448Y-72551875D01*
X182617251Y-72530462D01*
X182537085Y-72524371D01*
X182476133Y-72527798D01*
X182403559Y-72543025D01*
X182333791Y-72574716D01*
X182276600Y-72621824D01*
X182237171Y-72675565D01*
X182206278Y-72748012D01*
X182190788Y-72823065D01*
X182187373Y-72881577D01*
X182186475Y-72896964D01*
X181598018Y-72896964D01*
X181605055Y-72758845D01*
X182008422Y-72758845D01*
X182008422Y-72547819D01*
X181399158Y-72547819D01*
X181357393Y-73377267D01*
X181214166Y-73377267D01*
X181213858Y-73365040D01*
X181205706Y-73291584D01*
X181186792Y-73220770D01*
X181149664Y-73151221D01*
X181108200Y-73108894D01*
X181038038Y-73074006D01*
X180958788Y-73063660D01*
X180922885Y-73065692D01*
X180852148Y-73085125D01*
X180789866Y-73130848D01*
X180748495Y-73193719D01*
X180744465Y-73193719D01*
X180744465Y-72914549D01*
X180748896Y-72848037D01*
X180775972Y-72774965D01*
X180798956Y-72754099D01*
X180872693Y-72735397D01*
X180930427Y-72746670D01*
X180980464Y-72802758D01*
X180992127Y-72877913D01*
X180992127Y-72919312D01*
X181210480Y-72919312D01*
X181210480Y-72892201D01*
X181207376Y-72828480D01*
X181193580Y-72752573D01*
X181164868Y-72679550D01*
X181122187Y-72619626D01*
X181086393Y-72587254D01*
X181022125Y-72551255D01*
X180945164Y-72530325D01*
X180866098Y-72524371D01*
X180783408Y-72530394D01*
X180695551Y-72554858D01*
X180624920Y-72598142D01*
X180571516Y-72660245D01*
X180535340Y-72741168D01*
X180518802Y-72819455D01*
X180513289Y-72909787D01*
X180370774Y-72909787D01*
X180370774Y-72895498D01*
X180367566Y-72830892D01*
X180353313Y-72754047D01*
X180323647Y-72680297D01*
X180279549Y-72619993D01*
X180242558Y-72587496D01*
X180176638Y-72551358D01*
X180098199Y-72530348D01*
X180017965Y-72524371D01*
X179956974Y-72527733D01*
X179884227Y-72542674D01*
X179814102Y-72573769D01*
X179756381Y-72619993D01*
X179716470Y-72673092D01*
X179685200Y-72745475D01*
X179669521Y-72821055D01*
X179665669Y-72887072D01*
X179665156Y-72895865D01*
X179665156Y-72958147D01*
X179666006Y-72991994D01*
X179676168Y-73071040D01*
X179699961Y-73141695D01*
X179702173Y-73146153D01*
X179747797Y-73209202D01*
X179808038Y-73254169D01*
X179808038Y-73258565D01*
X179793449Y-73266683D01*
X179735587Y-73312144D01*
X179692267Y-73374703D01*
X179678420Y-73408746D01*
X179661727Y-73480805D01*
X179658329Y-73532972D01*
X179656730Y-73557519D01*
X179398809Y-73557519D01*
X179398809Y-72547819D01*
X179243471Y-72547819D01*
X179221901Y-72598927D01*
X179180456Y-72662124D01*
X179153124Y-72686478D01*
X179084835Y-72718545D01*
X179073297Y-72721556D01*
X179000230Y-72732616D01*
X178926566Y-72735397D01*
X178343700Y-72735397D01*
X178404863Y-72547819D01*
X178179915Y-72547819D01*
X178022745Y-73103593D01*
X178018349Y-73103593D01*
X177860812Y-72547819D01*
X177615348Y-72547819D01*
X177212714Y-72547819D01*
X176870529Y-72547819D01*
X176870529Y-73180896D01*
X176656573Y-73180896D01*
X176656573Y-73157449D01*
X176339667Y-73157449D01*
X176339667Y-72758845D01*
X176738638Y-72758845D01*
X176738638Y-72547819D01*
X176108492Y-72547819D01*
X176108492Y-74025000D01*
X175756416Y-74025000D01*
X175756416Y-72758845D01*
X175998216Y-72758845D01*
X175998216Y-72547819D01*
X175284172Y-72547819D01*
X175284172Y-72758845D01*
X175214196Y-72758845D01*
X175214196Y-72547819D01*
X174500152Y-72547819D01*
X174500152Y-72758845D01*
X174342040Y-72758845D01*
X174307811Y-72547819D01*
X173994936Y-72547819D01*
X173835445Y-73532606D01*
X173755700Y-74025000D01*
X173331450Y-74025000D01*
X173383230Y-74022835D01*
X173457630Y-74010367D01*
X173528905Y-73983094D01*
X173592668Y-73936339D01*
X173618421Y-73906674D01*
X173656832Y-73835591D01*
X173676474Y-73758218D01*
X173682061Y-73678785D01*
X173682061Y-73553855D01*
X173679371Y-73495323D01*
X173665246Y-73418493D01*
X173633464Y-73345496D01*
X173576964Y-73284010D01*
X173509870Y-73249406D01*
X173509870Y-73245376D01*
X173575632Y-73203061D01*
X173621977Y-73140596D01*
X173638166Y-73101487D01*
X173654608Y-73026604D01*
X173658980Y-72952285D01*
X173658980Y-72892201D01*
X173656977Y-72839588D01*
X173645436Y-72764672D01*
X173620191Y-72694022D01*
X173576915Y-72632449D01*
X173536543Y-72599473D01*
X173462812Y-72566414D01*
X173390226Y-72551868D01*
X173316796Y-72547819D01*
X172968017Y-72547819D01*
X172968017Y-73157449D01*
X172801350Y-73157449D01*
X172801350Y-72357704D01*
X183054729Y-72357704D01*
X183054729Y-74215114D01*
G37*
G36*
X172801350Y-70657819D02*
G01*
X173032526Y-70657819D01*
X173032526Y-71923974D01*
X173412446Y-71923974D01*
X173412446Y-72135000D01*
X172801350Y-72135000D01*
X172801350Y-70657819D01*
G37*
G36*
X174262044Y-72135000D02*
G01*
X174030869Y-72135000D01*
X173989103Y-71853632D01*
X173726420Y-71853632D01*
X173684288Y-72135000D01*
X173470331Y-72135000D01*
X173550076Y-71642606D01*
X173753897Y-71642606D01*
X173961626Y-71642606D01*
X173858677Y-70922700D01*
X173854647Y-70922700D01*
X173753897Y-71642606D01*
X173550076Y-71642606D01*
X173709567Y-70657819D01*
X174022442Y-70657819D01*
X174262044Y-72135000D01*
G37*
G36*
X174372320Y-70657819D02*
G01*
X174702048Y-70657819D01*
X174848960Y-71721008D01*
X174853356Y-71721008D01*
X175000268Y-70657819D01*
X175329996Y-70657819D01*
X175329996Y-72135000D01*
X175111643Y-72135000D01*
X175111643Y-71032243D01*
X175107247Y-71032243D01*
X174939452Y-72135000D01*
X174746012Y-72135000D01*
X174578217Y-71032243D01*
X174573820Y-71032243D01*
X174573820Y-72135000D01*
X174372320Y-72135000D01*
X174372320Y-70657819D01*
G37*
G36*
X175923255Y-70663566D02*
G01*
X176001195Y-70683772D01*
X176071820Y-70723285D01*
X176100827Y-70749776D01*
X176146229Y-70815622D01*
X176172713Y-70889199D01*
X176184820Y-70965986D01*
X176186922Y-71019420D01*
X176186922Y-71163768D01*
X176182803Y-71237403D01*
X176168005Y-71311512D01*
X176138494Y-71382075D01*
X176100827Y-71433412D01*
X176038609Y-71481905D01*
X175968236Y-71510193D01*
X175894248Y-71523124D01*
X175842540Y-71525369D01*
X175733363Y-71525369D01*
X175733363Y-72135000D01*
X175502188Y-72135000D01*
X175502188Y-71314344D01*
X175733363Y-71314344D01*
X175842540Y-71314344D01*
X175913478Y-71295337D01*
X175927170Y-71283203D01*
X175953960Y-71212174D01*
X175955746Y-71177690D01*
X175955746Y-71005498D01*
X175945672Y-70932422D01*
X175927170Y-70899986D01*
X175859482Y-70869605D01*
X175842540Y-70868845D01*
X175733363Y-70868845D01*
X175733363Y-71314344D01*
X175502188Y-71314344D01*
X175502188Y-70657819D01*
X175842540Y-70657819D01*
X175923255Y-70663566D01*
G37*
G36*
X177062098Y-70640462D02*
G01*
X177140296Y-70661875D01*
X177205800Y-70698706D01*
X177242418Y-70731824D01*
X177286161Y-70792988D01*
X177315589Y-70866845D01*
X177329728Y-70943152D01*
X177332910Y-71006964D01*
X177332910Y-71785854D01*
X177328580Y-71859753D01*
X177313026Y-71934806D01*
X177282008Y-72007253D01*
X177242418Y-72060994D01*
X177185376Y-72108102D01*
X177115640Y-72139794D01*
X177042997Y-72155021D01*
X176981933Y-72158447D01*
X176901905Y-72152356D01*
X176823753Y-72130943D01*
X176758177Y-72094113D01*
X176721448Y-72060994D01*
X176677881Y-71999830D01*
X176648573Y-71925973D01*
X176634491Y-71849666D01*
X176631322Y-71785854D01*
X176631322Y-71006964D01*
X176632220Y-70991577D01*
X176862498Y-70991577D01*
X176862498Y-71801242D01*
X176874162Y-71878328D01*
X176924198Y-71935858D01*
X176981933Y-71947421D01*
X177054937Y-71926865D01*
X177096001Y-71858200D01*
X177101734Y-71801242D01*
X177101734Y-70991577D01*
X177090035Y-70914490D01*
X177039844Y-70856960D01*
X176981933Y-70845397D01*
X176909152Y-70865954D01*
X176868213Y-70934618D01*
X176862498Y-70991577D01*
X176632220Y-70991577D01*
X176635635Y-70933065D01*
X176651125Y-70858012D01*
X176682018Y-70785565D01*
X176721448Y-70731824D01*
X176778638Y-70684716D01*
X176848406Y-70653025D01*
X176920980Y-70637798D01*
X176981933Y-70634371D01*
X177062098Y-70640462D01*
G37*
G36*
X177823838Y-72158447D02*
G01*
X177744909Y-72152448D01*
X177667993Y-72131357D01*
X177603654Y-72095080D01*
X177567749Y-72062459D01*
X177525068Y-72001682D01*
X177496355Y-71927748D01*
X177482560Y-71850983D01*
X177479455Y-71786587D01*
X177479455Y-70657819D01*
X177710631Y-70657819D01*
X177710631Y-71803806D01*
X177721351Y-71879139D01*
X177741040Y-71913715D01*
X177807867Y-71946236D01*
X177828234Y-71947421D01*
X177900514Y-71926849D01*
X177915063Y-71913715D01*
X177943403Y-71843161D01*
X177945837Y-71803806D01*
X177945837Y-70657819D01*
X178168220Y-70657819D01*
X178168220Y-71786587D01*
X178163995Y-71861147D01*
X178148820Y-71936612D01*
X178118555Y-72009085D01*
X178079927Y-72062459D01*
X178017137Y-72113078D01*
X177947227Y-72142605D01*
X177874429Y-72156103D01*
X177823838Y-72158447D01*
G37*
G36*
X178512603Y-70868845D02*
G01*
X178271169Y-70868845D01*
X178271169Y-70657819D01*
X178985213Y-70657819D01*
X178985213Y-70868845D01*
X178743412Y-70868845D01*
X178743412Y-72135000D01*
X178512603Y-72135000D01*
X178512603Y-70868845D01*
G37*
G36*
X179529012Y-70663635D02*
G01*
X179606952Y-70684082D01*
X179671271Y-70719251D01*
X179706584Y-70750875D01*
X179751986Y-70817250D01*
X179778470Y-70891426D01*
X179790578Y-70968843D01*
X179792679Y-71022718D01*
X179792679Y-71770101D01*
X179788560Y-71844360D01*
X179773762Y-71919138D01*
X179744251Y-71990400D01*
X179706584Y-72042309D01*
X179644366Y-72091189D01*
X179573993Y-72119702D01*
X179500005Y-72132737D01*
X179448297Y-72135000D01*
X179095488Y-72135000D01*
X179095488Y-71923974D01*
X179326664Y-71923974D01*
X179444267Y-71923974D01*
X179516547Y-71903401D01*
X179531095Y-71890268D01*
X179559436Y-71819862D01*
X179561870Y-71780359D01*
X179561870Y-71012459D01*
X179551021Y-70936950D01*
X179531095Y-70902550D01*
X179464510Y-70870030D01*
X179444267Y-70868845D01*
X179326664Y-70868845D01*
X179326664Y-71923974D01*
X179095488Y-71923974D01*
X179095488Y-70657819D01*
X179448297Y-70657819D01*
X179529012Y-70663635D01*
G37*
G36*
X180360842Y-70640462D02*
G01*
X180439039Y-70661875D01*
X180504544Y-70698706D01*
X180541162Y-70731824D01*
X180584905Y-70792988D01*
X180614333Y-70866845D01*
X180628472Y-70943152D01*
X180631654Y-71006964D01*
X180631654Y-71785854D01*
X180627323Y-71859753D01*
X180611770Y-71934806D01*
X180580752Y-72007253D01*
X180541162Y-72060994D01*
X180484119Y-72108102D01*
X180414384Y-72139794D01*
X180341741Y-72155021D01*
X180280677Y-72158447D01*
X180200649Y-72152356D01*
X180122496Y-72130943D01*
X180056921Y-72094113D01*
X180020192Y-72060994D01*
X179976625Y-71999830D01*
X179947317Y-71925973D01*
X179933235Y-71849666D01*
X179930066Y-71785854D01*
X179930066Y-71006964D01*
X179930964Y-70991577D01*
X180161242Y-70991577D01*
X180161242Y-71801242D01*
X180172905Y-71878328D01*
X180222942Y-71935858D01*
X180280677Y-71947421D01*
X180353680Y-71926865D01*
X180394745Y-71858200D01*
X180400478Y-71801242D01*
X180400478Y-70991577D01*
X180388778Y-70914490D01*
X180338588Y-70856960D01*
X180280677Y-70845397D01*
X180207896Y-70865954D01*
X180166957Y-70934618D01*
X180161242Y-70991577D01*
X179930964Y-70991577D01*
X179934379Y-70933065D01*
X179949869Y-70858012D01*
X179980762Y-70785565D01*
X180020192Y-70731824D01*
X180077382Y-70684716D01*
X180147150Y-70653025D01*
X180219724Y-70637798D01*
X180280677Y-70634371D01*
X180360842Y-70640462D01*
G37*
G36*
X181200549Y-70640462D02*
G01*
X181278746Y-70661875D01*
X181344251Y-70698706D01*
X181380869Y-70731824D01*
X181424612Y-70792988D01*
X181454040Y-70866845D01*
X181468179Y-70943152D01*
X181471361Y-71006964D01*
X181471361Y-71785854D01*
X181467030Y-71859753D01*
X181451477Y-71934806D01*
X181420459Y-72007253D01*
X181380869Y-72060994D01*
X181323826Y-72108102D01*
X181254091Y-72139794D01*
X181181448Y-72155021D01*
X181120384Y-72158447D01*
X181040356Y-72152356D01*
X180962203Y-72130943D01*
X180896628Y-72094113D01*
X180859899Y-72060994D01*
X180816332Y-71999830D01*
X180787024Y-71925973D01*
X180772941Y-71849666D01*
X180769773Y-71785854D01*
X180769773Y-71006964D01*
X180770671Y-70991577D01*
X181000949Y-70991577D01*
X181000949Y-71801242D01*
X181012612Y-71878328D01*
X181062649Y-71935858D01*
X181120384Y-71947421D01*
X181193387Y-71926865D01*
X181234452Y-71858200D01*
X181240185Y-71801242D01*
X181240185Y-70991577D01*
X181228485Y-70914490D01*
X181178295Y-70856960D01*
X181120384Y-70845397D01*
X181047603Y-70865954D01*
X181006664Y-70934618D01*
X181000949Y-70991577D01*
X180770671Y-70991577D01*
X180774086Y-70933065D01*
X180789576Y-70858012D01*
X180820469Y-70785565D01*
X180859899Y-70731824D01*
X180917089Y-70684716D01*
X180986857Y-70653025D01*
X181059431Y-70637798D01*
X181120384Y-70634371D01*
X181200549Y-70640462D01*
G37*
G36*
X182042090Y-70661816D02*
G01*
X182114796Y-70676173D01*
X182188613Y-70708802D01*
X182229002Y-70741350D01*
X182272279Y-70802358D01*
X182297523Y-70872316D01*
X182309064Y-70946470D01*
X182311067Y-70998538D01*
X182311067Y-71089396D01*
X182305748Y-71169986D01*
X182286096Y-71248934D01*
X182245904Y-71319281D01*
X182186800Y-71368426D01*
X182159759Y-71381388D01*
X182159759Y-71385418D01*
X182227545Y-71420709D01*
X182273597Y-71479185D01*
X182278095Y-71488733D01*
X182300629Y-71560783D01*
X182310724Y-71635256D01*
X182312899Y-71697194D01*
X182312899Y-71956214D01*
X182314804Y-72031603D01*
X182316929Y-72058429D01*
X182336120Y-72130278D01*
X182338178Y-72135000D01*
X182102973Y-72135000D01*
X182086120Y-72067588D01*
X182082342Y-71991545D01*
X182082090Y-71953649D01*
X182082090Y-71683272D01*
X182075849Y-71606506D01*
X182049483Y-71542222D01*
X181982311Y-71505858D01*
X181937010Y-71501922D01*
X181857509Y-71501922D01*
X181857509Y-72135000D01*
X181626333Y-72135000D01*
X181626333Y-71290896D01*
X181857509Y-71290896D01*
X181941406Y-71290896D01*
X182014364Y-71276871D01*
X182045087Y-71254993D01*
X182075779Y-71187042D01*
X182079892Y-71134825D01*
X182079892Y-71020886D01*
X182070850Y-70944649D01*
X182051315Y-70904748D01*
X181983949Y-70870107D01*
X181962289Y-70868845D01*
X181857509Y-70868845D01*
X181857509Y-71290896D01*
X181626333Y-71290896D01*
X181626333Y-70657819D01*
X181968517Y-70657819D01*
X182042090Y-70661816D01*
G37*
G36*
X174740270Y-74697973D02*
G01*
X174773730Y-74736326D01*
X174781529Y-74787718D01*
X174781529Y-75327494D01*
X174777708Y-75365467D01*
X174750331Y-75411243D01*
X174701662Y-75424947D01*
X174663172Y-75417238D01*
X174629815Y-75378885D01*
X174622039Y-75327494D01*
X174622039Y-74787718D01*
X174625849Y-74749745D01*
X174653142Y-74703969D01*
X174701662Y-74690265D01*
X174740270Y-74697973D01*
G37*
G36*
X173607454Y-75221737D02*
G01*
X173468968Y-75221737D01*
X173536135Y-74741800D01*
X173538822Y-74741800D01*
X173607454Y-75221737D01*
G37*
G36*
X175818340Y-75221737D02*
G01*
X175679855Y-75221737D01*
X175747021Y-74741800D01*
X175749708Y-74741800D01*
X175818340Y-75221737D01*
G37*
G36*
X176330547Y-74706738D02*
G01*
X176375458Y-74729832D01*
X176388481Y-74756433D01*
X176394509Y-74807257D01*
X176394509Y-74883217D01*
X176391767Y-74918028D01*
X176371306Y-74963328D01*
X176350824Y-74977914D01*
X176302185Y-74987264D01*
X176246254Y-74987264D01*
X176246254Y-74705896D01*
X176316107Y-74705896D01*
X176330547Y-74706738D01*
G37*
G36*
X176901864Y-74706686D02*
G01*
X176946254Y-74728367D01*
X176959537Y-74751300D01*
X176966770Y-74801639D01*
X176966770Y-75313572D01*
X176965147Y-75339908D01*
X176946254Y-75386845D01*
X176936555Y-75395601D01*
X176888368Y-75409316D01*
X176809966Y-75409316D01*
X176809966Y-74705896D01*
X176888368Y-74705896D01*
X176901864Y-74706686D01*
G37*
G36*
X177734181Y-75221737D02*
G01*
X177595696Y-75221737D01*
X177662862Y-74741800D01*
X177665549Y-74741800D01*
X177734181Y-75221737D01*
G37*
G36*
X178246388Y-74706738D02*
G01*
X178291299Y-74729832D01*
X178304322Y-74756433D01*
X178310350Y-74807257D01*
X178310350Y-74883217D01*
X178307608Y-74918028D01*
X178287147Y-74963328D01*
X178266665Y-74977914D01*
X178218026Y-74987264D01*
X178162095Y-74987264D01*
X178162095Y-74705896D01*
X178231948Y-74705896D01*
X178246388Y-74706738D01*
G37*
G36*
X179456582Y-75221737D02*
G01*
X179318096Y-75221737D01*
X179385263Y-74741800D01*
X179387950Y-74741800D01*
X179456582Y-75221737D01*
G37*
G36*
X180537174Y-74706686D02*
G01*
X180581564Y-74728367D01*
X180594848Y-74751300D01*
X180602081Y-74801639D01*
X180602081Y-75313572D01*
X180600458Y-75339908D01*
X180581564Y-75386845D01*
X180571866Y-75395601D01*
X180523679Y-75409316D01*
X180445277Y-75409316D01*
X180445277Y-74705896D01*
X180523679Y-74705896D01*
X180537174Y-74706686D01*
G37*
G36*
X180867065Y-75676742D02*
G01*
X172772652Y-75676742D01*
X172772652Y-75550000D01*
X172883763Y-75550000D01*
X173037880Y-75550000D01*
X173279924Y-75550000D01*
X173422562Y-75550000D01*
X173450650Y-75362421D01*
X173625772Y-75362421D01*
X173653616Y-75550000D01*
X173807733Y-75550000D01*
X173881250Y-75550000D01*
X174018515Y-75550000D01*
X174018515Y-74841207D01*
X174021202Y-74841207D01*
X174206093Y-75550000D01*
X174364363Y-75550000D01*
X174364363Y-74797976D01*
X174467922Y-74797976D01*
X174467922Y-75317236D01*
X174470034Y-75359777D01*
X174479422Y-75410648D01*
X174498961Y-75459887D01*
X174528005Y-75500662D01*
X174552492Y-75522742D01*
X174596209Y-75547295D01*
X174648310Y-75561571D01*
X174701662Y-75565631D01*
X174742371Y-75563347D01*
X174790800Y-75553196D01*
X174837291Y-75532068D01*
X174875319Y-75500662D01*
X174901712Y-75464835D01*
X174922391Y-75416537D01*
X174932760Y-75366502D01*
X174935647Y-75317236D01*
X174935647Y-74797976D01*
X174933526Y-74755435D01*
X174924100Y-74704563D01*
X174904481Y-74655325D01*
X174875319Y-74614549D01*
X174850907Y-74592470D01*
X174807237Y-74567917D01*
X174797359Y-74565212D01*
X174995486Y-74565212D01*
X175143742Y-75550000D01*
X175348173Y-75550000D01*
X175490811Y-75550000D01*
X175633449Y-75550000D01*
X175661536Y-75362421D01*
X175836659Y-75362421D01*
X175864502Y-75550000D01*
X176018620Y-75550000D01*
X175927343Y-74987264D01*
X176092137Y-74987264D01*
X176092137Y-75550000D01*
X176246254Y-75550000D01*
X176246254Y-75127948D01*
X176299255Y-75127948D01*
X176329456Y-75130572D01*
X176374237Y-75154815D01*
X176391814Y-75197671D01*
X176395975Y-75248848D01*
X176395975Y-75429099D01*
X176396143Y-75454363D01*
X176398661Y-75505059D01*
X176409897Y-75550000D01*
X176566700Y-75550000D01*
X176565329Y-75546852D01*
X176552534Y-75498953D01*
X176551118Y-75481069D01*
X176549848Y-75430809D01*
X176549848Y-75409316D01*
X176655849Y-75409316D01*
X176655849Y-75550000D01*
X176891055Y-75550000D01*
X177406652Y-75550000D01*
X177549289Y-75550000D01*
X177577377Y-75362421D01*
X177752499Y-75362421D01*
X177780343Y-75550000D01*
X177934460Y-75550000D01*
X177843183Y-74987264D01*
X178007978Y-74987264D01*
X178007978Y-75550000D01*
X178162095Y-75550000D01*
X178162095Y-75127948D01*
X178215095Y-75127948D01*
X178245297Y-75130572D01*
X178290078Y-75154815D01*
X178307655Y-75197671D01*
X178311816Y-75248848D01*
X178311816Y-75429099D01*
X178311984Y-75454363D01*
X178314502Y-75505059D01*
X178325737Y-75550000D01*
X178482541Y-75550000D01*
X178571690Y-75550000D01*
X178708954Y-75550000D01*
X178708954Y-74841207D01*
X178711641Y-74841207D01*
X178896533Y-75550000D01*
X179054802Y-75550000D01*
X179129052Y-75550000D01*
X179271690Y-75550000D01*
X179299778Y-75362421D01*
X179474900Y-75362421D01*
X179502744Y-75550000D01*
X179656861Y-75550000D01*
X179619185Y-75317725D01*
X179722807Y-75317725D01*
X179724876Y-75360655D01*
X179734073Y-75411832D01*
X179753215Y-75461121D01*
X179781669Y-75501639D01*
X179805606Y-75523387D01*
X179848498Y-75547571D01*
X179899776Y-75561632D01*
X179952395Y-75565631D01*
X179986123Y-75564069D01*
X180034654Y-75555070D01*
X180081261Y-75535385D01*
X180123121Y-75501639D01*
X180148873Y-75466056D01*
X180169049Y-75417741D01*
X180170743Y-75409316D01*
X180291160Y-75409316D01*
X180291160Y-75550000D01*
X180526366Y-75550000D01*
X180560837Y-75548491D01*
X180610163Y-75539801D01*
X180657078Y-75520792D01*
X180698557Y-75488206D01*
X180723668Y-75453600D01*
X180743342Y-75406092D01*
X180753207Y-75356240D01*
X180755954Y-75306734D01*
X180755954Y-74808478D01*
X180754552Y-74772562D01*
X180746481Y-74720951D01*
X180728825Y-74671500D01*
X180698557Y-74627250D01*
X180675015Y-74606167D01*
X180632135Y-74582721D01*
X180580175Y-74569090D01*
X180526366Y-74565212D01*
X180291160Y-74565212D01*
X180291160Y-75409316D01*
X180170743Y-75409316D01*
X180179166Y-75367431D01*
X180181983Y-75317725D01*
X180181983Y-74565212D01*
X180033728Y-74565212D01*
X180033728Y-75329204D01*
X180032105Y-75355441D01*
X180013211Y-75402477D01*
X180003512Y-75411232D01*
X179955326Y-75424947D01*
X179941747Y-75424157D01*
X179897196Y-75402477D01*
X179884070Y-75379426D01*
X179876924Y-75329204D01*
X179876924Y-74565212D01*
X179722807Y-74565212D01*
X179722807Y-75317725D01*
X179619185Y-75317725D01*
X179497126Y-74565212D01*
X179288543Y-74565212D01*
X179182216Y-75221737D01*
X179129052Y-75550000D01*
X179054802Y-75550000D01*
X179054802Y-74565212D01*
X178917538Y-74565212D01*
X178917538Y-75160188D01*
X178914607Y-75160188D01*
X178764886Y-74565212D01*
X178571690Y-74565212D01*
X178571690Y-75550000D01*
X178482541Y-75550000D01*
X178481169Y-75546852D01*
X178468375Y-75498953D01*
X178466958Y-75481069D01*
X178465689Y-75430809D01*
X178465689Y-75258129D01*
X178464238Y-75216837D01*
X178457509Y-75167189D01*
X178442486Y-75119155D01*
X178439487Y-75112790D01*
X178408786Y-75073806D01*
X178363595Y-75050279D01*
X178363595Y-75047592D01*
X178381622Y-75038950D01*
X178421025Y-75006187D01*
X178447820Y-74959289D01*
X178460921Y-74906657D01*
X178464467Y-74852930D01*
X178464467Y-74792358D01*
X178463132Y-74757647D01*
X178455438Y-74708210D01*
X178438608Y-74661572D01*
X178409757Y-74620900D01*
X178382831Y-74599201D01*
X178333620Y-74577448D01*
X178285149Y-74567877D01*
X178236100Y-74565212D01*
X178007978Y-74565212D01*
X178007978Y-74987264D01*
X177843183Y-74987264D01*
X177774726Y-74565212D01*
X177566142Y-74565212D01*
X177459815Y-75221737D01*
X177406652Y-75550000D01*
X176891055Y-75550000D01*
X176925527Y-75548491D01*
X176974852Y-75539801D01*
X177021768Y-75520792D01*
X177063246Y-75488206D01*
X177088357Y-75453600D01*
X177108032Y-75406092D01*
X177117897Y-75356240D01*
X177120643Y-75306734D01*
X177120643Y-74808478D01*
X177119242Y-74772562D01*
X177111170Y-74720951D01*
X177093514Y-74671500D01*
X177063246Y-74627250D01*
X177039704Y-74606167D01*
X176996825Y-74582721D01*
X176944865Y-74569090D01*
X176891055Y-74565212D01*
X176655849Y-74565212D01*
X176655849Y-75409316D01*
X176549848Y-75409316D01*
X176549848Y-75258129D01*
X176548398Y-75216837D01*
X176541668Y-75167189D01*
X176526645Y-75119155D01*
X176523646Y-75112790D01*
X176492945Y-75073806D01*
X176447754Y-75050279D01*
X176447754Y-75047592D01*
X176465781Y-75038950D01*
X176505184Y-75006187D01*
X176531979Y-74959289D01*
X176545080Y-74906657D01*
X176548626Y-74852930D01*
X176548626Y-74792358D01*
X176547291Y-74757647D01*
X176539597Y-74708210D01*
X176522767Y-74661572D01*
X176493916Y-74620900D01*
X176466990Y-74599201D01*
X176417779Y-74577448D01*
X176369308Y-74567877D01*
X176320259Y-74565212D01*
X176092137Y-74565212D01*
X176092137Y-74987264D01*
X175927343Y-74987264D01*
X175858885Y-74565212D01*
X175650301Y-74565212D01*
X175543974Y-75221737D01*
X175490811Y-75550000D01*
X175348173Y-75550000D01*
X175496673Y-74565212D01*
X175355256Y-74565212D01*
X175254384Y-75332379D01*
X175251697Y-75332379D01*
X175150825Y-74565212D01*
X174995486Y-74565212D01*
X174797359Y-74565212D01*
X174755105Y-74553641D01*
X174701662Y-74549581D01*
X174661027Y-74551865D01*
X174612644Y-74562016D01*
X174566132Y-74583144D01*
X174528005Y-74614549D01*
X174501719Y-74650377D01*
X174481124Y-74698675D01*
X174470797Y-74748710D01*
X174468521Y-74787718D01*
X174467922Y-74797976D01*
X174364363Y-74797976D01*
X174364363Y-74565212D01*
X174227098Y-74565212D01*
X174227098Y-75160188D01*
X174224167Y-75160188D01*
X174074446Y-74565212D01*
X173881250Y-74565212D01*
X173881250Y-75550000D01*
X173807733Y-75550000D01*
X173647998Y-74565212D01*
X173439415Y-74565212D01*
X173333088Y-75221737D01*
X173279924Y-75550000D01*
X173037880Y-75550000D01*
X173037880Y-75127948D01*
X173236449Y-75127948D01*
X173236449Y-74987264D01*
X173037880Y-74987264D01*
X173037880Y-74705896D01*
X173291160Y-74705896D01*
X173291160Y-74565212D01*
X172883763Y-74565212D01*
X172883763Y-75550000D01*
X172772652Y-75550000D01*
X172772652Y-74438470D01*
X180867065Y-74438470D01*
X180867065Y-75676742D01*
G37*
G36*
X209498261Y-69074821D02*
G01*
X209544145Y-69097962D01*
X209562906Y-69139521D01*
X209567348Y-69189797D01*
X209567348Y-69274061D01*
X209565802Y-69301145D01*
X209547808Y-69348066D01*
X209536726Y-69357363D01*
X209487724Y-69369316D01*
X209399553Y-69369316D01*
X209399553Y-69072316D01*
X209467941Y-69072316D01*
X209498261Y-69074821D01*
G37*
G36*
X209488081Y-68666755D02*
G01*
X209533154Y-68690321D01*
X209546653Y-68719819D01*
X209551960Y-68769211D01*
X209551960Y-68825387D01*
X209549219Y-68860951D01*
X209528757Y-68907208D01*
X209508275Y-68922092D01*
X209459637Y-68931632D01*
X209399553Y-68931632D01*
X209399553Y-68665896D01*
X209473558Y-68665896D01*
X209488081Y-68666755D01*
G37*
G36*
X210098087Y-69181737D02*
G01*
X209959602Y-69181737D01*
X210026768Y-68701800D01*
X210029455Y-68701800D01*
X210098087Y-69181737D01*
G37*
G36*
X211914990Y-69621111D02*
G01*
X209134325Y-69621111D01*
X209134325Y-68931632D01*
X209245436Y-68931632D01*
X209245436Y-69369316D01*
X209245436Y-69510000D01*
X209487724Y-69510000D01*
X209770558Y-69510000D01*
X209913196Y-69510000D01*
X209941283Y-69322421D01*
X210116406Y-69322421D01*
X210144249Y-69510000D01*
X210298366Y-69510000D01*
X210161451Y-68665896D01*
X210266859Y-68665896D01*
X210427815Y-68665896D01*
X210427815Y-69510000D01*
X210581688Y-69510000D01*
X210581688Y-68665896D01*
X210742888Y-68665896D01*
X210789539Y-68665896D01*
X210950495Y-68665896D01*
X210950495Y-69510000D01*
X211104368Y-69510000D01*
X211104368Y-68962896D01*
X211319546Y-68962896D01*
X211319546Y-69072316D01*
X211507124Y-69072316D01*
X211507124Y-69259895D01*
X211616301Y-69259895D01*
X211616301Y-69072316D01*
X211803879Y-69072316D01*
X211803879Y-68962896D01*
X211616301Y-68962896D01*
X211616301Y-68759685D01*
X211507124Y-68759685D01*
X211507124Y-68962896D01*
X211319546Y-68962896D01*
X211104368Y-68962896D01*
X211104368Y-68665896D01*
X211265568Y-68665896D01*
X211265568Y-68525212D01*
X210789539Y-68525212D01*
X210789539Y-68665896D01*
X210742888Y-68665896D01*
X210742888Y-68525212D01*
X210266859Y-68525212D01*
X210266859Y-68665896D01*
X210161451Y-68665896D01*
X210138632Y-68525212D01*
X209930048Y-68525212D01*
X209823721Y-69181737D01*
X209770558Y-69510000D01*
X209487724Y-69510000D01*
X209522244Y-69508556D01*
X209571844Y-69500245D01*
X209619361Y-69482062D01*
X209661870Y-69450893D01*
X209679038Y-69431116D01*
X209704646Y-69383727D01*
X209717740Y-69332145D01*
X209721465Y-69279190D01*
X209721465Y-69195903D01*
X209719671Y-69156882D01*
X209710255Y-69105662D01*
X209689067Y-69056997D01*
X209651400Y-69016007D01*
X209606671Y-68992937D01*
X209606671Y-68990251D01*
X209650512Y-68962041D01*
X209681409Y-68920397D01*
X209692202Y-68894324D01*
X209703163Y-68844402D01*
X209706078Y-68794856D01*
X209706078Y-68754801D01*
X209704742Y-68719725D01*
X209697048Y-68669781D01*
X209680218Y-68622681D01*
X209651367Y-68581632D01*
X209624453Y-68559648D01*
X209575299Y-68537609D01*
X209526908Y-68527912D01*
X209477955Y-68525212D01*
X209245436Y-68525212D01*
X209245436Y-68931632D01*
X209134325Y-68931632D01*
X209134325Y-68414101D01*
X211914990Y-68414101D01*
X211914990Y-69621111D01*
G37*
G36*
X209639922Y-119984821D02*
G01*
X209685806Y-120007962D01*
X209704567Y-120049521D01*
X209709009Y-120099797D01*
X209709009Y-120184061D01*
X209707463Y-120211145D01*
X209689469Y-120258066D01*
X209678387Y-120267363D01*
X209629385Y-120279316D01*
X209541214Y-120279316D01*
X209541214Y-119982316D01*
X209609602Y-119982316D01*
X209639922Y-119984821D01*
G37*
G36*
X209629742Y-119576755D02*
G01*
X209674815Y-119600321D01*
X209688314Y-119629819D01*
X209693621Y-119679211D01*
X209693621Y-119735387D01*
X209690880Y-119770951D01*
X209670418Y-119817208D01*
X209649936Y-119832092D01*
X209601298Y-119841632D01*
X209541214Y-119841632D01*
X209541214Y-119575896D01*
X209615219Y-119575896D01*
X209629742Y-119576755D01*
G37*
G36*
X210239748Y-120091737D02*
G01*
X210101263Y-120091737D01*
X210168429Y-119611800D01*
X210171116Y-119611800D01*
X210239748Y-120091737D01*
G37*
G36*
X211775772Y-120531111D02*
G01*
X209275986Y-120531111D01*
X209275986Y-119841632D01*
X209387097Y-119841632D01*
X209387097Y-120279316D01*
X209387097Y-120420000D01*
X209629385Y-120420000D01*
X209912219Y-120420000D01*
X210054857Y-120420000D01*
X210082944Y-120232421D01*
X210258067Y-120232421D01*
X210285910Y-120420000D01*
X210440027Y-120420000D01*
X210303112Y-119575896D01*
X210408520Y-119575896D01*
X210569476Y-119575896D01*
X210569476Y-120420000D01*
X210723349Y-120420000D01*
X210723349Y-119575896D01*
X210884549Y-119575896D01*
X210931200Y-119575896D01*
X211092156Y-119575896D01*
X211092156Y-120420000D01*
X211246029Y-120420000D01*
X211246029Y-119997948D01*
X211356671Y-119997948D01*
X211664661Y-119997948D01*
X211664661Y-119857264D01*
X211356671Y-119857264D01*
X211356671Y-119997948D01*
X211246029Y-119997948D01*
X211246029Y-119575896D01*
X211407229Y-119575896D01*
X211407229Y-119435212D01*
X210931200Y-119435212D01*
X210931200Y-119575896D01*
X210884549Y-119575896D01*
X210884549Y-119435212D01*
X210408520Y-119435212D01*
X210408520Y-119575896D01*
X210303112Y-119575896D01*
X210280293Y-119435212D01*
X210071709Y-119435212D01*
X209965382Y-120091737D01*
X209912219Y-120420000D01*
X209629385Y-120420000D01*
X209663905Y-120418556D01*
X209713505Y-120410245D01*
X209761022Y-120392062D01*
X209803531Y-120360893D01*
X209820699Y-120341116D01*
X209846307Y-120293727D01*
X209859401Y-120242145D01*
X209863126Y-120189190D01*
X209863126Y-120105903D01*
X209861332Y-120066882D01*
X209851916Y-120015662D01*
X209830728Y-119966997D01*
X209793061Y-119926007D01*
X209748332Y-119902937D01*
X209748332Y-119900251D01*
X209792173Y-119872041D01*
X209823070Y-119830397D01*
X209833863Y-119804324D01*
X209844824Y-119754402D01*
X209847739Y-119704856D01*
X209847739Y-119664801D01*
X209846403Y-119629725D01*
X209838709Y-119579781D01*
X209821879Y-119532681D01*
X209793028Y-119491632D01*
X209766114Y-119469648D01*
X209716960Y-119447609D01*
X209668569Y-119437912D01*
X209619616Y-119435212D01*
X209387097Y-119435212D01*
X209387097Y-119841632D01*
X209275986Y-119841632D01*
X209275986Y-119324101D01*
X211775772Y-119324101D01*
X211775772Y-120531111D01*
G37*
G36*
X210892783Y-102186686D02*
G01*
X210937173Y-102208367D01*
X210950457Y-102231300D01*
X210957690Y-102281639D01*
X210957690Y-102793572D01*
X210956067Y-102819908D01*
X210937173Y-102866845D01*
X210927474Y-102875601D01*
X210879288Y-102889316D01*
X210800886Y-102889316D01*
X210800886Y-102185896D01*
X210879288Y-102185896D01*
X210892783Y-102186686D01*
G37*
G36*
X211611020Y-103141111D02*
G01*
X209545986Y-103141111D01*
X209545986Y-103030000D01*
X209657097Y-103030000D01*
X210064494Y-103030000D01*
X210138743Y-103030000D01*
X210558841Y-103030000D01*
X210558841Y-102889316D01*
X210646769Y-102889316D01*
X210646769Y-103030000D01*
X210881974Y-103030000D01*
X210916446Y-103028491D01*
X210965772Y-103019801D01*
X211012687Y-103000792D01*
X211054166Y-102968206D01*
X211079277Y-102933600D01*
X211098951Y-102886092D01*
X211108816Y-102836240D01*
X211111563Y-102786734D01*
X211111563Y-102607948D01*
X211191919Y-102607948D01*
X211499909Y-102607948D01*
X211499909Y-102467264D01*
X211191919Y-102467264D01*
X211191919Y-102607948D01*
X211111563Y-102607948D01*
X211111563Y-102288478D01*
X211110161Y-102252562D01*
X211102090Y-102200951D01*
X211084434Y-102151500D01*
X211054166Y-102107250D01*
X211030624Y-102086167D01*
X210987744Y-102062721D01*
X210935784Y-102049090D01*
X210881974Y-102045212D01*
X210646769Y-102045212D01*
X210646769Y-102889316D01*
X210558841Y-102889316D01*
X210292861Y-102889316D01*
X210292861Y-102592316D01*
X210504131Y-102592316D01*
X210504131Y-102451632D01*
X210292861Y-102451632D01*
X210292861Y-102185896D01*
X210558841Y-102185896D01*
X210558841Y-102045212D01*
X210138743Y-102045212D01*
X210138743Y-103030000D01*
X210064494Y-103030000D01*
X210064494Y-102889316D01*
X209811214Y-102889316D01*
X209811214Y-102045212D01*
X209657097Y-102045212D01*
X209657097Y-103030000D01*
X209545986Y-103030000D01*
X209545986Y-101934101D01*
X211611020Y-101934101D01*
X211611020Y-103141111D01*
G37*
G36*
X211044002Y-87197973D02*
G01*
X211077462Y-87236326D01*
X211085261Y-87287718D01*
X211085261Y-87827494D01*
X211081439Y-87865467D01*
X211054063Y-87911243D01*
X211005394Y-87924947D01*
X210966904Y-87917238D01*
X210933546Y-87878885D01*
X210925771Y-87827494D01*
X210925771Y-87287718D01*
X210929581Y-87249745D01*
X210956873Y-87203969D01*
X211005394Y-87190265D01*
X211044002Y-87197973D01*
G37*
G36*
X210457587Y-87206738D02*
G01*
X210502498Y-87229832D01*
X210515521Y-87256433D01*
X210521549Y-87307257D01*
X210521549Y-87383217D01*
X210518807Y-87418028D01*
X210498346Y-87463328D01*
X210477864Y-87477914D01*
X210429225Y-87487264D01*
X210373293Y-87487264D01*
X210373293Y-87205896D01*
X210443147Y-87205896D01*
X210457587Y-87206738D01*
G37*
G36*
X211588708Y-87206686D02*
G01*
X211633098Y-87228367D01*
X211646382Y-87251300D01*
X211653614Y-87301639D01*
X211653614Y-87813572D01*
X211651991Y-87839908D01*
X211633098Y-87886845D01*
X211623399Y-87895601D01*
X211575212Y-87909316D01*
X211496810Y-87909316D01*
X211496810Y-87205896D01*
X211575212Y-87205896D01*
X211588708Y-87206686D01*
G37*
G36*
X212441522Y-88176742D02*
G01*
X207565986Y-88176742D01*
X207565986Y-88050000D01*
X207677097Y-88050000D01*
X208097194Y-88050000D01*
X208185122Y-88050000D01*
X208592519Y-88050000D01*
X208666769Y-88050000D01*
X209086866Y-88050000D01*
X209086866Y-87909316D01*
X208820886Y-87909316D01*
X208820886Y-87612316D01*
X209032156Y-87612316D01*
X209032156Y-87471632D01*
X208820886Y-87471632D01*
X208820886Y-87292358D01*
X209165024Y-87292358D01*
X209165024Y-87822854D01*
X209166443Y-87857756D01*
X209174618Y-87908291D01*
X209192499Y-87957334D01*
X209223154Y-88002128D01*
X209242595Y-88020422D01*
X209289135Y-88047709D01*
X209339749Y-88061662D01*
X209391681Y-88065631D01*
X209418521Y-88064643D01*
X209472911Y-88055191D01*
X209518994Y-88035731D01*
X209560453Y-88002372D01*
X209583103Y-87972088D01*
X209604051Y-87925802D01*
X209614950Y-87877717D01*
X209618583Y-87823098D01*
X209618583Y-87683635D01*
X209473014Y-87683635D01*
X209473014Y-87834577D01*
X209470309Y-87865289D01*
X209445891Y-87910033D01*
X209396078Y-87924947D01*
X209366004Y-87920623D01*
X209328017Y-87886028D01*
X209318897Y-87834577D01*
X209318897Y-87282100D01*
X209321610Y-87250890D01*
X209346106Y-87205421D01*
X209396078Y-87190265D01*
X209429737Y-87196020D01*
X209465501Y-87233787D01*
X209473014Y-87282344D01*
X209473014Y-87396894D01*
X209618583Y-87396894D01*
X209618583Y-87292358D01*
X209617164Y-87257456D01*
X209608989Y-87206920D01*
X209608616Y-87205896D01*
X209669630Y-87205896D01*
X209830586Y-87205896D01*
X209830586Y-88050000D01*
X209984459Y-88050000D01*
X209984459Y-87487264D01*
X210219176Y-87487264D01*
X210219176Y-88050000D01*
X210373293Y-88050000D01*
X210373293Y-87627948D01*
X210426294Y-87627948D01*
X210456495Y-87630572D01*
X210501277Y-87654815D01*
X210518854Y-87697671D01*
X210523014Y-87748848D01*
X210523014Y-87929099D01*
X210523182Y-87954363D01*
X210525701Y-88005059D01*
X210536936Y-88050000D01*
X210693740Y-88050000D01*
X210692368Y-88046852D01*
X210679574Y-87998953D01*
X210678157Y-87981069D01*
X210676887Y-87930809D01*
X210676887Y-87758129D01*
X210675437Y-87716837D01*
X210668707Y-87667189D01*
X210653684Y-87619155D01*
X210650685Y-87612790D01*
X210619985Y-87573806D01*
X210574794Y-87550279D01*
X210574794Y-87547592D01*
X210592821Y-87538950D01*
X210632224Y-87506187D01*
X210659018Y-87459289D01*
X210672120Y-87406657D01*
X210675666Y-87352930D01*
X210675666Y-87297976D01*
X210771653Y-87297976D01*
X210771653Y-87817236D01*
X210773766Y-87859777D01*
X210783154Y-87910648D01*
X210802693Y-87959887D01*
X210831737Y-88000662D01*
X210856223Y-88022742D01*
X210899940Y-88047295D01*
X210952042Y-88061571D01*
X211005394Y-88065631D01*
X211046103Y-88063347D01*
X211094532Y-88053196D01*
X211141022Y-88032068D01*
X211179051Y-88000662D01*
X211205444Y-87964835D01*
X211226123Y-87916537D01*
X211227619Y-87909316D01*
X211342693Y-87909316D01*
X211342693Y-88050000D01*
X211577899Y-88050000D01*
X211910314Y-88050000D01*
X212330411Y-88050000D01*
X212330411Y-87909316D01*
X212064431Y-87909316D01*
X212064431Y-87612316D01*
X212275701Y-87612316D01*
X212275701Y-87471632D01*
X212064431Y-87471632D01*
X212064431Y-87205896D01*
X212330411Y-87205896D01*
X212330411Y-87065212D01*
X211910314Y-87065212D01*
X211910314Y-88050000D01*
X211577899Y-88050000D01*
X211612371Y-88048491D01*
X211661697Y-88039801D01*
X211708612Y-88020792D01*
X211750090Y-87988206D01*
X211775202Y-87953600D01*
X211794876Y-87906092D01*
X211804741Y-87856240D01*
X211807487Y-87806734D01*
X211807487Y-87308478D01*
X211806086Y-87272562D01*
X211798015Y-87220951D01*
X211780358Y-87171500D01*
X211750090Y-87127250D01*
X211726549Y-87106167D01*
X211683669Y-87082721D01*
X211631709Y-87069090D01*
X211577899Y-87065212D01*
X211342693Y-87065212D01*
X211342693Y-87909316D01*
X211227619Y-87909316D01*
X211236492Y-87866502D01*
X211239378Y-87817236D01*
X211239378Y-87297976D01*
X211237258Y-87255435D01*
X211227831Y-87204563D01*
X211208213Y-87155325D01*
X211179051Y-87114549D01*
X211154639Y-87092470D01*
X211110969Y-87067917D01*
X211058837Y-87053641D01*
X211005394Y-87049581D01*
X210964759Y-87051865D01*
X210916376Y-87062016D01*
X210869864Y-87083144D01*
X210831737Y-87114549D01*
X210805451Y-87150377D01*
X210784855Y-87198675D01*
X210774529Y-87248710D01*
X210772252Y-87287718D01*
X210771653Y-87297976D01*
X210675666Y-87297976D01*
X210675666Y-87292358D01*
X210674330Y-87257647D01*
X210666637Y-87208210D01*
X210649807Y-87161572D01*
X210620956Y-87120900D01*
X210594030Y-87099201D01*
X210544818Y-87077448D01*
X210496348Y-87067877D01*
X210447299Y-87065212D01*
X210219176Y-87065212D01*
X210219176Y-87487264D01*
X209984459Y-87487264D01*
X209984459Y-87205896D01*
X210145659Y-87205896D01*
X210145659Y-87065212D01*
X209669630Y-87065212D01*
X209669630Y-87205896D01*
X209608616Y-87205896D01*
X209591108Y-87157878D01*
X209560453Y-87113084D01*
X209541006Y-87094790D01*
X209494418Y-87067503D01*
X209443720Y-87053550D01*
X209391681Y-87049581D01*
X209364899Y-87050573D01*
X209310609Y-87060061D01*
X209264589Y-87079596D01*
X209223154Y-87113084D01*
X209200504Y-87143368D01*
X209179556Y-87189654D01*
X209168657Y-87237739D01*
X209165024Y-87292358D01*
X208820886Y-87292358D01*
X208820886Y-87205896D01*
X209086866Y-87205896D01*
X209086866Y-87065212D01*
X208666769Y-87065212D01*
X208666769Y-88050000D01*
X208592519Y-88050000D01*
X208592519Y-87909316D01*
X208339239Y-87909316D01*
X208339239Y-87065212D01*
X208185122Y-87065212D01*
X208185122Y-88050000D01*
X208097194Y-88050000D01*
X208097194Y-87909316D01*
X207831214Y-87909316D01*
X207831214Y-87612316D01*
X208042484Y-87612316D01*
X208042484Y-87471632D01*
X207831214Y-87471632D01*
X207831214Y-87205896D01*
X208097194Y-87205896D01*
X208097194Y-87065212D01*
X207677097Y-87065212D01*
X207677097Y-88050000D01*
X207565986Y-88050000D01*
X207565986Y-86938470D01*
X212441522Y-86938470D01*
X212441522Y-88176742D01*
G37*
G36*
X210801925Y-100736686D02*
G01*
X210846315Y-100758367D01*
X210859599Y-100781300D01*
X210866832Y-100831639D01*
X210866832Y-101343572D01*
X210865209Y-101369908D01*
X210846315Y-101416845D01*
X210836616Y-101425601D01*
X210788430Y-101439316D01*
X210710028Y-101439316D01*
X210710028Y-100735896D01*
X210788430Y-100735896D01*
X210801925Y-100736686D01*
G37*
G36*
X211699436Y-101691111D02*
G01*
X209455128Y-101691111D01*
X209455128Y-101580000D01*
X209566239Y-101580000D01*
X209973636Y-101580000D01*
X210047885Y-101580000D01*
X210467983Y-101580000D01*
X210467983Y-101439316D01*
X210555911Y-101439316D01*
X210555911Y-101580000D01*
X210791116Y-101580000D01*
X210825588Y-101578491D01*
X210874914Y-101569801D01*
X210921829Y-101550792D01*
X210963308Y-101518206D01*
X210988419Y-101483600D01*
X211008093Y-101436092D01*
X211017958Y-101386240D01*
X211020705Y-101336734D01*
X211020705Y-101032896D01*
X211103992Y-101032896D01*
X211103992Y-101142316D01*
X211291570Y-101142316D01*
X211291570Y-101329895D01*
X211400747Y-101329895D01*
X211400747Y-101142316D01*
X211588325Y-101142316D01*
X211588325Y-101032896D01*
X211400747Y-101032896D01*
X211400747Y-100829685D01*
X211291570Y-100829685D01*
X211291570Y-101032896D01*
X211103992Y-101032896D01*
X211020705Y-101032896D01*
X211020705Y-100838478D01*
X211019303Y-100802562D01*
X211011232Y-100750951D01*
X210993576Y-100701500D01*
X210963308Y-100657250D01*
X210939766Y-100636167D01*
X210896886Y-100612721D01*
X210844926Y-100599090D01*
X210791116Y-100595212D01*
X210555911Y-100595212D01*
X210555911Y-101439316D01*
X210467983Y-101439316D01*
X210202003Y-101439316D01*
X210202003Y-101142316D01*
X210413273Y-101142316D01*
X210413273Y-101001632D01*
X210202003Y-101001632D01*
X210202003Y-100735896D01*
X210467983Y-100735896D01*
X210467983Y-100595212D01*
X210047885Y-100595212D01*
X210047885Y-101580000D01*
X209973636Y-101580000D01*
X209973636Y-101439316D01*
X209720356Y-101439316D01*
X209720356Y-100595212D01*
X209566239Y-100595212D01*
X209566239Y-101580000D01*
X209455128Y-101580000D01*
X209455128Y-100484101D01*
X211699436Y-100484101D01*
X211699436Y-101691111D01*
G37*
X212369700Y-101900000D02*
X212374700Y-106350000D01*
X212379700Y-106780000D02*
X211939700Y-106350000D01*
X212809700Y-106350000D02*
X212379700Y-106780000D01*
X211939700Y-106350000D02*
X212809700Y-106350000D01*
X212379700Y-106780000D02*
X212809700Y-106350000D01*
G36*
X212452985Y-72746960D02*
G01*
X212503175Y-72804490D01*
X212514874Y-72881577D01*
X212514874Y-73691242D01*
X212509141Y-73748200D01*
X212468077Y-73816865D01*
X212395073Y-73837421D01*
X212337338Y-73825858D01*
X212287302Y-73768328D01*
X212275638Y-73691242D01*
X212275638Y-72881577D01*
X212281353Y-72824618D01*
X212322292Y-72755954D01*
X212395073Y-72735397D01*
X212452985Y-72746960D01*
G37*
G36*
X212912717Y-74215114D02*
G01*
X209798312Y-74215114D01*
X209798312Y-72547819D01*
X209964979Y-72547819D01*
X210187362Y-74025000D01*
X210494009Y-74025000D01*
X210688472Y-72735397D01*
X210909466Y-72735397D01*
X210909466Y-72899528D01*
X211150900Y-72899528D01*
X211150900Y-74025000D01*
X211381709Y-74025000D01*
X211667107Y-74025000D01*
X211889857Y-74025000D01*
X211889857Y-73813974D01*
X211667107Y-73813974D01*
X211667107Y-74025000D01*
X211381709Y-74025000D01*
X211381709Y-72896964D01*
X212044462Y-72896964D01*
X212044462Y-73675854D01*
X212047631Y-73739666D01*
X212061713Y-73815973D01*
X212091021Y-73889830D01*
X212134588Y-73950994D01*
X212171317Y-73984113D01*
X212236893Y-74020943D01*
X212315045Y-74042356D01*
X212395073Y-74048447D01*
X212456137Y-74045021D01*
X212528780Y-74029794D01*
X212598516Y-73998102D01*
X212655558Y-73950994D01*
X212695148Y-73897253D01*
X212726166Y-73824806D01*
X212741720Y-73749753D01*
X212746050Y-73675854D01*
X212746050Y-72896964D01*
X212742868Y-72833152D01*
X212728729Y-72756845D01*
X212699302Y-72682988D01*
X212655558Y-72621824D01*
X212618940Y-72588706D01*
X212553436Y-72551875D01*
X212475238Y-72530462D01*
X212395073Y-72524371D01*
X212334120Y-72527798D01*
X212261546Y-72543025D01*
X212191778Y-72574716D01*
X212134588Y-72621824D01*
X212095158Y-72675565D01*
X212064265Y-72748012D01*
X212048775Y-72823065D01*
X212045360Y-72881577D01*
X212044462Y-72896964D01*
X211381709Y-72896964D01*
X211381709Y-72547819D01*
X211226371Y-72547819D01*
X211204801Y-72598927D01*
X211163356Y-72662124D01*
X211136024Y-72686478D01*
X211067735Y-72718545D01*
X211056197Y-72721556D01*
X210983130Y-72732616D01*
X210909466Y-72735397D01*
X210688472Y-72735397D01*
X210716758Y-72547819D01*
X210504633Y-72547819D01*
X210353325Y-73698569D01*
X210349295Y-73698569D01*
X210197986Y-72547819D01*
X209964979Y-72547819D01*
X209798312Y-72547819D01*
X209798312Y-72357704D01*
X212912717Y-72357704D01*
X212912717Y-74215114D01*
G37*
G36*
X206555989Y-73368635D02*
G01*
X206627443Y-73391607D01*
X206668074Y-73453454D01*
X206678390Y-73532972D01*
X206678390Y-73672923D01*
X206668074Y-73752441D01*
X206622221Y-73817983D01*
X206547965Y-73837421D01*
X206539963Y-73837260D01*
X206468710Y-73814289D01*
X206428193Y-73752441D01*
X206417905Y-73672923D01*
X206417905Y-73532972D01*
X206428193Y-73453454D01*
X206473917Y-73387912D01*
X206547965Y-73368475D01*
X206555989Y-73368635D01*
G37*
G36*
X206617423Y-72753320D02*
G01*
X206660314Y-72813753D01*
X206669964Y-72887072D01*
X206669964Y-73005774D01*
X206662339Y-73072132D01*
X206622308Y-73136120D01*
X206547965Y-73157449D01*
X206478715Y-73139526D01*
X206435953Y-73079093D01*
X206426332Y-73005774D01*
X206426332Y-72887072D01*
X206433934Y-72820714D01*
X206473845Y-72756727D01*
X206547965Y-72735397D01*
X206617423Y-72753320D01*
G37*
G36*
X207452001Y-73286451D02*
G01*
X207502037Y-73344990D01*
X207513701Y-73423429D01*
X207513701Y-73690875D01*
X207507986Y-73747977D01*
X207467047Y-73816813D01*
X207394266Y-73837421D01*
X207336355Y-73825829D01*
X207286164Y-73768155D01*
X207274465Y-73690875D01*
X207274465Y-73423429D01*
X207281953Y-73358354D01*
X207321262Y-73295603D01*
X207394266Y-73274685D01*
X207452001Y-73286451D01*
G37*
G36*
X209124997Y-72746960D02*
G01*
X209175187Y-72804490D01*
X209186887Y-72881577D01*
X209186887Y-73691242D01*
X209181154Y-73748200D01*
X209140089Y-73816865D01*
X209067085Y-73837421D01*
X209009351Y-73825858D01*
X208959314Y-73768328D01*
X208947651Y-73691242D01*
X208947651Y-72881577D01*
X208953366Y-72824618D01*
X208994305Y-72755954D01*
X209067085Y-72735397D01*
X209124997Y-72746960D01*
G37*
G36*
X199877256Y-73372231D02*
G01*
X199946081Y-73406943D01*
X199974223Y-73469282D01*
X199980885Y-73544696D01*
X199980885Y-73671092D01*
X199978567Y-73711718D01*
X199951576Y-73782100D01*
X199934952Y-73796045D01*
X199861450Y-73813974D01*
X199729193Y-73813974D01*
X199729193Y-73368475D01*
X199831775Y-73368475D01*
X199877256Y-73372231D01*
G37*
G36*
X199861986Y-72760133D02*
G01*
X199929594Y-72795481D01*
X199949843Y-72839729D01*
X199957804Y-72913817D01*
X199957804Y-72998080D01*
X199953692Y-73051427D01*
X199923000Y-73120812D01*
X199892277Y-73143138D01*
X199819319Y-73157449D01*
X199729193Y-73157449D01*
X199729193Y-72758845D01*
X199840201Y-72758845D01*
X199861986Y-72760133D01*
G37*
G36*
X200776995Y-73532606D02*
G01*
X200569266Y-73532606D01*
X200670016Y-72812700D01*
X200674046Y-72812700D01*
X200776995Y-73532606D01*
G37*
G36*
X203758145Y-72760107D02*
G01*
X203825512Y-72794748D01*
X203845047Y-72834649D01*
X203854088Y-72910886D01*
X203854088Y-73024825D01*
X203849976Y-73077042D01*
X203819284Y-73144993D01*
X203788561Y-73166871D01*
X203715603Y-73180896D01*
X203631705Y-73180896D01*
X203631705Y-72758845D01*
X203736485Y-72758845D01*
X203758145Y-72760107D01*
G37*
G36*
X209584729Y-74215114D02*
G01*
X199331350Y-74215114D01*
X199331350Y-73157449D01*
X199498017Y-73157449D01*
X199498017Y-73813974D01*
X199498017Y-74025000D01*
X199861450Y-74025000D01*
X200285700Y-74025000D01*
X200499657Y-74025000D01*
X200541789Y-73743632D01*
X200804472Y-73743632D01*
X200846238Y-74025000D01*
X201077413Y-74025000D01*
X200872040Y-72758845D01*
X201030152Y-72758845D01*
X201271587Y-72758845D01*
X201271587Y-74025000D01*
X201502396Y-74025000D01*
X201502396Y-72758845D01*
X201744196Y-72758845D01*
X201814172Y-72758845D01*
X202055606Y-72758845D01*
X202055606Y-74025000D01*
X202286416Y-74025000D01*
X202638492Y-74025000D01*
X203268638Y-74025000D01*
X203268638Y-73813974D01*
X202869667Y-73813974D01*
X202869667Y-73368475D01*
X203186573Y-73368475D01*
X203186573Y-73180896D01*
X203400529Y-73180896D01*
X203400529Y-74025000D01*
X203631705Y-74025000D01*
X203631705Y-73391922D01*
X203711206Y-73391922D01*
X203756508Y-73395858D01*
X203823680Y-73432222D01*
X203850045Y-73496506D01*
X203856286Y-73573272D01*
X203856286Y-73843649D01*
X203856538Y-73881545D01*
X203860316Y-73957588D01*
X203877169Y-74025000D01*
X204112375Y-74025000D01*
X204110317Y-74020278D01*
X204091126Y-73948429D01*
X204089001Y-73921603D01*
X204087096Y-73846214D01*
X204087096Y-73587194D01*
X204084921Y-73525256D01*
X204074826Y-73450783D01*
X204052291Y-73378733D01*
X204047793Y-73369185D01*
X204001742Y-73310709D01*
X203933956Y-73275418D01*
X203933956Y-73271388D01*
X203960996Y-73258426D01*
X204020101Y-73209281D01*
X204060292Y-73138934D01*
X204079945Y-73059986D01*
X204085264Y-72979396D01*
X204085264Y-72888538D01*
X204083261Y-72836470D01*
X204071720Y-72762316D01*
X204046475Y-72692358D01*
X204003199Y-72631350D01*
X203962809Y-72598802D01*
X203888993Y-72566173D01*
X203816287Y-72551816D01*
X203742714Y-72547819D01*
X204145348Y-72547819D01*
X204424517Y-73405111D01*
X204424517Y-74025000D01*
X204655327Y-74025000D01*
X204655327Y-73405111D01*
X204873700Y-72735397D01*
X205456566Y-72735397D01*
X205456566Y-72899528D01*
X205698000Y-72899528D01*
X205698000Y-74025000D01*
X205928809Y-74025000D01*
X205928809Y-73557519D01*
X206186730Y-73557519D01*
X206186730Y-73686845D01*
X206190014Y-73749755D01*
X206204611Y-73824620D01*
X206234992Y-73896525D01*
X206280152Y-73955390D01*
X206325025Y-73991650D01*
X206394000Y-74025183D01*
X206465968Y-74042631D01*
X206547965Y-74048447D01*
X206610514Y-74045175D01*
X206685058Y-74030635D01*
X206756822Y-74000374D01*
X206815777Y-73955390D01*
X206852179Y-73910734D01*
X206885844Y-73841726D01*
X206903361Y-73769438D01*
X206909200Y-73686845D01*
X206909200Y-73557152D01*
X206908323Y-73523999D01*
X206897840Y-73445753D01*
X206873296Y-73374337D01*
X206866247Y-73360675D01*
X206819406Y-73300869D01*
X206758258Y-73257833D01*
X206758258Y-73253803D01*
X206783727Y-73237318D01*
X206839397Y-73181963D01*
X206877253Y-73110030D01*
X206895763Y-73033489D01*
X206900774Y-72957780D01*
X206900774Y-72909787D01*
X207043289Y-72909787D01*
X207043289Y-73423429D01*
X207043289Y-73675854D01*
X207046458Y-73739666D01*
X207060540Y-73815973D01*
X207089848Y-73889830D01*
X207133415Y-73950994D01*
X207170157Y-73984113D01*
X207235800Y-74020943D01*
X207314078Y-74042356D01*
X207394266Y-74048447D01*
X207455206Y-74044995D01*
X207527723Y-74029653D01*
X207597372Y-73997724D01*
X207654385Y-73950261D01*
X207693975Y-73896085D01*
X207724993Y-73822985D01*
X207740547Y-73747205D01*
X207744877Y-73672557D01*
X207744877Y-73405478D01*
X207744166Y-73377267D01*
X207887393Y-73377267D01*
X208105746Y-73377267D01*
X208113233Y-73311871D01*
X208152543Y-73248811D01*
X208225547Y-73227791D01*
X208283281Y-73239122D01*
X208333318Y-73295498D01*
X208344982Y-73371039D01*
X208344982Y-73696371D01*
X208339266Y-73751331D01*
X208298327Y-73817586D01*
X208225547Y-73837421D01*
X208167635Y-73826264D01*
X208117445Y-73770753D01*
X208105746Y-73696371D01*
X208105746Y-73565579D01*
X207887393Y-73565579D01*
X207887393Y-73680617D01*
X207890484Y-73744352D01*
X207904222Y-73820315D01*
X207932816Y-73893457D01*
X207975320Y-73953558D01*
X208011238Y-73985806D01*
X208075644Y-74021667D01*
X208152686Y-74042516D01*
X208231775Y-74048447D01*
X208282270Y-74046130D01*
X208354987Y-74032787D01*
X208424916Y-74003597D01*
X208487864Y-73953558D01*
X208526492Y-73900802D01*
X208556757Y-73829189D01*
X208571932Y-73754634D01*
X208576157Y-73680983D01*
X208576157Y-73350889D01*
X208575584Y-73321003D01*
X208568452Y-73247982D01*
X208548073Y-73170359D01*
X208510945Y-73102494D01*
X208464441Y-73057285D01*
X208392862Y-73025137D01*
X208320069Y-73016765D01*
X208311733Y-73016871D01*
X208235812Y-73029622D01*
X208167920Y-73068195D01*
X208120400Y-73125575D01*
X208116370Y-73125575D01*
X208128018Y-72896964D01*
X208716475Y-72896964D01*
X208716475Y-73675854D01*
X208719643Y-73739666D01*
X208733725Y-73815973D01*
X208763034Y-73889830D01*
X208806600Y-73950994D01*
X208843330Y-73984113D01*
X208908905Y-74020943D01*
X208987058Y-74042356D01*
X209067085Y-74048447D01*
X209128150Y-74045021D01*
X209200793Y-74029794D01*
X209270528Y-73998102D01*
X209327570Y-73950994D01*
X209367161Y-73897253D01*
X209398179Y-73824806D01*
X209413732Y-73749753D01*
X209418062Y-73675854D01*
X209418062Y-72896964D01*
X209414881Y-72833152D01*
X209400742Y-72756845D01*
X209371314Y-72682988D01*
X209327570Y-72621824D01*
X209290953Y-72588706D01*
X209225448Y-72551875D01*
X209147251Y-72530462D01*
X209067085Y-72524371D01*
X209006133Y-72527798D01*
X208933559Y-72543025D01*
X208863791Y-72574716D01*
X208806600Y-72621824D01*
X208767171Y-72675565D01*
X208736278Y-72748012D01*
X208720788Y-72823065D01*
X208717373Y-72881577D01*
X208716475Y-72896964D01*
X208128018Y-72896964D01*
X208135055Y-72758845D01*
X208538422Y-72758845D01*
X208538422Y-72547819D01*
X207929158Y-72547819D01*
X207887393Y-73377267D01*
X207744166Y-73377267D01*
X207743858Y-73365040D01*
X207735706Y-73291584D01*
X207716792Y-73220770D01*
X207679664Y-73151221D01*
X207638200Y-73108894D01*
X207568038Y-73074006D01*
X207488788Y-73063660D01*
X207452885Y-73065692D01*
X207382148Y-73085125D01*
X207319866Y-73130848D01*
X207278495Y-73193719D01*
X207274465Y-73193719D01*
X207274465Y-72914549D01*
X207278896Y-72848037D01*
X207305972Y-72774965D01*
X207328956Y-72754099D01*
X207402693Y-72735397D01*
X207460427Y-72746670D01*
X207510464Y-72802758D01*
X207522127Y-72877913D01*
X207522127Y-72919312D01*
X207740480Y-72919312D01*
X207740480Y-72892201D01*
X207737376Y-72828480D01*
X207723580Y-72752573D01*
X207694868Y-72679550D01*
X207652187Y-72619626D01*
X207616393Y-72587254D01*
X207552125Y-72551255D01*
X207475164Y-72530325D01*
X207396098Y-72524371D01*
X207313408Y-72530394D01*
X207225551Y-72554858D01*
X207154920Y-72598142D01*
X207101516Y-72660245D01*
X207065340Y-72741168D01*
X207048802Y-72819455D01*
X207043289Y-72909787D01*
X206900774Y-72909787D01*
X206900774Y-72895498D01*
X206897566Y-72830892D01*
X206883313Y-72754047D01*
X206853647Y-72680297D01*
X206809549Y-72619993D01*
X206772558Y-72587496D01*
X206706638Y-72551358D01*
X206628199Y-72530348D01*
X206547965Y-72524371D01*
X206486974Y-72527733D01*
X206414227Y-72542674D01*
X206344102Y-72573769D01*
X206286381Y-72619993D01*
X206246470Y-72673092D01*
X206215200Y-72745475D01*
X206199521Y-72821055D01*
X206195669Y-72887072D01*
X206195156Y-72895865D01*
X206195156Y-72958147D01*
X206196006Y-72991994D01*
X206206168Y-73071040D01*
X206229961Y-73141695D01*
X206232173Y-73146153D01*
X206277797Y-73209202D01*
X206338038Y-73254169D01*
X206338038Y-73258565D01*
X206323449Y-73266683D01*
X206265587Y-73312144D01*
X206222267Y-73374703D01*
X206208420Y-73408746D01*
X206191727Y-73480805D01*
X206188329Y-73532972D01*
X206186730Y-73557519D01*
X205928809Y-73557519D01*
X205928809Y-72547819D01*
X205773471Y-72547819D01*
X205751901Y-72598927D01*
X205710456Y-72662124D01*
X205683124Y-72686478D01*
X205614835Y-72718545D01*
X205603297Y-72721556D01*
X205530230Y-72732616D01*
X205456566Y-72735397D01*
X204873700Y-72735397D01*
X204934863Y-72547819D01*
X204709915Y-72547819D01*
X204552745Y-73103593D01*
X204548349Y-73103593D01*
X204390812Y-72547819D01*
X204145348Y-72547819D01*
X203742714Y-72547819D01*
X203400529Y-72547819D01*
X203400529Y-73180896D01*
X203186573Y-73180896D01*
X203186573Y-73157449D01*
X202869667Y-73157449D01*
X202869667Y-72758845D01*
X203268638Y-72758845D01*
X203268638Y-72547819D01*
X202638492Y-72547819D01*
X202638492Y-74025000D01*
X202286416Y-74025000D01*
X202286416Y-72758845D01*
X202528216Y-72758845D01*
X202528216Y-72547819D01*
X201814172Y-72547819D01*
X201814172Y-72758845D01*
X201744196Y-72758845D01*
X201744196Y-72547819D01*
X201030152Y-72547819D01*
X201030152Y-72758845D01*
X200872040Y-72758845D01*
X200837811Y-72547819D01*
X200524936Y-72547819D01*
X200365445Y-73532606D01*
X200285700Y-74025000D01*
X199861450Y-74025000D01*
X199913230Y-74022835D01*
X199987630Y-74010367D01*
X200058905Y-73983094D01*
X200122668Y-73936339D01*
X200148421Y-73906674D01*
X200186832Y-73835591D01*
X200206474Y-73758218D01*
X200212061Y-73678785D01*
X200212061Y-73553855D01*
X200209371Y-73495323D01*
X200195246Y-73418493D01*
X200163464Y-73345496D01*
X200106964Y-73284010D01*
X200039870Y-73249406D01*
X200039870Y-73245376D01*
X200105632Y-73203061D01*
X200151977Y-73140596D01*
X200168166Y-73101487D01*
X200184608Y-73026604D01*
X200188980Y-72952285D01*
X200188980Y-72892201D01*
X200186977Y-72839588D01*
X200175436Y-72764672D01*
X200150191Y-72694022D01*
X200106915Y-72632449D01*
X200066543Y-72599473D01*
X199992812Y-72566414D01*
X199920226Y-72551868D01*
X199846796Y-72547819D01*
X199498017Y-72547819D01*
X199498017Y-73157449D01*
X199331350Y-73157449D01*
X199331350Y-72357704D01*
X209584729Y-72357704D01*
X209584729Y-74215114D01*
G37*
G36*
X199331350Y-70657819D02*
G01*
X199562526Y-70657819D01*
X199562526Y-71923974D01*
X199942446Y-71923974D01*
X199942446Y-72135000D01*
X199331350Y-72135000D01*
X199331350Y-70657819D01*
G37*
G36*
X200792044Y-72135000D02*
G01*
X200560869Y-72135000D01*
X200519103Y-71853632D01*
X200256420Y-71853632D01*
X200214288Y-72135000D01*
X200000331Y-72135000D01*
X200080076Y-71642606D01*
X200283897Y-71642606D01*
X200491626Y-71642606D01*
X200388677Y-70922700D01*
X200384647Y-70922700D01*
X200283897Y-71642606D01*
X200080076Y-71642606D01*
X200239567Y-70657819D01*
X200552442Y-70657819D01*
X200792044Y-72135000D01*
G37*
G36*
X200902320Y-70657819D02*
G01*
X201232048Y-70657819D01*
X201378960Y-71721008D01*
X201383356Y-71721008D01*
X201530268Y-70657819D01*
X201859996Y-70657819D01*
X201859996Y-72135000D01*
X201641643Y-72135000D01*
X201641643Y-71032243D01*
X201637247Y-71032243D01*
X201469452Y-72135000D01*
X201276012Y-72135000D01*
X201108217Y-71032243D01*
X201103820Y-71032243D01*
X201103820Y-72135000D01*
X200902320Y-72135000D01*
X200902320Y-70657819D01*
G37*
G36*
X202453255Y-70663566D02*
G01*
X202531195Y-70683772D01*
X202601820Y-70723285D01*
X202630827Y-70749776D01*
X202676229Y-70815622D01*
X202702713Y-70889199D01*
X202714820Y-70965986D01*
X202716922Y-71019420D01*
X202716922Y-71163768D01*
X202712803Y-71237403D01*
X202698005Y-71311512D01*
X202668494Y-71382075D01*
X202630827Y-71433412D01*
X202568609Y-71481905D01*
X202498236Y-71510193D01*
X202424248Y-71523124D01*
X202372540Y-71525369D01*
X202263363Y-71525369D01*
X202263363Y-72135000D01*
X202032188Y-72135000D01*
X202032188Y-71314344D01*
X202263363Y-71314344D01*
X202372540Y-71314344D01*
X202443478Y-71295337D01*
X202457170Y-71283203D01*
X202483960Y-71212174D01*
X202485746Y-71177690D01*
X202485746Y-71005498D01*
X202475672Y-70932422D01*
X202457170Y-70899986D01*
X202389482Y-70869605D01*
X202372540Y-70868845D01*
X202263363Y-70868845D01*
X202263363Y-71314344D01*
X202032188Y-71314344D01*
X202032188Y-70657819D01*
X202372540Y-70657819D01*
X202453255Y-70663566D01*
G37*
G36*
X203592098Y-70640462D02*
G01*
X203670296Y-70661875D01*
X203735800Y-70698706D01*
X203772418Y-70731824D01*
X203816161Y-70792988D01*
X203845589Y-70866845D01*
X203859728Y-70943152D01*
X203862910Y-71006964D01*
X203862910Y-71785854D01*
X203858580Y-71859753D01*
X203843026Y-71934806D01*
X203812008Y-72007253D01*
X203772418Y-72060994D01*
X203715376Y-72108102D01*
X203645640Y-72139794D01*
X203572997Y-72155021D01*
X203511933Y-72158447D01*
X203431905Y-72152356D01*
X203353753Y-72130943D01*
X203288177Y-72094113D01*
X203251448Y-72060994D01*
X203207881Y-71999830D01*
X203178573Y-71925973D01*
X203164491Y-71849666D01*
X203161322Y-71785854D01*
X203161322Y-71006964D01*
X203162220Y-70991577D01*
X203392498Y-70991577D01*
X203392498Y-71801242D01*
X203404162Y-71878328D01*
X203454198Y-71935858D01*
X203511933Y-71947421D01*
X203584937Y-71926865D01*
X203626001Y-71858200D01*
X203631734Y-71801242D01*
X203631734Y-70991577D01*
X203620035Y-70914490D01*
X203569844Y-70856960D01*
X203511933Y-70845397D01*
X203439152Y-70865954D01*
X203398213Y-70934618D01*
X203392498Y-70991577D01*
X203162220Y-70991577D01*
X203165635Y-70933065D01*
X203181125Y-70858012D01*
X203212018Y-70785565D01*
X203251448Y-70731824D01*
X203308638Y-70684716D01*
X203378406Y-70653025D01*
X203450980Y-70637798D01*
X203511933Y-70634371D01*
X203592098Y-70640462D01*
G37*
G36*
X204353838Y-72158447D02*
G01*
X204274909Y-72152448D01*
X204197993Y-72131357D01*
X204133654Y-72095080D01*
X204097749Y-72062459D01*
X204055068Y-72001682D01*
X204026355Y-71927748D01*
X204012560Y-71850983D01*
X204009455Y-71786587D01*
X204009455Y-70657819D01*
X204240631Y-70657819D01*
X204240631Y-71803806D01*
X204251351Y-71879139D01*
X204271040Y-71913715D01*
X204337867Y-71946236D01*
X204358234Y-71947421D01*
X204430514Y-71926849D01*
X204445063Y-71913715D01*
X204473403Y-71843161D01*
X204475837Y-71803806D01*
X204475837Y-70657819D01*
X204698220Y-70657819D01*
X204698220Y-71786587D01*
X204693995Y-71861147D01*
X204678820Y-71936612D01*
X204648555Y-72009085D01*
X204609927Y-72062459D01*
X204547137Y-72113078D01*
X204477227Y-72142605D01*
X204404429Y-72156103D01*
X204353838Y-72158447D01*
G37*
G36*
X205042603Y-70868845D02*
G01*
X204801169Y-70868845D01*
X204801169Y-70657819D01*
X205515213Y-70657819D01*
X205515213Y-70868845D01*
X205273412Y-70868845D01*
X205273412Y-72135000D01*
X205042603Y-72135000D01*
X205042603Y-70868845D01*
G37*
G36*
X206059012Y-70663635D02*
G01*
X206136952Y-70684082D01*
X206201271Y-70719251D01*
X206236584Y-70750875D01*
X206281986Y-70817250D01*
X206308470Y-70891426D01*
X206320578Y-70968843D01*
X206322679Y-71022718D01*
X206322679Y-71770101D01*
X206318560Y-71844360D01*
X206303762Y-71919138D01*
X206274251Y-71990400D01*
X206236584Y-72042309D01*
X206174366Y-72091189D01*
X206103993Y-72119702D01*
X206030005Y-72132737D01*
X205978297Y-72135000D01*
X205625488Y-72135000D01*
X205625488Y-71923974D01*
X205856664Y-71923974D01*
X205974267Y-71923974D01*
X206046547Y-71903401D01*
X206061095Y-71890268D01*
X206089436Y-71819862D01*
X206091870Y-71780359D01*
X206091870Y-71012459D01*
X206081021Y-70936950D01*
X206061095Y-70902550D01*
X205994510Y-70870030D01*
X205974267Y-70868845D01*
X205856664Y-70868845D01*
X205856664Y-71923974D01*
X205625488Y-71923974D01*
X205625488Y-70657819D01*
X205978297Y-70657819D01*
X206059012Y-70663635D01*
G37*
G36*
X206890842Y-70640462D02*
G01*
X206969039Y-70661875D01*
X207034544Y-70698706D01*
X207071162Y-70731824D01*
X207114905Y-70792988D01*
X207144333Y-70866845D01*
X207158472Y-70943152D01*
X207161654Y-71006964D01*
X207161654Y-71785854D01*
X207157323Y-71859753D01*
X207141770Y-71934806D01*
X207110752Y-72007253D01*
X207071162Y-72060994D01*
X207014119Y-72108102D01*
X206944384Y-72139794D01*
X206871741Y-72155021D01*
X206810677Y-72158447D01*
X206730649Y-72152356D01*
X206652496Y-72130943D01*
X206586921Y-72094113D01*
X206550192Y-72060994D01*
X206506625Y-71999830D01*
X206477317Y-71925973D01*
X206463235Y-71849666D01*
X206460066Y-71785854D01*
X206460066Y-71006964D01*
X206460964Y-70991577D01*
X206691242Y-70991577D01*
X206691242Y-71801242D01*
X206702905Y-71878328D01*
X206752942Y-71935858D01*
X206810677Y-71947421D01*
X206883680Y-71926865D01*
X206924745Y-71858200D01*
X206930478Y-71801242D01*
X206930478Y-70991577D01*
X206918778Y-70914490D01*
X206868588Y-70856960D01*
X206810677Y-70845397D01*
X206737896Y-70865954D01*
X206696957Y-70934618D01*
X206691242Y-70991577D01*
X206460964Y-70991577D01*
X206464379Y-70933065D01*
X206479869Y-70858012D01*
X206510762Y-70785565D01*
X206550192Y-70731824D01*
X206607382Y-70684716D01*
X206677150Y-70653025D01*
X206749724Y-70637798D01*
X206810677Y-70634371D01*
X206890842Y-70640462D01*
G37*
G36*
X207730549Y-70640462D02*
G01*
X207808746Y-70661875D01*
X207874251Y-70698706D01*
X207910869Y-70731824D01*
X207954612Y-70792988D01*
X207984040Y-70866845D01*
X207998179Y-70943152D01*
X208001361Y-71006964D01*
X208001361Y-71785854D01*
X207997030Y-71859753D01*
X207981477Y-71934806D01*
X207950459Y-72007253D01*
X207910869Y-72060994D01*
X207853826Y-72108102D01*
X207784091Y-72139794D01*
X207711448Y-72155021D01*
X207650384Y-72158447D01*
X207570356Y-72152356D01*
X207492203Y-72130943D01*
X207426628Y-72094113D01*
X207389899Y-72060994D01*
X207346332Y-71999830D01*
X207317024Y-71925973D01*
X207302941Y-71849666D01*
X207299773Y-71785854D01*
X207299773Y-71006964D01*
X207300671Y-70991577D01*
X207530949Y-70991577D01*
X207530949Y-71801242D01*
X207542612Y-71878328D01*
X207592649Y-71935858D01*
X207650384Y-71947421D01*
X207723387Y-71926865D01*
X207764452Y-71858200D01*
X207770185Y-71801242D01*
X207770185Y-70991577D01*
X207758485Y-70914490D01*
X207708295Y-70856960D01*
X207650384Y-70845397D01*
X207577603Y-70865954D01*
X207536664Y-70934618D01*
X207530949Y-70991577D01*
X207300671Y-70991577D01*
X207304086Y-70933065D01*
X207319576Y-70858012D01*
X207350469Y-70785565D01*
X207389899Y-70731824D01*
X207447089Y-70684716D01*
X207516857Y-70653025D01*
X207589431Y-70637798D01*
X207650384Y-70634371D01*
X207730549Y-70640462D01*
G37*
G36*
X208572090Y-70661816D02*
G01*
X208644796Y-70676173D01*
X208718613Y-70708802D01*
X208759002Y-70741350D01*
X208802279Y-70802358D01*
X208827523Y-70872316D01*
X208839064Y-70946470D01*
X208841067Y-70998538D01*
X208841067Y-71089396D01*
X208835748Y-71169986D01*
X208816096Y-71248934D01*
X208775904Y-71319281D01*
X208716800Y-71368426D01*
X208689759Y-71381388D01*
X208689759Y-71385418D01*
X208757545Y-71420709D01*
X208803597Y-71479185D01*
X208808095Y-71488733D01*
X208830629Y-71560783D01*
X208840724Y-71635256D01*
X208842899Y-71697194D01*
X208842899Y-71956214D01*
X208844804Y-72031603D01*
X208846929Y-72058429D01*
X208866120Y-72130278D01*
X208868178Y-72135000D01*
X208632973Y-72135000D01*
X208616120Y-72067588D01*
X208612342Y-71991545D01*
X208612090Y-71953649D01*
X208612090Y-71683272D01*
X208605849Y-71606506D01*
X208579483Y-71542222D01*
X208512311Y-71505858D01*
X208467010Y-71501922D01*
X208387509Y-71501922D01*
X208387509Y-72135000D01*
X208156333Y-72135000D01*
X208156333Y-71290896D01*
X208387509Y-71290896D01*
X208471406Y-71290896D01*
X208544364Y-71276871D01*
X208575087Y-71254993D01*
X208605779Y-71187042D01*
X208609892Y-71134825D01*
X208609892Y-71020886D01*
X208600850Y-70944649D01*
X208581315Y-70904748D01*
X208513949Y-70870107D01*
X208492289Y-70868845D01*
X208387509Y-70868845D01*
X208387509Y-71290896D01*
X208156333Y-71290896D01*
X208156333Y-70657819D01*
X208498517Y-70657819D01*
X208572090Y-70661816D01*
G37*
G36*
X201270270Y-74697973D02*
G01*
X201303730Y-74736326D01*
X201311529Y-74787718D01*
X201311529Y-75327494D01*
X201307708Y-75365467D01*
X201280331Y-75411243D01*
X201231662Y-75424947D01*
X201193172Y-75417238D01*
X201159815Y-75378885D01*
X201152039Y-75327494D01*
X201152039Y-74787718D01*
X201155849Y-74749745D01*
X201183142Y-74703969D01*
X201231662Y-74690265D01*
X201270270Y-74697973D01*
G37*
G36*
X200137454Y-75221737D02*
G01*
X199998968Y-75221737D01*
X200066135Y-74741800D01*
X200068822Y-74741800D01*
X200137454Y-75221737D01*
G37*
G36*
X202348340Y-75221737D02*
G01*
X202209855Y-75221737D01*
X202277021Y-74741800D01*
X202279708Y-74741800D01*
X202348340Y-75221737D01*
G37*
G36*
X202860547Y-74706738D02*
G01*
X202905458Y-74729832D01*
X202918481Y-74756433D01*
X202924509Y-74807257D01*
X202924509Y-74883217D01*
X202921767Y-74918028D01*
X202901306Y-74963328D01*
X202880824Y-74977914D01*
X202832185Y-74987264D01*
X202776254Y-74987264D01*
X202776254Y-74705896D01*
X202846107Y-74705896D01*
X202860547Y-74706738D01*
G37*
G36*
X203431864Y-74706686D02*
G01*
X203476254Y-74728367D01*
X203489537Y-74751300D01*
X203496770Y-74801639D01*
X203496770Y-75313572D01*
X203495147Y-75339908D01*
X203476254Y-75386845D01*
X203466555Y-75395601D01*
X203418368Y-75409316D01*
X203339966Y-75409316D01*
X203339966Y-74705896D01*
X203418368Y-74705896D01*
X203431864Y-74706686D01*
G37*
G36*
X204264181Y-75221737D02*
G01*
X204125696Y-75221737D01*
X204192862Y-74741800D01*
X204195549Y-74741800D01*
X204264181Y-75221737D01*
G37*
G36*
X204776388Y-74706738D02*
G01*
X204821299Y-74729832D01*
X204834322Y-74756433D01*
X204840350Y-74807257D01*
X204840350Y-74883217D01*
X204837608Y-74918028D01*
X204817147Y-74963328D01*
X204796665Y-74977914D01*
X204748026Y-74987264D01*
X204692095Y-74987264D01*
X204692095Y-74705896D01*
X204761948Y-74705896D01*
X204776388Y-74706738D01*
G37*
G36*
X205986582Y-75221737D02*
G01*
X205848096Y-75221737D01*
X205915263Y-74741800D01*
X205917950Y-74741800D01*
X205986582Y-75221737D01*
G37*
G36*
X207067174Y-74706686D02*
G01*
X207111564Y-74728367D01*
X207124848Y-74751300D01*
X207132081Y-74801639D01*
X207132081Y-75313572D01*
X207130458Y-75339908D01*
X207111564Y-75386845D01*
X207101866Y-75395601D01*
X207053679Y-75409316D01*
X206975277Y-75409316D01*
X206975277Y-74705896D01*
X207053679Y-74705896D01*
X207067174Y-74706686D01*
G37*
G36*
X207397065Y-75676742D02*
G01*
X199302652Y-75676742D01*
X199302652Y-75550000D01*
X199413763Y-75550000D01*
X199567880Y-75550000D01*
X199809924Y-75550000D01*
X199952562Y-75550000D01*
X199980650Y-75362421D01*
X200155772Y-75362421D01*
X200183616Y-75550000D01*
X200337733Y-75550000D01*
X200411250Y-75550000D01*
X200548515Y-75550000D01*
X200548515Y-74841207D01*
X200551202Y-74841207D01*
X200736093Y-75550000D01*
X200894363Y-75550000D01*
X200894363Y-74797976D01*
X200997922Y-74797976D01*
X200997922Y-75317236D01*
X201000034Y-75359777D01*
X201009422Y-75410648D01*
X201028961Y-75459887D01*
X201058005Y-75500662D01*
X201082492Y-75522742D01*
X201126209Y-75547295D01*
X201178310Y-75561571D01*
X201231662Y-75565631D01*
X201272371Y-75563347D01*
X201320800Y-75553196D01*
X201367291Y-75532068D01*
X201405319Y-75500662D01*
X201431712Y-75464835D01*
X201452391Y-75416537D01*
X201462760Y-75366502D01*
X201465647Y-75317236D01*
X201465647Y-74797976D01*
X201463526Y-74755435D01*
X201454100Y-74704563D01*
X201434481Y-74655325D01*
X201405319Y-74614549D01*
X201380907Y-74592470D01*
X201337237Y-74567917D01*
X201327359Y-74565212D01*
X201525486Y-74565212D01*
X201673742Y-75550000D01*
X201878173Y-75550000D01*
X202020811Y-75550000D01*
X202163449Y-75550000D01*
X202191536Y-75362421D01*
X202366659Y-75362421D01*
X202394502Y-75550000D01*
X202548620Y-75550000D01*
X202457343Y-74987264D01*
X202622137Y-74987264D01*
X202622137Y-75550000D01*
X202776254Y-75550000D01*
X202776254Y-75127948D01*
X202829255Y-75127948D01*
X202859456Y-75130572D01*
X202904237Y-75154815D01*
X202921814Y-75197671D01*
X202925975Y-75248848D01*
X202925975Y-75429099D01*
X202926143Y-75454363D01*
X202928661Y-75505059D01*
X202939897Y-75550000D01*
X203096700Y-75550000D01*
X203095329Y-75546852D01*
X203082534Y-75498953D01*
X203081118Y-75481069D01*
X203079848Y-75430809D01*
X203079848Y-75409316D01*
X203185849Y-75409316D01*
X203185849Y-75550000D01*
X203421055Y-75550000D01*
X203936652Y-75550000D01*
X204079289Y-75550000D01*
X204107377Y-75362421D01*
X204282499Y-75362421D01*
X204310343Y-75550000D01*
X204464460Y-75550000D01*
X204373183Y-74987264D01*
X204537978Y-74987264D01*
X204537978Y-75550000D01*
X204692095Y-75550000D01*
X204692095Y-75127948D01*
X204745095Y-75127948D01*
X204775297Y-75130572D01*
X204820078Y-75154815D01*
X204837655Y-75197671D01*
X204841816Y-75248848D01*
X204841816Y-75429099D01*
X204841984Y-75454363D01*
X204844502Y-75505059D01*
X204855737Y-75550000D01*
X205012541Y-75550000D01*
X205101690Y-75550000D01*
X205238954Y-75550000D01*
X205238954Y-74841207D01*
X205241641Y-74841207D01*
X205426533Y-75550000D01*
X205584802Y-75550000D01*
X205659052Y-75550000D01*
X205801690Y-75550000D01*
X205829778Y-75362421D01*
X206004900Y-75362421D01*
X206032744Y-75550000D01*
X206186861Y-75550000D01*
X206149185Y-75317725D01*
X206252807Y-75317725D01*
X206254876Y-75360655D01*
X206264073Y-75411832D01*
X206283215Y-75461121D01*
X206311669Y-75501639D01*
X206335606Y-75523387D01*
X206378498Y-75547571D01*
X206429776Y-75561632D01*
X206482395Y-75565631D01*
X206516123Y-75564069D01*
X206564654Y-75555070D01*
X206611261Y-75535385D01*
X206653121Y-75501639D01*
X206678873Y-75466056D01*
X206699049Y-75417741D01*
X206700743Y-75409316D01*
X206821160Y-75409316D01*
X206821160Y-75550000D01*
X207056366Y-75550000D01*
X207090837Y-75548491D01*
X207140163Y-75539801D01*
X207187078Y-75520792D01*
X207228557Y-75488206D01*
X207253668Y-75453600D01*
X207273342Y-75406092D01*
X207283207Y-75356240D01*
X207285954Y-75306734D01*
X207285954Y-74808478D01*
X207284552Y-74772562D01*
X207276481Y-74720951D01*
X207258825Y-74671500D01*
X207228557Y-74627250D01*
X207205015Y-74606167D01*
X207162135Y-74582721D01*
X207110175Y-74569090D01*
X207056366Y-74565212D01*
X206821160Y-74565212D01*
X206821160Y-75409316D01*
X206700743Y-75409316D01*
X206709166Y-75367431D01*
X206711983Y-75317725D01*
X206711983Y-74565212D01*
X206563728Y-74565212D01*
X206563728Y-75329204D01*
X206562105Y-75355441D01*
X206543211Y-75402477D01*
X206533512Y-75411232D01*
X206485326Y-75424947D01*
X206471747Y-75424157D01*
X206427196Y-75402477D01*
X206414070Y-75379426D01*
X206406924Y-75329204D01*
X206406924Y-74565212D01*
X206252807Y-74565212D01*
X206252807Y-75317725D01*
X206149185Y-75317725D01*
X206027126Y-74565212D01*
X205818543Y-74565212D01*
X205712216Y-75221737D01*
X205659052Y-75550000D01*
X205584802Y-75550000D01*
X205584802Y-74565212D01*
X205447538Y-74565212D01*
X205447538Y-75160188D01*
X205444607Y-75160188D01*
X205294886Y-74565212D01*
X205101690Y-74565212D01*
X205101690Y-75550000D01*
X205012541Y-75550000D01*
X205011169Y-75546852D01*
X204998375Y-75498953D01*
X204996958Y-75481069D01*
X204995689Y-75430809D01*
X204995689Y-75258129D01*
X204994238Y-75216837D01*
X204987509Y-75167189D01*
X204972486Y-75119155D01*
X204969487Y-75112790D01*
X204938786Y-75073806D01*
X204893595Y-75050279D01*
X204893595Y-75047592D01*
X204911622Y-75038950D01*
X204951025Y-75006187D01*
X204977820Y-74959289D01*
X204990921Y-74906657D01*
X204994467Y-74852930D01*
X204994467Y-74792358D01*
X204993132Y-74757647D01*
X204985438Y-74708210D01*
X204968608Y-74661572D01*
X204939757Y-74620900D01*
X204912831Y-74599201D01*
X204863620Y-74577448D01*
X204815149Y-74567877D01*
X204766100Y-74565212D01*
X204537978Y-74565212D01*
X204537978Y-74987264D01*
X204373183Y-74987264D01*
X204304726Y-74565212D01*
X204096142Y-74565212D01*
X203989815Y-75221737D01*
X203936652Y-75550000D01*
X203421055Y-75550000D01*
X203455527Y-75548491D01*
X203504852Y-75539801D01*
X203551768Y-75520792D01*
X203593246Y-75488206D01*
X203618357Y-75453600D01*
X203638032Y-75406092D01*
X203647897Y-75356240D01*
X203650643Y-75306734D01*
X203650643Y-74808478D01*
X203649242Y-74772562D01*
X203641170Y-74720951D01*
X203623514Y-74671500D01*
X203593246Y-74627250D01*
X203569704Y-74606167D01*
X203526825Y-74582721D01*
X203474865Y-74569090D01*
X203421055Y-74565212D01*
X203185849Y-74565212D01*
X203185849Y-75409316D01*
X203079848Y-75409316D01*
X203079848Y-75258129D01*
X203078398Y-75216837D01*
X203071668Y-75167189D01*
X203056645Y-75119155D01*
X203053646Y-75112790D01*
X203022945Y-75073806D01*
X202977754Y-75050279D01*
X202977754Y-75047592D01*
X202995781Y-75038950D01*
X203035184Y-75006187D01*
X203061979Y-74959289D01*
X203075080Y-74906657D01*
X203078626Y-74852930D01*
X203078626Y-74792358D01*
X203077291Y-74757647D01*
X203069597Y-74708210D01*
X203052767Y-74661572D01*
X203023916Y-74620900D01*
X202996990Y-74599201D01*
X202947779Y-74577448D01*
X202899308Y-74567877D01*
X202850259Y-74565212D01*
X202622137Y-74565212D01*
X202622137Y-74987264D01*
X202457343Y-74987264D01*
X202388885Y-74565212D01*
X202180301Y-74565212D01*
X202073974Y-75221737D01*
X202020811Y-75550000D01*
X201878173Y-75550000D01*
X202026673Y-74565212D01*
X201885256Y-74565212D01*
X201784384Y-75332379D01*
X201781697Y-75332379D01*
X201680825Y-74565212D01*
X201525486Y-74565212D01*
X201327359Y-74565212D01*
X201285105Y-74553641D01*
X201231662Y-74549581D01*
X201191027Y-74551865D01*
X201142644Y-74562016D01*
X201096132Y-74583144D01*
X201058005Y-74614549D01*
X201031719Y-74650377D01*
X201011124Y-74698675D01*
X201000797Y-74748710D01*
X200998521Y-74787718D01*
X200997922Y-74797976D01*
X200894363Y-74797976D01*
X200894363Y-74565212D01*
X200757098Y-74565212D01*
X200757098Y-75160188D01*
X200754167Y-75160188D01*
X200604446Y-74565212D01*
X200411250Y-74565212D01*
X200411250Y-75550000D01*
X200337733Y-75550000D01*
X200177998Y-74565212D01*
X199969415Y-74565212D01*
X199863088Y-75221737D01*
X199809924Y-75550000D01*
X199567880Y-75550000D01*
X199567880Y-75127948D01*
X199766449Y-75127948D01*
X199766449Y-74987264D01*
X199567880Y-74987264D01*
X199567880Y-74705896D01*
X199821160Y-74705896D01*
X199821160Y-74565212D01*
X199413763Y-74565212D01*
X199413763Y-75550000D01*
X199302652Y-75550000D01*
X199302652Y-74438470D01*
X207397065Y-74438470D01*
X207397065Y-75676742D01*
G37*
D11*
X143390057Y-83535238D02*
X143342438Y-83630476D01*
X143342438Y-83630476D02*
X143247200Y-83725714D01*
X143247200Y-83725714D02*
X143104342Y-83868571D01*
X143104342Y-83868571D02*
X143056723Y-83963809D01*
X143056723Y-83963809D02*
X143056723Y-84059047D01*
X143294819Y-84011428D02*
X143247200Y-84106666D01*
X143247200Y-84106666D02*
X143151961Y-84201904D01*
X143151961Y-84201904D02*
X142961485Y-84249523D01*
X142961485Y-84249523D02*
X142628152Y-84249523D01*
X142628152Y-84249523D02*
X142437676Y-84201904D01*
X142437676Y-84201904D02*
X142342438Y-84106666D01*
X142342438Y-84106666D02*
X142294819Y-84011428D01*
X142294819Y-84011428D02*
X142294819Y-83820952D01*
X142294819Y-83820952D02*
X142342438Y-83725714D01*
X142342438Y-83725714D02*
X142437676Y-83630476D01*
X142437676Y-83630476D02*
X142628152Y-83582857D01*
X142628152Y-83582857D02*
X142961485Y-83582857D01*
X142961485Y-83582857D02*
X143151961Y-83630476D01*
X143151961Y-83630476D02*
X143247200Y-83725714D01*
X143247200Y-83725714D02*
X143294819Y-83820952D01*
X143294819Y-83820952D02*
X143294819Y-84011428D01*
X142390057Y-83201904D02*
X142342438Y-83154285D01*
X142342438Y-83154285D02*
X142294819Y-83059047D01*
X142294819Y-83059047D02*
X142294819Y-82820952D01*
X142294819Y-82820952D02*
X142342438Y-82725714D01*
X142342438Y-82725714D02*
X142390057Y-82678095D01*
X142390057Y-82678095D02*
X142485295Y-82630476D01*
X142485295Y-82630476D02*
X142580533Y-82630476D01*
X142580533Y-82630476D02*
X142723390Y-82678095D01*
X142723390Y-82678095D02*
X143294819Y-83249523D01*
X143294819Y-83249523D02*
X143294819Y-82630476D01*
X144474819Y-92263333D02*
X145189104Y-92263333D01*
X145189104Y-92263333D02*
X145331961Y-92310952D01*
X145331961Y-92310952D02*
X145427200Y-92406190D01*
X145427200Y-92406190D02*
X145474819Y-92549047D01*
X145474819Y-92549047D02*
X145474819Y-92644285D01*
X145474819Y-91263333D02*
X145474819Y-91834761D01*
X145474819Y-91549047D02*
X144474819Y-91549047D01*
X144474819Y-91549047D02*
X144617676Y-91644285D01*
X144617676Y-91644285D02*
X144712914Y-91739523D01*
X144712914Y-91739523D02*
X144760533Y-91834761D01*
X148323943Y-88963146D02*
X149134787Y-88963146D01*
X149134787Y-88963146D02*
X149230180Y-88915450D01*
X149230180Y-88915450D02*
X149277877Y-88867753D01*
X149277877Y-88867753D02*
X149325573Y-88772360D01*
X149325573Y-88772360D02*
X149325573Y-88581573D01*
X149325573Y-88581573D02*
X149277877Y-88486180D01*
X149277877Y-88486180D02*
X149230180Y-88438483D01*
X149230180Y-88438483D02*
X149134787Y-88390786D01*
X149134787Y-88390786D02*
X148323943Y-88390786D01*
X149325573Y-87389156D02*
X149325573Y-87961516D01*
X149325573Y-87675336D02*
X148323943Y-87675336D01*
X148323943Y-87675336D02*
X148467033Y-87770729D01*
X148467033Y-87770729D02*
X148562427Y-87866123D01*
X148562427Y-87866123D02*
X148610123Y-87961516D01*
X153514819Y-117813333D02*
X154229104Y-117813333D01*
X154229104Y-117813333D02*
X154371961Y-117860952D01*
X154371961Y-117860952D02*
X154467200Y-117956190D01*
X154467200Y-117956190D02*
X154514819Y-118099047D01*
X154514819Y-118099047D02*
X154514819Y-118194285D01*
X153514819Y-117432380D02*
X153514819Y-116813333D01*
X153514819Y-116813333D02*
X153895771Y-117146666D01*
X153895771Y-117146666D02*
X153895771Y-117003809D01*
X153895771Y-117003809D02*
X153943390Y-116908571D01*
X153943390Y-116908571D02*
X153991009Y-116860952D01*
X153991009Y-116860952D02*
X154086247Y-116813333D01*
X154086247Y-116813333D02*
X154324342Y-116813333D01*
X154324342Y-116813333D02*
X154419580Y-116860952D01*
X154419580Y-116860952D02*
X154467200Y-116908571D01*
X154467200Y-116908571D02*
X154514819Y-117003809D01*
X154514819Y-117003809D02*
X154514819Y-117289523D01*
X154514819Y-117289523D02*
X154467200Y-117384761D01*
X154467200Y-117384761D02*
X154419580Y-117432380D01*
X146913614Y-108674986D02*
X146913614Y-108974948D01*
X146913614Y-108974948D02*
X146283693Y-108974948D01*
X146913614Y-108135054D02*
X146913614Y-108495009D01*
X146913614Y-108315031D02*
X146283693Y-108315031D01*
X146283693Y-108315031D02*
X146373681Y-108375024D01*
X146373681Y-108375024D02*
X146433674Y-108435016D01*
X146433674Y-108435016D02*
X146463670Y-108495009D01*
X143390057Y-79685238D02*
X143342438Y-79780476D01*
X143342438Y-79780476D02*
X143247200Y-79875714D01*
X143247200Y-79875714D02*
X143104342Y-80018571D01*
X143104342Y-80018571D02*
X143056723Y-80113809D01*
X143056723Y-80113809D02*
X143056723Y-80209047D01*
X143294819Y-80161428D02*
X143247200Y-80256666D01*
X143247200Y-80256666D02*
X143151961Y-80351904D01*
X143151961Y-80351904D02*
X142961485Y-80399523D01*
X142961485Y-80399523D02*
X142628152Y-80399523D01*
X142628152Y-80399523D02*
X142437676Y-80351904D01*
X142437676Y-80351904D02*
X142342438Y-80256666D01*
X142342438Y-80256666D02*
X142294819Y-80161428D01*
X142294819Y-80161428D02*
X142294819Y-79970952D01*
X142294819Y-79970952D02*
X142342438Y-79875714D01*
X142342438Y-79875714D02*
X142437676Y-79780476D01*
X142437676Y-79780476D02*
X142628152Y-79732857D01*
X142628152Y-79732857D02*
X142961485Y-79732857D01*
X142961485Y-79732857D02*
X143151961Y-79780476D01*
X143151961Y-79780476D02*
X143247200Y-79875714D01*
X143247200Y-79875714D02*
X143294819Y-79970952D01*
X143294819Y-79970952D02*
X143294819Y-80161428D01*
X143294819Y-78780476D02*
X143294819Y-79351904D01*
X143294819Y-79066190D02*
X142294819Y-79066190D01*
X142294819Y-79066190D02*
X142437676Y-79161428D01*
X142437676Y-79161428D02*
X142532914Y-79256666D01*
X142532914Y-79256666D02*
X142580533Y-79351904D01*
X153654819Y-66943333D02*
X154369104Y-66943333D01*
X154369104Y-66943333D02*
X154511961Y-66990952D01*
X154511961Y-66990952D02*
X154607200Y-67086190D01*
X154607200Y-67086190D02*
X154654819Y-67229047D01*
X154654819Y-67229047D02*
X154654819Y-67324285D01*
X153750057Y-66514761D02*
X153702438Y-66467142D01*
X153702438Y-66467142D02*
X153654819Y-66371904D01*
X153654819Y-66371904D02*
X153654819Y-66133809D01*
X153654819Y-66133809D02*
X153702438Y-66038571D01*
X153702438Y-66038571D02*
X153750057Y-65990952D01*
X153750057Y-65990952D02*
X153845295Y-65943333D01*
X153845295Y-65943333D02*
X153940533Y-65943333D01*
X153940533Y-65943333D02*
X154083390Y-65990952D01*
X154083390Y-65990952D02*
X154654819Y-66562380D01*
X154654819Y-66562380D02*
X154654819Y-65943333D01*
X156284819Y-77951904D02*
X157094342Y-77951904D01*
X157094342Y-77951904D02*
X157189580Y-77904285D01*
X157189580Y-77904285D02*
X157237200Y-77856666D01*
X157237200Y-77856666D02*
X157284819Y-77761428D01*
X157284819Y-77761428D02*
X157284819Y-77570952D01*
X157284819Y-77570952D02*
X157237200Y-77475714D01*
X157237200Y-77475714D02*
X157189580Y-77428095D01*
X157189580Y-77428095D02*
X157094342Y-77380476D01*
X157094342Y-77380476D02*
X156284819Y-77380476D01*
X156284819Y-76999523D02*
X156284819Y-76380476D01*
X156284819Y-76380476D02*
X156665771Y-76713809D01*
X156665771Y-76713809D02*
X156665771Y-76570952D01*
X156665771Y-76570952D02*
X156713390Y-76475714D01*
X156713390Y-76475714D02*
X156761009Y-76428095D01*
X156761009Y-76428095D02*
X156856247Y-76380476D01*
X156856247Y-76380476D02*
X157094342Y-76380476D01*
X157094342Y-76380476D02*
X157189580Y-76428095D01*
X157189580Y-76428095D02*
X157237200Y-76475714D01*
X157237200Y-76475714D02*
X157284819Y-76570952D01*
X157284819Y-76570952D02*
X157284819Y-76856666D01*
X157284819Y-76856666D02*
X157237200Y-76951904D01*
X157237200Y-76951904D02*
X157189580Y-76999523D01*
X154134819Y-103061904D02*
X154944342Y-103061904D01*
X154944342Y-103061904D02*
X155039580Y-103014285D01*
X155039580Y-103014285D02*
X155087200Y-102966666D01*
X155087200Y-102966666D02*
X155134819Y-102871428D01*
X155134819Y-102871428D02*
X155134819Y-102680952D01*
X155134819Y-102680952D02*
X155087200Y-102585714D01*
X155087200Y-102585714D02*
X155039580Y-102538095D01*
X155039580Y-102538095D02*
X154944342Y-102490476D01*
X154944342Y-102490476D02*
X154134819Y-102490476D01*
X154230057Y-102061904D02*
X154182438Y-102014285D01*
X154182438Y-102014285D02*
X154134819Y-101919047D01*
X154134819Y-101919047D02*
X154134819Y-101680952D01*
X154134819Y-101680952D02*
X154182438Y-101585714D01*
X154182438Y-101585714D02*
X154230057Y-101538095D01*
X154230057Y-101538095D02*
X154325295Y-101490476D01*
X154325295Y-101490476D02*
X154420533Y-101490476D01*
X154420533Y-101490476D02*
X154563390Y-101538095D01*
X154563390Y-101538095D02*
X155134819Y-102109523D01*
X155134819Y-102109523D02*
X155134819Y-101490476D01*
X150814819Y-81531904D02*
X151624342Y-81531904D01*
X151624342Y-81531904D02*
X151719580Y-81484285D01*
X151719580Y-81484285D02*
X151767200Y-81436666D01*
X151767200Y-81436666D02*
X151814819Y-81341428D01*
X151814819Y-81341428D02*
X151814819Y-81150952D01*
X151814819Y-81150952D02*
X151767200Y-81055714D01*
X151767200Y-81055714D02*
X151719580Y-81008095D01*
X151719580Y-81008095D02*
X151624342Y-80960476D01*
X151624342Y-80960476D02*
X150814819Y-80960476D01*
X151148152Y-80055714D02*
X151814819Y-80055714D01*
X150767200Y-80293809D02*
X151481485Y-80531904D01*
X151481485Y-80531904D02*
X151481485Y-79912857D01*
X150404819Y-112808094D02*
X149404819Y-112808094D01*
X149404819Y-112808094D02*
X149404819Y-112569999D01*
X149404819Y-112569999D02*
X149452438Y-112427142D01*
X149452438Y-112427142D02*
X149547676Y-112331904D01*
X149547676Y-112331904D02*
X149642914Y-112284285D01*
X149642914Y-112284285D02*
X149833390Y-112236666D01*
X149833390Y-112236666D02*
X149976247Y-112236666D01*
X149976247Y-112236666D02*
X150166723Y-112284285D01*
X150166723Y-112284285D02*
X150261961Y-112331904D01*
X150261961Y-112331904D02*
X150357200Y-112427142D01*
X150357200Y-112427142D02*
X150404819Y-112569999D01*
X150404819Y-112569999D02*
X150404819Y-112808094D01*
X149738152Y-111379523D02*
X150404819Y-111379523D01*
X149357200Y-111617618D02*
X150071485Y-111855713D01*
X150071485Y-111855713D02*
X150071485Y-111236666D01*
X174853643Y-88963146D02*
X175664487Y-88963146D01*
X175664487Y-88963146D02*
X175759880Y-88915450D01*
X175759880Y-88915450D02*
X175807577Y-88867753D01*
X175807577Y-88867753D02*
X175855273Y-88772360D01*
X175855273Y-88772360D02*
X175855273Y-88581573D01*
X175855273Y-88581573D02*
X175807577Y-88486180D01*
X175807577Y-88486180D02*
X175759880Y-88438483D01*
X175759880Y-88438483D02*
X175664487Y-88390786D01*
X175664487Y-88390786D02*
X174853643Y-88390786D01*
X175855273Y-87389156D02*
X175855273Y-87961516D01*
X175855273Y-87675336D02*
X174853643Y-87675336D01*
X174853643Y-87675336D02*
X174996733Y-87770729D01*
X174996733Y-87770729D02*
X175092127Y-87866123D01*
X175092127Y-87866123D02*
X175139823Y-87961516D01*
X180044519Y-117813333D02*
X180758804Y-117813333D01*
X180758804Y-117813333D02*
X180901661Y-117860952D01*
X180901661Y-117860952D02*
X180996900Y-117956190D01*
X180996900Y-117956190D02*
X181044519Y-118099047D01*
X181044519Y-118099047D02*
X181044519Y-118194285D01*
X180044519Y-117432380D02*
X180044519Y-116813333D01*
X180044519Y-116813333D02*
X180425471Y-117146666D01*
X180425471Y-117146666D02*
X180425471Y-117003809D01*
X180425471Y-117003809D02*
X180473090Y-116908571D01*
X180473090Y-116908571D02*
X180520709Y-116860952D01*
X180520709Y-116860952D02*
X180615947Y-116813333D01*
X180615947Y-116813333D02*
X180854042Y-116813333D01*
X180854042Y-116813333D02*
X180949280Y-116860952D01*
X180949280Y-116860952D02*
X180996900Y-116908571D01*
X180996900Y-116908571D02*
X181044519Y-117003809D01*
X181044519Y-117003809D02*
X181044519Y-117289523D01*
X181044519Y-117289523D02*
X180996900Y-117384761D01*
X180996900Y-117384761D02*
X180949280Y-117432380D01*
X173443314Y-108674986D02*
X173443314Y-108974948D01*
X173443314Y-108974948D02*
X172813393Y-108974948D01*
X173443314Y-108135054D02*
X173443314Y-108495009D01*
X173443314Y-108315031D02*
X172813393Y-108315031D01*
X172813393Y-108315031D02*
X172903381Y-108375024D01*
X172903381Y-108375024D02*
X172963374Y-108435016D01*
X172963374Y-108435016D02*
X172993370Y-108495009D01*
X169919757Y-79685238D02*
X169872138Y-79780476D01*
X169872138Y-79780476D02*
X169776900Y-79875714D01*
X169776900Y-79875714D02*
X169634042Y-80018571D01*
X169634042Y-80018571D02*
X169586423Y-80113809D01*
X169586423Y-80113809D02*
X169586423Y-80209047D01*
X169824519Y-80161428D02*
X169776900Y-80256666D01*
X169776900Y-80256666D02*
X169681661Y-80351904D01*
X169681661Y-80351904D02*
X169491185Y-80399523D01*
X169491185Y-80399523D02*
X169157852Y-80399523D01*
X169157852Y-80399523D02*
X168967376Y-80351904D01*
X168967376Y-80351904D02*
X168872138Y-80256666D01*
X168872138Y-80256666D02*
X168824519Y-80161428D01*
X168824519Y-80161428D02*
X168824519Y-79970952D01*
X168824519Y-79970952D02*
X168872138Y-79875714D01*
X168872138Y-79875714D02*
X168967376Y-79780476D01*
X168967376Y-79780476D02*
X169157852Y-79732857D01*
X169157852Y-79732857D02*
X169491185Y-79732857D01*
X169491185Y-79732857D02*
X169681661Y-79780476D01*
X169681661Y-79780476D02*
X169776900Y-79875714D01*
X169776900Y-79875714D02*
X169824519Y-79970952D01*
X169824519Y-79970952D02*
X169824519Y-80161428D01*
X169824519Y-78780476D02*
X169824519Y-79351904D01*
X169824519Y-79066190D02*
X168824519Y-79066190D01*
X168824519Y-79066190D02*
X168967376Y-79161428D01*
X168967376Y-79161428D02*
X169062614Y-79256666D01*
X169062614Y-79256666D02*
X169110233Y-79351904D01*
X180184519Y-66943333D02*
X180898804Y-66943333D01*
X180898804Y-66943333D02*
X181041661Y-66990952D01*
X181041661Y-66990952D02*
X181136900Y-67086190D01*
X181136900Y-67086190D02*
X181184519Y-67229047D01*
X181184519Y-67229047D02*
X181184519Y-67324285D01*
X180279757Y-66514761D02*
X180232138Y-66467142D01*
X180232138Y-66467142D02*
X180184519Y-66371904D01*
X180184519Y-66371904D02*
X180184519Y-66133809D01*
X180184519Y-66133809D02*
X180232138Y-66038571D01*
X180232138Y-66038571D02*
X180279757Y-65990952D01*
X180279757Y-65990952D02*
X180374995Y-65943333D01*
X180374995Y-65943333D02*
X180470233Y-65943333D01*
X180470233Y-65943333D02*
X180613090Y-65990952D01*
X180613090Y-65990952D02*
X181184519Y-66562380D01*
X181184519Y-66562380D02*
X181184519Y-65943333D01*
X182814519Y-77951904D02*
X183624042Y-77951904D01*
X183624042Y-77951904D02*
X183719280Y-77904285D01*
X183719280Y-77904285D02*
X183766900Y-77856666D01*
X183766900Y-77856666D02*
X183814519Y-77761428D01*
X183814519Y-77761428D02*
X183814519Y-77570952D01*
X183814519Y-77570952D02*
X183766900Y-77475714D01*
X183766900Y-77475714D02*
X183719280Y-77428095D01*
X183719280Y-77428095D02*
X183624042Y-77380476D01*
X183624042Y-77380476D02*
X182814519Y-77380476D01*
X182814519Y-76999523D02*
X182814519Y-76380476D01*
X182814519Y-76380476D02*
X183195471Y-76713809D01*
X183195471Y-76713809D02*
X183195471Y-76570952D01*
X183195471Y-76570952D02*
X183243090Y-76475714D01*
X183243090Y-76475714D02*
X183290709Y-76428095D01*
X183290709Y-76428095D02*
X183385947Y-76380476D01*
X183385947Y-76380476D02*
X183624042Y-76380476D01*
X183624042Y-76380476D02*
X183719280Y-76428095D01*
X183719280Y-76428095D02*
X183766900Y-76475714D01*
X183766900Y-76475714D02*
X183814519Y-76570952D01*
X183814519Y-76570952D02*
X183814519Y-76856666D01*
X183814519Y-76856666D02*
X183766900Y-76951904D01*
X183766900Y-76951904D02*
X183719280Y-76999523D01*
X177344519Y-81531904D02*
X178154042Y-81531904D01*
X178154042Y-81531904D02*
X178249280Y-81484285D01*
X178249280Y-81484285D02*
X178296900Y-81436666D01*
X178296900Y-81436666D02*
X178344519Y-81341428D01*
X178344519Y-81341428D02*
X178344519Y-81150952D01*
X178344519Y-81150952D02*
X178296900Y-81055714D01*
X178296900Y-81055714D02*
X178249280Y-81008095D01*
X178249280Y-81008095D02*
X178154042Y-80960476D01*
X178154042Y-80960476D02*
X177344519Y-80960476D01*
X177677852Y-80055714D02*
X178344519Y-80055714D01*
X177296900Y-80293809D02*
X178011185Y-80531904D01*
X178011185Y-80531904D02*
X178011185Y-79912857D01*
X180664519Y-103061904D02*
X181474042Y-103061904D01*
X181474042Y-103061904D02*
X181569280Y-103014285D01*
X181569280Y-103014285D02*
X181616900Y-102966666D01*
X181616900Y-102966666D02*
X181664519Y-102871428D01*
X181664519Y-102871428D02*
X181664519Y-102680952D01*
X181664519Y-102680952D02*
X181616900Y-102585714D01*
X181616900Y-102585714D02*
X181569280Y-102538095D01*
X181569280Y-102538095D02*
X181474042Y-102490476D01*
X181474042Y-102490476D02*
X180664519Y-102490476D01*
X180759757Y-102061904D02*
X180712138Y-102014285D01*
X180712138Y-102014285D02*
X180664519Y-101919047D01*
X180664519Y-101919047D02*
X180664519Y-101680952D01*
X180664519Y-101680952D02*
X180712138Y-101585714D01*
X180712138Y-101585714D02*
X180759757Y-101538095D01*
X180759757Y-101538095D02*
X180854995Y-101490476D01*
X180854995Y-101490476D02*
X180950233Y-101490476D01*
X180950233Y-101490476D02*
X181093090Y-101538095D01*
X181093090Y-101538095D02*
X181664519Y-102109523D01*
X181664519Y-102109523D02*
X181664519Y-101490476D01*
X176934519Y-112808094D02*
X175934519Y-112808094D01*
X175934519Y-112808094D02*
X175934519Y-112569999D01*
X175934519Y-112569999D02*
X175982138Y-112427142D01*
X175982138Y-112427142D02*
X176077376Y-112331904D01*
X176077376Y-112331904D02*
X176172614Y-112284285D01*
X176172614Y-112284285D02*
X176363090Y-112236666D01*
X176363090Y-112236666D02*
X176505947Y-112236666D01*
X176505947Y-112236666D02*
X176696423Y-112284285D01*
X176696423Y-112284285D02*
X176791661Y-112331904D01*
X176791661Y-112331904D02*
X176886900Y-112427142D01*
X176886900Y-112427142D02*
X176934519Y-112569999D01*
X176934519Y-112569999D02*
X176934519Y-112808094D01*
X176267852Y-111379523D02*
X176934519Y-111379523D01*
X175886900Y-111617618D02*
X176601185Y-111855713D01*
X176601185Y-111855713D02*
X176601185Y-111236666D01*
X169919757Y-83535238D02*
X169872138Y-83630476D01*
X169872138Y-83630476D02*
X169776900Y-83725714D01*
X169776900Y-83725714D02*
X169634042Y-83868571D01*
X169634042Y-83868571D02*
X169586423Y-83963809D01*
X169586423Y-83963809D02*
X169586423Y-84059047D01*
X169824519Y-84011428D02*
X169776900Y-84106666D01*
X169776900Y-84106666D02*
X169681661Y-84201904D01*
X169681661Y-84201904D02*
X169491185Y-84249523D01*
X169491185Y-84249523D02*
X169157852Y-84249523D01*
X169157852Y-84249523D02*
X168967376Y-84201904D01*
X168967376Y-84201904D02*
X168872138Y-84106666D01*
X168872138Y-84106666D02*
X168824519Y-84011428D01*
X168824519Y-84011428D02*
X168824519Y-83820952D01*
X168824519Y-83820952D02*
X168872138Y-83725714D01*
X168872138Y-83725714D02*
X168967376Y-83630476D01*
X168967376Y-83630476D02*
X169157852Y-83582857D01*
X169157852Y-83582857D02*
X169491185Y-83582857D01*
X169491185Y-83582857D02*
X169681661Y-83630476D01*
X169681661Y-83630476D02*
X169776900Y-83725714D01*
X169776900Y-83725714D02*
X169824519Y-83820952D01*
X169824519Y-83820952D02*
X169824519Y-84011428D01*
X168919757Y-83201904D02*
X168872138Y-83154285D01*
X168872138Y-83154285D02*
X168824519Y-83059047D01*
X168824519Y-83059047D02*
X168824519Y-82820952D01*
X168824519Y-82820952D02*
X168872138Y-82725714D01*
X168872138Y-82725714D02*
X168919757Y-82678095D01*
X168919757Y-82678095D02*
X169014995Y-82630476D01*
X169014995Y-82630476D02*
X169110233Y-82630476D01*
X169110233Y-82630476D02*
X169253090Y-82678095D01*
X169253090Y-82678095D02*
X169824519Y-83249523D01*
X169824519Y-83249523D02*
X169824519Y-82630476D01*
X171004519Y-92263333D02*
X171718804Y-92263333D01*
X171718804Y-92263333D02*
X171861661Y-92310952D01*
X171861661Y-92310952D02*
X171956900Y-92406190D01*
X171956900Y-92406190D02*
X172004519Y-92549047D01*
X172004519Y-92549047D02*
X172004519Y-92644285D01*
X172004519Y-91263333D02*
X172004519Y-91834761D01*
X172004519Y-91549047D02*
X171004519Y-91549047D01*
X171004519Y-91549047D02*
X171147376Y-91644285D01*
X171147376Y-91644285D02*
X171242614Y-91739523D01*
X171242614Y-91739523D02*
X171290233Y-91834761D01*
X201383643Y-88963146D02*
X202194487Y-88963146D01*
X202194487Y-88963146D02*
X202289880Y-88915450D01*
X202289880Y-88915450D02*
X202337577Y-88867753D01*
X202337577Y-88867753D02*
X202385273Y-88772360D01*
X202385273Y-88772360D02*
X202385273Y-88581573D01*
X202385273Y-88581573D02*
X202337577Y-88486180D01*
X202337577Y-88486180D02*
X202289880Y-88438483D01*
X202289880Y-88438483D02*
X202194487Y-88390786D01*
X202194487Y-88390786D02*
X201383643Y-88390786D01*
X202385273Y-87389156D02*
X202385273Y-87961516D01*
X202385273Y-87675336D02*
X201383643Y-87675336D01*
X201383643Y-87675336D02*
X201526733Y-87770729D01*
X201526733Y-87770729D02*
X201622127Y-87866123D01*
X201622127Y-87866123D02*
X201669823Y-87961516D01*
X206574519Y-117813333D02*
X207288804Y-117813333D01*
X207288804Y-117813333D02*
X207431661Y-117860952D01*
X207431661Y-117860952D02*
X207526900Y-117956190D01*
X207526900Y-117956190D02*
X207574519Y-118099047D01*
X207574519Y-118099047D02*
X207574519Y-118194285D01*
X206574519Y-117432380D02*
X206574519Y-116813333D01*
X206574519Y-116813333D02*
X206955471Y-117146666D01*
X206955471Y-117146666D02*
X206955471Y-117003809D01*
X206955471Y-117003809D02*
X207003090Y-116908571D01*
X207003090Y-116908571D02*
X207050709Y-116860952D01*
X207050709Y-116860952D02*
X207145947Y-116813333D01*
X207145947Y-116813333D02*
X207384042Y-116813333D01*
X207384042Y-116813333D02*
X207479280Y-116860952D01*
X207479280Y-116860952D02*
X207526900Y-116908571D01*
X207526900Y-116908571D02*
X207574519Y-117003809D01*
X207574519Y-117003809D02*
X207574519Y-117289523D01*
X207574519Y-117289523D02*
X207526900Y-117384761D01*
X207526900Y-117384761D02*
X207479280Y-117432380D01*
X199973314Y-108674986D02*
X199973314Y-108974948D01*
X199973314Y-108974948D02*
X199343393Y-108974948D01*
X199973314Y-108135054D02*
X199973314Y-108495009D01*
X199973314Y-108315031D02*
X199343393Y-108315031D01*
X199343393Y-108315031D02*
X199433381Y-108375024D01*
X199433381Y-108375024D02*
X199493374Y-108435016D01*
X199493374Y-108435016D02*
X199523370Y-108495009D01*
X196449757Y-79685238D02*
X196402138Y-79780476D01*
X196402138Y-79780476D02*
X196306900Y-79875714D01*
X196306900Y-79875714D02*
X196164042Y-80018571D01*
X196164042Y-80018571D02*
X196116423Y-80113809D01*
X196116423Y-80113809D02*
X196116423Y-80209047D01*
X196354519Y-80161428D02*
X196306900Y-80256666D01*
X196306900Y-80256666D02*
X196211661Y-80351904D01*
X196211661Y-80351904D02*
X196021185Y-80399523D01*
X196021185Y-80399523D02*
X195687852Y-80399523D01*
X195687852Y-80399523D02*
X195497376Y-80351904D01*
X195497376Y-80351904D02*
X195402138Y-80256666D01*
X195402138Y-80256666D02*
X195354519Y-80161428D01*
X195354519Y-80161428D02*
X195354519Y-79970952D01*
X195354519Y-79970952D02*
X195402138Y-79875714D01*
X195402138Y-79875714D02*
X195497376Y-79780476D01*
X195497376Y-79780476D02*
X195687852Y-79732857D01*
X195687852Y-79732857D02*
X196021185Y-79732857D01*
X196021185Y-79732857D02*
X196211661Y-79780476D01*
X196211661Y-79780476D02*
X196306900Y-79875714D01*
X196306900Y-79875714D02*
X196354519Y-79970952D01*
X196354519Y-79970952D02*
X196354519Y-80161428D01*
X196354519Y-78780476D02*
X196354519Y-79351904D01*
X196354519Y-79066190D02*
X195354519Y-79066190D01*
X195354519Y-79066190D02*
X195497376Y-79161428D01*
X195497376Y-79161428D02*
X195592614Y-79256666D01*
X195592614Y-79256666D02*
X195640233Y-79351904D01*
X206714519Y-66943333D02*
X207428804Y-66943333D01*
X207428804Y-66943333D02*
X207571661Y-66990952D01*
X207571661Y-66990952D02*
X207666900Y-67086190D01*
X207666900Y-67086190D02*
X207714519Y-67229047D01*
X207714519Y-67229047D02*
X207714519Y-67324285D01*
X206809757Y-66514761D02*
X206762138Y-66467142D01*
X206762138Y-66467142D02*
X206714519Y-66371904D01*
X206714519Y-66371904D02*
X206714519Y-66133809D01*
X206714519Y-66133809D02*
X206762138Y-66038571D01*
X206762138Y-66038571D02*
X206809757Y-65990952D01*
X206809757Y-65990952D02*
X206904995Y-65943333D01*
X206904995Y-65943333D02*
X207000233Y-65943333D01*
X207000233Y-65943333D02*
X207143090Y-65990952D01*
X207143090Y-65990952D02*
X207714519Y-66562380D01*
X207714519Y-66562380D02*
X207714519Y-65943333D01*
X209344519Y-77951904D02*
X210154042Y-77951904D01*
X210154042Y-77951904D02*
X210249280Y-77904285D01*
X210249280Y-77904285D02*
X210296900Y-77856666D01*
X210296900Y-77856666D02*
X210344519Y-77761428D01*
X210344519Y-77761428D02*
X210344519Y-77570952D01*
X210344519Y-77570952D02*
X210296900Y-77475714D01*
X210296900Y-77475714D02*
X210249280Y-77428095D01*
X210249280Y-77428095D02*
X210154042Y-77380476D01*
X210154042Y-77380476D02*
X209344519Y-77380476D01*
X209344519Y-76999523D02*
X209344519Y-76380476D01*
X209344519Y-76380476D02*
X209725471Y-76713809D01*
X209725471Y-76713809D02*
X209725471Y-76570952D01*
X209725471Y-76570952D02*
X209773090Y-76475714D01*
X209773090Y-76475714D02*
X209820709Y-76428095D01*
X209820709Y-76428095D02*
X209915947Y-76380476D01*
X209915947Y-76380476D02*
X210154042Y-76380476D01*
X210154042Y-76380476D02*
X210249280Y-76428095D01*
X210249280Y-76428095D02*
X210296900Y-76475714D01*
X210296900Y-76475714D02*
X210344519Y-76570952D01*
X210344519Y-76570952D02*
X210344519Y-76856666D01*
X210344519Y-76856666D02*
X210296900Y-76951904D01*
X210296900Y-76951904D02*
X210249280Y-76999523D01*
X203874519Y-81531904D02*
X204684042Y-81531904D01*
X204684042Y-81531904D02*
X204779280Y-81484285D01*
X204779280Y-81484285D02*
X204826900Y-81436666D01*
X204826900Y-81436666D02*
X204874519Y-81341428D01*
X204874519Y-81341428D02*
X204874519Y-81150952D01*
X204874519Y-81150952D02*
X204826900Y-81055714D01*
X204826900Y-81055714D02*
X204779280Y-81008095D01*
X204779280Y-81008095D02*
X204684042Y-80960476D01*
X204684042Y-80960476D02*
X203874519Y-80960476D01*
X204207852Y-80055714D02*
X204874519Y-80055714D01*
X203826900Y-80293809D02*
X204541185Y-80531904D01*
X204541185Y-80531904D02*
X204541185Y-79912857D01*
X207194519Y-103061904D02*
X208004042Y-103061904D01*
X208004042Y-103061904D02*
X208099280Y-103014285D01*
X208099280Y-103014285D02*
X208146900Y-102966666D01*
X208146900Y-102966666D02*
X208194519Y-102871428D01*
X208194519Y-102871428D02*
X208194519Y-102680952D01*
X208194519Y-102680952D02*
X208146900Y-102585714D01*
X208146900Y-102585714D02*
X208099280Y-102538095D01*
X208099280Y-102538095D02*
X208004042Y-102490476D01*
X208004042Y-102490476D02*
X207194519Y-102490476D01*
X207289757Y-102061904D02*
X207242138Y-102014285D01*
X207242138Y-102014285D02*
X207194519Y-101919047D01*
X207194519Y-101919047D02*
X207194519Y-101680952D01*
X207194519Y-101680952D02*
X207242138Y-101585714D01*
X207242138Y-101585714D02*
X207289757Y-101538095D01*
X207289757Y-101538095D02*
X207384995Y-101490476D01*
X207384995Y-101490476D02*
X207480233Y-101490476D01*
X207480233Y-101490476D02*
X207623090Y-101538095D01*
X207623090Y-101538095D02*
X208194519Y-102109523D01*
X208194519Y-102109523D02*
X208194519Y-101490476D01*
X203464519Y-112808094D02*
X202464519Y-112808094D01*
X202464519Y-112808094D02*
X202464519Y-112569999D01*
X202464519Y-112569999D02*
X202512138Y-112427142D01*
X202512138Y-112427142D02*
X202607376Y-112331904D01*
X202607376Y-112331904D02*
X202702614Y-112284285D01*
X202702614Y-112284285D02*
X202893090Y-112236666D01*
X202893090Y-112236666D02*
X203035947Y-112236666D01*
X203035947Y-112236666D02*
X203226423Y-112284285D01*
X203226423Y-112284285D02*
X203321661Y-112331904D01*
X203321661Y-112331904D02*
X203416900Y-112427142D01*
X203416900Y-112427142D02*
X203464519Y-112569999D01*
X203464519Y-112569999D02*
X203464519Y-112808094D01*
X202797852Y-111379523D02*
X203464519Y-111379523D01*
X202416900Y-111617618D02*
X203131185Y-111855713D01*
X203131185Y-111855713D02*
X203131185Y-111236666D01*
X196449757Y-83535238D02*
X196402138Y-83630476D01*
X196402138Y-83630476D02*
X196306900Y-83725714D01*
X196306900Y-83725714D02*
X196164042Y-83868571D01*
X196164042Y-83868571D02*
X196116423Y-83963809D01*
X196116423Y-83963809D02*
X196116423Y-84059047D01*
X196354519Y-84011428D02*
X196306900Y-84106666D01*
X196306900Y-84106666D02*
X196211661Y-84201904D01*
X196211661Y-84201904D02*
X196021185Y-84249523D01*
X196021185Y-84249523D02*
X195687852Y-84249523D01*
X195687852Y-84249523D02*
X195497376Y-84201904D01*
X195497376Y-84201904D02*
X195402138Y-84106666D01*
X195402138Y-84106666D02*
X195354519Y-84011428D01*
X195354519Y-84011428D02*
X195354519Y-83820952D01*
X195354519Y-83820952D02*
X195402138Y-83725714D01*
X195402138Y-83725714D02*
X195497376Y-83630476D01*
X195497376Y-83630476D02*
X195687852Y-83582857D01*
X195687852Y-83582857D02*
X196021185Y-83582857D01*
X196021185Y-83582857D02*
X196211661Y-83630476D01*
X196211661Y-83630476D02*
X196306900Y-83725714D01*
X196306900Y-83725714D02*
X196354519Y-83820952D01*
X196354519Y-83820952D02*
X196354519Y-84011428D01*
X195449757Y-83201904D02*
X195402138Y-83154285D01*
X195402138Y-83154285D02*
X195354519Y-83059047D01*
X195354519Y-83059047D02*
X195354519Y-82820952D01*
X195354519Y-82820952D02*
X195402138Y-82725714D01*
X195402138Y-82725714D02*
X195449757Y-82678095D01*
X195449757Y-82678095D02*
X195544995Y-82630476D01*
X195544995Y-82630476D02*
X195640233Y-82630476D01*
X195640233Y-82630476D02*
X195783090Y-82678095D01*
X195783090Y-82678095D02*
X196354519Y-83249523D01*
X196354519Y-83249523D02*
X196354519Y-82630476D01*
X197534519Y-92263333D02*
X198248804Y-92263333D01*
X198248804Y-92263333D02*
X198391661Y-92310952D01*
X198391661Y-92310952D02*
X198486900Y-92406190D01*
X198486900Y-92406190D02*
X198534519Y-92549047D01*
X198534519Y-92549047D02*
X198534519Y-92644285D01*
X198534519Y-91263333D02*
X198534519Y-91834761D01*
X198534519Y-91549047D02*
X197534519Y-91549047D01*
X197534519Y-91549047D02*
X197677376Y-91644285D01*
X197677376Y-91644285D02*
X197772614Y-91739523D01*
X197772614Y-91739523D02*
X197820233Y-91834761D01*
D12*
%TO.C,C7*%
X149264165Y-84000000D02*
X149495835Y-84000000D01*
X149264165Y-83280000D02*
X149495835Y-83280000D01*
%TO.C,Q2*%
X147550000Y-85277500D02*
X147070000Y-85277500D01*
X147310000Y-84947500D01*
X147550000Y-85277500D01*
G36*
X147550000Y-85277500D02*
G01*
X147070000Y-85277500D01*
X147310000Y-84947500D01*
X147550000Y-85277500D01*
G37*
X146010000Y-84997500D02*
X146810000Y-84997500D01*
X146010000Y-84997500D02*
X145210000Y-84997500D01*
X146010000Y-81877500D02*
X146810000Y-81877500D01*
X146010000Y-81877500D02*
X145210000Y-81877500D01*
D13*
%TO.C,J1*%
X140985000Y-87360000D02*
X139485000Y-87360000D01*
X139485000Y-96500000D02*
X140985000Y-96500000D01*
X136885000Y-87360000D02*
X135505000Y-87360000D01*
X135505000Y-96500000D02*
X136885000Y-96500000D01*
X135505000Y-87360000D02*
X135505000Y-96500000D01*
%TO.C,U1*%
X146580000Y-89760000D02*
G75*
G02*
X146380000Y-89760000I-100000J0D01*
G01*
X146380000Y-89760000D02*
G75*
G02*
X146580000Y-89760000I100000J0D01*
G01*
D14*
X150380000Y-92510000D02*
X150380000Y-92305000D01*
X150380000Y-89410000D02*
X150380000Y-89615000D01*
X150380000Y-89410000D02*
X147280000Y-89410000D01*
X147280000Y-92510000D02*
X150380000Y-92510000D01*
X147280000Y-92510000D02*
X147280000Y-92305000D01*
X147280000Y-89410000D02*
X147280000Y-89615000D01*
D12*
%TO.C,C5*%
X156714165Y-81760000D02*
X156945835Y-81760000D01*
X156714165Y-81040000D02*
X156945835Y-81040000D01*
%TO.C,R3*%
X149725000Y-95277621D02*
X149725000Y-94942379D01*
X148965000Y-95277621D02*
X148965000Y-94942379D01*
%TO.C,D3*%
X146886390Y-111105061D02*
X145908213Y-108417540D01*
X145082181Y-111761741D02*
X146886390Y-111105061D01*
X144104003Y-109074219D02*
X145082181Y-111761741D01*
%TO.C,C2*%
X152230000Y-89524165D02*
X152230000Y-89755835D01*
X151510000Y-89524165D02*
X151510000Y-89755835D01*
%TO.C,C3*%
X150500000Y-105858335D02*
X150500000Y-105626665D01*
X149780000Y-105858335D02*
X149780000Y-105626665D01*
%TO.C,R7*%
X157192379Y-104510000D02*
X157527621Y-104510000D01*
X157192379Y-103750000D02*
X157527621Y-103750000D01*
%TO.C,R4*%
X148590000Y-94942379D02*
X148590000Y-95277621D01*
X147830000Y-94942379D02*
X147830000Y-95277621D01*
%TO.C,R2*%
X147455000Y-95277621D02*
X147455000Y-94942379D01*
X146695000Y-95277621D02*
X146695000Y-94942379D01*
%TO.C,D2*%
X145538832Y-107402673D02*
X144560655Y-104715152D01*
X143734623Y-108059353D02*
X145538832Y-107402673D01*
X142756445Y-105371831D02*
X143734623Y-108059353D01*
%TO.C,R6*%
X157527621Y-105810000D02*
X157192379Y-105810000D01*
X157527621Y-105050000D02*
X157192379Y-105050000D01*
%TO.C,R10*%
X158012379Y-82960000D02*
X158347621Y-82960000D01*
X158012379Y-82200000D02*
X158347621Y-82200000D01*
%TO.C,R5*%
X150860000Y-94942379D02*
X150860000Y-95277621D01*
X150100000Y-94942379D02*
X150100000Y-95277621D01*
%TO.C,R14*%
X149517621Y-79700000D02*
X149182379Y-79700000D01*
X149517621Y-78940000D02*
X149182379Y-78940000D01*
%TO.C,D1*%
X144191275Y-103700286D02*
X143213098Y-101012765D01*
X142387066Y-104356966D02*
X144191275Y-103700286D01*
X141408888Y-101669444D02*
X142387066Y-104356966D01*
%TO.C,R13*%
X154030000Y-98722379D02*
X154030000Y-99057621D01*
X153270000Y-98722379D02*
X153270000Y-99057621D01*
%TO.C,R8*%
X150530000Y-103134879D02*
X150530000Y-103470121D01*
X149770000Y-103134879D02*
X149770000Y-103470121D01*
%TO.C,Q1*%
X147532500Y-81440000D02*
X147052500Y-81440000D01*
X147292500Y-81110000D01*
X147532500Y-81440000D01*
G36*
X147532500Y-81440000D02*
G01*
X147052500Y-81440000D01*
X147292500Y-81110000D01*
X147532500Y-81440000D01*
G37*
X145992500Y-81160000D02*
X146792500Y-81160000D01*
X145992500Y-81160000D02*
X145192500Y-81160000D01*
X145992500Y-78040000D02*
X146792500Y-78040000D01*
X145992500Y-78040000D02*
X145192500Y-78040000D01*
D13*
%TO.C,U3*%
X158840000Y-80200000D02*
G75*
G02*
X158640000Y-80200000I-100000J0D01*
G01*
X158640000Y-80200000D02*
G75*
G02*
X158840000Y-80200000I100000J0D01*
G01*
D14*
X157110000Y-80520000D02*
X156530000Y-80520000D01*
X157110000Y-78380000D02*
X156530000Y-78380000D01*
D12*
%TO.C,R9*%
X152857621Y-102710000D02*
X152522379Y-102710000D01*
X152857621Y-101950000D02*
X152522379Y-101950000D01*
%TO.C,R12*%
X154037621Y-79180000D02*
X153702379Y-79180000D01*
X154037621Y-78420000D02*
X153702379Y-78420000D01*
%TO.C,C1*%
X146100000Y-89524165D02*
X146100000Y-89755835D01*
X145380000Y-89524165D02*
X145380000Y-89755835D01*
D13*
%TO.C,U2*%
X155665000Y-106020000D02*
G75*
G02*
X155465000Y-106020000I-100000J0D01*
G01*
X155465000Y-106020000D02*
G75*
G02*
X155665000Y-106020000I100000J0D01*
G01*
D14*
X154110000Y-106635000D02*
X152410000Y-106635000D01*
X152410000Y-103505000D02*
X154110000Y-103505000D01*
D12*
%TO.C,C6*%
X153754165Y-80420000D02*
X153985835Y-80420000D01*
X153754165Y-79700000D02*
X153985835Y-79700000D01*
%TO.C,R15*%
X151660000Y-82882379D02*
X151660000Y-83217621D01*
X150900000Y-82882379D02*
X150900000Y-83217621D01*
%TO.C,R11*%
X155837621Y-82960000D02*
X155502379Y-82960000D01*
X155837621Y-82200000D02*
X155502379Y-82200000D01*
%TO.C,U4*%
X150530000Y-80655000D02*
X150250000Y-80655000D01*
X150250000Y-80375000D01*
X150530000Y-80655000D01*
G36*
X150530000Y-80655000D02*
G01*
X150250000Y-80655000D01*
X150250000Y-80375000D01*
X150530000Y-80655000D01*
G37*
X150250000Y-80975000D02*
X150250000Y-82335000D01*
X148450000Y-80770000D02*
X148450000Y-82340000D01*
%TO.C,C4*%
X157244165Y-107080000D02*
X157475835Y-107080000D01*
X157244165Y-106360000D02*
X157475835Y-106360000D01*
%TO.C,SW1*%
X152160000Y-97480000D02*
X152160000Y-98810000D01*
X150830000Y-97480000D02*
X152160000Y-97480000D01*
X149560000Y-100140000D02*
X146960000Y-100140000D01*
X149560000Y-97480000D02*
X149560000Y-100140000D01*
X149560000Y-97480000D02*
X146960000Y-97480000D01*
X146960000Y-97480000D02*
X146960000Y-100140000D01*
%TO.C,R1*%
X146320000Y-95277621D02*
X146320000Y-94942379D01*
X145560000Y-95277621D02*
X145560000Y-94942379D01*
%TO.C,D4*%
X153980000Y-107990000D02*
X153980000Y-113500000D01*
X153980000Y-107990000D02*
X150680000Y-107990000D01*
X150680000Y-107990000D02*
X150680000Y-113500000D01*
%TO.C,D3*%
X173416090Y-111105061D02*
X172437913Y-108417540D01*
X171611881Y-111761741D02*
X173416090Y-111105061D01*
X170633703Y-109074219D02*
X171611881Y-111761741D01*
%TO.C,C2*%
X178759700Y-89524165D02*
X178759700Y-89755835D01*
X178039700Y-89524165D02*
X178039700Y-89755835D01*
%TO.C,C3*%
X177029700Y-105858335D02*
X177029700Y-105626665D01*
X176309700Y-105858335D02*
X176309700Y-105626665D01*
%TO.C,R7*%
X183722079Y-104510000D02*
X184057321Y-104510000D01*
X183722079Y-103750000D02*
X184057321Y-103750000D01*
%TO.C,R3*%
X176254700Y-95277621D02*
X176254700Y-94942379D01*
X175494700Y-95277621D02*
X175494700Y-94942379D01*
D13*
%TO.C,U1*%
X173109700Y-89760000D02*
G75*
G02*
X172909700Y-89760000I-100000J0D01*
G01*
X172909700Y-89760000D02*
G75*
G02*
X173109700Y-89760000I100000J0D01*
G01*
D14*
X176909700Y-92510000D02*
X176909700Y-92305000D01*
X176909700Y-89410000D02*
X176909700Y-89615000D01*
X176909700Y-89410000D02*
X173809700Y-89410000D01*
X173809700Y-92510000D02*
X176909700Y-92510000D01*
X173809700Y-92510000D02*
X173809700Y-92305000D01*
X173809700Y-89410000D02*
X173809700Y-89615000D01*
D12*
%TO.C,C5*%
X183243865Y-81760000D02*
X183475535Y-81760000D01*
X183243865Y-81040000D02*
X183475535Y-81040000D01*
%TO.C,D2*%
X172068532Y-107402673D02*
X171090355Y-104715152D01*
X170264323Y-108059353D02*
X172068532Y-107402673D01*
X169286145Y-105371831D02*
X170264323Y-108059353D01*
%TO.C,R5*%
X177389700Y-94942379D02*
X177389700Y-95277621D01*
X176629700Y-94942379D02*
X176629700Y-95277621D01*
%TO.C,R2*%
X173984700Y-95277621D02*
X173984700Y-94942379D01*
X173224700Y-95277621D02*
X173224700Y-94942379D01*
%TO.C,R6*%
X184057321Y-105810000D02*
X183722079Y-105810000D01*
X184057321Y-105050000D02*
X183722079Y-105050000D01*
%TO.C,D1*%
X170720975Y-103700286D02*
X169742798Y-101012765D01*
X168916766Y-104356966D02*
X170720975Y-103700286D01*
X167938588Y-101669444D02*
X168916766Y-104356966D01*
%TO.C,R4*%
X175119700Y-94942379D02*
X175119700Y-95277621D01*
X174359700Y-94942379D02*
X174359700Y-95277621D01*
%TO.C,R10*%
X184542079Y-82960000D02*
X184877321Y-82960000D01*
X184542079Y-82200000D02*
X184877321Y-82200000D01*
%TO.C,R13*%
X180559700Y-98722379D02*
X180559700Y-99057621D01*
X179799700Y-98722379D02*
X179799700Y-99057621D01*
%TO.C,R14*%
X176047321Y-79700000D02*
X175712079Y-79700000D01*
X176047321Y-78940000D02*
X175712079Y-78940000D01*
%TO.C,R8*%
X177059700Y-103134879D02*
X177059700Y-103470121D01*
X176299700Y-103134879D02*
X176299700Y-103470121D01*
%TO.C,Q1*%
X174062200Y-81440000D02*
X173582200Y-81440000D01*
X173822200Y-81110000D01*
X174062200Y-81440000D01*
G36*
X174062200Y-81440000D02*
G01*
X173582200Y-81440000D01*
X173822200Y-81110000D01*
X174062200Y-81440000D01*
G37*
X172522200Y-81160000D02*
X173322200Y-81160000D01*
X172522200Y-81160000D02*
X171722200Y-81160000D01*
X172522200Y-78040000D02*
X173322200Y-78040000D01*
X172522200Y-78040000D02*
X171722200Y-78040000D01*
D13*
%TO.C,U3*%
X185369700Y-80200000D02*
G75*
G02*
X185169700Y-80200000I-100000J0D01*
G01*
X185169700Y-80200000D02*
G75*
G02*
X185369700Y-80200000I100000J0D01*
G01*
D14*
X183639700Y-80520000D02*
X183059700Y-80520000D01*
X183639700Y-78380000D02*
X183059700Y-78380000D01*
D12*
%TO.C,C6*%
X180283865Y-80420000D02*
X180515535Y-80420000D01*
X180283865Y-79700000D02*
X180515535Y-79700000D01*
%TO.C,R11*%
X182367321Y-82960000D02*
X182032079Y-82960000D01*
X182367321Y-82200000D02*
X182032079Y-82200000D01*
%TO.C,U4*%
X177059700Y-80655000D02*
X176779700Y-80655000D01*
X176779700Y-80375000D01*
X177059700Y-80655000D01*
G36*
X177059700Y-80655000D02*
G01*
X176779700Y-80655000D01*
X176779700Y-80375000D01*
X177059700Y-80655000D01*
G37*
X176779700Y-80975000D02*
X176779700Y-82335000D01*
X174979700Y-80770000D02*
X174979700Y-82340000D01*
%TO.C,R1*%
X172849700Y-95277621D02*
X172849700Y-94942379D01*
X172089700Y-95277621D02*
X172089700Y-94942379D01*
%TO.C,R9*%
X179387321Y-102710000D02*
X179052079Y-102710000D01*
X179387321Y-101950000D02*
X179052079Y-101950000D01*
%TO.C,R12*%
X180567321Y-79180000D02*
X180232079Y-79180000D01*
X180567321Y-78420000D02*
X180232079Y-78420000D01*
%TO.C,C1*%
X172629700Y-89524165D02*
X172629700Y-89755835D01*
X171909700Y-89524165D02*
X171909700Y-89755835D01*
D13*
%TO.C,U2*%
X182194700Y-106020000D02*
G75*
G02*
X181994700Y-106020000I-100000J0D01*
G01*
X181994700Y-106020000D02*
G75*
G02*
X182194700Y-106020000I100000J0D01*
G01*
D14*
X180639700Y-106635000D02*
X178939700Y-106635000D01*
X178939700Y-103505000D02*
X180639700Y-103505000D01*
D12*
%TO.C,R15*%
X178189700Y-82882379D02*
X178189700Y-83217621D01*
X177429700Y-82882379D02*
X177429700Y-83217621D01*
%TO.C,C4*%
X183773865Y-107080000D02*
X184005535Y-107080000D01*
X183773865Y-106360000D02*
X184005535Y-106360000D01*
%TO.C,SW1*%
X178689700Y-97480000D02*
X178689700Y-98810000D01*
X177359700Y-97480000D02*
X178689700Y-97480000D01*
X176089700Y-100140000D02*
X173489700Y-100140000D01*
X176089700Y-97480000D02*
X176089700Y-100140000D01*
X176089700Y-97480000D02*
X173489700Y-97480000D01*
X173489700Y-97480000D02*
X173489700Y-100140000D01*
%TO.C,D4*%
X180509700Y-107990000D02*
X180509700Y-113500000D01*
X180509700Y-107990000D02*
X177209700Y-107990000D01*
X177209700Y-107990000D02*
X177209700Y-113500000D01*
%TO.C,Q2*%
X174079700Y-85277500D02*
X173599700Y-85277500D01*
X173839700Y-84947500D01*
X174079700Y-85277500D01*
G36*
X174079700Y-85277500D02*
G01*
X173599700Y-85277500D01*
X173839700Y-84947500D01*
X174079700Y-85277500D01*
G37*
X172539700Y-84997500D02*
X173339700Y-84997500D01*
X172539700Y-84997500D02*
X171739700Y-84997500D01*
X172539700Y-81877500D02*
X173339700Y-81877500D01*
X172539700Y-81877500D02*
X171739700Y-81877500D01*
%TO.C,C7*%
X175793865Y-84000000D02*
X176025535Y-84000000D01*
X175793865Y-83280000D02*
X176025535Y-83280000D01*
D13*
%TO.C,J1*%
X167514700Y-87360000D02*
X166014700Y-87360000D01*
X166014700Y-96500000D02*
X167514700Y-96500000D01*
X163414700Y-87360000D02*
X162034700Y-87360000D01*
X162034700Y-96500000D02*
X163414700Y-96500000D01*
X162034700Y-87360000D02*
X162034700Y-96500000D01*
D12*
%TO.C,D3*%
X199946090Y-111105061D02*
X198967913Y-108417540D01*
X198141881Y-111761741D02*
X199946090Y-111105061D01*
X197163703Y-109074219D02*
X198141881Y-111761741D01*
%TO.C,C2*%
X205289700Y-89524165D02*
X205289700Y-89755835D01*
X204569700Y-89524165D02*
X204569700Y-89755835D01*
%TO.C,C3*%
X203559700Y-105858335D02*
X203559700Y-105626665D01*
X202839700Y-105858335D02*
X202839700Y-105626665D01*
%TO.C,R7*%
X210252079Y-104510000D02*
X210587321Y-104510000D01*
X210252079Y-103750000D02*
X210587321Y-103750000D01*
%TO.C,R3*%
X202784700Y-95277621D02*
X202784700Y-94942379D01*
X202024700Y-95277621D02*
X202024700Y-94942379D01*
D13*
%TO.C,U1*%
X199639700Y-89760000D02*
G75*
G02*
X199439700Y-89760000I-100000J0D01*
G01*
X199439700Y-89760000D02*
G75*
G02*
X199639700Y-89760000I100000J0D01*
G01*
D14*
X203439700Y-92510000D02*
X203439700Y-92305000D01*
X203439700Y-89410000D02*
X203439700Y-89615000D01*
X203439700Y-89410000D02*
X200339700Y-89410000D01*
X200339700Y-92510000D02*
X203439700Y-92510000D01*
X200339700Y-92510000D02*
X200339700Y-92305000D01*
X200339700Y-89410000D02*
X200339700Y-89615000D01*
D12*
%TO.C,C5*%
X209773865Y-81760000D02*
X210005535Y-81760000D01*
X209773865Y-81040000D02*
X210005535Y-81040000D01*
%TO.C,D2*%
X198598532Y-107402673D02*
X197620355Y-104715152D01*
X196794323Y-108059353D02*
X198598532Y-107402673D01*
X195816145Y-105371831D02*
X196794323Y-108059353D01*
%TO.C,R5*%
X203919700Y-94942379D02*
X203919700Y-95277621D01*
X203159700Y-94942379D02*
X203159700Y-95277621D01*
%TO.C,R2*%
X200514700Y-95277621D02*
X200514700Y-94942379D01*
X199754700Y-95277621D02*
X199754700Y-94942379D01*
%TO.C,R6*%
X210587321Y-105810000D02*
X210252079Y-105810000D01*
X210587321Y-105050000D02*
X210252079Y-105050000D01*
%TO.C,D1*%
X197250975Y-103700286D02*
X196272798Y-101012765D01*
X195446766Y-104356966D02*
X197250975Y-103700286D01*
X194468588Y-101669444D02*
X195446766Y-104356966D01*
%TO.C,R4*%
X201649700Y-94942379D02*
X201649700Y-95277621D01*
X200889700Y-94942379D02*
X200889700Y-95277621D01*
%TO.C,R10*%
X211072079Y-82960000D02*
X211407321Y-82960000D01*
X211072079Y-82200000D02*
X211407321Y-82200000D01*
%TO.C,R13*%
X207089700Y-98722379D02*
X207089700Y-99057621D01*
X206329700Y-98722379D02*
X206329700Y-99057621D01*
%TO.C,R14*%
X202577321Y-79700000D02*
X202242079Y-79700000D01*
X202577321Y-78940000D02*
X202242079Y-78940000D01*
%TO.C,R8*%
X203589700Y-103134879D02*
X203589700Y-103470121D01*
X202829700Y-103134879D02*
X202829700Y-103470121D01*
%TO.C,Q1*%
X200592200Y-81440000D02*
X200112200Y-81440000D01*
X200352200Y-81110000D01*
X200592200Y-81440000D01*
G36*
X200592200Y-81440000D02*
G01*
X200112200Y-81440000D01*
X200352200Y-81110000D01*
X200592200Y-81440000D01*
G37*
X199052200Y-81160000D02*
X199852200Y-81160000D01*
X199052200Y-81160000D02*
X198252200Y-81160000D01*
X199052200Y-78040000D02*
X199852200Y-78040000D01*
X199052200Y-78040000D02*
X198252200Y-78040000D01*
D13*
%TO.C,U3*%
X211899700Y-80200000D02*
G75*
G02*
X211699700Y-80200000I-100000J0D01*
G01*
X211699700Y-80200000D02*
G75*
G02*
X211899700Y-80200000I100000J0D01*
G01*
D14*
X210169700Y-80520000D02*
X209589700Y-80520000D01*
X210169700Y-78380000D02*
X209589700Y-78380000D01*
D12*
%TO.C,C6*%
X206813865Y-80420000D02*
X207045535Y-80420000D01*
X206813865Y-79700000D02*
X207045535Y-79700000D01*
%TO.C,R11*%
X208897321Y-82960000D02*
X208562079Y-82960000D01*
X208897321Y-82200000D02*
X208562079Y-82200000D01*
%TO.C,U4*%
X203589700Y-80655000D02*
X203309700Y-80655000D01*
X203309700Y-80375000D01*
X203589700Y-80655000D01*
G36*
X203589700Y-80655000D02*
G01*
X203309700Y-80655000D01*
X203309700Y-80375000D01*
X203589700Y-80655000D01*
G37*
X203309700Y-80975000D02*
X203309700Y-82335000D01*
X201509700Y-80770000D02*
X201509700Y-82340000D01*
%TO.C,R1*%
X199379700Y-95277621D02*
X199379700Y-94942379D01*
X198619700Y-95277621D02*
X198619700Y-94942379D01*
%TO.C,R9*%
X205917321Y-102710000D02*
X205582079Y-102710000D01*
X205917321Y-101950000D02*
X205582079Y-101950000D01*
%TO.C,R12*%
X207097321Y-79180000D02*
X206762079Y-79180000D01*
X207097321Y-78420000D02*
X206762079Y-78420000D01*
%TO.C,C1*%
X199159700Y-89524165D02*
X199159700Y-89755835D01*
X198439700Y-89524165D02*
X198439700Y-89755835D01*
D13*
%TO.C,U2*%
X208724700Y-106020000D02*
G75*
G02*
X208524700Y-106020000I-100000J0D01*
G01*
X208524700Y-106020000D02*
G75*
G02*
X208724700Y-106020000I100000J0D01*
G01*
D14*
X207169700Y-106635000D02*
X205469700Y-106635000D01*
X205469700Y-103505000D02*
X207169700Y-103505000D01*
D12*
%TO.C,R15*%
X204719700Y-82882379D02*
X204719700Y-83217621D01*
X203959700Y-82882379D02*
X203959700Y-83217621D01*
%TO.C,C4*%
X210303865Y-107080000D02*
X210535535Y-107080000D01*
X210303865Y-106360000D02*
X210535535Y-106360000D01*
%TO.C,SW1*%
X205219700Y-97480000D02*
X205219700Y-98810000D01*
X203889700Y-97480000D02*
X205219700Y-97480000D01*
X202619700Y-100140000D02*
X200019700Y-100140000D01*
X202619700Y-97480000D02*
X202619700Y-100140000D01*
X202619700Y-97480000D02*
X200019700Y-97480000D01*
X200019700Y-97480000D02*
X200019700Y-100140000D01*
%TO.C,D4*%
X207039700Y-107990000D02*
X207039700Y-113500000D01*
X207039700Y-107990000D02*
X203739700Y-107990000D01*
X203739700Y-107990000D02*
X203739700Y-113500000D01*
%TO.C,Q2*%
X200609700Y-85277500D02*
X200129700Y-85277500D01*
X200369700Y-84947500D01*
X200609700Y-85277500D01*
G36*
X200609700Y-85277500D02*
G01*
X200129700Y-85277500D01*
X200369700Y-84947500D01*
X200609700Y-85277500D01*
G37*
X199069700Y-84997500D02*
X199869700Y-84997500D01*
X199069700Y-84997500D02*
X198269700Y-84997500D01*
X199069700Y-81877500D02*
X199869700Y-81877500D01*
X199069700Y-81877500D02*
X198269700Y-81877500D01*
%TO.C,C7*%
X202323865Y-84000000D02*
X202555535Y-84000000D01*
X202323865Y-83280000D02*
X202555535Y-83280000D01*
D13*
%TO.C,J1*%
X194044700Y-87360000D02*
X192544700Y-87360000D01*
X192544700Y-96500000D02*
X194044700Y-96500000D01*
X189944700Y-87360000D02*
X188564700Y-87360000D01*
X188564700Y-96500000D02*
X189944700Y-96500000D01*
X188564700Y-87360000D02*
X188564700Y-96500000D01*
%TD*%
M02*
