%TF.GenerationSoftware,KiCad,Pcbnew,8.0.5*%
%TF.CreationDate,2025-01-30T00:47:00+01:00*%
%TF.ProjectId,LAMP_OUTDOOR_BATTERY,4c414d50-5f4f-4555-9444-4f4f525f4241,rev?*%
%TF.SameCoordinates,Original*%
%TF.FileFunction,Copper,L2,Bot*%
%TF.FilePolarity,Positive*%
%FSLAX46Y46*%
G04 Gerber Fmt 4.6, Leading zero omitted, Abs format (unit mm)*
G04 Created by KiCad (PCBNEW 8.0.5) date 2025-01-30 00:47:00*
%MOMM*%
%LPD*%
G01*
G04 APERTURE LIST*
%TA.AperFunction,ComponentPad*%
%ADD10O,2.100000X1.000000*%
%TD*%
%TA.AperFunction,ComponentPad*%
%ADD11O,1.800000X1.000000*%
%TD*%
%TA.AperFunction,ComponentPad*%
%ADD12C,3.100000*%
%TD*%
%TA.AperFunction,ConnectorPad*%
%ADD13C,4.700000*%
%TD*%
%TA.AperFunction,ComponentPad*%
%ADD14R,1.700000X1.700000*%
%TD*%
%TA.AperFunction,ComponentPad*%
%ADD15O,1.700000X1.700000*%
%TD*%
%TA.AperFunction,ViaPad*%
%ADD16C,0.600000*%
%TD*%
%TA.AperFunction,Conductor*%
%ADD17C,1.000000*%
%TD*%
%TA.AperFunction,Conductor*%
%ADD18C,0.500000*%
%TD*%
%TA.AperFunction,Conductor*%
%ADD19C,0.200000*%
%TD*%
G04 APERTURE END LIST*
D10*
%TO.P,J1,S1*%
%TO.N,GND*%
X142385000Y-87610000D03*
%TO.P,J1,S2*%
X142385000Y-96250000D03*
D11*
%TO.P,J1,S3*%
X138205000Y-87610000D03*
%TO.P,J1,S4*%
X138205000Y-96250000D03*
%TD*%
D12*
%TO.P,REF\u002A\u002A,1*%
%TO.N,N/C*%
X157764700Y-123050400D03*
D13*
X157764700Y-123050400D03*
%TD*%
D12*
%TO.P,REF\u002A\u002A,1*%
%TO.N,N/C*%
X157764700Y-60789600D03*
D13*
X157764700Y-60789600D03*
%TD*%
%TO.P,,1*%
%TO.N,N/C*%
X157764700Y-123050400D03*
%TD*%
D14*
%TO.P,SW1,1,A*%
%TO.N,+BATT*%
X150830000Y-98810000D03*
D15*
%TO.P,SW1,2,B*%
%TO.N,/IN*%
X148290000Y-98810000D03*
%TD*%
D16*
%TO.N,+BATT*%
X152220000Y-67080000D03*
X154180000Y-66490000D03*
X153110000Y-66490000D03*
%TO.N,/Battery-*%
X152480000Y-117380000D03*
X153870000Y-117380000D03*
%TO.N,GND*%
X150190000Y-107410000D03*
%TO.N,+5V*%
X146460000Y-109250000D03*
X145100000Y-105550000D03*
X143820000Y-101790000D03*
%TO.N,GND*%
X151820000Y-69850000D03*
X155690000Y-88110000D03*
X151820000Y-76460718D03*
X150790000Y-101180000D03*
X155690000Y-91520718D03*
X147230000Y-69820000D03*
X159060000Y-91520000D03*
X159090000Y-97739282D03*
X151820000Y-73260718D03*
X155300000Y-76390718D03*
X158720000Y-69750000D03*
X155300000Y-73190718D03*
X148190000Y-96800000D03*
X143570000Y-99660000D03*
X140270000Y-91460000D03*
X154200000Y-115680000D03*
X152750000Y-119020000D03*
X147230000Y-76430718D03*
X141120000Y-98230000D03*
X159060000Y-94930718D03*
X159060000Y-88320000D03*
X155720000Y-97740000D03*
X155690000Y-94720718D03*
X159450000Y-105380000D03*
X152549282Y-115680000D03*
X147230000Y-73230718D03*
X147900000Y-93320000D03*
X144990000Y-94710000D03*
X155720000Y-100940000D03*
X140270000Y-88480000D03*
X140910000Y-85690000D03*
X158720000Y-76360718D03*
X159140000Y-100910000D03*
X158720000Y-72950000D03*
X150480000Y-96850000D03*
X155510000Y-107300000D03*
X151099282Y-119020000D03*
X155300000Y-69780000D03*
X159470000Y-107340000D03*
X140270000Y-94280000D03*
X144690000Y-87640000D03*
%TO.N,+BATT*%
X151160000Y-85960000D03*
X151160000Y-87360000D03*
X152410000Y-87360000D03*
X154450000Y-81130000D03*
X152410000Y-85960000D03*
%TO.N,/Battery-*%
X149980000Y-84450000D03*
X149980000Y-85700000D03*
X148580000Y-84450000D03*
X148580000Y-85700000D03*
%TD*%
D17*
%TO.N,+BATT*%
X152810000Y-66490000D02*
X152220000Y-67080000D01*
X153110000Y-66490000D02*
X152810000Y-66490000D01*
X154180000Y-66490000D02*
X153110000Y-66490000D01*
%TO.N,/Battery-*%
X152480000Y-117380000D02*
X151820000Y-117380000D01*
X152380000Y-101340000D02*
X152380000Y-90840000D01*
X148520000Y-114080000D02*
X148520000Y-105200000D01*
X151820000Y-117380000D02*
X148520000Y-114080000D01*
X148520000Y-105200000D02*
X152380000Y-101340000D01*
X152380000Y-90840000D02*
X148610000Y-87070000D01*
X153870000Y-117380000D02*
X152480000Y-117380000D01*
D18*
%TO.N,+5V*%
X145100000Y-105550000D02*
X145100000Y-107890000D01*
X143820000Y-104270000D02*
X145100000Y-105550000D01*
X145100000Y-107890000D02*
X146460000Y-109250000D01*
X143820000Y-101790000D02*
X143820000Y-104270000D01*
D17*
%TO.N,+BATT*%
X151697107Y-84752893D02*
X149360000Y-82415786D01*
X151697107Y-84752893D02*
X151697107Y-85422893D01*
X152410000Y-85960000D02*
X152410000Y-85465786D01*
X149360000Y-82415786D02*
X149360000Y-69940000D01*
D19*
X154450000Y-81130000D02*
X152410000Y-83170000D01*
D17*
X151697107Y-85422893D02*
X151160000Y-85960000D01*
D19*
X152410000Y-83170000D02*
X152410000Y-85960000D01*
D17*
X152410000Y-85465786D02*
X151697107Y-84752893D01*
X149360000Y-69940000D02*
X152220000Y-67080000D01*
%TO.N,/Battery-*%
X148825000Y-86855000D02*
X148825000Y-85945000D01*
X148825000Y-85945000D02*
X148580000Y-85700000D01*
X148610000Y-87070000D02*
X149980000Y-85700000D01*
X148610000Y-87070000D02*
X148825000Y-86855000D01*
%TD*%
%TA.AperFunction,Conductor*%
%TO.N,/Battery-*%
G36*
X150027910Y-84074352D02*
G01*
X150525648Y-84572090D01*
X150540000Y-84606738D01*
X150540000Y-85616571D01*
X150536270Y-85635322D01*
X150486420Y-85755670D01*
X150486418Y-85755679D01*
X150459500Y-85891002D01*
X150459500Y-86031000D01*
X150445148Y-86065648D01*
X150410500Y-86080000D01*
X148129000Y-86080000D01*
X148094352Y-86065648D01*
X148080000Y-86031000D01*
X148080000Y-84109000D01*
X148094352Y-84074352D01*
X148129000Y-84060000D01*
X149993262Y-84060000D01*
X150027910Y-84074352D01*
G37*
%TD.AperFunction*%
%TD*%
%TA.AperFunction,Conductor*%
%TO.N,+BATT*%
G36*
X152775648Y-85414352D02*
G01*
X152790000Y-85449000D01*
X152790000Y-87811000D01*
X152775648Y-87845648D01*
X152741000Y-87860000D01*
X150819000Y-87860000D01*
X150784352Y-87845648D01*
X150770000Y-87811000D01*
X150770000Y-85449000D01*
X150784352Y-85414352D01*
X150819000Y-85400000D01*
X152741000Y-85400000D01*
X152775648Y-85414352D01*
G37*
%TD.AperFunction*%
%TD*%
%TA.AperFunction,Conductor*%
%TO.N,GND*%
G36*
X155598726Y-59381202D02*
G01*
X155609050Y-59417256D01*
X155601739Y-59437946D01*
X155525261Y-59558457D01*
X155388615Y-59848843D01*
X155289442Y-60154065D01*
X155229307Y-60469308D01*
X155209157Y-60789595D01*
X155209157Y-60789604D01*
X155229307Y-61109891D01*
X155289442Y-61425134D01*
X155388615Y-61730356D01*
X155525261Y-62020742D01*
X155697219Y-62291706D01*
X155901783Y-62538983D01*
X155901790Y-62538991D01*
X156135731Y-62758676D01*
X156135734Y-62758678D01*
X156135736Y-62758680D01*
X156395372Y-62947316D01*
X156676603Y-63101924D01*
X156974994Y-63220066D01*
X157285839Y-63299877D01*
X157604236Y-63340100D01*
X157604237Y-63340100D01*
X157925163Y-63340100D01*
X157925164Y-63340100D01*
X158243561Y-63299877D01*
X158554406Y-63220066D01*
X158852797Y-63101924D01*
X159134028Y-62947316D01*
X159393664Y-62758680D01*
X159627611Y-62538990D01*
X159832178Y-62291710D01*
X160004139Y-62020742D01*
X160140784Y-61730358D01*
X160168597Y-61644756D01*
X160192953Y-61616240D01*
X160230341Y-61613297D01*
X160258858Y-61637653D01*
X160264199Y-61659899D01*
X160264199Y-122180100D01*
X160249847Y-122214748D01*
X160215199Y-122229100D01*
X160180551Y-122214748D01*
X160168597Y-122195242D01*
X160140784Y-122109643D01*
X160123348Y-122072589D01*
X160004139Y-121819258D01*
X159832178Y-121548290D01*
X159627611Y-121301010D01*
X159627609Y-121301008D01*
X159393668Y-121081323D01*
X159393660Y-121081317D01*
X159134035Y-120892689D01*
X159134029Y-120892685D01*
X159134030Y-120892685D01*
X159134028Y-120892684D01*
X158852797Y-120738076D01*
X158749984Y-120697369D01*
X158554407Y-120619934D01*
X158243560Y-120540122D01*
X157925166Y-120499900D01*
X157925164Y-120499900D01*
X157604236Y-120499900D01*
X157604233Y-120499900D01*
X157285839Y-120540122D01*
X156974992Y-120619934D01*
X156676600Y-120738077D01*
X156395370Y-120892685D01*
X156395364Y-120892689D01*
X156135739Y-121081317D01*
X156135731Y-121081323D01*
X155901790Y-121301008D01*
X155901783Y-121301016D01*
X155697219Y-121548293D01*
X155525261Y-121819257D01*
X155388615Y-122109643D01*
X155289442Y-122414865D01*
X155229307Y-122730108D01*
X155209157Y-123050395D01*
X155209157Y-123050404D01*
X155229307Y-123370691D01*
X155289442Y-123685934D01*
X155388615Y-123991156D01*
X155525261Y-124281542D01*
X155601727Y-124402034D01*
X155608175Y-124438978D01*
X155586610Y-124469661D01*
X155549666Y-124476109D01*
X155529866Y-124466648D01*
X155274723Y-124263854D01*
X155273606Y-124262939D01*
X154333417Y-123469353D01*
X154332328Y-123468406D01*
X153415925Y-122647468D01*
X153414864Y-122646489D01*
X152523044Y-121798913D01*
X152522012Y-121797903D01*
X151655547Y-120924423D01*
X151654546Y-120923384D01*
X150814189Y-120024760D01*
X150813218Y-120023691D01*
X149999680Y-119100678D01*
X149998742Y-119099581D01*
X149212778Y-118153041D01*
X149211872Y-118151917D01*
X148867815Y-117711807D01*
X148454083Y-117182571D01*
X148453246Y-117181465D01*
X147724372Y-116190258D01*
X147723538Y-116189089D01*
X147024174Y-115176831D01*
X147023371Y-115175631D01*
X146602616Y-114526543D01*
X146354115Y-114143187D01*
X146353391Y-114142032D01*
X145714846Y-113090333D01*
X145714116Y-113089089D01*
X145106845Y-112019061D01*
X145106174Y-112017839D01*
X144530640Y-110930293D01*
X144530049Y-110929136D01*
X143986779Y-109825063D01*
X143986211Y-109823864D01*
X143475725Y-108704316D01*
X143475178Y-108703069D01*
X142997914Y-107569017D01*
X142997402Y-107567750D01*
X142553724Y-106420057D01*
X142553261Y-106418802D01*
X142143605Y-105258594D01*
X142143175Y-105257319D01*
X141767875Y-104085546D01*
X141767456Y-104084168D01*
X141426855Y-102901907D01*
X141426476Y-102900514D01*
X141197688Y-102008361D01*
X141141689Y-101789997D01*
X143314353Y-101789997D01*
X143314353Y-101790001D01*
X143334835Y-101932457D01*
X143334835Y-101932458D01*
X143365072Y-101998665D01*
X143369500Y-102019021D01*
X143369500Y-104329310D01*
X143393713Y-104419672D01*
X143393713Y-104419673D01*
X143400200Y-104443886D01*
X143400201Y-104443888D01*
X143459511Y-104546614D01*
X144616551Y-105703654D01*
X144626474Y-105717946D01*
X144645071Y-105758665D01*
X144649500Y-105779021D01*
X144649500Y-107949310D01*
X144673713Y-108039672D01*
X144673713Y-108039673D01*
X144680200Y-108063886D01*
X144680201Y-108063888D01*
X144739511Y-108166614D01*
X145976551Y-109403654D01*
X145986475Y-109417946D01*
X146034623Y-109523373D01*
X146034624Y-109523374D01*
X146034625Y-109523376D01*
X146128871Y-109632142D01*
X146128872Y-109632143D01*
X146249947Y-109709953D01*
X146326785Y-109732514D01*
X146388034Y-109750499D01*
X146388037Y-109750499D01*
X146388039Y-109750500D01*
X146388040Y-109750500D01*
X146531960Y-109750500D01*
X146531961Y-109750500D01*
X146531963Y-109750499D01*
X146531965Y-109750499D01*
X146554795Y-109743795D01*
X146670053Y-109709953D01*
X146791128Y-109632143D01*
X146885377Y-109523373D01*
X146945165Y-109392457D01*
X146945165Y-109392455D01*
X146945166Y-109392454D01*
X146965647Y-109250002D01*
X146965647Y-109249997D01*
X146945166Y-109107545D01*
X146940751Y-109097879D01*
X146885377Y-108976627D01*
X146791128Y-108867857D01*
X146670053Y-108790047D01*
X146670050Y-108790046D01*
X146635472Y-108779893D01*
X146614629Y-108767526D01*
X145564852Y-107717749D01*
X145550500Y-107683101D01*
X145550500Y-105779021D01*
X145554928Y-105758665D01*
X145573524Y-105717946D01*
X145585165Y-105692457D01*
X145605647Y-105550000D01*
X145597043Y-105490156D01*
X145585166Y-105407545D01*
X145580751Y-105397879D01*
X145525377Y-105276627D01*
X145509792Y-105258641D01*
X145431128Y-105167857D01*
X145373782Y-105131003D01*
X147819500Y-105131003D01*
X147819500Y-114148997D01*
X147846418Y-114284320D01*
X147846420Y-114284328D01*
X147899225Y-114411811D01*
X147975886Y-114526543D01*
X151373457Y-117924114D01*
X151488189Y-118000775D01*
X151615672Y-118053580D01*
X151751006Y-118080500D01*
X153938993Y-118080500D01*
X154074328Y-118053580D01*
X154201811Y-118000775D01*
X154316542Y-117924114D01*
X154414114Y-117826542D01*
X154490775Y-117711811D01*
X154543580Y-117584328D01*
X154570500Y-117448993D01*
X154570500Y-117311007D01*
X154543580Y-117175672D01*
X154490775Y-117048189D01*
X154444613Y-116979102D01*
X154414116Y-116933460D01*
X154316539Y-116835883D01*
X154248074Y-116790137D01*
X154201811Y-116759225D01*
X154201808Y-116759223D01*
X154201807Y-116759223D01*
X154074329Y-116706420D01*
X154074318Y-116706417D01*
X153938998Y-116679500D01*
X153938993Y-116679500D01*
X152548993Y-116679500D01*
X152130453Y-116679500D01*
X152095805Y-116665148D01*
X149234852Y-113804195D01*
X149220500Y-113769547D01*
X149220500Y-105510452D01*
X149234852Y-105475804D01*
X150937959Y-103772697D01*
X152924113Y-101786543D01*
X152961433Y-101730691D01*
X153000775Y-101671811D01*
X153053580Y-101544328D01*
X153080500Y-101408993D01*
X153080500Y-90771007D01*
X153053580Y-90635672D01*
X153000775Y-90508189D01*
X152924114Y-90393457D01*
X150636049Y-88105392D01*
X150621697Y-88070744D01*
X150636049Y-88036096D01*
X150670697Y-88021744D01*
X150699052Y-88030781D01*
X150705709Y-88035505D01*
X150740357Y-88049857D01*
X150819000Y-88065500D01*
X150819003Y-88065500D01*
X152740997Y-88065500D01*
X152741000Y-88065500D01*
X152819643Y-88049857D01*
X152854291Y-88035505D01*
X152912581Y-87998879D01*
X152912581Y-87998877D01*
X152912583Y-87998877D01*
X152939043Y-87961585D01*
X152965505Y-87924291D01*
X152979857Y-87889643D01*
X152995500Y-87811000D01*
X152995500Y-86359467D01*
X153003758Y-86332244D01*
X153013758Y-86317278D01*
X153030775Y-86291811D01*
X153083580Y-86164328D01*
X153110500Y-86028993D01*
X153110500Y-85396793D01*
X153105558Y-85371950D01*
X153083580Y-85261458D01*
X153030775Y-85133975D01*
X152954114Y-85019243D01*
X152724852Y-84789981D01*
X152710500Y-84755333D01*
X152710500Y-83314766D01*
X152724851Y-83280119D01*
X154360118Y-81644851D01*
X154394766Y-81630500D01*
X154521960Y-81630500D01*
X154521961Y-81630500D01*
X154521963Y-81630499D01*
X154521965Y-81630499D01*
X154544795Y-81623795D01*
X154660053Y-81589953D01*
X154781128Y-81512143D01*
X154875377Y-81403373D01*
X154935165Y-81272457D01*
X154935165Y-81272455D01*
X154935166Y-81272454D01*
X154955647Y-81130002D01*
X154955647Y-81129997D01*
X154935166Y-80987545D01*
X154913216Y-80939483D01*
X154875377Y-80856627D01*
X154781128Y-80747857D01*
X154660053Y-80670047D01*
X154660050Y-80670046D01*
X154521965Y-80629500D01*
X154521961Y-80629500D01*
X154378039Y-80629500D01*
X154378034Y-80629500D01*
X154239949Y-80670046D01*
X154118871Y-80747857D01*
X154024625Y-80856623D01*
X154024624Y-80856625D01*
X153964833Y-80987545D01*
X153944353Y-81129997D01*
X153944353Y-81130001D01*
X153951003Y-81176256D01*
X153941728Y-81212594D01*
X153937150Y-81217877D01*
X152225489Y-82929540D01*
X152169541Y-82985488D01*
X152169540Y-82985488D01*
X152129979Y-83054008D01*
X152129979Y-83054010D01*
X152109500Y-83130436D01*
X152109500Y-84056333D01*
X152095148Y-84090981D01*
X152060500Y-84105333D01*
X152025852Y-84090981D01*
X150074852Y-82139981D01*
X150060500Y-82105333D01*
X150060500Y-70250453D01*
X150074852Y-70215805D01*
X153085805Y-67204852D01*
X153120453Y-67190500D01*
X154248993Y-67190500D01*
X154384328Y-67163580D01*
X154511811Y-67110775D01*
X154626542Y-67034114D01*
X154724114Y-66936542D01*
X154800775Y-66821811D01*
X154853580Y-66694328D01*
X154880500Y-66558993D01*
X154880500Y-66421007D01*
X154853580Y-66285672D01*
X154800775Y-66158189D01*
X154754613Y-66089102D01*
X154724116Y-66043460D01*
X154626539Y-65945883D01*
X154558074Y-65900137D01*
X154511811Y-65869225D01*
X154511808Y-65869223D01*
X154511807Y-65869223D01*
X154384329Y-65816420D01*
X154384318Y-65816417D01*
X154248998Y-65789500D01*
X154248993Y-65789500D01*
X153178993Y-65789500D01*
X152878994Y-65789500D01*
X152741006Y-65789500D01*
X152741002Y-65789500D01*
X152605679Y-65816418D01*
X152605670Y-65816420D01*
X152478192Y-65869223D01*
X152363457Y-65945885D01*
X148815885Y-69493457D01*
X148739223Y-69608192D01*
X148686420Y-69735670D01*
X148686417Y-69735681D01*
X148659500Y-69871001D01*
X148659500Y-82484783D01*
X148686418Y-82620106D01*
X148686420Y-82620114D01*
X148739225Y-82747597D01*
X148790561Y-82824427D01*
X148815885Y-82862328D01*
X149724409Y-83770852D01*
X149738761Y-83805500D01*
X149724409Y-83840148D01*
X149689761Y-83854500D01*
X148129000Y-83854500D01*
X148089859Y-83862285D01*
X148050359Y-83870142D01*
X148050349Y-83870145D01*
X148015716Y-83884491D01*
X148015710Y-83884494D01*
X148015709Y-83884495D01*
X147997618Y-83895861D01*
X147957416Y-83921122D01*
X147904496Y-83995706D01*
X147890144Y-84030353D01*
X147890142Y-84030359D01*
X147884976Y-84056333D01*
X147874500Y-84109000D01*
X147874500Y-86031000D01*
X147884880Y-86083187D01*
X147890142Y-86109640D01*
X147890145Y-86109650D01*
X147904491Y-86144283D01*
X147904490Y-86144283D01*
X147941122Y-86202583D01*
X148015430Y-86255307D01*
X148015709Y-86255505D01*
X148050357Y-86269857D01*
X148085059Y-86276759D01*
X148116242Y-86297595D01*
X148124500Y-86324818D01*
X148124500Y-86544547D01*
X148110148Y-86579195D01*
X148065885Y-86623457D01*
X147989223Y-86738192D01*
X147936420Y-86865670D01*
X147936418Y-86865679D01*
X147909500Y-87001002D01*
X147909500Y-87138997D01*
X147936418Y-87274320D01*
X147936420Y-87274329D01*
X147986624Y-87395532D01*
X147989225Y-87401811D01*
X148034453Y-87469500D01*
X148065885Y-87516542D01*
X151665148Y-91115805D01*
X151679500Y-91150453D01*
X151679500Y-97710500D01*
X151665148Y-97745148D01*
X151630500Y-97759500D01*
X149960252Y-97759500D01*
X149901769Y-97771133D01*
X149835447Y-97815447D01*
X149791133Y-97881769D01*
X149779500Y-97940252D01*
X149779500Y-99679748D01*
X149791133Y-99738231D01*
X149808882Y-99764795D01*
X149835447Y-99804552D01*
X149862012Y-99822301D01*
X149901769Y-99848867D01*
X149960252Y-99860500D01*
X151630500Y-99860500D01*
X151665148Y-99874852D01*
X151679500Y-99909500D01*
X151679500Y-101029547D01*
X151665148Y-101064195D01*
X147975885Y-104753457D01*
X147899223Y-104868192D01*
X147846420Y-104995670D01*
X147846417Y-104995681D01*
X147827647Y-105090047D01*
X147827647Y-105090048D01*
X147819500Y-105131003D01*
X145373782Y-105131003D01*
X145310053Y-105090047D01*
X145310050Y-105090046D01*
X145275472Y-105079893D01*
X145254629Y-105067526D01*
X144284852Y-104097749D01*
X144270500Y-104063101D01*
X144270500Y-102019021D01*
X144274928Y-101998665D01*
X144305165Y-101932457D01*
X144325647Y-101790000D01*
X144325647Y-101789997D01*
X144305166Y-101647545D01*
X144300751Y-101637879D01*
X144245377Y-101516627D01*
X144151128Y-101407857D01*
X144030053Y-101330047D01*
X144030050Y-101330046D01*
X143891965Y-101289500D01*
X143891961Y-101289500D01*
X143748039Y-101289500D01*
X143748034Y-101289500D01*
X143609949Y-101330046D01*
X143488871Y-101407857D01*
X143394625Y-101516623D01*
X143394624Y-101516625D01*
X143334833Y-101647545D01*
X143314353Y-101789997D01*
X141141689Y-101789997D01*
X141120844Y-101708711D01*
X141120521Y-101707370D01*
X140850128Y-100507065D01*
X140849846Y-100505725D01*
X140614920Y-99297934D01*
X140614667Y-99296516D01*
X140534832Y-98810000D01*
X147234417Y-98810000D01*
X147254700Y-99015934D01*
X147314768Y-99213954D01*
X147412315Y-99396450D01*
X147543590Y-99556410D01*
X147703550Y-99687685D01*
X147886046Y-99785232D01*
X148084066Y-99845300D01*
X148290000Y-99865583D01*
X148495934Y-99845300D01*
X148693954Y-99785232D01*
X148876450Y-99687685D01*
X149036410Y-99556410D01*
X149167685Y-99396450D01*
X149265232Y-99213954D01*
X149325300Y-99015934D01*
X149345583Y-98810000D01*
X149325300Y-98604066D01*
X149265232Y-98406046D01*
X149167685Y-98223550D01*
X149036410Y-98063590D01*
X148876450Y-97932315D01*
X148693954Y-97834768D01*
X148495934Y-97774700D01*
X148290000Y-97754417D01*
X148084065Y-97774700D01*
X148084064Y-97774700D01*
X147886043Y-97834769D01*
X147703548Y-97932316D01*
X147543590Y-98063590D01*
X147412316Y-98223548D01*
X147314769Y-98406043D01*
X147254700Y-98604064D01*
X147254700Y-98604065D01*
X147254700Y-98604066D01*
X147234417Y-98810000D01*
X140534832Y-98810000D01*
X140415444Y-98082446D01*
X140415231Y-98081018D01*
X140255690Y-96890207D01*
X140255256Y-96883700D01*
X140255256Y-96854107D01*
X140253602Y-96847938D01*
X140248410Y-96828561D01*
X140247087Y-96821686D01*
X140243962Y-96795423D01*
X140231596Y-96764487D01*
X140229770Y-96758992D01*
X140221148Y-96726814D01*
X140221147Y-96726811D01*
X140207927Y-96703914D01*
X140204862Y-96697600D01*
X140195051Y-96673053D01*
X140195050Y-96673052D01*
X140175101Y-96646373D01*
X140171909Y-96641530D01*
X140155255Y-96612685D01*
X140136561Y-96593991D01*
X140131967Y-96588687D01*
X140130046Y-96586118D01*
X140116132Y-96567510D01*
X140089950Y-96546897D01*
X140085622Y-96543052D01*
X140062070Y-96519500D01*
X140039172Y-96506280D01*
X140033360Y-96502344D01*
X140012592Y-96485992D01*
X140012588Y-96485990D01*
X139981970Y-96472858D01*
X139976788Y-96470262D01*
X139947944Y-96453608D01*
X139947940Y-96453607D01*
X139922400Y-96446763D01*
X139915770Y-96444466D01*
X139891473Y-96434046D01*
X139886874Y-96433382D01*
X139858486Y-96429285D01*
X139852823Y-96428121D01*
X139839135Y-96424453D01*
X139820650Y-96419500D01*
X139820648Y-96419500D01*
X139794208Y-96419500D01*
X139787208Y-96418997D01*
X139761041Y-96415220D01*
X139761040Y-96415220D01*
X139745147Y-96417111D01*
X139727958Y-96419157D01*
X139722168Y-96419500D01*
X138791201Y-96419500D01*
X138756553Y-96405148D01*
X138742201Y-96370500D01*
X138742201Y-95104117D01*
X137604721Y-95104117D01*
X137604721Y-96370500D01*
X137590369Y-96405148D01*
X137555721Y-96419500D01*
X137284500Y-96419500D01*
X137249852Y-96405148D01*
X137235500Y-96370500D01*
X137235500Y-94744230D01*
X141309500Y-94744230D01*
X141309500Y-94895769D01*
X141348718Y-95042133D01*
X141348719Y-95042137D01*
X141376218Y-95089765D01*
X141424485Y-95173365D01*
X141531635Y-95280515D01*
X141607396Y-95324256D01*
X141662861Y-95356279D01*
X141662865Y-95356281D01*
X141768405Y-95384559D01*
X141798156Y-95407387D01*
X141804721Y-95431888D01*
X141804721Y-97355141D01*
X142942201Y-97355141D01*
X142942201Y-95104117D01*
X142468531Y-95104117D01*
X142433883Y-95089765D01*
X142419531Y-95055117D01*
X142421201Y-95042435D01*
X142460499Y-94895769D01*
X142460500Y-94895769D01*
X142460500Y-94744231D01*
X142460499Y-94744230D01*
X142421281Y-94597866D01*
X142421280Y-94597862D01*
X142345514Y-94466634D01*
X142238365Y-94359485D01*
X142107137Y-94283719D01*
X142107133Y-94283718D01*
X141960769Y-94244500D01*
X141960766Y-94244500D01*
X141809234Y-94244500D01*
X141809231Y-94244500D01*
X141662866Y-94283718D01*
X141662862Y-94283719D01*
X141531634Y-94359485D01*
X141531634Y-94359486D01*
X141424486Y-94466634D01*
X141424485Y-94466634D01*
X141348719Y-94597862D01*
X141348718Y-94597866D01*
X141309500Y-94744230D01*
X137235500Y-94744230D01*
X137235500Y-88964230D01*
X141309500Y-88964230D01*
X141309500Y-89115769D01*
X141348718Y-89262133D01*
X141348719Y-89262137D01*
X141424485Y-89393365D01*
X141531635Y-89500515D01*
X141579666Y-89528246D01*
X141662862Y-89576280D01*
X141662864Y-89576280D01*
X141662865Y-89576281D01*
X141778303Y-89607212D01*
X141809230Y-89615499D01*
X141809231Y-89615500D01*
X141809234Y-89615500D01*
X141960769Y-89615500D01*
X141960769Y-89615499D01*
X142107135Y-89576281D01*
X142238365Y-89500515D01*
X142345515Y-89393365D01*
X142421281Y-89262135D01*
X142460499Y-89115769D01*
X142460500Y-89115769D01*
X142460500Y-88964231D01*
X142460499Y-88964230D01*
X142421002Y-88816823D01*
X142425897Y-88779641D01*
X142455650Y-88756811D01*
X142468332Y-88755141D01*
X142942201Y-88755141D01*
X142942201Y-86504117D01*
X141804721Y-86504117D01*
X141804721Y-88428110D01*
X141790369Y-88462758D01*
X141768403Y-88475440D01*
X141662865Y-88503718D01*
X141662862Y-88503719D01*
X141531634Y-88579485D01*
X141531634Y-88579486D01*
X141424486Y-88686634D01*
X141424485Y-88686634D01*
X141348719Y-88817862D01*
X141348718Y-88817866D01*
X141309500Y-88964230D01*
X137235500Y-88964230D01*
X137235500Y-87469500D01*
X137249852Y-87434852D01*
X137284500Y-87420500D01*
X137555721Y-87420500D01*
X137590369Y-87434852D01*
X137604721Y-87469500D01*
X137604721Y-88755141D01*
X138742201Y-88755141D01*
X138742201Y-87469500D01*
X138756553Y-87434852D01*
X138791201Y-87420500D01*
X139722169Y-87420500D01*
X139727959Y-87420843D01*
X139729304Y-87421003D01*
X139761041Y-87424780D01*
X139787209Y-87421002D01*
X139794209Y-87420500D01*
X139820647Y-87420500D01*
X139820649Y-87420500D01*
X139852829Y-87411876D01*
X139858489Y-87410713D01*
X139891473Y-87405954D01*
X139915772Y-87395531D01*
X139922397Y-87393236D01*
X139947943Y-87386392D01*
X139976793Y-87369734D01*
X139981976Y-87367139D01*
X139994597Y-87361725D01*
X140012589Y-87354010D01*
X140033363Y-87337653D01*
X140039172Y-87333720D01*
X140043738Y-87331083D01*
X140062071Y-87320500D01*
X140085633Y-87296936D01*
X140089965Y-87293091D01*
X140116133Y-87272490D01*
X140131972Y-87251305D01*
X140136547Y-87246022D01*
X140155257Y-87227314D01*
X140171915Y-87198459D01*
X140175101Y-87193626D01*
X140195051Y-87166948D01*
X140204866Y-87142388D01*
X140207923Y-87136092D01*
X140221149Y-87113186D01*
X140229775Y-87080990D01*
X140231595Y-87075516D01*
X140243963Y-87044577D01*
X140247088Y-87018312D01*
X140248411Y-87011437D01*
X140255257Y-86985892D01*
X140255257Y-86956237D01*
X140255691Y-86949730D01*
X140343964Y-86290862D01*
X140415225Y-85758970D01*
X140415437Y-85757552D01*
X140474636Y-85396793D01*
X140614663Y-84543465D01*
X140614915Y-84542060D01*
X140699148Y-84109003D01*
X140849842Y-83334258D01*
X140850118Y-83332946D01*
X141120518Y-82132611D01*
X141120833Y-82131302D01*
X141426472Y-80939469D01*
X141426848Y-80938090D01*
X141767450Y-79755829D01*
X141767870Y-79754448D01*
X142143175Y-78582657D01*
X142143591Y-78581423D01*
X142553263Y-77421171D01*
X142553710Y-77419961D01*
X142997405Y-76272224D01*
X142997898Y-76271004D01*
X143475183Y-75136901D01*
X143475708Y-75135704D01*
X143986217Y-74016105D01*
X143986761Y-74014958D01*
X144530055Y-72910835D01*
X144530633Y-72909704D01*
X145106169Y-71822155D01*
X145106815Y-71820977D01*
X145714127Y-70750876D01*
X145714822Y-70749692D01*
X146353404Y-69697932D01*
X146354090Y-69696838D01*
X147023394Y-68664319D01*
X147024139Y-68663207D01*
X147723558Y-67650868D01*
X147724342Y-67649769D01*
X148453265Y-66658496D01*
X148454052Y-66657456D01*
X149211887Y-65688051D01*
X149212750Y-65686981D01*
X149998771Y-64740371D01*
X149999640Y-64739354D01*
X150813254Y-63816257D01*
X150814141Y-63815280D01*
X151654569Y-62916580D01*
X151655513Y-62915600D01*
X152522010Y-62042087D01*
X152523039Y-62041081D01*
X152849982Y-61730358D01*
X153414897Y-61193469D01*
X153415881Y-61192561D01*
X154332359Y-60371556D01*
X154333376Y-60370672D01*
X155273639Y-59577024D01*
X155274681Y-59576171D01*
X155529879Y-59373331D01*
X155565932Y-59363008D01*
X155598726Y-59381202D01*
G37*
%TD.AperFunction*%
%TD*%
M02*
