M48
; DRILL file {KiCad 8.0.5} date 2025-01-30T00:46:59+0100
; FORMAT={-:-/ absolute / inch / decimal}
; #@! TF.CreationDate,2025-01-30T00:46:59+01:00
; #@! TF.GenerationSoftware,Kicad,Pcbnew,8.0.5
; #@! TF.FileFunction,Plated,1,2,PTH
FMAT,2
INCH
; #@! TA.AperFunction,Plated,PTH,ViaDrill
T1C0.0118
; #@! TA.AperFunction,Plated,PTH,ComponentDrill
T2C0.0236
; #@! TA.AperFunction,Plated,PTH,ComponentDrill
T3C0.0394
; #@! TA.AperFunction,Plated,PTH,ComponentDrill
T4C0.1063
%
G90
G05
T1
X5.5224Y-3.4835
X5.5224Y-3.6008
X5.5224Y-3.7118
X5.5476Y-3.3736
X5.5559Y-3.8673
X5.6524Y-3.9236
X5.6622Y-4.0075
X5.6965Y-3.4504
X5.7083Y-3.7287
X5.7126Y-4.1555
X5.7661Y-4.3012
X5.7965Y-2.7488
X5.7965Y-2.8831
X5.7965Y-3.0091
X5.8228Y-3.674
X5.8343Y-3.811
X5.8496Y-3.3248
X5.8496Y-3.374
X5.9047Y-3.3248
X5.9047Y-3.374
X5.913Y-4.2287
X5.9244Y-3.813
X5.9366Y-3.9835
X5.9488Y-4.6858
X5.9512Y-3.3843
X5.9512Y-3.4394
X5.9772Y-2.75
X5.9772Y-2.8843
X5.9772Y-3.0103
X5.9929Y-2.6409
X6.0004Y-3.3843
X6.0004Y-3.4394
X6.0031Y-4.6213
X6.0059Y-4.5543
X6.0138Y-4.6858
X6.028Y-2.6177
X6.0579Y-4.6213
X6.0701Y-2.6177
X6.0709Y-4.5543
X6.0807Y-3.1941
X6.1142Y-2.7472
X6.1142Y-2.8815
X6.1142Y-3.0075
X6.1224Y-4.2244
X6.1295Y-3.4689
X6.1295Y-3.6032
X6.1295Y-3.7292
X6.1307Y-3.848
X6.1307Y-3.974
X6.2488Y-2.7461
X6.2488Y-2.872
X6.2488Y-3.0063
X6.2622Y-3.4772
X6.2622Y-3.6031
X6.2622Y-3.7374
X6.2634Y-3.848
X6.2654Y-3.9728
X6.2776Y-4.1488
X6.2783Y-4.226
T3
X5.8382Y-3.8902
X5.9382Y-3.8902
T4
X6.2112Y-2.3933
X6.2112Y-4.8445
T2
G00X5.4569Y-3.4492
M15
G01X5.4254Y-3.4492
M16
G05
G00X5.4569Y-3.7894
M15
G01X5.4254Y-3.7894
M16
G05
G00X5.6274Y-3.4492
M15
G01X5.5841Y-3.4492
M16
G05
G00X5.6274Y-3.7894
M15
G01X5.5841Y-3.7894
M16
G05
M30
