%TF.GenerationSoftware,KiCad,Pcbnew,8.0.5*%
%TF.CreationDate,2025-01-30T00:46:58+01:00*%
%TF.ProjectId,LAMP_OUTDOOR_BATTERY,4c414d50-5f4f-4555-9444-4f4f525f4241,rev?*%
%TF.SameCoordinates,Original*%
%TF.FileFunction,Drillmap*%
%TF.FilePolarity,Positive*%
%FSLAX45Y45*%
G04 Gerber Fmt 4.5, Leading zero omitted, Abs format (unit mm)*
G04 Created by KiCad (PCBNEW 8.0.5) date 2025-01-30 00:46:58*
%MOMM*%
%LPD*%
G01*
G04 APERTURE LIST*
%ADD10C,0.200000*%
%ADD11C,0.100000*%
G04 APERTURE END LIST*
D10*
X13673500Y-8692000D02*
X13673500Y-9692000D01*
X15593283Y-12542620D02*
G75*
G02*
X13975476Y-9692000I2583547J3350620D01*
G01*
X13673500Y-9692000D02*
X13975476Y-9692000D01*
X16076470Y-12305044D02*
X16076470Y-6078956D01*
X13975476Y-8692000D02*
X13673500Y-8692000D01*
X15593283Y-5841379D02*
G75*
G02*
X16076473Y-6078956I183187J-237581D01*
G01*
X16076470Y-12305044D02*
G75*
G02*
X15593285Y-12542618I-300000J4D01*
G01*
X13975476Y-8692000D02*
G75*
G02*
X15593283Y-5841379I4201354J-500000D01*
G01*
D11*
X14156000Y-8871500D02*
X14221000Y-8936500D01*
X14221000Y-8871500D02*
X14156000Y-8936500D01*
X14156000Y-9449500D02*
X14221000Y-9514500D01*
X14221000Y-9449500D02*
X14156000Y-9514500D01*
D10*
X13924277Y-12926524D02*
X13924277Y-12726524D01*
X13924277Y-12726524D02*
X13971896Y-12726524D01*
X13971896Y-12726524D02*
X14000467Y-12736047D01*
X14000467Y-12736047D02*
X14019515Y-12755095D01*
X14019515Y-12755095D02*
X14029039Y-12774143D01*
X14029039Y-12774143D02*
X14038562Y-12812238D01*
X14038562Y-12812238D02*
X14038562Y-12840809D01*
X14038562Y-12840809D02*
X14029039Y-12878905D01*
X14029039Y-12878905D02*
X14019515Y-12897952D01*
X14019515Y-12897952D02*
X14000467Y-12917000D01*
X14000467Y-12917000D02*
X13971896Y-12926524D01*
X13971896Y-12926524D02*
X13924277Y-12926524D01*
X14124277Y-12926524D02*
X14124277Y-12793190D01*
X14124277Y-12831286D02*
X14133801Y-12812238D01*
X14133801Y-12812238D02*
X14143324Y-12802714D01*
X14143324Y-12802714D02*
X14162372Y-12793190D01*
X14162372Y-12793190D02*
X14181420Y-12793190D01*
X14248086Y-12926524D02*
X14248086Y-12793190D01*
X14248086Y-12726524D02*
X14238562Y-12736047D01*
X14238562Y-12736047D02*
X14248086Y-12745571D01*
X14248086Y-12745571D02*
X14257610Y-12736047D01*
X14257610Y-12736047D02*
X14248086Y-12726524D01*
X14248086Y-12726524D02*
X14248086Y-12745571D01*
X14371896Y-12926524D02*
X14352848Y-12917000D01*
X14352848Y-12917000D02*
X14343324Y-12897952D01*
X14343324Y-12897952D02*
X14343324Y-12726524D01*
X14476658Y-12926524D02*
X14457610Y-12917000D01*
X14457610Y-12917000D02*
X14448086Y-12897952D01*
X14448086Y-12897952D02*
X14448086Y-12726524D01*
X14705229Y-12926524D02*
X14705229Y-12726524D01*
X14705229Y-12726524D02*
X14771896Y-12869381D01*
X14771896Y-12869381D02*
X14838562Y-12726524D01*
X14838562Y-12726524D02*
X14838562Y-12926524D01*
X15019515Y-12926524D02*
X15019515Y-12821762D01*
X15019515Y-12821762D02*
X15009991Y-12802714D01*
X15009991Y-12802714D02*
X14990943Y-12793190D01*
X14990943Y-12793190D02*
X14952848Y-12793190D01*
X14952848Y-12793190D02*
X14933801Y-12802714D01*
X15019515Y-12917000D02*
X15000467Y-12926524D01*
X15000467Y-12926524D02*
X14952848Y-12926524D01*
X14952848Y-12926524D02*
X14933801Y-12917000D01*
X14933801Y-12917000D02*
X14924277Y-12897952D01*
X14924277Y-12897952D02*
X14924277Y-12878905D01*
X14924277Y-12878905D02*
X14933801Y-12859857D01*
X14933801Y-12859857D02*
X14952848Y-12850333D01*
X14952848Y-12850333D02*
X15000467Y-12850333D01*
X15000467Y-12850333D02*
X15019515Y-12840809D01*
X15114753Y-12793190D02*
X15114753Y-12993190D01*
X15114753Y-12802714D02*
X15133801Y-12793190D01*
X15133801Y-12793190D02*
X15171896Y-12793190D01*
X15171896Y-12793190D02*
X15190943Y-12802714D01*
X15190943Y-12802714D02*
X15200467Y-12812238D01*
X15200467Y-12812238D02*
X15209991Y-12831286D01*
X15209991Y-12831286D02*
X15209991Y-12888428D01*
X15209991Y-12888428D02*
X15200467Y-12907476D01*
X15200467Y-12907476D02*
X15190943Y-12917000D01*
X15190943Y-12917000D02*
X15171896Y-12926524D01*
X15171896Y-12926524D02*
X15133801Y-12926524D01*
X15133801Y-12926524D02*
X15114753Y-12917000D01*
X15295705Y-12907476D02*
X15305229Y-12917000D01*
X15305229Y-12917000D02*
X15295705Y-12926524D01*
X15295705Y-12926524D02*
X15286182Y-12917000D01*
X15286182Y-12917000D02*
X15295705Y-12907476D01*
X15295705Y-12907476D02*
X15295705Y-12926524D01*
X15295705Y-12802714D02*
X15305229Y-12812238D01*
X15305229Y-12812238D02*
X15295705Y-12821762D01*
X15295705Y-12821762D02*
X15286182Y-12812238D01*
X15286182Y-12812238D02*
X15295705Y-12802714D01*
X15295705Y-12802714D02*
X15295705Y-12821762D01*
D11*
X13598500Y-13222540D02*
X13663500Y-13287540D01*
X13663500Y-13222540D02*
X13598500Y-13287540D01*
D10*
X13962372Y-13146524D02*
X13981420Y-13146524D01*
X13981420Y-13146524D02*
X14000467Y-13156047D01*
X14000467Y-13156047D02*
X14009991Y-13165571D01*
X14009991Y-13165571D02*
X14019515Y-13184619D01*
X14019515Y-13184619D02*
X14029039Y-13222714D01*
X14029039Y-13222714D02*
X14029039Y-13270333D01*
X14029039Y-13270333D02*
X14019515Y-13308428D01*
X14019515Y-13308428D02*
X14009991Y-13327476D01*
X14009991Y-13327476D02*
X14000467Y-13337000D01*
X14000467Y-13337000D02*
X13981420Y-13346524D01*
X13981420Y-13346524D02*
X13962372Y-13346524D01*
X13962372Y-13346524D02*
X13943324Y-13337000D01*
X13943324Y-13337000D02*
X13933801Y-13327476D01*
X13933801Y-13327476D02*
X13924277Y-13308428D01*
X13924277Y-13308428D02*
X13914753Y-13270333D01*
X13914753Y-13270333D02*
X13914753Y-13222714D01*
X13914753Y-13222714D02*
X13924277Y-13184619D01*
X13924277Y-13184619D02*
X13933801Y-13165571D01*
X13933801Y-13165571D02*
X13943324Y-13156047D01*
X13943324Y-13156047D02*
X13962372Y-13146524D01*
X14114753Y-13327476D02*
X14124277Y-13337000D01*
X14124277Y-13337000D02*
X14114753Y-13346524D01*
X14114753Y-13346524D02*
X14105229Y-13337000D01*
X14105229Y-13337000D02*
X14114753Y-13327476D01*
X14114753Y-13327476D02*
X14114753Y-13346524D01*
X14295705Y-13146524D02*
X14257610Y-13146524D01*
X14257610Y-13146524D02*
X14238562Y-13156047D01*
X14238562Y-13156047D02*
X14229039Y-13165571D01*
X14229039Y-13165571D02*
X14209991Y-13194143D01*
X14209991Y-13194143D02*
X14200467Y-13232238D01*
X14200467Y-13232238D02*
X14200467Y-13308428D01*
X14200467Y-13308428D02*
X14209991Y-13327476D01*
X14209991Y-13327476D02*
X14219515Y-13337000D01*
X14219515Y-13337000D02*
X14238562Y-13346524D01*
X14238562Y-13346524D02*
X14276658Y-13346524D01*
X14276658Y-13346524D02*
X14295705Y-13337000D01*
X14295705Y-13337000D02*
X14305229Y-13327476D01*
X14305229Y-13327476D02*
X14314753Y-13308428D01*
X14314753Y-13308428D02*
X14314753Y-13260809D01*
X14314753Y-13260809D02*
X14305229Y-13241762D01*
X14305229Y-13241762D02*
X14295705Y-13232238D01*
X14295705Y-13232238D02*
X14276658Y-13222714D01*
X14276658Y-13222714D02*
X14238562Y-13222714D01*
X14238562Y-13222714D02*
X14219515Y-13232238D01*
X14219515Y-13232238D02*
X14209991Y-13241762D01*
X14209991Y-13241762D02*
X14200467Y-13260809D01*
X14495705Y-13146524D02*
X14400467Y-13146524D01*
X14400467Y-13146524D02*
X14390943Y-13241762D01*
X14390943Y-13241762D02*
X14400467Y-13232238D01*
X14400467Y-13232238D02*
X14419515Y-13222714D01*
X14419515Y-13222714D02*
X14467134Y-13222714D01*
X14467134Y-13222714D02*
X14486182Y-13232238D01*
X14486182Y-13232238D02*
X14495705Y-13241762D01*
X14495705Y-13241762D02*
X14505229Y-13260809D01*
X14505229Y-13260809D02*
X14505229Y-13308428D01*
X14505229Y-13308428D02*
X14495705Y-13327476D01*
X14495705Y-13327476D02*
X14486182Y-13337000D01*
X14486182Y-13337000D02*
X14467134Y-13346524D01*
X14467134Y-13346524D02*
X14419515Y-13346524D01*
X14419515Y-13346524D02*
X14400467Y-13337000D01*
X14400467Y-13337000D02*
X14390943Y-13327476D01*
X14629039Y-13146524D02*
X14648086Y-13146524D01*
X14648086Y-13146524D02*
X14667134Y-13156047D01*
X14667134Y-13156047D02*
X14676658Y-13165571D01*
X14676658Y-13165571D02*
X14686182Y-13184619D01*
X14686182Y-13184619D02*
X14695705Y-13222714D01*
X14695705Y-13222714D02*
X14695705Y-13270333D01*
X14695705Y-13270333D02*
X14686182Y-13308428D01*
X14686182Y-13308428D02*
X14676658Y-13327476D01*
X14676658Y-13327476D02*
X14667134Y-13337000D01*
X14667134Y-13337000D02*
X14648086Y-13346524D01*
X14648086Y-13346524D02*
X14629039Y-13346524D01*
X14629039Y-13346524D02*
X14609991Y-13337000D01*
X14609991Y-13337000D02*
X14600467Y-13327476D01*
X14600467Y-13327476D02*
X14590943Y-13308428D01*
X14590943Y-13308428D02*
X14581420Y-13270333D01*
X14581420Y-13270333D02*
X14581420Y-13222714D01*
X14581420Y-13222714D02*
X14590943Y-13184619D01*
X14590943Y-13184619D02*
X14600467Y-13165571D01*
X14600467Y-13165571D02*
X14609991Y-13156047D01*
X14609991Y-13156047D02*
X14629039Y-13146524D01*
X14781420Y-13346524D02*
X14781420Y-13213190D01*
X14781420Y-13232238D02*
X14790943Y-13222714D01*
X14790943Y-13222714D02*
X14809991Y-13213190D01*
X14809991Y-13213190D02*
X14838563Y-13213190D01*
X14838563Y-13213190D02*
X14857610Y-13222714D01*
X14857610Y-13222714D02*
X14867134Y-13241762D01*
X14867134Y-13241762D02*
X14867134Y-13346524D01*
X14867134Y-13241762D02*
X14876658Y-13222714D01*
X14876658Y-13222714D02*
X14895705Y-13213190D01*
X14895705Y-13213190D02*
X14924277Y-13213190D01*
X14924277Y-13213190D02*
X14943324Y-13222714D01*
X14943324Y-13222714D02*
X14952848Y-13241762D01*
X14952848Y-13241762D02*
X14952848Y-13346524D01*
X15048086Y-13346524D02*
X15048086Y-13213190D01*
X15048086Y-13232238D02*
X15057610Y-13222714D01*
X15057610Y-13222714D02*
X15076658Y-13213190D01*
X15076658Y-13213190D02*
X15105229Y-13213190D01*
X15105229Y-13213190D02*
X15124277Y-13222714D01*
X15124277Y-13222714D02*
X15133801Y-13241762D01*
X15133801Y-13241762D02*
X15133801Y-13346524D01*
X15133801Y-13241762D02*
X15143324Y-13222714D01*
X15143324Y-13222714D02*
X15162372Y-13213190D01*
X15162372Y-13213190D02*
X15190943Y-13213190D01*
X15190943Y-13213190D02*
X15209991Y-13222714D01*
X15209991Y-13222714D02*
X15219515Y-13241762D01*
X15219515Y-13241762D02*
X15219515Y-13346524D01*
X15609991Y-13137000D02*
X15438563Y-13394143D01*
X15867134Y-13146524D02*
X15886182Y-13146524D01*
X15886182Y-13146524D02*
X15905229Y-13156047D01*
X15905229Y-13156047D02*
X15914753Y-13165571D01*
X15914753Y-13165571D02*
X15924277Y-13184619D01*
X15924277Y-13184619D02*
X15933801Y-13222714D01*
X15933801Y-13222714D02*
X15933801Y-13270333D01*
X15933801Y-13270333D02*
X15924277Y-13308428D01*
X15924277Y-13308428D02*
X15914753Y-13327476D01*
X15914753Y-13327476D02*
X15905229Y-13337000D01*
X15905229Y-13337000D02*
X15886182Y-13346524D01*
X15886182Y-13346524D02*
X15867134Y-13346524D01*
X15867134Y-13346524D02*
X15848086Y-13337000D01*
X15848086Y-13337000D02*
X15838563Y-13327476D01*
X15838563Y-13327476D02*
X15829039Y-13308428D01*
X15829039Y-13308428D02*
X15819515Y-13270333D01*
X15819515Y-13270333D02*
X15819515Y-13222714D01*
X15819515Y-13222714D02*
X15829039Y-13184619D01*
X15829039Y-13184619D02*
X15838563Y-13165571D01*
X15838563Y-13165571D02*
X15848086Y-13156047D01*
X15848086Y-13156047D02*
X15867134Y-13146524D01*
X16019515Y-13327476D02*
X16029039Y-13337000D01*
X16029039Y-13337000D02*
X16019515Y-13346524D01*
X16019515Y-13346524D02*
X16009991Y-13337000D01*
X16009991Y-13337000D02*
X16019515Y-13327476D01*
X16019515Y-13327476D02*
X16019515Y-13346524D01*
X16152848Y-13146524D02*
X16171896Y-13146524D01*
X16171896Y-13146524D02*
X16190944Y-13156047D01*
X16190944Y-13156047D02*
X16200467Y-13165571D01*
X16200467Y-13165571D02*
X16209991Y-13184619D01*
X16209991Y-13184619D02*
X16219515Y-13222714D01*
X16219515Y-13222714D02*
X16219515Y-13270333D01*
X16219515Y-13270333D02*
X16209991Y-13308428D01*
X16209991Y-13308428D02*
X16200467Y-13327476D01*
X16200467Y-13327476D02*
X16190944Y-13337000D01*
X16190944Y-13337000D02*
X16171896Y-13346524D01*
X16171896Y-13346524D02*
X16152848Y-13346524D01*
X16152848Y-13346524D02*
X16133801Y-13337000D01*
X16133801Y-13337000D02*
X16124277Y-13327476D01*
X16124277Y-13327476D02*
X16114753Y-13308428D01*
X16114753Y-13308428D02*
X16105229Y-13270333D01*
X16105229Y-13270333D02*
X16105229Y-13222714D01*
X16105229Y-13222714D02*
X16114753Y-13184619D01*
X16114753Y-13184619D02*
X16124277Y-13165571D01*
X16124277Y-13165571D02*
X16133801Y-13156047D01*
X16133801Y-13156047D02*
X16152848Y-13146524D01*
X16295706Y-13165571D02*
X16305229Y-13156047D01*
X16305229Y-13156047D02*
X16324277Y-13146524D01*
X16324277Y-13146524D02*
X16371896Y-13146524D01*
X16371896Y-13146524D02*
X16390944Y-13156047D01*
X16390944Y-13156047D02*
X16400467Y-13165571D01*
X16400467Y-13165571D02*
X16409991Y-13184619D01*
X16409991Y-13184619D02*
X16409991Y-13203666D01*
X16409991Y-13203666D02*
X16400467Y-13232238D01*
X16400467Y-13232238D02*
X16286182Y-13346524D01*
X16286182Y-13346524D02*
X16409991Y-13346524D01*
X16590944Y-13146524D02*
X16495706Y-13146524D01*
X16495706Y-13146524D02*
X16486182Y-13241762D01*
X16486182Y-13241762D02*
X16495706Y-13232238D01*
X16495706Y-13232238D02*
X16514753Y-13222714D01*
X16514753Y-13222714D02*
X16562372Y-13222714D01*
X16562372Y-13222714D02*
X16581420Y-13232238D01*
X16581420Y-13232238D02*
X16590944Y-13241762D01*
X16590944Y-13241762D02*
X16600467Y-13260809D01*
X16600467Y-13260809D02*
X16600467Y-13308428D01*
X16600467Y-13308428D02*
X16590944Y-13327476D01*
X16590944Y-13327476D02*
X16581420Y-13337000D01*
X16581420Y-13337000D02*
X16562372Y-13346524D01*
X16562372Y-13346524D02*
X16514753Y-13346524D01*
X16514753Y-13346524D02*
X16495706Y-13337000D01*
X16495706Y-13337000D02*
X16486182Y-13327476D01*
X16771896Y-13146524D02*
X16733801Y-13146524D01*
X16733801Y-13146524D02*
X16714753Y-13156047D01*
X16714753Y-13156047D02*
X16705229Y-13165571D01*
X16705229Y-13165571D02*
X16686182Y-13194143D01*
X16686182Y-13194143D02*
X16676658Y-13232238D01*
X16676658Y-13232238D02*
X16676658Y-13308428D01*
X16676658Y-13308428D02*
X16686182Y-13327476D01*
X16686182Y-13327476D02*
X16695706Y-13337000D01*
X16695706Y-13337000D02*
X16714753Y-13346524D01*
X16714753Y-13346524D02*
X16752848Y-13346524D01*
X16752848Y-13346524D02*
X16771896Y-13337000D01*
X16771896Y-13337000D02*
X16781420Y-13327476D01*
X16781420Y-13327476D02*
X16790944Y-13308428D01*
X16790944Y-13308428D02*
X16790944Y-13260809D01*
X16790944Y-13260809D02*
X16781420Y-13241762D01*
X16781420Y-13241762D02*
X16771896Y-13232238D01*
X16771896Y-13232238D02*
X16752848Y-13222714D01*
X16752848Y-13222714D02*
X16714753Y-13222714D01*
X16714753Y-13222714D02*
X16695706Y-13232238D01*
X16695706Y-13232238D02*
X16686182Y-13241762D01*
X16686182Y-13241762D02*
X16676658Y-13260809D01*
X16867134Y-13146524D02*
X16867134Y-13184619D01*
X16943325Y-13146524D02*
X16943325Y-13184619D01*
X17238563Y-13422714D02*
X17229039Y-13413190D01*
X17229039Y-13413190D02*
X17209991Y-13384619D01*
X17209991Y-13384619D02*
X17200468Y-13365571D01*
X17200468Y-13365571D02*
X17190944Y-13337000D01*
X17190944Y-13337000D02*
X17181420Y-13289381D01*
X17181420Y-13289381D02*
X17181420Y-13251286D01*
X17181420Y-13251286D02*
X17190944Y-13203666D01*
X17190944Y-13203666D02*
X17200468Y-13175095D01*
X17200468Y-13175095D02*
X17209991Y-13156047D01*
X17209991Y-13156047D02*
X17229039Y-13127476D01*
X17229039Y-13127476D02*
X17238563Y-13117952D01*
X17305230Y-13165571D02*
X17314753Y-13156047D01*
X17314753Y-13156047D02*
X17333801Y-13146524D01*
X17333801Y-13146524D02*
X17381420Y-13146524D01*
X17381420Y-13146524D02*
X17400468Y-13156047D01*
X17400468Y-13156047D02*
X17409991Y-13165571D01*
X17409991Y-13165571D02*
X17419515Y-13184619D01*
X17419515Y-13184619D02*
X17419515Y-13203666D01*
X17419515Y-13203666D02*
X17409991Y-13232238D01*
X17409991Y-13232238D02*
X17295706Y-13346524D01*
X17295706Y-13346524D02*
X17419515Y-13346524D01*
X17657611Y-13346524D02*
X17657611Y-13146524D01*
X17743325Y-13346524D02*
X17743325Y-13241762D01*
X17743325Y-13241762D02*
X17733801Y-13222714D01*
X17733801Y-13222714D02*
X17714753Y-13213190D01*
X17714753Y-13213190D02*
X17686182Y-13213190D01*
X17686182Y-13213190D02*
X17667134Y-13222714D01*
X17667134Y-13222714D02*
X17657611Y-13232238D01*
X17867134Y-13346524D02*
X17848087Y-13337000D01*
X17848087Y-13337000D02*
X17838563Y-13327476D01*
X17838563Y-13327476D02*
X17829039Y-13308428D01*
X17829039Y-13308428D02*
X17829039Y-13251286D01*
X17829039Y-13251286D02*
X17838563Y-13232238D01*
X17838563Y-13232238D02*
X17848087Y-13222714D01*
X17848087Y-13222714D02*
X17867134Y-13213190D01*
X17867134Y-13213190D02*
X17895706Y-13213190D01*
X17895706Y-13213190D02*
X17914753Y-13222714D01*
X17914753Y-13222714D02*
X17924277Y-13232238D01*
X17924277Y-13232238D02*
X17933801Y-13251286D01*
X17933801Y-13251286D02*
X17933801Y-13308428D01*
X17933801Y-13308428D02*
X17924277Y-13327476D01*
X17924277Y-13327476D02*
X17914753Y-13337000D01*
X17914753Y-13337000D02*
X17895706Y-13346524D01*
X17895706Y-13346524D02*
X17867134Y-13346524D01*
X18048087Y-13346524D02*
X18029039Y-13337000D01*
X18029039Y-13337000D02*
X18019515Y-13317952D01*
X18019515Y-13317952D02*
X18019515Y-13146524D01*
X18200468Y-13337000D02*
X18181420Y-13346524D01*
X18181420Y-13346524D02*
X18143325Y-13346524D01*
X18143325Y-13346524D02*
X18124277Y-13337000D01*
X18124277Y-13337000D02*
X18114753Y-13317952D01*
X18114753Y-13317952D02*
X18114753Y-13241762D01*
X18114753Y-13241762D02*
X18124277Y-13222714D01*
X18124277Y-13222714D02*
X18143325Y-13213190D01*
X18143325Y-13213190D02*
X18181420Y-13213190D01*
X18181420Y-13213190D02*
X18200468Y-13222714D01*
X18200468Y-13222714D02*
X18209992Y-13241762D01*
X18209992Y-13241762D02*
X18209992Y-13260809D01*
X18209992Y-13260809D02*
X18114753Y-13279857D01*
X18286182Y-13337000D02*
X18305230Y-13346524D01*
X18305230Y-13346524D02*
X18343325Y-13346524D01*
X18343325Y-13346524D02*
X18362373Y-13337000D01*
X18362373Y-13337000D02*
X18371896Y-13317952D01*
X18371896Y-13317952D02*
X18371896Y-13308428D01*
X18371896Y-13308428D02*
X18362373Y-13289381D01*
X18362373Y-13289381D02*
X18343325Y-13279857D01*
X18343325Y-13279857D02*
X18314753Y-13279857D01*
X18314753Y-13279857D02*
X18295706Y-13270333D01*
X18295706Y-13270333D02*
X18286182Y-13251286D01*
X18286182Y-13251286D02*
X18286182Y-13241762D01*
X18286182Y-13241762D02*
X18295706Y-13222714D01*
X18295706Y-13222714D02*
X18314753Y-13213190D01*
X18314753Y-13213190D02*
X18343325Y-13213190D01*
X18343325Y-13213190D02*
X18362373Y-13222714D01*
X18438563Y-13422714D02*
X18448087Y-13413190D01*
X18448087Y-13413190D02*
X18467134Y-13384619D01*
X18467134Y-13384619D02*
X18476658Y-13365571D01*
X18476658Y-13365571D02*
X18486182Y-13337000D01*
X18486182Y-13337000D02*
X18495706Y-13289381D01*
X18495706Y-13289381D02*
X18495706Y-13251286D01*
X18495706Y-13251286D02*
X18486182Y-13203666D01*
X18486182Y-13203666D02*
X18476658Y-13175095D01*
X18476658Y-13175095D02*
X18467134Y-13156047D01*
X18467134Y-13156047D02*
X18448087Y-13127476D01*
X18448087Y-13127476D02*
X18438563Y-13117952D01*
X18800468Y-13422714D02*
X18790944Y-13413190D01*
X18790944Y-13413190D02*
X18771896Y-13384619D01*
X18771896Y-13384619D02*
X18762373Y-13365571D01*
X18762373Y-13365571D02*
X18752849Y-13337000D01*
X18752849Y-13337000D02*
X18743325Y-13289381D01*
X18743325Y-13289381D02*
X18743325Y-13251286D01*
X18743325Y-13251286D02*
X18752849Y-13203666D01*
X18752849Y-13203666D02*
X18762373Y-13175095D01*
X18762373Y-13175095D02*
X18771896Y-13156047D01*
X18771896Y-13156047D02*
X18790944Y-13127476D01*
X18790944Y-13127476D02*
X18800468Y-13117952D01*
X18876658Y-13213190D02*
X18876658Y-13346524D01*
X18876658Y-13232238D02*
X18886182Y-13222714D01*
X18886182Y-13222714D02*
X18905230Y-13213190D01*
X18905230Y-13213190D02*
X18933801Y-13213190D01*
X18933801Y-13213190D02*
X18952849Y-13222714D01*
X18952849Y-13222714D02*
X18962373Y-13241762D01*
X18962373Y-13241762D02*
X18962373Y-13346524D01*
X19086182Y-13346524D02*
X19067134Y-13337000D01*
X19067134Y-13337000D02*
X19057611Y-13327476D01*
X19057611Y-13327476D02*
X19048087Y-13308428D01*
X19048087Y-13308428D02*
X19048087Y-13251286D01*
X19048087Y-13251286D02*
X19057611Y-13232238D01*
X19057611Y-13232238D02*
X19067134Y-13222714D01*
X19067134Y-13222714D02*
X19086182Y-13213190D01*
X19086182Y-13213190D02*
X19114754Y-13213190D01*
X19114754Y-13213190D02*
X19133801Y-13222714D01*
X19133801Y-13222714D02*
X19143325Y-13232238D01*
X19143325Y-13232238D02*
X19152849Y-13251286D01*
X19152849Y-13251286D02*
X19152849Y-13308428D01*
X19152849Y-13308428D02*
X19143325Y-13327476D01*
X19143325Y-13327476D02*
X19133801Y-13337000D01*
X19133801Y-13337000D02*
X19114754Y-13346524D01*
X19114754Y-13346524D02*
X19086182Y-13346524D01*
X19209992Y-13213190D02*
X19286182Y-13213190D01*
X19238563Y-13146524D02*
X19238563Y-13317952D01*
X19238563Y-13317952D02*
X19248087Y-13337000D01*
X19248087Y-13337000D02*
X19267134Y-13346524D01*
X19267134Y-13346524D02*
X19286182Y-13346524D01*
X19505230Y-13213190D02*
X19505230Y-13413190D01*
X19505230Y-13222714D02*
X19524277Y-13213190D01*
X19524277Y-13213190D02*
X19562373Y-13213190D01*
X19562373Y-13213190D02*
X19581420Y-13222714D01*
X19581420Y-13222714D02*
X19590944Y-13232238D01*
X19590944Y-13232238D02*
X19600468Y-13251286D01*
X19600468Y-13251286D02*
X19600468Y-13308428D01*
X19600468Y-13308428D02*
X19590944Y-13327476D01*
X19590944Y-13327476D02*
X19581420Y-13337000D01*
X19581420Y-13337000D02*
X19562373Y-13346524D01*
X19562373Y-13346524D02*
X19524277Y-13346524D01*
X19524277Y-13346524D02*
X19505230Y-13337000D01*
X19714754Y-13346524D02*
X19695706Y-13337000D01*
X19695706Y-13337000D02*
X19686182Y-13317952D01*
X19686182Y-13317952D02*
X19686182Y-13146524D01*
X19876658Y-13346524D02*
X19876658Y-13241762D01*
X19876658Y-13241762D02*
X19867135Y-13222714D01*
X19867135Y-13222714D02*
X19848087Y-13213190D01*
X19848087Y-13213190D02*
X19809992Y-13213190D01*
X19809992Y-13213190D02*
X19790944Y-13222714D01*
X19876658Y-13337000D02*
X19857611Y-13346524D01*
X19857611Y-13346524D02*
X19809992Y-13346524D01*
X19809992Y-13346524D02*
X19790944Y-13337000D01*
X19790944Y-13337000D02*
X19781420Y-13317952D01*
X19781420Y-13317952D02*
X19781420Y-13298905D01*
X19781420Y-13298905D02*
X19790944Y-13279857D01*
X19790944Y-13279857D02*
X19809992Y-13270333D01*
X19809992Y-13270333D02*
X19857611Y-13270333D01*
X19857611Y-13270333D02*
X19876658Y-13260809D01*
X19943325Y-13213190D02*
X20019515Y-13213190D01*
X19971896Y-13146524D02*
X19971896Y-13317952D01*
X19971896Y-13317952D02*
X19981420Y-13337000D01*
X19981420Y-13337000D02*
X20000468Y-13346524D01*
X20000468Y-13346524D02*
X20019515Y-13346524D01*
X20162373Y-13337000D02*
X20143325Y-13346524D01*
X20143325Y-13346524D02*
X20105230Y-13346524D01*
X20105230Y-13346524D02*
X20086182Y-13337000D01*
X20086182Y-13337000D02*
X20076658Y-13317952D01*
X20076658Y-13317952D02*
X20076658Y-13241762D01*
X20076658Y-13241762D02*
X20086182Y-13222714D01*
X20086182Y-13222714D02*
X20105230Y-13213190D01*
X20105230Y-13213190D02*
X20143325Y-13213190D01*
X20143325Y-13213190D02*
X20162373Y-13222714D01*
X20162373Y-13222714D02*
X20171896Y-13241762D01*
X20171896Y-13241762D02*
X20171896Y-13260809D01*
X20171896Y-13260809D02*
X20076658Y-13279857D01*
X20343325Y-13346524D02*
X20343325Y-13146524D01*
X20343325Y-13337000D02*
X20324277Y-13346524D01*
X20324277Y-13346524D02*
X20286182Y-13346524D01*
X20286182Y-13346524D02*
X20267135Y-13337000D01*
X20267135Y-13337000D02*
X20257611Y-13327476D01*
X20257611Y-13327476D02*
X20248087Y-13308428D01*
X20248087Y-13308428D02*
X20248087Y-13251286D01*
X20248087Y-13251286D02*
X20257611Y-13232238D01*
X20257611Y-13232238D02*
X20267135Y-13222714D01*
X20267135Y-13222714D02*
X20286182Y-13213190D01*
X20286182Y-13213190D02*
X20324277Y-13213190D01*
X20324277Y-13213190D02*
X20343325Y-13222714D01*
X20419516Y-13422714D02*
X20429039Y-13413190D01*
X20429039Y-13413190D02*
X20448087Y-13384619D01*
X20448087Y-13384619D02*
X20457611Y-13365571D01*
X20457611Y-13365571D02*
X20467135Y-13337000D01*
X20467135Y-13337000D02*
X20476658Y-13289381D01*
X20476658Y-13289381D02*
X20476658Y-13251286D01*
X20476658Y-13251286D02*
X20467135Y-13203666D01*
X20467135Y-13203666D02*
X20457611Y-13175095D01*
X20457611Y-13175095D02*
X20448087Y-13156047D01*
X20448087Y-13156047D02*
X20429039Y-13127476D01*
X20429039Y-13127476D02*
X20419516Y-13117952D01*
M02*
