%TF.GenerationSoftware,KiCad,Pcbnew,8.0.5*%
%TF.CreationDate,2025-01-30T00:47:00+01:00*%
%TF.ProjectId,LAMP_OUTDOOR_BATTERY,4c414d50-5f4f-4555-9444-4f4f525f4241,rev?*%
%TF.SameCoordinates,Original*%
%TF.FileFunction,Legend,Top*%
%TF.FilePolarity,Positive*%
%FSLAX46Y46*%
G04 Gerber Fmt 4.6, Leading zero omitted, Abs format (unit mm)*
G04 Created by KiCad (PCBNEW 8.0.5) date 2025-01-30 00:47:00*
%MOMM*%
%LPD*%
G01*
G04 APERTURE LIST*
%ADD10C,0.100000*%
%ADD11C,0.150000*%
%ADD12C,0.127000*%
%ADD13C,0.200000*%
%ADD14C,0.120000*%
G04 APERTURE END LIST*
D10*
X158880000Y-106350000D02*
X159750000Y-106350000D01*
X159320000Y-106780000D02*
X158880000Y-106350000D01*
X159750000Y-106350000D02*
X159320000Y-106780000D01*
X159320000Y-106780000D02*
X159750000Y-106350000D01*
X159310000Y-101900000D02*
X159315000Y-106350000D01*
G36*
X157833083Y-102186686D02*
G01*
X157877473Y-102208367D01*
X157890757Y-102231300D01*
X157897990Y-102281639D01*
X157897990Y-102793572D01*
X157896367Y-102819908D01*
X157877473Y-102866845D01*
X157867774Y-102875601D01*
X157819588Y-102889316D01*
X157741186Y-102889316D01*
X157741186Y-102185896D01*
X157819588Y-102185896D01*
X157833083Y-102186686D01*
G37*
G36*
X158551320Y-103141111D02*
G01*
X156486286Y-103141111D01*
X156486286Y-103030000D01*
X156597397Y-103030000D01*
X157004794Y-103030000D01*
X157079043Y-103030000D01*
X157499141Y-103030000D01*
X157499141Y-102889316D01*
X157587069Y-102889316D01*
X157587069Y-103030000D01*
X157822274Y-103030000D01*
X157856746Y-103028491D01*
X157906072Y-103019801D01*
X157952987Y-103000792D01*
X157994466Y-102968206D01*
X158019577Y-102933600D01*
X158039251Y-102886092D01*
X158049116Y-102836240D01*
X158051863Y-102786734D01*
X158051863Y-102607948D01*
X158132219Y-102607948D01*
X158440209Y-102607948D01*
X158440209Y-102467264D01*
X158132219Y-102467264D01*
X158132219Y-102607948D01*
X158051863Y-102607948D01*
X158051863Y-102288478D01*
X158050461Y-102252562D01*
X158042390Y-102200951D01*
X158024734Y-102151500D01*
X157994466Y-102107250D01*
X157970924Y-102086167D01*
X157928044Y-102062721D01*
X157876084Y-102049090D01*
X157822274Y-102045212D01*
X157587069Y-102045212D01*
X157587069Y-102889316D01*
X157499141Y-102889316D01*
X157233161Y-102889316D01*
X157233161Y-102592316D01*
X157444431Y-102592316D01*
X157444431Y-102451632D01*
X157233161Y-102451632D01*
X157233161Y-102185896D01*
X157499141Y-102185896D01*
X157499141Y-102045212D01*
X157079043Y-102045212D01*
X157079043Y-103030000D01*
X157004794Y-103030000D01*
X157004794Y-102889316D01*
X156751514Y-102889316D01*
X156751514Y-102045212D01*
X156597397Y-102045212D01*
X156597397Y-103030000D01*
X156486286Y-103030000D01*
X156486286Y-101934101D01*
X158551320Y-101934101D01*
X158551320Y-103141111D01*
G37*
G36*
X157742225Y-100736686D02*
G01*
X157786615Y-100758367D01*
X157799899Y-100781300D01*
X157807132Y-100831639D01*
X157807132Y-101343572D01*
X157805509Y-101369908D01*
X157786615Y-101416845D01*
X157776916Y-101425601D01*
X157728730Y-101439316D01*
X157650328Y-101439316D01*
X157650328Y-100735896D01*
X157728730Y-100735896D01*
X157742225Y-100736686D01*
G37*
G36*
X158639736Y-101691111D02*
G01*
X156395428Y-101691111D01*
X156395428Y-101580000D01*
X156506539Y-101580000D01*
X156913936Y-101580000D01*
X156988185Y-101580000D01*
X157408283Y-101580000D01*
X157408283Y-101439316D01*
X157496211Y-101439316D01*
X157496211Y-101580000D01*
X157731416Y-101580000D01*
X157765888Y-101578491D01*
X157815214Y-101569801D01*
X157862129Y-101550792D01*
X157903608Y-101518206D01*
X157928719Y-101483600D01*
X157948393Y-101436092D01*
X157958258Y-101386240D01*
X157961005Y-101336734D01*
X157961005Y-101032896D01*
X158044292Y-101032896D01*
X158044292Y-101142316D01*
X158231870Y-101142316D01*
X158231870Y-101329895D01*
X158341047Y-101329895D01*
X158341047Y-101142316D01*
X158528625Y-101142316D01*
X158528625Y-101032896D01*
X158341047Y-101032896D01*
X158341047Y-100829685D01*
X158231870Y-100829685D01*
X158231870Y-101032896D01*
X158044292Y-101032896D01*
X157961005Y-101032896D01*
X157961005Y-100838478D01*
X157959603Y-100802562D01*
X157951532Y-100750951D01*
X157933876Y-100701500D01*
X157903608Y-100657250D01*
X157880066Y-100636167D01*
X157837186Y-100612721D01*
X157785226Y-100599090D01*
X157731416Y-100595212D01*
X157496211Y-100595212D01*
X157496211Y-101439316D01*
X157408283Y-101439316D01*
X157142303Y-101439316D01*
X157142303Y-101142316D01*
X157353573Y-101142316D01*
X157353573Y-101001632D01*
X157142303Y-101001632D01*
X157142303Y-100735896D01*
X157408283Y-100735896D01*
X157408283Y-100595212D01*
X156988185Y-100595212D01*
X156988185Y-101580000D01*
X156913936Y-101580000D01*
X156913936Y-101439316D01*
X156660656Y-101439316D01*
X156660656Y-100595212D01*
X156506539Y-100595212D01*
X156506539Y-101580000D01*
X156395428Y-101580000D01*
X156395428Y-100484101D01*
X158639736Y-100484101D01*
X158639736Y-101691111D01*
G37*
G36*
X157984302Y-87197973D02*
G01*
X158017762Y-87236326D01*
X158025561Y-87287718D01*
X158025561Y-87827494D01*
X158021739Y-87865467D01*
X157994363Y-87911243D01*
X157945694Y-87924947D01*
X157907204Y-87917238D01*
X157873846Y-87878885D01*
X157866071Y-87827494D01*
X157866071Y-87287718D01*
X157869881Y-87249745D01*
X157897173Y-87203969D01*
X157945694Y-87190265D01*
X157984302Y-87197973D01*
G37*
G36*
X157397887Y-87206738D02*
G01*
X157442798Y-87229832D01*
X157455821Y-87256433D01*
X157461849Y-87307257D01*
X157461849Y-87383217D01*
X157459107Y-87418028D01*
X157438646Y-87463328D01*
X157418164Y-87477914D01*
X157369525Y-87487264D01*
X157313593Y-87487264D01*
X157313593Y-87205896D01*
X157383447Y-87205896D01*
X157397887Y-87206738D01*
G37*
G36*
X158529008Y-87206686D02*
G01*
X158573398Y-87228367D01*
X158586682Y-87251300D01*
X158593914Y-87301639D01*
X158593914Y-87813572D01*
X158592291Y-87839908D01*
X158573398Y-87886845D01*
X158563699Y-87895601D01*
X158515512Y-87909316D01*
X158437110Y-87909316D01*
X158437110Y-87205896D01*
X158515512Y-87205896D01*
X158529008Y-87206686D01*
G37*
G36*
X159381822Y-88176742D02*
G01*
X154506286Y-88176742D01*
X154506286Y-88050000D01*
X154617397Y-88050000D01*
X155037494Y-88050000D01*
X155125422Y-88050000D01*
X155532819Y-88050000D01*
X155607069Y-88050000D01*
X156027166Y-88050000D01*
X156027166Y-87909316D01*
X155761186Y-87909316D01*
X155761186Y-87612316D01*
X155972456Y-87612316D01*
X155972456Y-87471632D01*
X155761186Y-87471632D01*
X155761186Y-87292358D01*
X156105324Y-87292358D01*
X156105324Y-87822854D01*
X156106743Y-87857756D01*
X156114918Y-87908291D01*
X156132799Y-87957334D01*
X156163454Y-88002128D01*
X156182895Y-88020422D01*
X156229435Y-88047709D01*
X156280049Y-88061662D01*
X156331981Y-88065631D01*
X156358821Y-88064643D01*
X156413211Y-88055191D01*
X156459294Y-88035731D01*
X156500753Y-88002372D01*
X156523403Y-87972088D01*
X156544351Y-87925802D01*
X156555250Y-87877717D01*
X156558883Y-87823098D01*
X156558883Y-87683635D01*
X156413314Y-87683635D01*
X156413314Y-87834577D01*
X156410609Y-87865289D01*
X156386191Y-87910033D01*
X156336378Y-87924947D01*
X156306304Y-87920623D01*
X156268317Y-87886028D01*
X156259197Y-87834577D01*
X156259197Y-87282100D01*
X156261910Y-87250890D01*
X156286406Y-87205421D01*
X156336378Y-87190265D01*
X156370037Y-87196020D01*
X156405801Y-87233787D01*
X156413314Y-87282344D01*
X156413314Y-87396894D01*
X156558883Y-87396894D01*
X156558883Y-87292358D01*
X156557464Y-87257456D01*
X156549289Y-87206920D01*
X156548916Y-87205896D01*
X156609930Y-87205896D01*
X156770886Y-87205896D01*
X156770886Y-88050000D01*
X156924759Y-88050000D01*
X156924759Y-87487264D01*
X157159476Y-87487264D01*
X157159476Y-88050000D01*
X157313593Y-88050000D01*
X157313593Y-87627948D01*
X157366594Y-87627948D01*
X157396795Y-87630572D01*
X157441577Y-87654815D01*
X157459154Y-87697671D01*
X157463314Y-87748848D01*
X157463314Y-87929099D01*
X157463482Y-87954363D01*
X157466001Y-88005059D01*
X157477236Y-88050000D01*
X157634040Y-88050000D01*
X157632668Y-88046852D01*
X157619874Y-87998953D01*
X157618457Y-87981069D01*
X157617187Y-87930809D01*
X157617187Y-87758129D01*
X157615737Y-87716837D01*
X157609007Y-87667189D01*
X157593984Y-87619155D01*
X157590985Y-87612790D01*
X157560285Y-87573806D01*
X157515094Y-87550279D01*
X157515094Y-87547592D01*
X157533121Y-87538950D01*
X157572524Y-87506187D01*
X157599318Y-87459289D01*
X157612420Y-87406657D01*
X157615966Y-87352930D01*
X157615966Y-87297976D01*
X157711953Y-87297976D01*
X157711953Y-87817236D01*
X157714066Y-87859777D01*
X157723454Y-87910648D01*
X157742993Y-87959887D01*
X157772037Y-88000662D01*
X157796523Y-88022742D01*
X157840240Y-88047295D01*
X157892342Y-88061571D01*
X157945694Y-88065631D01*
X157986403Y-88063347D01*
X158034832Y-88053196D01*
X158081322Y-88032068D01*
X158119351Y-88000662D01*
X158145744Y-87964835D01*
X158166423Y-87916537D01*
X158167919Y-87909316D01*
X158282993Y-87909316D01*
X158282993Y-88050000D01*
X158518199Y-88050000D01*
X158850614Y-88050000D01*
X159270711Y-88050000D01*
X159270711Y-87909316D01*
X159004731Y-87909316D01*
X159004731Y-87612316D01*
X159216001Y-87612316D01*
X159216001Y-87471632D01*
X159004731Y-87471632D01*
X159004731Y-87205896D01*
X159270711Y-87205896D01*
X159270711Y-87065212D01*
X158850614Y-87065212D01*
X158850614Y-88050000D01*
X158518199Y-88050000D01*
X158552671Y-88048491D01*
X158601997Y-88039801D01*
X158648912Y-88020792D01*
X158690390Y-87988206D01*
X158715502Y-87953600D01*
X158735176Y-87906092D01*
X158745041Y-87856240D01*
X158747787Y-87806734D01*
X158747787Y-87308478D01*
X158746386Y-87272562D01*
X158738315Y-87220951D01*
X158720658Y-87171500D01*
X158690390Y-87127250D01*
X158666849Y-87106167D01*
X158623969Y-87082721D01*
X158572009Y-87069090D01*
X158518199Y-87065212D01*
X158282993Y-87065212D01*
X158282993Y-87909316D01*
X158167919Y-87909316D01*
X158176792Y-87866502D01*
X158179678Y-87817236D01*
X158179678Y-87297976D01*
X158177558Y-87255435D01*
X158168131Y-87204563D01*
X158148513Y-87155325D01*
X158119351Y-87114549D01*
X158094939Y-87092470D01*
X158051269Y-87067917D01*
X157999137Y-87053641D01*
X157945694Y-87049581D01*
X157905059Y-87051865D01*
X157856676Y-87062016D01*
X157810164Y-87083144D01*
X157772037Y-87114549D01*
X157745751Y-87150377D01*
X157725155Y-87198675D01*
X157714829Y-87248710D01*
X157712552Y-87287718D01*
X157711953Y-87297976D01*
X157615966Y-87297976D01*
X157615966Y-87292358D01*
X157614630Y-87257647D01*
X157606937Y-87208210D01*
X157590107Y-87161572D01*
X157561256Y-87120900D01*
X157534330Y-87099201D01*
X157485118Y-87077448D01*
X157436648Y-87067877D01*
X157387599Y-87065212D01*
X157159476Y-87065212D01*
X157159476Y-87487264D01*
X156924759Y-87487264D01*
X156924759Y-87205896D01*
X157085959Y-87205896D01*
X157085959Y-87065212D01*
X156609930Y-87065212D01*
X156609930Y-87205896D01*
X156548916Y-87205896D01*
X156531408Y-87157878D01*
X156500753Y-87113084D01*
X156481306Y-87094790D01*
X156434718Y-87067503D01*
X156384020Y-87053550D01*
X156331981Y-87049581D01*
X156305199Y-87050573D01*
X156250909Y-87060061D01*
X156204889Y-87079596D01*
X156163454Y-87113084D01*
X156140804Y-87143368D01*
X156119856Y-87189654D01*
X156108957Y-87237739D01*
X156105324Y-87292358D01*
X155761186Y-87292358D01*
X155761186Y-87205896D01*
X156027166Y-87205896D01*
X156027166Y-87065212D01*
X155607069Y-87065212D01*
X155607069Y-88050000D01*
X155532819Y-88050000D01*
X155532819Y-87909316D01*
X155279539Y-87909316D01*
X155279539Y-87065212D01*
X155125422Y-87065212D01*
X155125422Y-88050000D01*
X155037494Y-88050000D01*
X155037494Y-87909316D01*
X154771514Y-87909316D01*
X154771514Y-87612316D01*
X154982784Y-87612316D01*
X154982784Y-87471632D01*
X154771514Y-87471632D01*
X154771514Y-87205896D01*
X155037494Y-87205896D01*
X155037494Y-87065212D01*
X154617397Y-87065212D01*
X154617397Y-88050000D01*
X154506286Y-88050000D01*
X154506286Y-86938470D01*
X159381822Y-86938470D01*
X159381822Y-88176742D01*
G37*
G36*
X156438561Y-69074821D02*
G01*
X156484445Y-69097962D01*
X156503206Y-69139521D01*
X156507648Y-69189797D01*
X156507648Y-69274061D01*
X156506102Y-69301145D01*
X156488108Y-69348066D01*
X156477026Y-69357363D01*
X156428024Y-69369316D01*
X156339853Y-69369316D01*
X156339853Y-69072316D01*
X156408241Y-69072316D01*
X156438561Y-69074821D01*
G37*
G36*
X156428381Y-68666755D02*
G01*
X156473454Y-68690321D01*
X156486953Y-68719819D01*
X156492260Y-68769211D01*
X156492260Y-68825387D01*
X156489519Y-68860951D01*
X156469057Y-68907208D01*
X156448575Y-68922092D01*
X156399937Y-68931632D01*
X156339853Y-68931632D01*
X156339853Y-68665896D01*
X156413858Y-68665896D01*
X156428381Y-68666755D01*
G37*
G36*
X157038387Y-69181737D02*
G01*
X156899902Y-69181737D01*
X156967068Y-68701800D01*
X156969755Y-68701800D01*
X157038387Y-69181737D01*
G37*
G36*
X158855290Y-69621111D02*
G01*
X156074625Y-69621111D01*
X156074625Y-68931632D01*
X156185736Y-68931632D01*
X156185736Y-69369316D01*
X156185736Y-69510000D01*
X156428024Y-69510000D01*
X156710858Y-69510000D01*
X156853496Y-69510000D01*
X156881583Y-69322421D01*
X157056706Y-69322421D01*
X157084549Y-69510000D01*
X157238666Y-69510000D01*
X157101751Y-68665896D01*
X157207159Y-68665896D01*
X157368115Y-68665896D01*
X157368115Y-69510000D01*
X157521988Y-69510000D01*
X157521988Y-68665896D01*
X157683188Y-68665896D01*
X157729839Y-68665896D01*
X157890795Y-68665896D01*
X157890795Y-69510000D01*
X158044668Y-69510000D01*
X158044668Y-68962896D01*
X158259846Y-68962896D01*
X158259846Y-69072316D01*
X158447424Y-69072316D01*
X158447424Y-69259895D01*
X158556601Y-69259895D01*
X158556601Y-69072316D01*
X158744179Y-69072316D01*
X158744179Y-68962896D01*
X158556601Y-68962896D01*
X158556601Y-68759685D01*
X158447424Y-68759685D01*
X158447424Y-68962896D01*
X158259846Y-68962896D01*
X158044668Y-68962896D01*
X158044668Y-68665896D01*
X158205868Y-68665896D01*
X158205868Y-68525212D01*
X157729839Y-68525212D01*
X157729839Y-68665896D01*
X157683188Y-68665896D01*
X157683188Y-68525212D01*
X157207159Y-68525212D01*
X157207159Y-68665896D01*
X157101751Y-68665896D01*
X157078932Y-68525212D01*
X156870348Y-68525212D01*
X156764021Y-69181737D01*
X156710858Y-69510000D01*
X156428024Y-69510000D01*
X156462544Y-69508556D01*
X156512144Y-69500245D01*
X156559661Y-69482062D01*
X156602170Y-69450893D01*
X156619338Y-69431116D01*
X156644946Y-69383727D01*
X156658040Y-69332145D01*
X156661765Y-69279190D01*
X156661765Y-69195903D01*
X156659971Y-69156882D01*
X156650555Y-69105662D01*
X156629367Y-69056997D01*
X156591700Y-69016007D01*
X156546971Y-68992937D01*
X156546971Y-68990251D01*
X156590812Y-68962041D01*
X156621709Y-68920397D01*
X156632502Y-68894324D01*
X156643463Y-68844402D01*
X156646378Y-68794856D01*
X156646378Y-68754801D01*
X156645042Y-68719725D01*
X156637348Y-68669781D01*
X156620518Y-68622681D01*
X156591667Y-68581632D01*
X156564753Y-68559648D01*
X156515599Y-68537609D01*
X156467208Y-68527912D01*
X156418255Y-68525212D01*
X156185736Y-68525212D01*
X156185736Y-68931632D01*
X156074625Y-68931632D01*
X156074625Y-68414101D01*
X158855290Y-68414101D01*
X158855290Y-69621111D01*
G37*
G36*
X156580222Y-119984821D02*
G01*
X156626106Y-120007962D01*
X156644867Y-120049521D01*
X156649309Y-120099797D01*
X156649309Y-120184061D01*
X156647763Y-120211145D01*
X156629769Y-120258066D01*
X156618687Y-120267363D01*
X156569685Y-120279316D01*
X156481514Y-120279316D01*
X156481514Y-119982316D01*
X156549902Y-119982316D01*
X156580222Y-119984821D01*
G37*
G36*
X156570042Y-119576755D02*
G01*
X156615115Y-119600321D01*
X156628614Y-119629819D01*
X156633921Y-119679211D01*
X156633921Y-119735387D01*
X156631180Y-119770951D01*
X156610718Y-119817208D01*
X156590236Y-119832092D01*
X156541598Y-119841632D01*
X156481514Y-119841632D01*
X156481514Y-119575896D01*
X156555519Y-119575896D01*
X156570042Y-119576755D01*
G37*
G36*
X157180048Y-120091737D02*
G01*
X157041563Y-120091737D01*
X157108729Y-119611800D01*
X157111416Y-119611800D01*
X157180048Y-120091737D01*
G37*
G36*
X158716072Y-120531111D02*
G01*
X156216286Y-120531111D01*
X156216286Y-119841632D01*
X156327397Y-119841632D01*
X156327397Y-120279316D01*
X156327397Y-120420000D01*
X156569685Y-120420000D01*
X156852519Y-120420000D01*
X156995157Y-120420000D01*
X157023244Y-120232421D01*
X157198367Y-120232421D01*
X157226210Y-120420000D01*
X157380327Y-120420000D01*
X157243412Y-119575896D01*
X157348820Y-119575896D01*
X157509776Y-119575896D01*
X157509776Y-120420000D01*
X157663649Y-120420000D01*
X157663649Y-119575896D01*
X157824849Y-119575896D01*
X157871500Y-119575896D01*
X158032456Y-119575896D01*
X158032456Y-120420000D01*
X158186329Y-120420000D01*
X158186329Y-119997948D01*
X158296971Y-119997948D01*
X158604961Y-119997948D01*
X158604961Y-119857264D01*
X158296971Y-119857264D01*
X158296971Y-119997948D01*
X158186329Y-119997948D01*
X158186329Y-119575896D01*
X158347529Y-119575896D01*
X158347529Y-119435212D01*
X157871500Y-119435212D01*
X157871500Y-119575896D01*
X157824849Y-119575896D01*
X157824849Y-119435212D01*
X157348820Y-119435212D01*
X157348820Y-119575896D01*
X157243412Y-119575896D01*
X157220593Y-119435212D01*
X157012009Y-119435212D01*
X156905682Y-120091737D01*
X156852519Y-120420000D01*
X156569685Y-120420000D01*
X156604205Y-120418556D01*
X156653805Y-120410245D01*
X156701322Y-120392062D01*
X156743831Y-120360893D01*
X156760999Y-120341116D01*
X156786607Y-120293727D01*
X156799701Y-120242145D01*
X156803426Y-120189190D01*
X156803426Y-120105903D01*
X156801632Y-120066882D01*
X156792216Y-120015662D01*
X156771028Y-119966997D01*
X156733361Y-119926007D01*
X156688632Y-119902937D01*
X156688632Y-119900251D01*
X156732473Y-119872041D01*
X156763370Y-119830397D01*
X156774163Y-119804324D01*
X156785124Y-119754402D01*
X156788039Y-119704856D01*
X156788039Y-119664801D01*
X156786703Y-119629725D01*
X156779009Y-119579781D01*
X156762179Y-119532681D01*
X156733328Y-119491632D01*
X156706414Y-119469648D01*
X156657260Y-119447609D01*
X156608869Y-119437912D01*
X156559916Y-119435212D01*
X156327397Y-119435212D01*
X156327397Y-119841632D01*
X156216286Y-119841632D01*
X156216286Y-119324101D01*
X158716072Y-119324101D01*
X158716072Y-120531111D01*
G37*
G36*
X153496289Y-73368635D02*
G01*
X153567743Y-73391607D01*
X153608374Y-73453454D01*
X153618690Y-73532972D01*
X153618690Y-73672923D01*
X153608374Y-73752441D01*
X153562521Y-73817983D01*
X153488265Y-73837421D01*
X153480263Y-73837260D01*
X153409010Y-73814289D01*
X153368493Y-73752441D01*
X153358205Y-73672923D01*
X153358205Y-73532972D01*
X153368493Y-73453454D01*
X153414217Y-73387912D01*
X153488265Y-73368475D01*
X153496289Y-73368635D01*
G37*
G36*
X153557723Y-72753320D02*
G01*
X153600614Y-72813753D01*
X153610264Y-72887072D01*
X153610264Y-73005774D01*
X153602639Y-73072132D01*
X153562608Y-73136120D01*
X153488265Y-73157449D01*
X153419015Y-73139526D01*
X153376253Y-73079093D01*
X153366632Y-73005774D01*
X153366632Y-72887072D01*
X153374234Y-72820714D01*
X153414145Y-72756727D01*
X153488265Y-72735397D01*
X153557723Y-72753320D01*
G37*
G36*
X154392301Y-73286451D02*
G01*
X154442337Y-73344990D01*
X154454001Y-73423429D01*
X154454001Y-73690875D01*
X154448286Y-73747977D01*
X154407347Y-73816813D01*
X154334566Y-73837421D01*
X154276655Y-73825829D01*
X154226464Y-73768155D01*
X154214765Y-73690875D01*
X154214765Y-73423429D01*
X154222253Y-73358354D01*
X154261562Y-73295603D01*
X154334566Y-73274685D01*
X154392301Y-73286451D01*
G37*
G36*
X156065297Y-72746960D02*
G01*
X156115487Y-72804490D01*
X156127187Y-72881577D01*
X156127187Y-73691242D01*
X156121454Y-73748200D01*
X156080389Y-73816865D01*
X156007385Y-73837421D01*
X155949651Y-73825858D01*
X155899614Y-73768328D01*
X155887951Y-73691242D01*
X155887951Y-72881577D01*
X155893666Y-72824618D01*
X155934605Y-72755954D01*
X156007385Y-72735397D01*
X156065297Y-72746960D01*
G37*
G36*
X146817556Y-73372231D02*
G01*
X146886381Y-73406943D01*
X146914523Y-73469282D01*
X146921185Y-73544696D01*
X146921185Y-73671092D01*
X146918867Y-73711718D01*
X146891876Y-73782100D01*
X146875252Y-73796045D01*
X146801750Y-73813974D01*
X146669493Y-73813974D01*
X146669493Y-73368475D01*
X146772075Y-73368475D01*
X146817556Y-73372231D01*
G37*
G36*
X146802286Y-72760133D02*
G01*
X146869894Y-72795481D01*
X146890143Y-72839729D01*
X146898104Y-72913817D01*
X146898104Y-72998080D01*
X146893992Y-73051427D01*
X146863300Y-73120812D01*
X146832577Y-73143138D01*
X146759619Y-73157449D01*
X146669493Y-73157449D01*
X146669493Y-72758845D01*
X146780501Y-72758845D01*
X146802286Y-72760133D01*
G37*
G36*
X147717295Y-73532606D02*
G01*
X147509566Y-73532606D01*
X147610316Y-72812700D01*
X147614346Y-72812700D01*
X147717295Y-73532606D01*
G37*
G36*
X150698445Y-72760107D02*
G01*
X150765812Y-72794748D01*
X150785347Y-72834649D01*
X150794388Y-72910886D01*
X150794388Y-73024825D01*
X150790276Y-73077042D01*
X150759584Y-73144993D01*
X150728861Y-73166871D01*
X150655903Y-73180896D01*
X150572005Y-73180896D01*
X150572005Y-72758845D01*
X150676785Y-72758845D01*
X150698445Y-72760107D01*
G37*
G36*
X156525029Y-74215114D02*
G01*
X146271650Y-74215114D01*
X146271650Y-73157449D01*
X146438317Y-73157449D01*
X146438317Y-73813974D01*
X146438317Y-74025000D01*
X146801750Y-74025000D01*
X147226000Y-74025000D01*
X147439957Y-74025000D01*
X147482089Y-73743632D01*
X147744772Y-73743632D01*
X147786538Y-74025000D01*
X148017713Y-74025000D01*
X147812340Y-72758845D01*
X147970452Y-72758845D01*
X148211887Y-72758845D01*
X148211887Y-74025000D01*
X148442696Y-74025000D01*
X148442696Y-72758845D01*
X148684496Y-72758845D01*
X148754472Y-72758845D01*
X148995906Y-72758845D01*
X148995906Y-74025000D01*
X149226716Y-74025000D01*
X149578792Y-74025000D01*
X150208938Y-74025000D01*
X150208938Y-73813974D01*
X149809967Y-73813974D01*
X149809967Y-73368475D01*
X150126873Y-73368475D01*
X150126873Y-73180896D01*
X150340829Y-73180896D01*
X150340829Y-74025000D01*
X150572005Y-74025000D01*
X150572005Y-73391922D01*
X150651506Y-73391922D01*
X150696808Y-73395858D01*
X150763980Y-73432222D01*
X150790345Y-73496506D01*
X150796586Y-73573272D01*
X150796586Y-73843649D01*
X150796838Y-73881545D01*
X150800616Y-73957588D01*
X150817469Y-74025000D01*
X151052675Y-74025000D01*
X151050617Y-74020278D01*
X151031426Y-73948429D01*
X151029301Y-73921603D01*
X151027396Y-73846214D01*
X151027396Y-73587194D01*
X151025221Y-73525256D01*
X151015126Y-73450783D01*
X150992591Y-73378733D01*
X150988093Y-73369185D01*
X150942042Y-73310709D01*
X150874256Y-73275418D01*
X150874256Y-73271388D01*
X150901296Y-73258426D01*
X150960401Y-73209281D01*
X151000592Y-73138934D01*
X151020245Y-73059986D01*
X151025564Y-72979396D01*
X151025564Y-72888538D01*
X151023561Y-72836470D01*
X151012020Y-72762316D01*
X150986775Y-72692358D01*
X150943499Y-72631350D01*
X150903109Y-72598802D01*
X150829293Y-72566173D01*
X150756587Y-72551816D01*
X150683014Y-72547819D01*
X151085648Y-72547819D01*
X151364817Y-73405111D01*
X151364817Y-74025000D01*
X151595627Y-74025000D01*
X151595627Y-73405111D01*
X151814000Y-72735397D01*
X152396866Y-72735397D01*
X152396866Y-72899528D01*
X152638300Y-72899528D01*
X152638300Y-74025000D01*
X152869109Y-74025000D01*
X152869109Y-73557519D01*
X153127030Y-73557519D01*
X153127030Y-73686845D01*
X153130314Y-73749755D01*
X153144911Y-73824620D01*
X153175292Y-73896525D01*
X153220452Y-73955390D01*
X153265325Y-73991650D01*
X153334300Y-74025183D01*
X153406268Y-74042631D01*
X153488265Y-74048447D01*
X153550814Y-74045175D01*
X153625358Y-74030635D01*
X153697122Y-74000374D01*
X153756077Y-73955390D01*
X153792479Y-73910734D01*
X153826144Y-73841726D01*
X153843661Y-73769438D01*
X153849500Y-73686845D01*
X153849500Y-73557152D01*
X153848623Y-73523999D01*
X153838140Y-73445753D01*
X153813596Y-73374337D01*
X153806547Y-73360675D01*
X153759706Y-73300869D01*
X153698558Y-73257833D01*
X153698558Y-73253803D01*
X153724027Y-73237318D01*
X153779697Y-73181963D01*
X153817553Y-73110030D01*
X153836063Y-73033489D01*
X153841074Y-72957780D01*
X153841074Y-72909787D01*
X153983589Y-72909787D01*
X153983589Y-73423429D01*
X153983589Y-73675854D01*
X153986758Y-73739666D01*
X154000840Y-73815973D01*
X154030148Y-73889830D01*
X154073715Y-73950994D01*
X154110457Y-73984113D01*
X154176100Y-74020943D01*
X154254378Y-74042356D01*
X154334566Y-74048447D01*
X154395506Y-74044995D01*
X154468023Y-74029653D01*
X154537672Y-73997724D01*
X154594685Y-73950261D01*
X154634275Y-73896085D01*
X154665293Y-73822985D01*
X154680847Y-73747205D01*
X154685177Y-73672557D01*
X154685177Y-73405478D01*
X154684466Y-73377267D01*
X154827693Y-73377267D01*
X155046046Y-73377267D01*
X155053533Y-73311871D01*
X155092843Y-73248811D01*
X155165847Y-73227791D01*
X155223581Y-73239122D01*
X155273618Y-73295498D01*
X155285282Y-73371039D01*
X155285282Y-73696371D01*
X155279566Y-73751331D01*
X155238627Y-73817586D01*
X155165847Y-73837421D01*
X155107935Y-73826264D01*
X155057745Y-73770753D01*
X155046046Y-73696371D01*
X155046046Y-73565579D01*
X154827693Y-73565579D01*
X154827693Y-73680617D01*
X154830784Y-73744352D01*
X154844522Y-73820315D01*
X154873116Y-73893457D01*
X154915620Y-73953558D01*
X154951538Y-73985806D01*
X155015944Y-74021667D01*
X155092986Y-74042516D01*
X155172075Y-74048447D01*
X155222570Y-74046130D01*
X155295287Y-74032787D01*
X155365216Y-74003597D01*
X155428164Y-73953558D01*
X155466792Y-73900802D01*
X155497057Y-73829189D01*
X155512232Y-73754634D01*
X155516457Y-73680983D01*
X155516457Y-73350889D01*
X155515884Y-73321003D01*
X155508752Y-73247982D01*
X155488373Y-73170359D01*
X155451245Y-73102494D01*
X155404741Y-73057285D01*
X155333162Y-73025137D01*
X155260369Y-73016765D01*
X155252033Y-73016871D01*
X155176112Y-73029622D01*
X155108220Y-73068195D01*
X155060700Y-73125575D01*
X155056670Y-73125575D01*
X155068318Y-72896964D01*
X155656775Y-72896964D01*
X155656775Y-73675854D01*
X155659943Y-73739666D01*
X155674025Y-73815973D01*
X155703334Y-73889830D01*
X155746900Y-73950994D01*
X155783630Y-73984113D01*
X155849205Y-74020943D01*
X155927358Y-74042356D01*
X156007385Y-74048447D01*
X156068450Y-74045021D01*
X156141093Y-74029794D01*
X156210828Y-73998102D01*
X156267870Y-73950994D01*
X156307461Y-73897253D01*
X156338479Y-73824806D01*
X156354032Y-73749753D01*
X156358362Y-73675854D01*
X156358362Y-72896964D01*
X156355181Y-72833152D01*
X156341042Y-72756845D01*
X156311614Y-72682988D01*
X156267870Y-72621824D01*
X156231253Y-72588706D01*
X156165748Y-72551875D01*
X156087551Y-72530462D01*
X156007385Y-72524371D01*
X155946433Y-72527798D01*
X155873859Y-72543025D01*
X155804091Y-72574716D01*
X155746900Y-72621824D01*
X155707471Y-72675565D01*
X155676578Y-72748012D01*
X155661088Y-72823065D01*
X155657673Y-72881577D01*
X155656775Y-72896964D01*
X155068318Y-72896964D01*
X155075355Y-72758845D01*
X155478722Y-72758845D01*
X155478722Y-72547819D01*
X154869458Y-72547819D01*
X154827693Y-73377267D01*
X154684466Y-73377267D01*
X154684158Y-73365040D01*
X154676006Y-73291584D01*
X154657092Y-73220770D01*
X154619964Y-73151221D01*
X154578500Y-73108894D01*
X154508338Y-73074006D01*
X154429088Y-73063660D01*
X154393185Y-73065692D01*
X154322448Y-73085125D01*
X154260166Y-73130848D01*
X154218795Y-73193719D01*
X154214765Y-73193719D01*
X154214765Y-72914549D01*
X154219196Y-72848037D01*
X154246272Y-72774965D01*
X154269256Y-72754099D01*
X154342993Y-72735397D01*
X154400727Y-72746670D01*
X154450764Y-72802758D01*
X154462427Y-72877913D01*
X154462427Y-72919312D01*
X154680780Y-72919312D01*
X154680780Y-72892201D01*
X154677676Y-72828480D01*
X154663880Y-72752573D01*
X154635168Y-72679550D01*
X154592487Y-72619626D01*
X154556693Y-72587254D01*
X154492425Y-72551255D01*
X154415464Y-72530325D01*
X154336398Y-72524371D01*
X154253708Y-72530394D01*
X154165851Y-72554858D01*
X154095220Y-72598142D01*
X154041816Y-72660245D01*
X154005640Y-72741168D01*
X153989102Y-72819455D01*
X153983589Y-72909787D01*
X153841074Y-72909787D01*
X153841074Y-72895498D01*
X153837866Y-72830892D01*
X153823613Y-72754047D01*
X153793947Y-72680297D01*
X153749849Y-72619993D01*
X153712858Y-72587496D01*
X153646938Y-72551358D01*
X153568499Y-72530348D01*
X153488265Y-72524371D01*
X153427274Y-72527733D01*
X153354527Y-72542674D01*
X153284402Y-72573769D01*
X153226681Y-72619993D01*
X153186770Y-72673092D01*
X153155500Y-72745475D01*
X153139821Y-72821055D01*
X153135969Y-72887072D01*
X153135456Y-72895865D01*
X153135456Y-72958147D01*
X153136306Y-72991994D01*
X153146468Y-73071040D01*
X153170261Y-73141695D01*
X153172473Y-73146153D01*
X153218097Y-73209202D01*
X153278338Y-73254169D01*
X153278338Y-73258565D01*
X153263749Y-73266683D01*
X153205887Y-73312144D01*
X153162567Y-73374703D01*
X153148720Y-73408746D01*
X153132027Y-73480805D01*
X153128629Y-73532972D01*
X153127030Y-73557519D01*
X152869109Y-73557519D01*
X152869109Y-72547819D01*
X152713771Y-72547819D01*
X152692201Y-72598927D01*
X152650756Y-72662124D01*
X152623424Y-72686478D01*
X152555135Y-72718545D01*
X152543597Y-72721556D01*
X152470530Y-72732616D01*
X152396866Y-72735397D01*
X151814000Y-72735397D01*
X151875163Y-72547819D01*
X151650215Y-72547819D01*
X151493045Y-73103593D01*
X151488649Y-73103593D01*
X151331112Y-72547819D01*
X151085648Y-72547819D01*
X150683014Y-72547819D01*
X150340829Y-72547819D01*
X150340829Y-73180896D01*
X150126873Y-73180896D01*
X150126873Y-73157449D01*
X149809967Y-73157449D01*
X149809967Y-72758845D01*
X150208938Y-72758845D01*
X150208938Y-72547819D01*
X149578792Y-72547819D01*
X149578792Y-74025000D01*
X149226716Y-74025000D01*
X149226716Y-72758845D01*
X149468516Y-72758845D01*
X149468516Y-72547819D01*
X148754472Y-72547819D01*
X148754472Y-72758845D01*
X148684496Y-72758845D01*
X148684496Y-72547819D01*
X147970452Y-72547819D01*
X147970452Y-72758845D01*
X147812340Y-72758845D01*
X147778111Y-72547819D01*
X147465236Y-72547819D01*
X147305745Y-73532606D01*
X147226000Y-74025000D01*
X146801750Y-74025000D01*
X146853530Y-74022835D01*
X146927930Y-74010367D01*
X146999205Y-73983094D01*
X147062968Y-73936339D01*
X147088721Y-73906674D01*
X147127132Y-73835591D01*
X147146774Y-73758218D01*
X147152361Y-73678785D01*
X147152361Y-73553855D01*
X147149671Y-73495323D01*
X147135546Y-73418493D01*
X147103764Y-73345496D01*
X147047264Y-73284010D01*
X146980170Y-73249406D01*
X146980170Y-73245376D01*
X147045932Y-73203061D01*
X147092277Y-73140596D01*
X147108466Y-73101487D01*
X147124908Y-73026604D01*
X147129280Y-72952285D01*
X147129280Y-72892201D01*
X147127277Y-72839588D01*
X147115736Y-72764672D01*
X147090491Y-72694022D01*
X147047215Y-72632449D01*
X147006843Y-72599473D01*
X146933112Y-72566414D01*
X146860526Y-72551868D01*
X146787096Y-72547819D01*
X146438317Y-72547819D01*
X146438317Y-73157449D01*
X146271650Y-73157449D01*
X146271650Y-72357704D01*
X156525029Y-72357704D01*
X156525029Y-74215114D01*
G37*
G36*
X146271650Y-70657819D02*
G01*
X146502826Y-70657819D01*
X146502826Y-71923974D01*
X146882746Y-71923974D01*
X146882746Y-72135000D01*
X146271650Y-72135000D01*
X146271650Y-70657819D01*
G37*
G36*
X147732344Y-72135000D02*
G01*
X147501169Y-72135000D01*
X147459403Y-71853632D01*
X147196720Y-71853632D01*
X147154588Y-72135000D01*
X146940631Y-72135000D01*
X147020376Y-71642606D01*
X147224197Y-71642606D01*
X147431926Y-71642606D01*
X147328977Y-70922700D01*
X147324947Y-70922700D01*
X147224197Y-71642606D01*
X147020376Y-71642606D01*
X147179867Y-70657819D01*
X147492742Y-70657819D01*
X147732344Y-72135000D01*
G37*
G36*
X147842620Y-70657819D02*
G01*
X148172348Y-70657819D01*
X148319260Y-71721008D01*
X148323656Y-71721008D01*
X148470568Y-70657819D01*
X148800296Y-70657819D01*
X148800296Y-72135000D01*
X148581943Y-72135000D01*
X148581943Y-71032243D01*
X148577547Y-71032243D01*
X148409752Y-72135000D01*
X148216312Y-72135000D01*
X148048517Y-71032243D01*
X148044120Y-71032243D01*
X148044120Y-72135000D01*
X147842620Y-72135000D01*
X147842620Y-70657819D01*
G37*
G36*
X149393555Y-70663566D02*
G01*
X149471495Y-70683772D01*
X149542120Y-70723285D01*
X149571127Y-70749776D01*
X149616529Y-70815622D01*
X149643013Y-70889199D01*
X149655120Y-70965986D01*
X149657222Y-71019420D01*
X149657222Y-71163768D01*
X149653103Y-71237403D01*
X149638305Y-71311512D01*
X149608794Y-71382075D01*
X149571127Y-71433412D01*
X149508909Y-71481905D01*
X149438536Y-71510193D01*
X149364548Y-71523124D01*
X149312840Y-71525369D01*
X149203663Y-71525369D01*
X149203663Y-72135000D01*
X148972488Y-72135000D01*
X148972488Y-71314344D01*
X149203663Y-71314344D01*
X149312840Y-71314344D01*
X149383778Y-71295337D01*
X149397470Y-71283203D01*
X149424260Y-71212174D01*
X149426046Y-71177690D01*
X149426046Y-71005498D01*
X149415972Y-70932422D01*
X149397470Y-70899986D01*
X149329782Y-70869605D01*
X149312840Y-70868845D01*
X149203663Y-70868845D01*
X149203663Y-71314344D01*
X148972488Y-71314344D01*
X148972488Y-70657819D01*
X149312840Y-70657819D01*
X149393555Y-70663566D01*
G37*
G36*
X150532398Y-70640462D02*
G01*
X150610596Y-70661875D01*
X150676100Y-70698706D01*
X150712718Y-70731824D01*
X150756461Y-70792988D01*
X150785889Y-70866845D01*
X150800028Y-70943152D01*
X150803210Y-71006964D01*
X150803210Y-71785854D01*
X150798880Y-71859753D01*
X150783326Y-71934806D01*
X150752308Y-72007253D01*
X150712718Y-72060994D01*
X150655676Y-72108102D01*
X150585940Y-72139794D01*
X150513297Y-72155021D01*
X150452233Y-72158447D01*
X150372205Y-72152356D01*
X150294053Y-72130943D01*
X150228477Y-72094113D01*
X150191748Y-72060994D01*
X150148181Y-71999830D01*
X150118873Y-71925973D01*
X150104791Y-71849666D01*
X150101622Y-71785854D01*
X150101622Y-71006964D01*
X150102520Y-70991577D01*
X150332798Y-70991577D01*
X150332798Y-71801242D01*
X150344462Y-71878328D01*
X150394498Y-71935858D01*
X150452233Y-71947421D01*
X150525237Y-71926865D01*
X150566301Y-71858200D01*
X150572034Y-71801242D01*
X150572034Y-70991577D01*
X150560335Y-70914490D01*
X150510144Y-70856960D01*
X150452233Y-70845397D01*
X150379452Y-70865954D01*
X150338513Y-70934618D01*
X150332798Y-70991577D01*
X150102520Y-70991577D01*
X150105935Y-70933065D01*
X150121425Y-70858012D01*
X150152318Y-70785565D01*
X150191748Y-70731824D01*
X150248938Y-70684716D01*
X150318706Y-70653025D01*
X150391280Y-70637798D01*
X150452233Y-70634371D01*
X150532398Y-70640462D01*
G37*
G36*
X151294138Y-72158447D02*
G01*
X151215209Y-72152448D01*
X151138293Y-72131357D01*
X151073954Y-72095080D01*
X151038049Y-72062459D01*
X150995368Y-72001682D01*
X150966655Y-71927748D01*
X150952860Y-71850983D01*
X150949755Y-71786587D01*
X150949755Y-70657819D01*
X151180931Y-70657819D01*
X151180931Y-71803806D01*
X151191651Y-71879139D01*
X151211340Y-71913715D01*
X151278167Y-71946236D01*
X151298534Y-71947421D01*
X151370814Y-71926849D01*
X151385363Y-71913715D01*
X151413703Y-71843161D01*
X151416137Y-71803806D01*
X151416137Y-70657819D01*
X151638520Y-70657819D01*
X151638520Y-71786587D01*
X151634295Y-71861147D01*
X151619120Y-71936612D01*
X151588855Y-72009085D01*
X151550227Y-72062459D01*
X151487437Y-72113078D01*
X151417527Y-72142605D01*
X151344729Y-72156103D01*
X151294138Y-72158447D01*
G37*
G36*
X151982903Y-70868845D02*
G01*
X151741469Y-70868845D01*
X151741469Y-70657819D01*
X152455513Y-70657819D01*
X152455513Y-70868845D01*
X152213712Y-70868845D01*
X152213712Y-72135000D01*
X151982903Y-72135000D01*
X151982903Y-70868845D01*
G37*
G36*
X152999312Y-70663635D02*
G01*
X153077252Y-70684082D01*
X153141571Y-70719251D01*
X153176884Y-70750875D01*
X153222286Y-70817250D01*
X153248770Y-70891426D01*
X153260878Y-70968843D01*
X153262979Y-71022718D01*
X153262979Y-71770101D01*
X153258860Y-71844360D01*
X153244062Y-71919138D01*
X153214551Y-71990400D01*
X153176884Y-72042309D01*
X153114666Y-72091189D01*
X153044293Y-72119702D01*
X152970305Y-72132737D01*
X152918597Y-72135000D01*
X152565788Y-72135000D01*
X152565788Y-71923974D01*
X152796964Y-71923974D01*
X152914567Y-71923974D01*
X152986847Y-71903401D01*
X153001395Y-71890268D01*
X153029736Y-71819862D01*
X153032170Y-71780359D01*
X153032170Y-71012459D01*
X153021321Y-70936950D01*
X153001395Y-70902550D01*
X152934810Y-70870030D01*
X152914567Y-70868845D01*
X152796964Y-70868845D01*
X152796964Y-71923974D01*
X152565788Y-71923974D01*
X152565788Y-70657819D01*
X152918597Y-70657819D01*
X152999312Y-70663635D01*
G37*
G36*
X153831142Y-70640462D02*
G01*
X153909339Y-70661875D01*
X153974844Y-70698706D01*
X154011462Y-70731824D01*
X154055205Y-70792988D01*
X154084633Y-70866845D01*
X154098772Y-70943152D01*
X154101954Y-71006964D01*
X154101954Y-71785854D01*
X154097623Y-71859753D01*
X154082070Y-71934806D01*
X154051052Y-72007253D01*
X154011462Y-72060994D01*
X153954419Y-72108102D01*
X153884684Y-72139794D01*
X153812041Y-72155021D01*
X153750977Y-72158447D01*
X153670949Y-72152356D01*
X153592796Y-72130943D01*
X153527221Y-72094113D01*
X153490492Y-72060994D01*
X153446925Y-71999830D01*
X153417617Y-71925973D01*
X153403535Y-71849666D01*
X153400366Y-71785854D01*
X153400366Y-71006964D01*
X153401264Y-70991577D01*
X153631542Y-70991577D01*
X153631542Y-71801242D01*
X153643205Y-71878328D01*
X153693242Y-71935858D01*
X153750977Y-71947421D01*
X153823980Y-71926865D01*
X153865045Y-71858200D01*
X153870778Y-71801242D01*
X153870778Y-70991577D01*
X153859078Y-70914490D01*
X153808888Y-70856960D01*
X153750977Y-70845397D01*
X153678196Y-70865954D01*
X153637257Y-70934618D01*
X153631542Y-70991577D01*
X153401264Y-70991577D01*
X153404679Y-70933065D01*
X153420169Y-70858012D01*
X153451062Y-70785565D01*
X153490492Y-70731824D01*
X153547682Y-70684716D01*
X153617450Y-70653025D01*
X153690024Y-70637798D01*
X153750977Y-70634371D01*
X153831142Y-70640462D01*
G37*
G36*
X154670849Y-70640462D02*
G01*
X154749046Y-70661875D01*
X154814551Y-70698706D01*
X154851169Y-70731824D01*
X154894912Y-70792988D01*
X154924340Y-70866845D01*
X154938479Y-70943152D01*
X154941661Y-71006964D01*
X154941661Y-71785854D01*
X154937330Y-71859753D01*
X154921777Y-71934806D01*
X154890759Y-72007253D01*
X154851169Y-72060994D01*
X154794126Y-72108102D01*
X154724391Y-72139794D01*
X154651748Y-72155021D01*
X154590684Y-72158447D01*
X154510656Y-72152356D01*
X154432503Y-72130943D01*
X154366928Y-72094113D01*
X154330199Y-72060994D01*
X154286632Y-71999830D01*
X154257324Y-71925973D01*
X154243241Y-71849666D01*
X154240073Y-71785854D01*
X154240073Y-71006964D01*
X154240971Y-70991577D01*
X154471249Y-70991577D01*
X154471249Y-71801242D01*
X154482912Y-71878328D01*
X154532949Y-71935858D01*
X154590684Y-71947421D01*
X154663687Y-71926865D01*
X154704752Y-71858200D01*
X154710485Y-71801242D01*
X154710485Y-70991577D01*
X154698785Y-70914490D01*
X154648595Y-70856960D01*
X154590684Y-70845397D01*
X154517903Y-70865954D01*
X154476964Y-70934618D01*
X154471249Y-70991577D01*
X154240971Y-70991577D01*
X154244386Y-70933065D01*
X154259876Y-70858012D01*
X154290769Y-70785565D01*
X154330199Y-70731824D01*
X154387389Y-70684716D01*
X154457157Y-70653025D01*
X154529731Y-70637798D01*
X154590684Y-70634371D01*
X154670849Y-70640462D01*
G37*
G36*
X155512390Y-70661816D02*
G01*
X155585096Y-70676173D01*
X155658913Y-70708802D01*
X155699302Y-70741350D01*
X155742579Y-70802358D01*
X155767823Y-70872316D01*
X155779364Y-70946470D01*
X155781367Y-70998538D01*
X155781367Y-71089396D01*
X155776048Y-71169986D01*
X155756396Y-71248934D01*
X155716204Y-71319281D01*
X155657100Y-71368426D01*
X155630059Y-71381388D01*
X155630059Y-71385418D01*
X155697845Y-71420709D01*
X155743897Y-71479185D01*
X155748395Y-71488733D01*
X155770929Y-71560783D01*
X155781024Y-71635256D01*
X155783199Y-71697194D01*
X155783199Y-71956214D01*
X155785104Y-72031603D01*
X155787229Y-72058429D01*
X155806420Y-72130278D01*
X155808478Y-72135000D01*
X155573273Y-72135000D01*
X155556420Y-72067588D01*
X155552642Y-71991545D01*
X155552390Y-71953649D01*
X155552390Y-71683272D01*
X155546149Y-71606506D01*
X155519783Y-71542222D01*
X155452611Y-71505858D01*
X155407310Y-71501922D01*
X155327809Y-71501922D01*
X155327809Y-72135000D01*
X155096633Y-72135000D01*
X155096633Y-71290896D01*
X155327809Y-71290896D01*
X155411706Y-71290896D01*
X155484664Y-71276871D01*
X155515387Y-71254993D01*
X155546079Y-71187042D01*
X155550192Y-71134825D01*
X155550192Y-71020886D01*
X155541150Y-70944649D01*
X155521615Y-70904748D01*
X155454249Y-70870107D01*
X155432589Y-70868845D01*
X155327809Y-70868845D01*
X155327809Y-71290896D01*
X155096633Y-71290896D01*
X155096633Y-70657819D01*
X155438817Y-70657819D01*
X155512390Y-70661816D01*
G37*
G36*
X159393285Y-72746960D02*
G01*
X159443475Y-72804490D01*
X159455174Y-72881577D01*
X159455174Y-73691242D01*
X159449441Y-73748200D01*
X159408377Y-73816865D01*
X159335373Y-73837421D01*
X159277638Y-73825858D01*
X159227602Y-73768328D01*
X159215938Y-73691242D01*
X159215938Y-72881577D01*
X159221653Y-72824618D01*
X159262592Y-72755954D01*
X159335373Y-72735397D01*
X159393285Y-72746960D01*
G37*
G36*
X159853017Y-74215114D02*
G01*
X156738612Y-74215114D01*
X156738612Y-72547819D01*
X156905279Y-72547819D01*
X157127662Y-74025000D01*
X157434309Y-74025000D01*
X157628772Y-72735397D01*
X157849766Y-72735397D01*
X157849766Y-72899528D01*
X158091200Y-72899528D01*
X158091200Y-74025000D01*
X158322009Y-74025000D01*
X158607407Y-74025000D01*
X158830157Y-74025000D01*
X158830157Y-73813974D01*
X158607407Y-73813974D01*
X158607407Y-74025000D01*
X158322009Y-74025000D01*
X158322009Y-72896964D01*
X158984762Y-72896964D01*
X158984762Y-73675854D01*
X158987931Y-73739666D01*
X159002013Y-73815973D01*
X159031321Y-73889830D01*
X159074888Y-73950994D01*
X159111617Y-73984113D01*
X159177193Y-74020943D01*
X159255345Y-74042356D01*
X159335373Y-74048447D01*
X159396437Y-74045021D01*
X159469080Y-74029794D01*
X159538816Y-73998102D01*
X159595858Y-73950994D01*
X159635448Y-73897253D01*
X159666466Y-73824806D01*
X159682020Y-73749753D01*
X159686350Y-73675854D01*
X159686350Y-72896964D01*
X159683168Y-72833152D01*
X159669029Y-72756845D01*
X159639602Y-72682988D01*
X159595858Y-72621824D01*
X159559240Y-72588706D01*
X159493736Y-72551875D01*
X159415538Y-72530462D01*
X159335373Y-72524371D01*
X159274420Y-72527798D01*
X159201846Y-72543025D01*
X159132078Y-72574716D01*
X159074888Y-72621824D01*
X159035458Y-72675565D01*
X159004565Y-72748012D01*
X158989075Y-72823065D01*
X158985660Y-72881577D01*
X158984762Y-72896964D01*
X158322009Y-72896964D01*
X158322009Y-72547819D01*
X158166671Y-72547819D01*
X158145101Y-72598927D01*
X158103656Y-72662124D01*
X158076324Y-72686478D01*
X158008035Y-72718545D01*
X157996497Y-72721556D01*
X157923430Y-72732616D01*
X157849766Y-72735397D01*
X157628772Y-72735397D01*
X157657058Y-72547819D01*
X157444933Y-72547819D01*
X157293625Y-73698569D01*
X157289595Y-73698569D01*
X157138286Y-72547819D01*
X156905279Y-72547819D01*
X156738612Y-72547819D01*
X156738612Y-72357704D01*
X159853017Y-72357704D01*
X159853017Y-74215114D01*
G37*
G36*
X148210570Y-74697973D02*
G01*
X148244030Y-74736326D01*
X148251829Y-74787718D01*
X148251829Y-75327494D01*
X148248008Y-75365467D01*
X148220631Y-75411243D01*
X148171962Y-75424947D01*
X148133472Y-75417238D01*
X148100115Y-75378885D01*
X148092339Y-75327494D01*
X148092339Y-74787718D01*
X148096149Y-74749745D01*
X148123442Y-74703969D01*
X148171962Y-74690265D01*
X148210570Y-74697973D01*
G37*
G36*
X147077754Y-75221737D02*
G01*
X146939268Y-75221737D01*
X147006435Y-74741800D01*
X147009122Y-74741800D01*
X147077754Y-75221737D01*
G37*
G36*
X149288640Y-75221737D02*
G01*
X149150155Y-75221737D01*
X149217321Y-74741800D01*
X149220008Y-74741800D01*
X149288640Y-75221737D01*
G37*
G36*
X149800847Y-74706738D02*
G01*
X149845758Y-74729832D01*
X149858781Y-74756433D01*
X149864809Y-74807257D01*
X149864809Y-74883217D01*
X149862067Y-74918028D01*
X149841606Y-74963328D01*
X149821124Y-74977914D01*
X149772485Y-74987264D01*
X149716554Y-74987264D01*
X149716554Y-74705896D01*
X149786407Y-74705896D01*
X149800847Y-74706738D01*
G37*
G36*
X150372164Y-74706686D02*
G01*
X150416554Y-74728367D01*
X150429837Y-74751300D01*
X150437070Y-74801639D01*
X150437070Y-75313572D01*
X150435447Y-75339908D01*
X150416554Y-75386845D01*
X150406855Y-75395601D01*
X150358668Y-75409316D01*
X150280266Y-75409316D01*
X150280266Y-74705896D01*
X150358668Y-74705896D01*
X150372164Y-74706686D01*
G37*
G36*
X151204481Y-75221737D02*
G01*
X151065996Y-75221737D01*
X151133162Y-74741800D01*
X151135849Y-74741800D01*
X151204481Y-75221737D01*
G37*
G36*
X151716688Y-74706738D02*
G01*
X151761599Y-74729832D01*
X151774622Y-74756433D01*
X151780650Y-74807257D01*
X151780650Y-74883217D01*
X151777908Y-74918028D01*
X151757447Y-74963328D01*
X151736965Y-74977914D01*
X151688326Y-74987264D01*
X151632395Y-74987264D01*
X151632395Y-74705896D01*
X151702248Y-74705896D01*
X151716688Y-74706738D01*
G37*
G36*
X152926882Y-75221737D02*
G01*
X152788396Y-75221737D01*
X152855563Y-74741800D01*
X152858250Y-74741800D01*
X152926882Y-75221737D01*
G37*
G36*
X154007474Y-74706686D02*
G01*
X154051864Y-74728367D01*
X154065148Y-74751300D01*
X154072381Y-74801639D01*
X154072381Y-75313572D01*
X154070758Y-75339908D01*
X154051864Y-75386845D01*
X154042166Y-75395601D01*
X153993979Y-75409316D01*
X153915577Y-75409316D01*
X153915577Y-74705896D01*
X153993979Y-74705896D01*
X154007474Y-74706686D01*
G37*
G36*
X154337365Y-75676742D02*
G01*
X146242952Y-75676742D01*
X146242952Y-75550000D01*
X146354063Y-75550000D01*
X146508180Y-75550000D01*
X146750224Y-75550000D01*
X146892862Y-75550000D01*
X146920950Y-75362421D01*
X147096072Y-75362421D01*
X147123916Y-75550000D01*
X147278033Y-75550000D01*
X147351550Y-75550000D01*
X147488815Y-75550000D01*
X147488815Y-74841207D01*
X147491502Y-74841207D01*
X147676393Y-75550000D01*
X147834663Y-75550000D01*
X147834663Y-74797976D01*
X147938222Y-74797976D01*
X147938222Y-75317236D01*
X147940334Y-75359777D01*
X147949722Y-75410648D01*
X147969261Y-75459887D01*
X147998305Y-75500662D01*
X148022792Y-75522742D01*
X148066509Y-75547295D01*
X148118610Y-75561571D01*
X148171962Y-75565631D01*
X148212671Y-75563347D01*
X148261100Y-75553196D01*
X148307591Y-75532068D01*
X148345619Y-75500662D01*
X148372012Y-75464835D01*
X148392691Y-75416537D01*
X148403060Y-75366502D01*
X148405947Y-75317236D01*
X148405947Y-74797976D01*
X148403826Y-74755435D01*
X148394400Y-74704563D01*
X148374781Y-74655325D01*
X148345619Y-74614549D01*
X148321207Y-74592470D01*
X148277537Y-74567917D01*
X148267659Y-74565212D01*
X148465786Y-74565212D01*
X148614042Y-75550000D01*
X148818473Y-75550000D01*
X148961111Y-75550000D01*
X149103749Y-75550000D01*
X149131836Y-75362421D01*
X149306959Y-75362421D01*
X149334802Y-75550000D01*
X149488920Y-75550000D01*
X149397643Y-74987264D01*
X149562437Y-74987264D01*
X149562437Y-75550000D01*
X149716554Y-75550000D01*
X149716554Y-75127948D01*
X149769555Y-75127948D01*
X149799756Y-75130572D01*
X149844537Y-75154815D01*
X149862114Y-75197671D01*
X149866275Y-75248848D01*
X149866275Y-75429099D01*
X149866443Y-75454363D01*
X149868961Y-75505059D01*
X149880197Y-75550000D01*
X150037000Y-75550000D01*
X150035629Y-75546852D01*
X150022834Y-75498953D01*
X150021418Y-75481069D01*
X150020148Y-75430809D01*
X150020148Y-75409316D01*
X150126149Y-75409316D01*
X150126149Y-75550000D01*
X150361355Y-75550000D01*
X150876952Y-75550000D01*
X151019589Y-75550000D01*
X151047677Y-75362421D01*
X151222799Y-75362421D01*
X151250643Y-75550000D01*
X151404760Y-75550000D01*
X151313483Y-74987264D01*
X151478278Y-74987264D01*
X151478278Y-75550000D01*
X151632395Y-75550000D01*
X151632395Y-75127948D01*
X151685395Y-75127948D01*
X151715597Y-75130572D01*
X151760378Y-75154815D01*
X151777955Y-75197671D01*
X151782116Y-75248848D01*
X151782116Y-75429099D01*
X151782284Y-75454363D01*
X151784802Y-75505059D01*
X151796037Y-75550000D01*
X151952841Y-75550000D01*
X152041990Y-75550000D01*
X152179254Y-75550000D01*
X152179254Y-74841207D01*
X152181941Y-74841207D01*
X152366833Y-75550000D01*
X152525102Y-75550000D01*
X152599352Y-75550000D01*
X152741990Y-75550000D01*
X152770078Y-75362421D01*
X152945200Y-75362421D01*
X152973044Y-75550000D01*
X153127161Y-75550000D01*
X153089485Y-75317725D01*
X153193107Y-75317725D01*
X153195176Y-75360655D01*
X153204373Y-75411832D01*
X153223515Y-75461121D01*
X153251969Y-75501639D01*
X153275906Y-75523387D01*
X153318798Y-75547571D01*
X153370076Y-75561632D01*
X153422695Y-75565631D01*
X153456423Y-75564069D01*
X153504954Y-75555070D01*
X153551561Y-75535385D01*
X153593421Y-75501639D01*
X153619173Y-75466056D01*
X153639349Y-75417741D01*
X153641043Y-75409316D01*
X153761460Y-75409316D01*
X153761460Y-75550000D01*
X153996666Y-75550000D01*
X154031137Y-75548491D01*
X154080463Y-75539801D01*
X154127378Y-75520792D01*
X154168857Y-75488206D01*
X154193968Y-75453600D01*
X154213642Y-75406092D01*
X154223507Y-75356240D01*
X154226254Y-75306734D01*
X154226254Y-74808478D01*
X154224852Y-74772562D01*
X154216781Y-74720951D01*
X154199125Y-74671500D01*
X154168857Y-74627250D01*
X154145315Y-74606167D01*
X154102435Y-74582721D01*
X154050475Y-74569090D01*
X153996666Y-74565212D01*
X153761460Y-74565212D01*
X153761460Y-75409316D01*
X153641043Y-75409316D01*
X153649466Y-75367431D01*
X153652283Y-75317725D01*
X153652283Y-74565212D01*
X153504028Y-74565212D01*
X153504028Y-75329204D01*
X153502405Y-75355441D01*
X153483511Y-75402477D01*
X153473812Y-75411232D01*
X153425626Y-75424947D01*
X153412047Y-75424157D01*
X153367496Y-75402477D01*
X153354370Y-75379426D01*
X153347224Y-75329204D01*
X153347224Y-74565212D01*
X153193107Y-74565212D01*
X153193107Y-75317725D01*
X153089485Y-75317725D01*
X152967426Y-74565212D01*
X152758843Y-74565212D01*
X152652516Y-75221737D01*
X152599352Y-75550000D01*
X152525102Y-75550000D01*
X152525102Y-74565212D01*
X152387838Y-74565212D01*
X152387838Y-75160188D01*
X152384907Y-75160188D01*
X152235186Y-74565212D01*
X152041990Y-74565212D01*
X152041990Y-75550000D01*
X151952841Y-75550000D01*
X151951469Y-75546852D01*
X151938675Y-75498953D01*
X151937258Y-75481069D01*
X151935989Y-75430809D01*
X151935989Y-75258129D01*
X151934538Y-75216837D01*
X151927809Y-75167189D01*
X151912786Y-75119155D01*
X151909787Y-75112790D01*
X151879086Y-75073806D01*
X151833895Y-75050279D01*
X151833895Y-75047592D01*
X151851922Y-75038950D01*
X151891325Y-75006187D01*
X151918120Y-74959289D01*
X151931221Y-74906657D01*
X151934767Y-74852930D01*
X151934767Y-74792358D01*
X151933432Y-74757647D01*
X151925738Y-74708210D01*
X151908908Y-74661572D01*
X151880057Y-74620900D01*
X151853131Y-74599201D01*
X151803920Y-74577448D01*
X151755449Y-74567877D01*
X151706400Y-74565212D01*
X151478278Y-74565212D01*
X151478278Y-74987264D01*
X151313483Y-74987264D01*
X151245026Y-74565212D01*
X151036442Y-74565212D01*
X150930115Y-75221737D01*
X150876952Y-75550000D01*
X150361355Y-75550000D01*
X150395827Y-75548491D01*
X150445152Y-75539801D01*
X150492068Y-75520792D01*
X150533546Y-75488206D01*
X150558657Y-75453600D01*
X150578332Y-75406092D01*
X150588197Y-75356240D01*
X150590943Y-75306734D01*
X150590943Y-74808478D01*
X150589542Y-74772562D01*
X150581470Y-74720951D01*
X150563814Y-74671500D01*
X150533546Y-74627250D01*
X150510004Y-74606167D01*
X150467125Y-74582721D01*
X150415165Y-74569090D01*
X150361355Y-74565212D01*
X150126149Y-74565212D01*
X150126149Y-75409316D01*
X150020148Y-75409316D01*
X150020148Y-75258129D01*
X150018698Y-75216837D01*
X150011968Y-75167189D01*
X149996945Y-75119155D01*
X149993946Y-75112790D01*
X149963245Y-75073806D01*
X149918054Y-75050279D01*
X149918054Y-75047592D01*
X149936081Y-75038950D01*
X149975484Y-75006187D01*
X150002279Y-74959289D01*
X150015380Y-74906657D01*
X150018926Y-74852930D01*
X150018926Y-74792358D01*
X150017591Y-74757647D01*
X150009897Y-74708210D01*
X149993067Y-74661572D01*
X149964216Y-74620900D01*
X149937290Y-74599201D01*
X149888079Y-74577448D01*
X149839608Y-74567877D01*
X149790559Y-74565212D01*
X149562437Y-74565212D01*
X149562437Y-74987264D01*
X149397643Y-74987264D01*
X149329185Y-74565212D01*
X149120601Y-74565212D01*
X149014274Y-75221737D01*
X148961111Y-75550000D01*
X148818473Y-75550000D01*
X148966973Y-74565212D01*
X148825556Y-74565212D01*
X148724684Y-75332379D01*
X148721997Y-75332379D01*
X148621125Y-74565212D01*
X148465786Y-74565212D01*
X148267659Y-74565212D01*
X148225405Y-74553641D01*
X148171962Y-74549581D01*
X148131327Y-74551865D01*
X148082944Y-74562016D01*
X148036432Y-74583144D01*
X147998305Y-74614549D01*
X147972019Y-74650377D01*
X147951424Y-74698675D01*
X147941097Y-74748710D01*
X147938821Y-74787718D01*
X147938222Y-74797976D01*
X147834663Y-74797976D01*
X147834663Y-74565212D01*
X147697398Y-74565212D01*
X147697398Y-75160188D01*
X147694467Y-75160188D01*
X147544746Y-74565212D01*
X147351550Y-74565212D01*
X147351550Y-75550000D01*
X147278033Y-75550000D01*
X147118298Y-74565212D01*
X146909715Y-74565212D01*
X146803388Y-75221737D01*
X146750224Y-75550000D01*
X146508180Y-75550000D01*
X146508180Y-75127948D01*
X146706749Y-75127948D01*
X146706749Y-74987264D01*
X146508180Y-74987264D01*
X146508180Y-74705896D01*
X146761460Y-74705896D01*
X146761460Y-74565212D01*
X146354063Y-74565212D01*
X146354063Y-75550000D01*
X146242952Y-75550000D01*
X146242952Y-74438470D01*
X154337365Y-74438470D01*
X154337365Y-75676742D01*
G37*
D11*
X154134819Y-103061904D02*
X154944342Y-103061904D01*
X154944342Y-103061904D02*
X155039580Y-103014285D01*
X155039580Y-103014285D02*
X155087200Y-102966666D01*
X155087200Y-102966666D02*
X155134819Y-102871428D01*
X155134819Y-102871428D02*
X155134819Y-102680952D01*
X155134819Y-102680952D02*
X155087200Y-102585714D01*
X155087200Y-102585714D02*
X155039580Y-102538095D01*
X155039580Y-102538095D02*
X154944342Y-102490476D01*
X154944342Y-102490476D02*
X154134819Y-102490476D01*
X154230057Y-102061904D02*
X154182438Y-102014285D01*
X154182438Y-102014285D02*
X154134819Y-101919047D01*
X154134819Y-101919047D02*
X154134819Y-101680952D01*
X154134819Y-101680952D02*
X154182438Y-101585714D01*
X154182438Y-101585714D02*
X154230057Y-101538095D01*
X154230057Y-101538095D02*
X154325295Y-101490476D01*
X154325295Y-101490476D02*
X154420533Y-101490476D01*
X154420533Y-101490476D02*
X154563390Y-101538095D01*
X154563390Y-101538095D02*
X155134819Y-102109523D01*
X155134819Y-102109523D02*
X155134819Y-101490476D01*
X156284819Y-77951904D02*
X157094342Y-77951904D01*
X157094342Y-77951904D02*
X157189580Y-77904285D01*
X157189580Y-77904285D02*
X157237200Y-77856666D01*
X157237200Y-77856666D02*
X157284819Y-77761428D01*
X157284819Y-77761428D02*
X157284819Y-77570952D01*
X157284819Y-77570952D02*
X157237200Y-77475714D01*
X157237200Y-77475714D02*
X157189580Y-77428095D01*
X157189580Y-77428095D02*
X157094342Y-77380476D01*
X157094342Y-77380476D02*
X156284819Y-77380476D01*
X156284819Y-76999523D02*
X156284819Y-76380476D01*
X156284819Y-76380476D02*
X156665771Y-76713809D01*
X156665771Y-76713809D02*
X156665771Y-76570952D01*
X156665771Y-76570952D02*
X156713390Y-76475714D01*
X156713390Y-76475714D02*
X156761009Y-76428095D01*
X156761009Y-76428095D02*
X156856247Y-76380476D01*
X156856247Y-76380476D02*
X157094342Y-76380476D01*
X157094342Y-76380476D02*
X157189580Y-76428095D01*
X157189580Y-76428095D02*
X157237200Y-76475714D01*
X157237200Y-76475714D02*
X157284819Y-76570952D01*
X157284819Y-76570952D02*
X157284819Y-76856666D01*
X157284819Y-76856666D02*
X157237200Y-76951904D01*
X157237200Y-76951904D02*
X157189580Y-76999523D01*
X148323943Y-88963146D02*
X149134787Y-88963146D01*
X149134787Y-88963146D02*
X149230180Y-88915450D01*
X149230180Y-88915450D02*
X149277877Y-88867753D01*
X149277877Y-88867753D02*
X149325573Y-88772360D01*
X149325573Y-88772360D02*
X149325573Y-88581573D01*
X149325573Y-88581573D02*
X149277877Y-88486180D01*
X149277877Y-88486180D02*
X149230180Y-88438483D01*
X149230180Y-88438483D02*
X149134787Y-88390786D01*
X149134787Y-88390786D02*
X148323943Y-88390786D01*
X149325573Y-87389156D02*
X149325573Y-87961516D01*
X149325573Y-87675336D02*
X148323943Y-87675336D01*
X148323943Y-87675336D02*
X148467033Y-87770729D01*
X148467033Y-87770729D02*
X148562427Y-87866123D01*
X148562427Y-87866123D02*
X148610123Y-87961516D01*
X144474819Y-92263333D02*
X145189104Y-92263333D01*
X145189104Y-92263333D02*
X145331961Y-92310952D01*
X145331961Y-92310952D02*
X145427200Y-92406190D01*
X145427200Y-92406190D02*
X145474819Y-92549047D01*
X145474819Y-92549047D02*
X145474819Y-92644285D01*
X145474819Y-91263333D02*
X145474819Y-91834761D01*
X145474819Y-91549047D02*
X144474819Y-91549047D01*
X144474819Y-91549047D02*
X144617676Y-91644285D01*
X144617676Y-91644285D02*
X144712914Y-91739523D01*
X144712914Y-91739523D02*
X144760533Y-91834761D01*
X146913614Y-108674986D02*
X146913614Y-108974948D01*
X146913614Y-108974948D02*
X146283693Y-108974948D01*
X146913614Y-108135054D02*
X146913614Y-108495009D01*
X146913614Y-108315031D02*
X146283693Y-108315031D01*
X146283693Y-108315031D02*
X146373681Y-108375024D01*
X146373681Y-108375024D02*
X146433674Y-108435016D01*
X146433674Y-108435016D02*
X146463670Y-108495009D01*
X143390057Y-83535238D02*
X143342438Y-83630476D01*
X143342438Y-83630476D02*
X143247200Y-83725714D01*
X143247200Y-83725714D02*
X143104342Y-83868571D01*
X143104342Y-83868571D02*
X143056723Y-83963809D01*
X143056723Y-83963809D02*
X143056723Y-84059047D01*
X143294819Y-84011428D02*
X143247200Y-84106666D01*
X143247200Y-84106666D02*
X143151961Y-84201904D01*
X143151961Y-84201904D02*
X142961485Y-84249523D01*
X142961485Y-84249523D02*
X142628152Y-84249523D01*
X142628152Y-84249523D02*
X142437676Y-84201904D01*
X142437676Y-84201904D02*
X142342438Y-84106666D01*
X142342438Y-84106666D02*
X142294819Y-84011428D01*
X142294819Y-84011428D02*
X142294819Y-83820952D01*
X142294819Y-83820952D02*
X142342438Y-83725714D01*
X142342438Y-83725714D02*
X142437676Y-83630476D01*
X142437676Y-83630476D02*
X142628152Y-83582857D01*
X142628152Y-83582857D02*
X142961485Y-83582857D01*
X142961485Y-83582857D02*
X143151961Y-83630476D01*
X143151961Y-83630476D02*
X143247200Y-83725714D01*
X143247200Y-83725714D02*
X143294819Y-83820952D01*
X143294819Y-83820952D02*
X143294819Y-84011428D01*
X142390057Y-83201904D02*
X142342438Y-83154285D01*
X142342438Y-83154285D02*
X142294819Y-83059047D01*
X142294819Y-83059047D02*
X142294819Y-82820952D01*
X142294819Y-82820952D02*
X142342438Y-82725714D01*
X142342438Y-82725714D02*
X142390057Y-82678095D01*
X142390057Y-82678095D02*
X142485295Y-82630476D01*
X142485295Y-82630476D02*
X142580533Y-82630476D01*
X142580533Y-82630476D02*
X142723390Y-82678095D01*
X142723390Y-82678095D02*
X143294819Y-83249523D01*
X143294819Y-83249523D02*
X143294819Y-82630476D01*
X143390057Y-79685238D02*
X143342438Y-79780476D01*
X143342438Y-79780476D02*
X143247200Y-79875714D01*
X143247200Y-79875714D02*
X143104342Y-80018571D01*
X143104342Y-80018571D02*
X143056723Y-80113809D01*
X143056723Y-80113809D02*
X143056723Y-80209047D01*
X143294819Y-80161428D02*
X143247200Y-80256666D01*
X143247200Y-80256666D02*
X143151961Y-80351904D01*
X143151961Y-80351904D02*
X142961485Y-80399523D01*
X142961485Y-80399523D02*
X142628152Y-80399523D01*
X142628152Y-80399523D02*
X142437676Y-80351904D01*
X142437676Y-80351904D02*
X142342438Y-80256666D01*
X142342438Y-80256666D02*
X142294819Y-80161428D01*
X142294819Y-80161428D02*
X142294819Y-79970952D01*
X142294819Y-79970952D02*
X142342438Y-79875714D01*
X142342438Y-79875714D02*
X142437676Y-79780476D01*
X142437676Y-79780476D02*
X142628152Y-79732857D01*
X142628152Y-79732857D02*
X142961485Y-79732857D01*
X142961485Y-79732857D02*
X143151961Y-79780476D01*
X143151961Y-79780476D02*
X143247200Y-79875714D01*
X143247200Y-79875714D02*
X143294819Y-79970952D01*
X143294819Y-79970952D02*
X143294819Y-80161428D01*
X143294819Y-78780476D02*
X143294819Y-79351904D01*
X143294819Y-79066190D02*
X142294819Y-79066190D01*
X142294819Y-79066190D02*
X142437676Y-79161428D01*
X142437676Y-79161428D02*
X142532914Y-79256666D01*
X142532914Y-79256666D02*
X142580533Y-79351904D01*
X150814819Y-81531904D02*
X151624342Y-81531904D01*
X151624342Y-81531904D02*
X151719580Y-81484285D01*
X151719580Y-81484285D02*
X151767200Y-81436666D01*
X151767200Y-81436666D02*
X151814819Y-81341428D01*
X151814819Y-81341428D02*
X151814819Y-81150952D01*
X151814819Y-81150952D02*
X151767200Y-81055714D01*
X151767200Y-81055714D02*
X151719580Y-81008095D01*
X151719580Y-81008095D02*
X151624342Y-80960476D01*
X151624342Y-80960476D02*
X150814819Y-80960476D01*
X151148152Y-80055714D02*
X151814819Y-80055714D01*
X150767200Y-80293809D02*
X151481485Y-80531904D01*
X151481485Y-80531904D02*
X151481485Y-79912857D01*
X150404819Y-112808094D02*
X149404819Y-112808094D01*
X149404819Y-112808094D02*
X149404819Y-112569999D01*
X149404819Y-112569999D02*
X149452438Y-112427142D01*
X149452438Y-112427142D02*
X149547676Y-112331904D01*
X149547676Y-112331904D02*
X149642914Y-112284285D01*
X149642914Y-112284285D02*
X149833390Y-112236666D01*
X149833390Y-112236666D02*
X149976247Y-112236666D01*
X149976247Y-112236666D02*
X150166723Y-112284285D01*
X150166723Y-112284285D02*
X150261961Y-112331904D01*
X150261961Y-112331904D02*
X150357200Y-112427142D01*
X150357200Y-112427142D02*
X150404819Y-112569999D01*
X150404819Y-112569999D02*
X150404819Y-112808094D01*
X149738152Y-111379523D02*
X150404819Y-111379523D01*
X149357200Y-111617618D02*
X150071485Y-111855713D01*
X150071485Y-111855713D02*
X150071485Y-111236666D01*
X153514819Y-117813333D02*
X154229104Y-117813333D01*
X154229104Y-117813333D02*
X154371961Y-117860952D01*
X154371961Y-117860952D02*
X154467200Y-117956190D01*
X154467200Y-117956190D02*
X154514819Y-118099047D01*
X154514819Y-118099047D02*
X154514819Y-118194285D01*
X153514819Y-117432380D02*
X153514819Y-116813333D01*
X153514819Y-116813333D02*
X153895771Y-117146666D01*
X153895771Y-117146666D02*
X153895771Y-117003809D01*
X153895771Y-117003809D02*
X153943390Y-116908571D01*
X153943390Y-116908571D02*
X153991009Y-116860952D01*
X153991009Y-116860952D02*
X154086247Y-116813333D01*
X154086247Y-116813333D02*
X154324342Y-116813333D01*
X154324342Y-116813333D02*
X154419580Y-116860952D01*
X154419580Y-116860952D02*
X154467200Y-116908571D01*
X154467200Y-116908571D02*
X154514819Y-117003809D01*
X154514819Y-117003809D02*
X154514819Y-117289523D01*
X154514819Y-117289523D02*
X154467200Y-117384761D01*
X154467200Y-117384761D02*
X154419580Y-117432380D01*
X153654819Y-66943333D02*
X154369104Y-66943333D01*
X154369104Y-66943333D02*
X154511961Y-66990952D01*
X154511961Y-66990952D02*
X154607200Y-67086190D01*
X154607200Y-67086190D02*
X154654819Y-67229047D01*
X154654819Y-67229047D02*
X154654819Y-67324285D01*
X153750057Y-66514761D02*
X153702438Y-66467142D01*
X153702438Y-66467142D02*
X153654819Y-66371904D01*
X153654819Y-66371904D02*
X153654819Y-66133809D01*
X153654819Y-66133809D02*
X153702438Y-66038571D01*
X153702438Y-66038571D02*
X153750057Y-65990952D01*
X153750057Y-65990952D02*
X153845295Y-65943333D01*
X153845295Y-65943333D02*
X153940533Y-65943333D01*
X153940533Y-65943333D02*
X154083390Y-65990952D01*
X154083390Y-65990952D02*
X154654819Y-66562380D01*
X154654819Y-66562380D02*
X154654819Y-65943333D01*
D12*
%TO.C,U2*%
X152410000Y-103505000D02*
X154110000Y-103505000D01*
X154110000Y-106635000D02*
X152410000Y-106635000D01*
D13*
X155665000Y-106020000D02*
G75*
G02*
X155465000Y-106020000I-100000J0D01*
G01*
X155465000Y-106020000D02*
G75*
G02*
X155665000Y-106020000I100000J0D01*
G01*
D12*
%TO.C,U3*%
X157110000Y-78380000D02*
X156530000Y-78380000D01*
X157110000Y-80520000D02*
X156530000Y-80520000D01*
D13*
X158840000Y-80200000D02*
G75*
G02*
X158640000Y-80200000I-100000J0D01*
G01*
X158640000Y-80200000D02*
G75*
G02*
X158840000Y-80200000I100000J0D01*
G01*
D12*
%TO.C,U1*%
X147280000Y-89410000D02*
X147280000Y-89615000D01*
X147280000Y-92510000D02*
X147280000Y-92305000D01*
X147280000Y-92510000D02*
X150380000Y-92510000D01*
X150380000Y-89410000D02*
X147280000Y-89410000D01*
X150380000Y-89410000D02*
X150380000Y-89615000D01*
X150380000Y-92510000D02*
X150380000Y-92305000D01*
D13*
X146580000Y-89760000D02*
G75*
G02*
X146380000Y-89760000I-100000J0D01*
G01*
X146380000Y-89760000D02*
G75*
G02*
X146580000Y-89760000I100000J0D01*
G01*
%TO.C,J1*%
X135505000Y-87360000D02*
X135505000Y-96500000D01*
X135505000Y-96500000D02*
X136885000Y-96500000D01*
X136885000Y-87360000D02*
X135505000Y-87360000D01*
X139485000Y-96500000D02*
X140985000Y-96500000D01*
X140985000Y-87360000D02*
X139485000Y-87360000D01*
D14*
%TO.C,C7*%
X149264165Y-83280000D02*
X149495835Y-83280000D01*
X149264165Y-84000000D02*
X149495835Y-84000000D01*
%TO.C,Q2*%
X146010000Y-81877500D02*
X145210000Y-81877500D01*
X146010000Y-81877500D02*
X146810000Y-81877500D01*
X146010000Y-84997500D02*
X145210000Y-84997500D01*
X146010000Y-84997500D02*
X146810000Y-84997500D01*
X147550000Y-85277500D02*
X147070000Y-85277500D01*
X147310000Y-84947500D01*
X147550000Y-85277500D01*
G36*
X147550000Y-85277500D02*
G01*
X147070000Y-85277500D01*
X147310000Y-84947500D01*
X147550000Y-85277500D01*
G37*
%TO.C,C5*%
X156714165Y-81040000D02*
X156945835Y-81040000D01*
X156714165Y-81760000D02*
X156945835Y-81760000D01*
%TO.C,R3*%
X148965000Y-95277621D02*
X148965000Y-94942379D01*
X149725000Y-95277621D02*
X149725000Y-94942379D01*
%TO.C,D3*%
X144104003Y-109074219D02*
X145082181Y-111761741D01*
X145082181Y-111761741D02*
X146886390Y-111105061D01*
X146886390Y-111105061D02*
X145908213Y-108417540D01*
%TO.C,C2*%
X151510000Y-89524165D02*
X151510000Y-89755835D01*
X152230000Y-89524165D02*
X152230000Y-89755835D01*
%TO.C,C3*%
X149780000Y-105858335D02*
X149780000Y-105626665D01*
X150500000Y-105858335D02*
X150500000Y-105626665D01*
%TO.C,R7*%
X157192379Y-103750000D02*
X157527621Y-103750000D01*
X157192379Y-104510000D02*
X157527621Y-104510000D01*
%TO.C,R4*%
X147830000Y-94942379D02*
X147830000Y-95277621D01*
X148590000Y-94942379D02*
X148590000Y-95277621D01*
%TO.C,R2*%
X146695000Y-95277621D02*
X146695000Y-94942379D01*
X147455000Y-95277621D02*
X147455000Y-94942379D01*
%TO.C,D2*%
X142756445Y-105371831D02*
X143734623Y-108059353D01*
X143734623Y-108059353D02*
X145538832Y-107402673D01*
X145538832Y-107402673D02*
X144560655Y-104715152D01*
%TO.C,R6*%
X157527621Y-105050000D02*
X157192379Y-105050000D01*
X157527621Y-105810000D02*
X157192379Y-105810000D01*
%TO.C,R10*%
X158012379Y-82200000D02*
X158347621Y-82200000D01*
X158012379Y-82960000D02*
X158347621Y-82960000D01*
%TO.C,R5*%
X150100000Y-94942379D02*
X150100000Y-95277621D01*
X150860000Y-94942379D02*
X150860000Y-95277621D01*
%TO.C,R14*%
X149517621Y-78940000D02*
X149182379Y-78940000D01*
X149517621Y-79700000D02*
X149182379Y-79700000D01*
%TO.C,D1*%
X141408888Y-101669444D02*
X142387066Y-104356966D01*
X142387066Y-104356966D02*
X144191275Y-103700286D01*
X144191275Y-103700286D02*
X143213098Y-101012765D01*
%TO.C,R13*%
X153270000Y-98722379D02*
X153270000Y-99057621D01*
X154030000Y-98722379D02*
X154030000Y-99057621D01*
%TO.C,R8*%
X149770000Y-103134879D02*
X149770000Y-103470121D01*
X150530000Y-103134879D02*
X150530000Y-103470121D01*
%TO.C,Q1*%
X145992500Y-78040000D02*
X145192500Y-78040000D01*
X145992500Y-78040000D02*
X146792500Y-78040000D01*
X145992500Y-81160000D02*
X145192500Y-81160000D01*
X145992500Y-81160000D02*
X146792500Y-81160000D01*
X147532500Y-81440000D02*
X147052500Y-81440000D01*
X147292500Y-81110000D01*
X147532500Y-81440000D01*
G36*
X147532500Y-81440000D02*
G01*
X147052500Y-81440000D01*
X147292500Y-81110000D01*
X147532500Y-81440000D01*
G37*
%TO.C,R9*%
X152857621Y-101950000D02*
X152522379Y-101950000D01*
X152857621Y-102710000D02*
X152522379Y-102710000D01*
%TO.C,R12*%
X154037621Y-78420000D02*
X153702379Y-78420000D01*
X154037621Y-79180000D02*
X153702379Y-79180000D01*
%TO.C,C1*%
X145380000Y-89524165D02*
X145380000Y-89755835D01*
X146100000Y-89524165D02*
X146100000Y-89755835D01*
%TO.C,C6*%
X153754165Y-79700000D02*
X153985835Y-79700000D01*
X153754165Y-80420000D02*
X153985835Y-80420000D01*
%TO.C,R15*%
X150900000Y-82882379D02*
X150900000Y-83217621D01*
X151660000Y-82882379D02*
X151660000Y-83217621D01*
%TO.C,R11*%
X155837621Y-82200000D02*
X155502379Y-82200000D01*
X155837621Y-82960000D02*
X155502379Y-82960000D01*
%TO.C,U4*%
X148450000Y-80770000D02*
X148450000Y-82340000D01*
X150250000Y-80975000D02*
X150250000Y-82335000D01*
X150530000Y-80655000D02*
X150250000Y-80655000D01*
X150250000Y-80375000D01*
X150530000Y-80655000D01*
G36*
X150530000Y-80655000D02*
G01*
X150250000Y-80655000D01*
X150250000Y-80375000D01*
X150530000Y-80655000D01*
G37*
%TO.C,C4*%
X157244165Y-106360000D02*
X157475835Y-106360000D01*
X157244165Y-107080000D02*
X157475835Y-107080000D01*
%TO.C,SW1*%
X146960000Y-97480000D02*
X146960000Y-100140000D01*
X149560000Y-97480000D02*
X146960000Y-97480000D01*
X149560000Y-97480000D02*
X149560000Y-100140000D01*
X149560000Y-100140000D02*
X146960000Y-100140000D01*
X150830000Y-97480000D02*
X152160000Y-97480000D01*
X152160000Y-97480000D02*
X152160000Y-98810000D01*
%TO.C,R1*%
X145560000Y-95277621D02*
X145560000Y-94942379D01*
X146320000Y-95277621D02*
X146320000Y-94942379D01*
%TO.C,D4*%
X150680000Y-107990000D02*
X150680000Y-113500000D01*
X153980000Y-107990000D02*
X150680000Y-107990000D01*
X153980000Y-107990000D02*
X153980000Y-113500000D01*
%TD*%
M02*
