%TF.GenerationSoftware,KiCad,Pcbnew,8.0.5*%
%TF.CreationDate,2025-01-30T00:47:00+01:00*%
%TF.ProjectId,LAMP_OUTDOOR_BATTERY,4c414d50-5f4f-4555-9444-4f4f525f4241,rev?*%
%TF.SameCoordinates,Original*%
%TF.FileFunction,Legend,Bot*%
%TF.FilePolarity,Positive*%
%FSLAX46Y46*%
G04 Gerber Fmt 4.6, Leading zero omitted, Abs format (unit mm)*
G04 Created by KiCad (PCBNEW 8.0.5) date 2025-01-30 00:47:00*
%MOMM*%
%LPD*%
G01*
G04 APERTURE LIST*
%ADD10C,0.100000*%
G04 APERTURE END LIST*
D10*
G36*
X150210956Y-94280264D02*
G01*
X150294075Y-94317787D01*
X150340357Y-94409554D01*
X150345366Y-94470195D01*
X150345366Y-94486803D01*
X150345366Y-94606971D01*
X149751367Y-94606971D01*
X149751367Y-94430628D01*
X149775273Y-94332625D01*
X149793866Y-94310460D01*
X149887708Y-94274472D01*
X149941877Y-94271381D01*
X150110404Y-94271381D01*
X150210956Y-94280264D01*
G37*
G36*
X151050360Y-94312771D02*
G01*
X151109357Y-94339769D01*
X151156489Y-94429914D01*
X151158206Y-94458960D01*
X151158206Y-94606971D01*
X150626734Y-94606971D01*
X150626734Y-94486803D01*
X150645815Y-94389526D01*
X150675582Y-94348562D01*
X150768096Y-94307639D01*
X150839225Y-94302156D01*
X150951577Y-94302156D01*
X151050360Y-94312771D01*
G37*
G36*
X151086399Y-93347166D02*
G01*
X151086399Y-93352540D01*
X150126524Y-93486873D01*
X150126524Y-93209902D01*
X151086399Y-93347166D01*
G37*
G36*
X151057133Y-89119166D02*
G01*
X151110334Y-89145212D01*
X151156523Y-89235035D01*
X151158206Y-89263914D01*
X151158206Y-89403621D01*
X150595471Y-89403621D01*
X150595471Y-89291758D01*
X150614170Y-89194481D01*
X150643342Y-89153517D01*
X150733943Y-89112594D01*
X150803565Y-89107110D01*
X150955484Y-89107110D01*
X151057133Y-89119166D01*
G37*
G36*
X150232060Y-85355130D02*
G01*
X150314523Y-85409304D01*
X150345152Y-85504576D01*
X150345366Y-85515275D01*
X150319449Y-85614005D01*
X150232060Y-85674970D01*
X150126036Y-85688688D01*
X149939434Y-85688688D01*
X149833410Y-85674970D01*
X149750947Y-85620948D01*
X149720318Y-85525944D01*
X149720104Y-85515275D01*
X149746021Y-85416267D01*
X149833410Y-85355130D01*
X149939434Y-85341374D01*
X150126036Y-85341374D01*
X150232060Y-85355130D01*
G37*
G36*
X151084995Y-85365477D02*
G01*
X151165572Y-85422664D01*
X151189469Y-85515275D01*
X151161030Y-85614102D01*
X151075713Y-85667316D01*
X150987236Y-85677452D01*
X150828967Y-85677452D01*
X150731208Y-85664624D01*
X150650630Y-85607608D01*
X150626734Y-85515275D01*
X150655173Y-85416151D01*
X150740490Y-85362776D01*
X150828967Y-85352609D01*
X150987236Y-85352609D01*
X151084995Y-85365477D01*
G37*
G36*
X150376679Y-84243178D02*
G01*
X150454730Y-84309894D01*
X150470418Y-84386873D01*
X150442529Y-84484212D01*
X150358860Y-84536625D01*
X150272093Y-84546608D01*
X149915498Y-84546608D01*
X149812459Y-84531009D01*
X149735560Y-84464089D01*
X149720104Y-84386873D01*
X149747581Y-84289832D01*
X149839363Y-84235247D01*
X149915498Y-84227627D01*
X150272093Y-84227627D01*
X150376679Y-84243178D01*
G37*
G36*
X151097346Y-82012312D02*
G01*
X151174052Y-82079232D01*
X151189469Y-82156448D01*
X151162061Y-82253488D01*
X151070508Y-82308074D01*
X150994563Y-82315694D01*
X149915010Y-82315694D01*
X149812228Y-82300142D01*
X149735522Y-82233427D01*
X149720104Y-82156448D01*
X149747513Y-82059109D01*
X149839065Y-82004356D01*
X149915010Y-81996713D01*
X150994563Y-81996713D01*
X151097346Y-82012312D01*
G37*
G36*
X151693059Y-95137427D02*
G01*
X149216514Y-95137427D01*
X149216514Y-94430628D01*
X149470000Y-94430628D01*
X149470000Y-94915205D01*
X151439574Y-94915205D01*
X151439574Y-94450167D01*
X151434174Y-94352260D01*
X151414780Y-94255479D01*
X151370702Y-94157171D01*
X151326734Y-94103342D01*
X151244636Y-94045640D01*
X151150436Y-94011980D01*
X151050548Y-93996593D01*
X150980397Y-93993921D01*
X150900286Y-93993921D01*
X150801194Y-93999751D01*
X150701350Y-94021673D01*
X150649204Y-94043258D01*
X150565917Y-94105052D01*
X150509497Y-94192735D01*
X150504124Y-94192735D01*
X150457985Y-94103276D01*
X150376004Y-94027943D01*
X150278674Y-93985567D01*
X150176235Y-93966734D01*
X150098192Y-93963147D01*
X149931618Y-93963147D01*
X149825709Y-93970596D01*
X149722544Y-93996785D01*
X149627767Y-94048000D01*
X149588213Y-94082337D01*
X149525874Y-94167355D01*
X149489509Y-94262388D01*
X149472886Y-94361588D01*
X149470000Y-94430628D01*
X149216514Y-94430628D01*
X149216514Y-93117578D01*
X149470000Y-93117578D01*
X149845157Y-93173265D01*
X149845157Y-93486873D01*
X149845157Y-93523510D01*
X149470000Y-93579685D01*
X149470000Y-93864961D01*
X151439574Y-93545980D01*
X151439574Y-93128813D01*
X149470000Y-92809344D01*
X149470000Y-93117578D01*
X149216514Y-93117578D01*
X149216514Y-92242700D01*
X149470000Y-92242700D01*
X149470000Y-92550446D01*
X151158206Y-92550446D01*
X151158206Y-92872358D01*
X151439574Y-92872358D01*
X151439574Y-91920300D01*
X151158206Y-91920300D01*
X151158206Y-92242700D01*
X149470000Y-92242700D01*
X149216514Y-92242700D01*
X149216514Y-91197341D01*
X149470000Y-91197341D01*
X149470000Y-91505087D01*
X151158206Y-91505087D01*
X151158206Y-91826999D01*
X151439574Y-91826999D01*
X151439574Y-90874940D01*
X151158206Y-90874940D01*
X151158206Y-91197341D01*
X149470000Y-91197341D01*
X149216514Y-91197341D01*
X149216514Y-90727906D01*
X149470000Y-90727906D01*
X151439574Y-90727906D01*
X151439574Y-89887711D01*
X151158206Y-89887711D01*
X151158206Y-90419672D01*
X150626734Y-90419672D01*
X150626734Y-89997131D01*
X150345366Y-89997131D01*
X150345366Y-90419672D01*
X149751367Y-90419672D01*
X149751367Y-89887711D01*
X149470000Y-89887711D01*
X149470000Y-90727906D01*
X149216514Y-90727906D01*
X149216514Y-89076336D01*
X149470000Y-89076336D01*
X149559881Y-89098806D01*
X149661272Y-89103844D01*
X149711800Y-89104180D01*
X150072302Y-89104180D01*
X150174657Y-89112501D01*
X150260369Y-89147655D01*
X150308855Y-89237217D01*
X150313594Y-89291758D01*
X150314103Y-89297620D01*
X150314103Y-89403621D01*
X149470000Y-89403621D01*
X149470000Y-89711856D01*
X151439574Y-89711856D01*
X151439574Y-89255610D01*
X151434244Y-89157513D01*
X151415102Y-89060571D01*
X151371596Y-88962149D01*
X151328199Y-88908297D01*
X151246855Y-88850594D01*
X151153578Y-88816935D01*
X151054705Y-88801547D01*
X150985282Y-88798876D01*
X150864138Y-88798876D01*
X150756684Y-88805969D01*
X150651421Y-88832172D01*
X150557624Y-88885760D01*
X150492098Y-88964567D01*
X150474815Y-89000621D01*
X150469441Y-89000621D01*
X150422386Y-88910239D01*
X150344419Y-88848837D01*
X150331688Y-88842840D01*
X150235621Y-88812794D01*
X150136325Y-88799334D01*
X150053740Y-88796434D01*
X149708381Y-88796434D01*
X149607861Y-88793894D01*
X149572093Y-88791060D01*
X149476294Y-88765472D01*
X149470000Y-88762728D01*
X149470000Y-89076336D01*
X149216514Y-89076336D01*
X149216514Y-88038792D01*
X149470000Y-88038792D01*
X149470000Y-88346538D01*
X150296517Y-88346538D01*
X151439574Y-88718764D01*
X151439574Y-88391479D01*
X150698541Y-88181430D01*
X150698541Y-88175568D01*
X151439574Y-87966008D01*
X151439574Y-87666078D01*
X150296517Y-88038792D01*
X149470000Y-88038792D01*
X149216514Y-88038792D01*
X149216514Y-86648562D01*
X149470000Y-86648562D01*
X150970628Y-86648562D01*
X150970628Y-86970474D01*
X151189469Y-86970474D01*
X151193178Y-86872255D01*
X151207924Y-86774833D01*
X151211939Y-86759448D01*
X151254695Y-86668397D01*
X151287166Y-86631953D01*
X151371430Y-86576693D01*
X151439574Y-86547934D01*
X151439574Y-86340816D01*
X149470000Y-86340816D01*
X149470000Y-86648562D01*
X149216514Y-86648562D01*
X149216514Y-85515275D01*
X149438736Y-85515275D01*
X149446491Y-85624604D01*
X149469755Y-85720561D01*
X149514466Y-85812529D01*
X149562812Y-85872358D01*
X149641298Y-85932572D01*
X149737173Y-85973080D01*
X149836992Y-85992543D01*
X149920872Y-85996922D01*
X150093307Y-85996922D01*
X150195592Y-85990259D01*
X150291671Y-85968002D01*
X150337062Y-85949539D01*
X150420474Y-85891779D01*
X150481088Y-85814629D01*
X150491912Y-85795177D01*
X150497773Y-85795177D01*
X150557730Y-85875499D01*
X150641795Y-85936330D01*
X150647739Y-85939281D01*
X150741946Y-85971004D01*
X150847340Y-85984554D01*
X150892470Y-85985687D01*
X150975512Y-85985687D01*
X151075259Y-85979867D01*
X151176032Y-85958961D01*
X151272542Y-85917268D01*
X151343342Y-85864054D01*
X151404973Y-85787092D01*
X151446434Y-85693592D01*
X151466355Y-85596597D01*
X151470837Y-85515275D01*
X151462868Y-85408297D01*
X151434854Y-85303711D01*
X151386670Y-85215818D01*
X151343342Y-85166496D01*
X151262937Y-85107699D01*
X151164602Y-85068145D01*
X151062142Y-85049140D01*
X150976001Y-85044863D01*
X150892958Y-85044863D01*
X150792014Y-85051544D01*
X150689959Y-85076224D01*
X150594048Y-85126699D01*
X150520241Y-85200926D01*
X150498262Y-85234884D01*
X150492889Y-85234884D01*
X150435507Y-85153353D01*
X150355765Y-85090899D01*
X150337550Y-85081500D01*
X150242328Y-85048775D01*
X150138000Y-85034797D01*
X150093796Y-85033628D01*
X149920872Y-85033628D01*
X149810749Y-85041413D01*
X149714364Y-85064769D01*
X149622354Y-85109656D01*
X149562812Y-85158192D01*
X149502834Y-85236799D01*
X149462485Y-85332484D01*
X149443098Y-85431876D01*
X149438736Y-85515275D01*
X149216514Y-85515275D01*
X149216514Y-84386873D01*
X149438736Y-84386873D01*
X149446857Y-84493790D01*
X149475408Y-84598161D01*
X149524515Y-84685685D01*
X149568674Y-84734675D01*
X149650225Y-84792764D01*
X149748702Y-84831842D01*
X149850444Y-84850618D01*
X149935526Y-84854842D01*
X150956950Y-84854842D01*
X151077392Y-84847492D01*
X151181775Y-84825442D01*
X151289672Y-84777206D01*
X151372476Y-84706001D01*
X151430188Y-84611827D01*
X151462807Y-84494684D01*
X151470837Y-84384431D01*
X151462899Y-84279009D01*
X151434992Y-84176395D01*
X151386993Y-84090704D01*
X151343831Y-84042979D01*
X151263932Y-83986071D01*
X151166568Y-83947788D01*
X151065359Y-83929393D01*
X150980397Y-83925254D01*
X150944249Y-83925254D01*
X150944249Y-84216392D01*
X150999448Y-84216392D01*
X151099655Y-84231943D01*
X151174438Y-84298659D01*
X151189469Y-84375638D01*
X151164533Y-84473953D01*
X151136713Y-84504598D01*
X151039283Y-84540700D01*
X150950600Y-84546608D01*
X150578374Y-84546608D01*
X150578374Y-84541235D01*
X150662201Y-84486074D01*
X150723166Y-84403031D01*
X150749076Y-84308715D01*
X150751786Y-84260844D01*
X150737991Y-84155177D01*
X150691474Y-84061628D01*
X150635038Y-84006343D01*
X150542306Y-83956839D01*
X150447887Y-83931620D01*
X150349945Y-83920751D01*
X150296029Y-83919392D01*
X149939923Y-83919392D01*
X149840393Y-83925166D01*
X149739353Y-83945904D01*
X149641885Y-83987261D01*
X149569651Y-84040048D01*
X149506367Y-84116066D01*
X149463794Y-84208931D01*
X149443339Y-84305620D01*
X149438736Y-84386873D01*
X149216514Y-84386873D01*
X149216514Y-83270195D01*
X149438736Y-83270195D01*
X149446644Y-83375647D01*
X149474443Y-83478369D01*
X149522258Y-83564244D01*
X149565254Y-83612135D01*
X149645389Y-83668807D01*
X149742912Y-83706932D01*
X149844197Y-83725250D01*
X149929176Y-83729371D01*
X150082561Y-83729371D01*
X150082561Y-83438234D01*
X149908171Y-83438234D01*
X149808995Y-83422635D01*
X149734981Y-83355715D01*
X149720104Y-83278499D01*
X149746551Y-83181458D01*
X149834891Y-83126873D01*
X149908171Y-83119253D01*
X150341946Y-83119253D01*
X150442668Y-83134804D01*
X150517836Y-83201520D01*
X150532944Y-83278499D01*
X150504918Y-83375838D01*
X150420837Y-83428251D01*
X150333642Y-83438234D01*
X150333642Y-83729371D01*
X151439574Y-83673684D01*
X151439574Y-82861332D01*
X151158206Y-82861332D01*
X151158206Y-83399155D01*
X150669232Y-83424068D01*
X150669232Y-83418695D01*
X150745739Y-83355335D01*
X150797169Y-83264812D01*
X150814170Y-83163584D01*
X150814312Y-83152470D01*
X150803149Y-83055412D01*
X150760285Y-82959974D01*
X150700006Y-82897969D01*
X150609520Y-82848465D01*
X150506022Y-82821293D01*
X150408661Y-82811783D01*
X150368813Y-82811018D01*
X149928688Y-82811018D01*
X149830487Y-82816652D01*
X149731080Y-82836886D01*
X149635596Y-82877239D01*
X149565254Y-82928743D01*
X149498536Y-83012673D01*
X149459617Y-83105912D01*
X149441825Y-83202868D01*
X149438736Y-83270195D01*
X149216514Y-83270195D01*
X149216514Y-82156448D01*
X149438736Y-82156448D01*
X149446857Y-82263151D01*
X149475408Y-82367355D01*
X149524515Y-82454788D01*
X149568674Y-82503761D01*
X149650225Y-82561850D01*
X149748702Y-82600928D01*
X149850444Y-82619704D01*
X149935526Y-82623928D01*
X150974047Y-82623928D01*
X151072578Y-82618178D01*
X151172649Y-82597524D01*
X151269245Y-82556334D01*
X151340900Y-82503761D01*
X151403711Y-82427507D01*
X151445966Y-82334483D01*
X151466269Y-82237717D01*
X151470837Y-82156448D01*
X151462716Y-82049561D01*
X151434165Y-81945297D01*
X151385058Y-81857958D01*
X151340900Y-81809134D01*
X151259348Y-81750809D01*
X151160872Y-81711573D01*
X151059129Y-81692720D01*
X150974047Y-81688478D01*
X149935526Y-81688478D01*
X149836995Y-81694252D01*
X149736924Y-81714990D01*
X149640328Y-81756347D01*
X149568674Y-81809134D01*
X149505862Y-81885191D01*
X149463607Y-81978171D01*
X149443305Y-82075029D01*
X149438736Y-82156448D01*
X149216514Y-82156448D01*
X149216514Y-81466256D01*
X151693059Y-81466256D01*
X151693059Y-95137427D01*
G37*
G36*
X153851351Y-95137427D02*
G01*
X153851351Y-94829193D01*
X152163144Y-94829193D01*
X152163144Y-94322633D01*
X151881777Y-94322633D01*
X151881777Y-95137427D01*
X153851351Y-95137427D01*
G37*
G36*
X153851351Y-93509305D02*
G01*
X153851351Y-93926471D01*
X151881777Y-94245452D01*
X151881777Y-93960177D01*
X152256934Y-93904001D01*
X152256934Y-93867365D01*
X152538301Y-93867365D01*
X153498176Y-93733031D01*
X153498176Y-93727658D01*
X152538301Y-93590393D01*
X152538301Y-93867365D01*
X152256934Y-93867365D01*
X152256934Y-93553757D01*
X151881777Y-93498069D01*
X151881777Y-93189835D01*
X153851351Y-93509305D01*
G37*
G36*
X153851351Y-93042801D02*
G01*
X153851351Y-92603164D01*
X152433765Y-92407281D01*
X152433765Y-92401419D01*
X153851351Y-92205536D01*
X153851351Y-91765899D01*
X151881777Y-91765899D01*
X151881777Y-92057037D01*
X153352118Y-92057037D01*
X153352118Y-92062898D01*
X151881777Y-92286625D01*
X151881777Y-92544545D01*
X153352118Y-92768272D01*
X153352118Y-92774134D01*
X151881777Y-92774134D01*
X151881777Y-93042801D01*
X153851351Y-93042801D01*
G37*
G36*
X153440461Y-90626134D02*
G01*
X153542844Y-90642277D01*
X153640947Y-90677589D01*
X153728741Y-90738125D01*
X153764063Y-90776801D01*
X153816747Y-90870968D01*
X153843688Y-90974888D01*
X153851351Y-91082508D01*
X153851351Y-91536311D01*
X151881777Y-91536311D01*
X151881777Y-91228076D01*
X152694617Y-91228076D01*
X152694617Y-91082508D01*
X152975984Y-91082508D01*
X152975984Y-91228076D01*
X153569983Y-91228076D01*
X153569983Y-91082508D01*
X153568969Y-91059918D01*
X153528462Y-90969667D01*
X153485213Y-90944998D01*
X153387778Y-90931566D01*
X153158190Y-90931566D01*
X153112211Y-90933947D01*
X153017506Y-90969667D01*
X153001327Y-90987923D01*
X152975984Y-91082508D01*
X152694617Y-91082508D01*
X152697610Y-91013564D01*
X152714852Y-90914913D01*
X152752569Y-90821082D01*
X152817227Y-90738125D01*
X152885676Y-90687903D01*
X152979760Y-90648554D01*
X153078571Y-90628824D01*
X153176752Y-90623331D01*
X153369215Y-90623331D01*
X153440461Y-90626134D01*
G37*
G36*
X153470906Y-89099590D02*
G01*
X153572649Y-89118442D01*
X153671125Y-89157679D01*
X153752677Y-89216004D01*
X153796835Y-89264828D01*
X153845942Y-89352167D01*
X153874493Y-89456430D01*
X153882614Y-89563317D01*
X153878046Y-89644587D01*
X153857743Y-89741353D01*
X153815488Y-89834377D01*
X153752677Y-89910630D01*
X153681022Y-89963204D01*
X153584426Y-90004394D01*
X153484355Y-90025048D01*
X153385824Y-90030798D01*
X152347303Y-90030798D01*
X152262221Y-90026573D01*
X152160479Y-90007797D01*
X152062002Y-89968719D01*
X151980451Y-89910630D01*
X151936292Y-89861658D01*
X151887185Y-89774224D01*
X151858634Y-89670021D01*
X151850513Y-89563317D01*
X152131881Y-89563317D01*
X152147299Y-89640297D01*
X152224005Y-89707012D01*
X152326787Y-89722563D01*
X153406340Y-89722563D01*
X153482285Y-89714943D01*
X153573838Y-89660358D01*
X153601246Y-89563317D01*
X153585829Y-89486102D01*
X153509123Y-89419181D01*
X153406340Y-89403582D01*
X152326787Y-89403582D01*
X152250842Y-89411226D01*
X152159290Y-89465979D01*
X152131881Y-89563317D01*
X151850513Y-89563317D01*
X151855082Y-89481898D01*
X151875384Y-89385041D01*
X151917639Y-89292060D01*
X151980451Y-89216004D01*
X152052105Y-89163217D01*
X152148701Y-89121859D01*
X152248772Y-89101121D01*
X152347303Y-89095348D01*
X153385824Y-89095348D01*
X153470906Y-89099590D01*
G37*
G36*
X151850513Y-88440777D02*
G01*
X151858512Y-88546015D01*
X151886634Y-88648570D01*
X151935002Y-88734355D01*
X151978497Y-88782228D01*
X152059533Y-88839137D01*
X152158112Y-88877420D01*
X152260465Y-88895815D01*
X152346326Y-88899954D01*
X153851351Y-88899954D01*
X153851351Y-88591719D01*
X152323368Y-88591719D01*
X152222924Y-88577426D01*
X152176822Y-88551175D01*
X152133461Y-88462072D01*
X152131881Y-88434915D01*
X152159311Y-88338542D01*
X152176822Y-88319144D01*
X152270894Y-88281357D01*
X152323368Y-88278111D01*
X153851351Y-88278111D01*
X153851351Y-87981600D01*
X152346326Y-87981600D01*
X152246913Y-87987234D01*
X152146293Y-88007468D01*
X152049663Y-88047821D01*
X151978497Y-88099325D01*
X151911005Y-88183045D01*
X151871636Y-88276258D01*
X151853638Y-88373322D01*
X151850513Y-88440777D01*
G37*
G36*
X153569983Y-87522424D02*
G01*
X153569983Y-87844336D01*
X153851351Y-87844336D01*
X153851351Y-86892277D01*
X153569983Y-86892277D01*
X153569983Y-87214678D01*
X151881777Y-87214678D01*
X151881777Y-87522424D01*
X153569983Y-87522424D01*
G37*
G36*
X153436651Y-85818457D02*
G01*
X153539874Y-85834600D01*
X153638776Y-85869913D01*
X153727275Y-85930449D01*
X153769442Y-85977533D01*
X153816333Y-86063292D01*
X153843596Y-86167212D01*
X153851351Y-86274831D01*
X153851351Y-86745243D01*
X151881777Y-86745243D01*
X151881777Y-86280205D01*
X152163144Y-86280205D01*
X152163144Y-86437009D01*
X153569983Y-86437009D01*
X153569983Y-86280205D01*
X153568403Y-86253214D01*
X153525042Y-86164434D01*
X153479176Y-86137867D01*
X153378497Y-86123401D01*
X152354631Y-86123401D01*
X152301960Y-86126647D01*
X152208085Y-86164434D01*
X152190574Y-86183831D01*
X152163144Y-86280205D01*
X151881777Y-86280205D01*
X151881777Y-86274831D01*
X151884794Y-86205888D01*
X151902173Y-86107236D01*
X151940191Y-86013406D01*
X152005363Y-85930449D01*
X152074576Y-85880227D01*
X152169591Y-85840878D01*
X152269296Y-85821148D01*
X152368308Y-85815655D01*
X153364819Y-85815655D01*
X153436651Y-85818457D01*
G37*
G36*
X153470906Y-84701264D02*
G01*
X153572649Y-84720117D01*
X153671125Y-84759354D01*
X153752677Y-84817679D01*
X153796835Y-84866502D01*
X153845942Y-84953842D01*
X153874493Y-85058105D01*
X153882614Y-85164992D01*
X153878046Y-85246262D01*
X153857743Y-85343028D01*
X153815488Y-85436051D01*
X153752677Y-85512305D01*
X153681022Y-85564879D01*
X153584426Y-85606069D01*
X153484355Y-85626723D01*
X153385824Y-85632473D01*
X152347303Y-85632473D01*
X152262221Y-85628248D01*
X152160479Y-85609472D01*
X152062002Y-85570394D01*
X151980451Y-85512305D01*
X151936292Y-85463333D01*
X151887185Y-85375899D01*
X151858634Y-85271696D01*
X151850513Y-85164992D01*
X152131881Y-85164992D01*
X152147299Y-85241971D01*
X152224005Y-85308687D01*
X152326787Y-85324238D01*
X153406340Y-85324238D01*
X153482285Y-85316618D01*
X153573838Y-85262033D01*
X153601246Y-85164992D01*
X153585829Y-85087776D01*
X153509123Y-85020856D01*
X153406340Y-85005257D01*
X152326787Y-85005257D01*
X152250842Y-85012901D01*
X152159290Y-85067654D01*
X152131881Y-85164992D01*
X151850513Y-85164992D01*
X151855082Y-85083573D01*
X151875384Y-84986716D01*
X151917639Y-84893735D01*
X151980451Y-84817679D01*
X152052105Y-84764892D01*
X152148701Y-84723534D01*
X152248772Y-84702796D01*
X152347303Y-84697023D01*
X153385824Y-84697023D01*
X153470906Y-84701264D01*
G37*
G36*
X153470906Y-83581655D02*
G01*
X153572649Y-83600508D01*
X153671125Y-83639744D01*
X153752677Y-83698069D01*
X153796835Y-83746893D01*
X153845942Y-83834232D01*
X153874493Y-83938496D01*
X153882614Y-84045383D01*
X153878046Y-84126653D01*
X153857743Y-84223419D01*
X153815488Y-84316442D01*
X153752677Y-84392696D01*
X153681022Y-84445269D01*
X153584426Y-84486460D01*
X153484355Y-84507113D01*
X153385824Y-84512864D01*
X152347303Y-84512864D01*
X152262221Y-84508639D01*
X152160479Y-84489863D01*
X152062002Y-84450785D01*
X151980451Y-84392696D01*
X151936292Y-84343723D01*
X151887185Y-84256290D01*
X151858634Y-84152086D01*
X151850513Y-84045383D01*
X152131881Y-84045383D01*
X152147299Y-84122362D01*
X152224005Y-84189078D01*
X152326787Y-84204629D01*
X153406340Y-84204629D01*
X153482285Y-84197009D01*
X153573838Y-84142423D01*
X153601246Y-84045383D01*
X153585829Y-83968167D01*
X153509123Y-83901247D01*
X153406340Y-83885648D01*
X152326787Y-83885648D01*
X152250842Y-83893291D01*
X152159290Y-83948044D01*
X152131881Y-84045383D01*
X151850513Y-84045383D01*
X151855082Y-83963964D01*
X151875384Y-83867106D01*
X151917639Y-83774126D01*
X151980451Y-83698069D01*
X152052105Y-83645282D01*
X152148701Y-83603925D01*
X152248772Y-83583187D01*
X152347303Y-83577413D01*
X153385824Y-83577413D01*
X153470906Y-83581655D01*
G37*
G36*
X151888071Y-82424400D02*
G01*
X151983870Y-82449988D01*
X152019638Y-82452822D01*
X152120158Y-82455362D01*
X152465517Y-82455362D01*
X152548102Y-82458262D01*
X152647398Y-82471722D01*
X152743465Y-82501768D01*
X152756196Y-82507765D01*
X152834163Y-82569167D01*
X152881218Y-82659549D01*
X152886592Y-82659549D01*
X152903875Y-82623495D01*
X152969401Y-82544688D01*
X153063198Y-82491100D01*
X153168461Y-82464897D01*
X153275915Y-82457804D01*
X153397059Y-82457804D01*
X153466482Y-82460476D01*
X153565355Y-82475863D01*
X153658632Y-82509523D01*
X153739976Y-82567225D01*
X153783373Y-82621077D01*
X153826879Y-82719499D01*
X153846021Y-82816441D01*
X153851351Y-82914538D01*
X153851351Y-83370784D01*
X151881777Y-83370784D01*
X151881777Y-83062549D01*
X152725880Y-83062549D01*
X152725880Y-82956548D01*
X152725371Y-82950686D01*
X153007248Y-82950686D01*
X153007248Y-83062549D01*
X153569983Y-83062549D01*
X153569983Y-82922843D01*
X153568300Y-82893963D01*
X153522111Y-82804141D01*
X153468910Y-82778094D01*
X153367261Y-82766039D01*
X153215342Y-82766039D01*
X153145720Y-82771522D01*
X153055119Y-82812445D01*
X153025947Y-82853409D01*
X153007248Y-82950686D01*
X152725371Y-82950686D01*
X152720632Y-82896146D01*
X152672146Y-82806583D01*
X152586434Y-82771429D01*
X152484079Y-82763108D01*
X152123577Y-82763108D01*
X152073049Y-82762772D01*
X151971658Y-82757734D01*
X151881777Y-82735264D01*
X151881777Y-82421656D01*
X151888071Y-82424400D01*
G37*
G36*
X151097346Y-77582033D02*
G01*
X151174052Y-77648953D01*
X151189469Y-77726168D01*
X151162061Y-77823209D01*
X151070508Y-77877795D01*
X150994563Y-77885415D01*
X149915010Y-77885415D01*
X149812228Y-77869863D01*
X149735522Y-77803148D01*
X149720104Y-77726168D01*
X149747513Y-77628830D01*
X149839065Y-77574077D01*
X149915010Y-77566434D01*
X150994563Y-77566434D01*
X151097346Y-77582033D01*
G37*
G36*
X151693059Y-81188516D02*
G01*
X149216514Y-81188516D01*
X149216514Y-80260921D01*
X149470000Y-80260921D01*
X149470000Y-80669783D01*
X151439574Y-80966294D01*
X151439574Y-80655617D01*
X149905240Y-80453872D01*
X149905240Y-80448499D01*
X151439574Y-80246755D01*
X151439574Y-79963921D01*
X149470000Y-80260921D01*
X149216514Y-80260921D01*
X149216514Y-79385066D01*
X149470000Y-79385066D01*
X150970628Y-79385066D01*
X150970628Y-79706978D01*
X151189469Y-79706978D01*
X151193178Y-79608759D01*
X151207924Y-79511336D01*
X151211939Y-79495952D01*
X151254695Y-79404901D01*
X151287166Y-79368457D01*
X151371430Y-79313197D01*
X151439574Y-79284438D01*
X151439574Y-79077320D01*
X149470000Y-79077320D01*
X149470000Y-79385066D01*
X149216514Y-79385066D01*
X149216514Y-78696789D01*
X149470000Y-78696789D01*
X149751367Y-78696789D01*
X149751367Y-78399790D01*
X149470000Y-78399790D01*
X149470000Y-78696789D01*
X149216514Y-78696789D01*
X149216514Y-77726168D01*
X149438736Y-77726168D01*
X149446857Y-77832872D01*
X149475408Y-77937075D01*
X149524515Y-78024509D01*
X149568674Y-78073482D01*
X149650225Y-78131570D01*
X149748702Y-78170648D01*
X149850444Y-78189425D01*
X149935526Y-78193649D01*
X150974047Y-78193649D01*
X151072578Y-78187899D01*
X151172649Y-78167245D01*
X151269245Y-78126055D01*
X151340900Y-78073482D01*
X151403711Y-77997228D01*
X151445966Y-77904204D01*
X151466269Y-77807438D01*
X151470837Y-77726168D01*
X151462716Y-77619282D01*
X151434165Y-77515018D01*
X151385058Y-77427679D01*
X151340900Y-77378855D01*
X151259348Y-77320530D01*
X151160872Y-77281293D01*
X151059129Y-77262441D01*
X150974047Y-77258199D01*
X149935526Y-77258199D01*
X149836995Y-77263973D01*
X149736924Y-77284710D01*
X149640328Y-77326068D01*
X149568674Y-77378855D01*
X149505862Y-77454911D01*
X149463607Y-77547892D01*
X149443305Y-77644750D01*
X149438736Y-77726168D01*
X149216514Y-77726168D01*
X149216514Y-77035977D01*
X151693059Y-77035977D01*
X151693059Y-81188516D01*
G37*
G36*
X148464077Y-94016870D02*
G01*
X148464077Y-94020900D01*
X147744171Y-94121650D01*
X147744171Y-93913922D01*
X148464077Y-94016870D01*
G37*
G36*
X148472287Y-92164508D02*
G01*
X148529817Y-92214698D01*
X148541380Y-92272610D01*
X148520823Y-92345390D01*
X148452159Y-92386329D01*
X148395200Y-92392044D01*
X147585535Y-92392044D01*
X147508449Y-92380381D01*
X147450919Y-92330344D01*
X147439356Y-92272610D01*
X147459912Y-92199606D01*
X147528577Y-92158541D01*
X147585535Y-92152809D01*
X148395200Y-92152809D01*
X148472287Y-92164508D01*
G37*
G36*
X148464077Y-90700541D02*
G01*
X148464077Y-90704571D01*
X147744171Y-90805321D01*
X147744171Y-90597592D01*
X148464077Y-90700541D01*
G37*
G36*
X148442128Y-89742381D02*
G01*
X148482029Y-89761915D01*
X148516670Y-89829282D01*
X148517932Y-89850942D01*
X148517932Y-89955722D01*
X148095881Y-89955722D01*
X148095881Y-89871825D01*
X148109906Y-89798867D01*
X148131784Y-89768143D01*
X148199735Y-89737452D01*
X148251952Y-89733339D01*
X148365891Y-89733339D01*
X148442128Y-89742381D01*
G37*
G36*
X148449827Y-88885797D02*
G01*
X148484227Y-88905722D01*
X148516747Y-88972307D01*
X148517932Y-88992550D01*
X148517932Y-89110153D01*
X147462803Y-89110153D01*
X147462803Y-88992550D01*
X147483376Y-88920270D01*
X147496509Y-88905722D01*
X147566915Y-88877382D01*
X147606418Y-88874947D01*
X148374318Y-88874947D01*
X148449827Y-88885797D01*
G37*
G36*
X148464077Y-87826779D02*
G01*
X148464077Y-87830809D01*
X147744171Y-87931559D01*
X147744171Y-87723831D01*
X148464077Y-87826779D01*
G37*
G36*
X148442128Y-86868619D02*
G01*
X148482029Y-86888154D01*
X148516670Y-86955521D01*
X148517932Y-86977180D01*
X148517932Y-87081961D01*
X148095881Y-87081961D01*
X148095881Y-86998063D01*
X148109906Y-86925105D01*
X148131784Y-86894382D01*
X148199735Y-86863690D01*
X148251952Y-86859578D01*
X148365891Y-86859578D01*
X148442128Y-86868619D01*
G37*
G36*
X148464077Y-85243178D02*
G01*
X148464077Y-85247208D01*
X147744171Y-85347959D01*
X147744171Y-85140230D01*
X148464077Y-85243178D01*
G37*
G36*
X148449827Y-83432831D02*
G01*
X148484227Y-83452756D01*
X148516747Y-83519341D01*
X148517932Y-83539585D01*
X148517932Y-83657187D01*
X147462803Y-83657187D01*
X147462803Y-83539585D01*
X147483376Y-83467304D01*
X147496509Y-83452756D01*
X147566915Y-83424416D01*
X147606418Y-83421982D01*
X148374318Y-83421982D01*
X148449827Y-83432831D01*
G37*
G36*
X148919073Y-95166126D02*
G01*
X147061663Y-95166126D01*
X147061663Y-94768283D01*
X147251778Y-94768283D01*
X147251778Y-94999459D01*
X148728958Y-94999459D01*
X148728958Y-94388363D01*
X148517932Y-94388363D01*
X148517932Y-94768283D01*
X148095881Y-94768283D01*
X148095881Y-94470429D01*
X147884855Y-94470429D01*
X147884855Y-94768283D01*
X147251778Y-94768283D01*
X147061663Y-94768283D01*
X147061663Y-93844679D01*
X147251778Y-93844679D01*
X147533145Y-93886444D01*
X147533145Y-94121650D01*
X147533145Y-94149127D01*
X147251778Y-94191259D01*
X147251778Y-94405216D01*
X148728958Y-94165980D01*
X148728958Y-93853105D01*
X147251778Y-93613503D01*
X147251778Y-93844679D01*
X147061663Y-93844679D01*
X147061663Y-93015963D01*
X147251778Y-93015963D01*
X148314967Y-93293300D01*
X148314967Y-93297330D01*
X147251778Y-93297330D01*
X147251778Y-93503227D01*
X148728958Y-93503227D01*
X148728958Y-93213433D01*
X147836495Y-92988852D01*
X147836495Y-92984455D01*
X148728958Y-92984455D01*
X148728958Y-92778559D01*
X147251778Y-92778559D01*
X147251778Y-93015963D01*
X147061663Y-93015963D01*
X147061663Y-92272610D01*
X147228330Y-92272610D01*
X147234421Y-92352637D01*
X147255834Y-92430790D01*
X147292664Y-92496365D01*
X147325783Y-92533095D01*
X147386947Y-92576661D01*
X147460804Y-92605970D01*
X147537111Y-92620052D01*
X147600923Y-92623220D01*
X148379813Y-92623220D01*
X148453712Y-92618908D01*
X148528765Y-92603417D01*
X148601212Y-92572525D01*
X148654953Y-92533095D01*
X148702061Y-92475904D01*
X148733752Y-92406137D01*
X148748979Y-92333562D01*
X148752406Y-92272610D01*
X148746315Y-92192445D01*
X148724902Y-92114247D01*
X148688071Y-92048742D01*
X148654953Y-92012125D01*
X148593789Y-91968381D01*
X148519932Y-91938953D01*
X148443625Y-91924814D01*
X148379813Y-91921633D01*
X147600923Y-91921633D01*
X147527024Y-91925963D01*
X147451971Y-91941516D01*
X147379524Y-91972534D01*
X147325783Y-92012125D01*
X147278675Y-92069167D01*
X147246983Y-92138902D01*
X147231756Y-92211546D01*
X147228330Y-92272610D01*
X147061663Y-92272610D01*
X147061663Y-91302843D01*
X147251778Y-91302843D01*
X147251778Y-91609490D01*
X148728958Y-91831873D01*
X148728958Y-91598866D01*
X147578208Y-91447557D01*
X147578208Y-91443527D01*
X148728958Y-91292219D01*
X148728958Y-91080094D01*
X147251778Y-91302843D01*
X147061663Y-91302843D01*
X147061663Y-90528349D01*
X147251778Y-90528349D01*
X147533145Y-90570115D01*
X147533145Y-90805321D01*
X147533145Y-90832798D01*
X147251778Y-90874930D01*
X147251778Y-91088887D01*
X148728958Y-90849651D01*
X148728958Y-90536776D01*
X147251778Y-90297173D01*
X147251778Y-90528349D01*
X147061663Y-90528349D01*
X147061663Y-89710258D01*
X147251778Y-89710258D01*
X147319189Y-89727111D01*
X147395232Y-89730889D01*
X147433128Y-89731141D01*
X147703505Y-89731141D01*
X147780271Y-89737382D01*
X147844555Y-89763747D01*
X147880919Y-89830919D01*
X147884473Y-89871825D01*
X147884855Y-89876221D01*
X147884855Y-89955722D01*
X147251778Y-89955722D01*
X147251778Y-90186898D01*
X148728958Y-90186898D01*
X148728958Y-89844714D01*
X148724961Y-89771141D01*
X148710604Y-89698434D01*
X148677975Y-89624618D01*
X148645427Y-89584229D01*
X148584419Y-89540952D01*
X148514461Y-89515707D01*
X148440307Y-89504167D01*
X148388239Y-89502163D01*
X148297381Y-89502163D01*
X148216791Y-89507482D01*
X148137843Y-89527135D01*
X148067496Y-89567326D01*
X148018351Y-89626431D01*
X148005389Y-89653471D01*
X148001359Y-89653471D01*
X147966068Y-89585685D01*
X147907592Y-89539634D01*
X147898044Y-89535136D01*
X147825994Y-89512601D01*
X147751521Y-89502506D01*
X147689583Y-89500331D01*
X147430563Y-89500331D01*
X147355174Y-89498426D01*
X147328348Y-89496301D01*
X147256499Y-89477110D01*
X147251778Y-89475052D01*
X147251778Y-89710258D01*
X147061663Y-89710258D01*
X147061663Y-88988520D01*
X147251778Y-88988520D01*
X147251778Y-88992550D01*
X147251778Y-89341329D01*
X148728958Y-89341329D01*
X148728958Y-88988520D01*
X148723142Y-88907806D01*
X148702695Y-88829866D01*
X148667526Y-88765546D01*
X148635902Y-88730233D01*
X148569527Y-88684832D01*
X148495351Y-88658347D01*
X148417934Y-88646240D01*
X148364059Y-88644138D01*
X147616676Y-88644138D01*
X147542417Y-88648258D01*
X147467639Y-88663055D01*
X147396377Y-88692567D01*
X147344468Y-88730233D01*
X147295588Y-88792451D01*
X147267075Y-88862824D01*
X147254040Y-88936812D01*
X147251778Y-88988520D01*
X147061663Y-88988520D01*
X147061663Y-87654588D01*
X147251778Y-87654588D01*
X147533145Y-87696354D01*
X147533145Y-87931559D01*
X147533145Y-87959037D01*
X147251778Y-88001169D01*
X147251778Y-88215125D01*
X148728958Y-87975889D01*
X148728958Y-87663014D01*
X147251778Y-87423412D01*
X147251778Y-87654588D01*
X147061663Y-87654588D01*
X147061663Y-86836497D01*
X147251778Y-86836497D01*
X147319189Y-86853349D01*
X147395232Y-86857127D01*
X147433128Y-86857379D01*
X147703505Y-86857379D01*
X147780271Y-86863620D01*
X147844555Y-86889986D01*
X147880919Y-86957158D01*
X147884473Y-86998063D01*
X147884855Y-87002460D01*
X147884855Y-87081961D01*
X147251778Y-87081961D01*
X147251778Y-87313136D01*
X148728958Y-87313136D01*
X148728958Y-86970952D01*
X148724961Y-86897379D01*
X148710604Y-86824673D01*
X148677975Y-86750856D01*
X148645427Y-86710467D01*
X148584419Y-86667190D01*
X148514461Y-86641946D01*
X148440307Y-86630405D01*
X148388239Y-86628402D01*
X148297381Y-86628402D01*
X148216791Y-86633721D01*
X148137843Y-86653373D01*
X148067496Y-86693565D01*
X148018351Y-86752670D01*
X148005389Y-86779710D01*
X148001359Y-86779710D01*
X147966068Y-86711924D01*
X147907592Y-86665872D01*
X147898044Y-86661374D01*
X147825994Y-86638840D01*
X147751521Y-86628745D01*
X147689583Y-86626570D01*
X147430563Y-86626570D01*
X147355174Y-86624665D01*
X147328348Y-86622540D01*
X147256499Y-86603349D01*
X147251778Y-86601291D01*
X147251778Y-86836497D01*
X147061663Y-86836497D01*
X147061663Y-85980303D01*
X147251778Y-85980303D01*
X148314967Y-86257641D01*
X148314967Y-86261671D01*
X147251778Y-86261671D01*
X147251778Y-86467568D01*
X148728958Y-86467568D01*
X148728958Y-86177774D01*
X147836495Y-85953192D01*
X147836495Y-85948796D01*
X148728958Y-85948796D01*
X148728958Y-85742899D01*
X147251778Y-85742899D01*
X147251778Y-85980303D01*
X147061663Y-85980303D01*
X147061663Y-85070987D01*
X147251778Y-85070987D01*
X147533145Y-85112753D01*
X147533145Y-85347959D01*
X147533145Y-85375436D01*
X147251778Y-85417568D01*
X147251778Y-85631524D01*
X148728958Y-85392289D01*
X148728958Y-85079414D01*
X147251778Y-84839811D01*
X147251778Y-85070987D01*
X147061663Y-85070987D01*
X147061663Y-84396511D01*
X147228330Y-84396511D01*
X147234329Y-84475439D01*
X147255420Y-84552355D01*
X147291697Y-84616694D01*
X147324318Y-84652599D01*
X147385095Y-84695280D01*
X147459029Y-84723993D01*
X147535794Y-84737789D01*
X147600190Y-84740893D01*
X148728958Y-84740893D01*
X148728958Y-84509717D01*
X147582971Y-84509717D01*
X147507638Y-84498997D01*
X147473062Y-84479309D01*
X147440541Y-84412482D01*
X147439356Y-84392114D01*
X147459928Y-84319834D01*
X147473062Y-84305286D01*
X147543616Y-84276946D01*
X147582971Y-84274511D01*
X148728958Y-84274511D01*
X148728958Y-84052128D01*
X147600190Y-84052128D01*
X147525630Y-84056353D01*
X147450165Y-84071529D01*
X147377692Y-84101793D01*
X147324318Y-84140422D01*
X147273699Y-84203212D01*
X147244172Y-84273121D01*
X147230674Y-84345919D01*
X147228330Y-84396511D01*
X147061663Y-84396511D01*
X147061663Y-83535555D01*
X147251778Y-83535555D01*
X147251778Y-83539585D01*
X147251778Y-83888363D01*
X148728958Y-83888363D01*
X148728958Y-83535555D01*
X148723142Y-83454840D01*
X148702695Y-83376900D01*
X148667526Y-83312580D01*
X148635902Y-83277268D01*
X148569527Y-83231866D01*
X148495351Y-83205381D01*
X148417934Y-83193274D01*
X148364059Y-83191172D01*
X147616676Y-83191172D01*
X147542417Y-83195292D01*
X147467639Y-83210090D01*
X147396377Y-83239601D01*
X147344468Y-83277268D01*
X147295588Y-83339485D01*
X147267075Y-83409858D01*
X147254040Y-83483847D01*
X147251778Y-83535555D01*
X147061663Y-83535555D01*
X147061663Y-83024505D01*
X148919073Y-83024505D01*
X148919073Y-95166126D01*
G37*
M02*
